<svg xmlns="http://www.w3.org/2000/svg" width="192" height="192" fill="none" viewBox="0 0 192 192"><g clip-path="url(#ZuqRGGb3dwa)"><g stroke-linecap="round" stroke-linejoin="round" stroke-miterlimit="1.5" clip-path="url(#9lKZh-d-Phb)"><path fill="#6b8cce" fill-rule="evenodd" stroke="#6b8cce" d="M63.234 168.329c-.421-.158-.193-64.776.717-64.506 9.996 2.96 37.776 1.798 38.69 1.798.296 0-.465 65.367-.419 66.389.023.512-24.465 1.782-38.988-3.681" clip-rule="evenodd"/><path stroke="#1e3a6e" stroke-width="2.995" d="M87.368 9.138c.175 9.444.288 54.197.057 57.506-.5 7.164-20.055 21.048-20.166 29.147-.054 3.917-.283 76.906-.27 78.938.005.935 14.935 8.241 29.078 8.409 14.562.173 27.101-6.857 28.976-8.692.054-.053-.189-74.014-.282-78.255-.163-7.386-19.923-23.29-20.17-29.728-.049-1.309-.694-50.454-.45-57.533.02-.596-12.092.094-16.773.208" clip-rule="evenodd"/><path stroke="#1e3a6e" stroke-width="2.0001" d="M67.448 98.816c6.971 4.095 39.946 2.713 40.944 2.713.296 0-.465 65.367-.419 66.388.023.527-25.905 1.858-40.225-4.172"/><path stroke="#1e3a6e" stroke-width="2.0001" d="M73.095 109.279c.034 7.055.131 21.304.131 27.026m.149 5.032v15.735"/><path fill="#fff" fill-rule="evenodd" stroke="#1e3a6e" stroke-width="2.0001" d="M84.891 15.527c2.052.545 5.602 1.419 10.879 1.388 6.325-.038 11.25-1.39 11.25-1.345l.015 9.775c0 .435-6.47 1.78-10.785 1.866-4.553.09-11.278-1.324-11.299-1.961-.05-1.521-.055-8.72-.06-9.723" clip-rule="evenodd"/><path stroke="#1e3a6e" stroke-width="2.0001" d="M94.1 33.424v34.264"/><path stroke="#1e3a6e" stroke-width="2" d="M116.673 66.863c3.3 4.54 15.359 18.7 16.674 22.939 1.466 4.73.749 45.92.838 51.365m-77.048-16.599v46.886"/></g></g><defs><clipPath id="ZuqRGGb3dwa"><path fill="#fff" d="M0 0h192v192H0z"/></clipPath><clipPath id="9lKZh-d-Phb"><path fill="#fff" d="M0 0h192v192H0z"/></clipPath></defs></svg>