<svg xmlns="http://www.w3.org/2000/svg" width="192" height="192" fill="none" viewBox="0 0 192 192"><g clip-path="url(#CumcDicx2ra)"><g clip-path="url(#rSMIM4rLm9b)"><path fill="#6b8cce" stroke="#6b8cce" d="M133.846 73.292c0 16.214-13.144 29.358-29.358 29.358S75.131 89.506 75.131 73.292s13.144-29.357 29.357-29.357 29.358 13.143 29.358 29.357Zm-5.245 78.444h.015c10.753-.136 18.431.536 23.894 1.665 5.468 1.131 8.677 2.711 10.535 4.358 3.067 2.719 2.553 5.675 2.211 7.647-.066.381-.126.726-.153 1.024-.169 1.923-1.894 3.869-5.079 5.744-3.151 1.856-7.586 3.557-12.869 5.049-10.561 2.981-24.41 5.096-37.898 5.969-7.601.492-21.393-.831-33.592-3.908-6.097-1.538-11.766-3.507-16.052-5.888-4.312-2.397-7.097-5.14-7.667-8.171-.035-.186.012-.357.26-.561.276-.225.754-.442 1.466-.634 1.412-.38 3.53-.603 6.16-.731 3.473-.169 7.76-.168 12.353-.167 2.356.001 4.792.002 7.242-.021.548-.005 1.203.182 1.973.545.765.36 1.606.873 2.518 1.48.584.388 1.2.816 1.84 1.261 1.333.927 2.773 1.927 4.255 2.796 2.204 1.292 4.59 2.349 7.044 2.514 2.481.166 4.991-.582 7.409-2.812l-.34-.368.34.368c2.298-2.12 4.318-4.278 6.211-6.307l.119-.127c1.853-1.986 3.582-3.839 5.351-5.434 3.601-3.245 7.321-5.377 12.454-5.291Z"/><path stroke="#1e3a6e" stroke-linecap="round" stroke-linejoin="round" stroke-miterlimit="1.5" stroke-width="3.0008" d="M96.61 104.944c16.489 0 29.857-13.367 29.857-29.857S113.099 45.23 96.609 45.23 66.752 58.597 66.752 75.087s13.368 29.857 29.857 29.857"/><path stroke="#1e3a6e" stroke-linecap="round" stroke-linejoin="round" stroke-miterlimit="1.5" stroke-width="3" d="M96.111 168.196c-9.042-7.478-31.765-22.531-53.294-66.384-3.886-7.915-7.922-23.836-7.654-34.396.75-29.54 30.472-50.164 61.7-50.152 43.042.016 58.723 32.48 59.761 48.574.541 8.388-.546 22.86-6.863 35.982-17.372 36.08-42.949 57.16-53.65 66.376" clip-rule="evenodd"/><path stroke="#1e3a6e" stroke-linecap="round" stroke-linejoin="round" stroke-miterlimit="1.5" stroke-width="3" d="M79.977 155.186c-29.842-.506-45.994 4.964-45.807 9.59.509 12.595 49.062 14.461 61.856 14.419 27.082-.088 62.883-4.024 63.655-12.763.298-3.375-5.566-11.587-48.659-11.039"/><path stroke="#1e3a6e" stroke-linecap="round" stroke-linejoin="round" stroke-miterlimit="1.5" stroke-width="1.9953" d="M84.082 170.774c9.584 4.215 15.639 3.265 23.113.041"/><path stroke="#1e3a6e" stroke-linecap="round" stroke-linejoin="round" stroke-miterlimit="1.5" stroke-width="2" d="M60.581 44.231c-9.167 4.205-16.826 19.916-11.823 38.011M144.04 61.64c2.769 20.02.297 33.036-16.269 51.447m-76.474 36.595c-22.413-1.098-39.404 17.15-18.431 26.711M168.123 56.646c1.852 5.556 2.388 21.033-1.123 33.76m-53.482-82.98c32.527 4.305 46.459 27.003 51.801 40.466"/></g></g><defs><clipPath id="CumcDicx2ra"><path fill="#fff" d="M0 0h192v192H0z"/></clipPath><clipPath id="rSMIM4rLm9b"><path fill="#fff" d="M0 0h192v192H0z"/></clipPath></defs></svg>