<svg xmlns="http://www.w3.org/2000/svg" width="192" height="192" fill="none" viewBox="0 0 192 192"><g stroke-linecap="round" stroke-linejoin="round" stroke-miterlimit="1.5" clip-path="url(#WiOqBTLqCla)"><path stroke="#1e3a6e" stroke-width="2.0013" d="M61.24 59.709c6.884 6.367 67.726 64.307 70.39 66.772M58.394 65.822c14.335 13.267 51.855 49.462 67.198 63.903"/><path stroke="#1e3a6e" stroke-width="2.9973" d="M44.838 156.971c3.671-2.62 4.95-9.343.853-12.643-2.572-2.071-6.693-1.887-9.44-.273-4.736 2.785-5.322 12.223.431 14.454 2.672 1.035 5.638.259 8.156-1.538" clip-rule="evenodd"/><path stroke="#1e3a6e" stroke-width="2.0007" d="M55.41 98.365c-2.442 1.871-11.61 8.418-18.546 13.532m-6.338 4.385c-13.27 11.584-27.12 25.615-22.204 38.644"/><path stroke="#1e3a6e" stroke-width="2.0013" d="M111.587 17.754c-12.584 7.042-20.38 18.744-29.4 31.007m46.243 32.222c-3.594 4.736-18.532 16.77-22.256 19.416m23.354-.467c-4.806 5.065-7.852 7.417-13.279 10.858m67.176-22.602c-7.603 9.535-22.155 28.176-35.672 40.435m-4.781 4.176a124 124 0 0 1-4.195 3.37c-5.721 4.387-11.034 7.536-15.297 8.561"/><path stroke="#1e3a6e" stroke-width="2.9964" d="M117.022 33.568a200 200 0 0 0-3.316 2.405c-4.538 3.337-8.86 6.516-10.313 5.195-.868-.79 3.144-5.954 6.968-10.876 3.485-4.487 6.815-8.772 6.152-9.363-.391-.348-1.651-1.523-3.177-2.946-3.153-2.94-7.439-6.936-7.532-6.874-16.576 11.106-47.087 41.258-52.258 64.009-1.155 5.082 6.653 13.2 13.18 19.986 2.308 2.399 4.456 4.631 5.99 6.505-.813.689-2.937 2.05-5.9 3.949-17.543 11.243-64.487 41.329-43.04 62.36 21.898 21.475 54.145-29.437 64.371-45.582 1.308-2.065 2.255-3.56 2.775-4.264 0 0 17.999 17.254 25.945 16.817 6.696-.369 22.208-11.99 37.149-28.213-.399.314-.685.495-.836.524"/><path fill="#6b8cce" fill-rule="evenodd" stroke="#6b8cce" stroke-width=".9951" d="M137.177 44.341c-.337-.326 4.223-5.358 3.686-9.47-.57-4.364-4.509-6.83-8.935-7.594-12.344-2.13-7.363 14.451-6.376 20.559.756 4.669-1.73 8.158-5.318 9.133-7.357 1.997-15.654 7.674-12.057 15.206 3.62 7.584 9.765 2.278 15.878-.927 5.682-2.977 10.477-5.838 18.112-1.706 7.395 4 7.303 13.984 7.409 27.238.054 6.875 6.431 9.644 10.615 8.838 1.473-.284 16.067-15.2 22.015-26.829 6.803-13.3-26.175-41.44-36.086-37.989-3.575 1.245-8.563 3.913-8.943 3.541" clip-rule="evenodd"/><path stroke="#1e3a6e" stroke-width="2.9964" d="M130.167 45.923c-.337-.327 4.223-5.359 3.686-9.47-.57-4.365-4.509-6.831-8.935-7.594-12.344-2.132-7.363 14.45-6.375 20.558.755 4.669-1.73 8.158-5.318 9.133-7.358 1.998-15.654 7.674-12.058 15.207 3.62 7.584 9.765 2.277 15.878-.927 5.682-2.978 10.477-5.839 18.112-1.707 7.395 4 7.303 13.984 7.409 27.238.054 6.875 6.431 9.644 10.616 8.839 1.472-.285 16.066-15.201 22.015-26.83 6.802-13.3-26.176-41.44-36.087-37.989-3.575 1.245-8.562 3.913-8.943 3.542" clip-rule="evenodd"/><path stroke="#1e3a6e" stroke-width="2.0013" d="M167.626 75.264c-2.142 7.509-8.801 15.544-14.32 21.347"/></g><defs><clipPath id="WiOqBTLqCla"><path fill="#fff" d="M0 0h192v192H0z"/></clipPath></defs></svg>