<svg xmlns="http://www.w3.org/2000/svg" width="192" height="192" fill="none" viewBox="0 0 192 192"><g clip-path="url(#vrGy71mxjqa)"><g stroke-linecap="round" stroke-linejoin="round" stroke-miterlimit="1.5" clip-path="url(#2Y0wwxVJBkb)"><path fill="#6b8cce" fill-rule="evenodd" stroke="#6b8cce" d="M176.798 91.615c2.502-.181 5.154 2.618 2.402 5.21-9.49 8.906-30.108 23.71-56.078 23.837-8.665.036-29.442.163-40.246-.263-22.768-.897-42.6-15.511-51.704-23.53-3.488-3.07.586-4.856 3.402-4.71 57.614 3.007 79.255 3.877 142.224-.544" clip-rule="evenodd"/><path stroke="#1e3a6e" stroke-width="2" d="M125.146 147.806c22.306-4.238 44.374-15.868 54.23-27.402"/><path stroke="#1e3a6e" stroke-width="3.0026" d="M125.927 126.336c-2.043 3.782-5.781 9.709-6.251 9.703-8.385-.108-32.363.012-44.748-.219-.218-.004-3.794-5.1-6.962-9.851"/><path stroke="#1e3a6e" stroke-width="3" d="M175.792 96.342c-3.293 4.856-27.887 29.437-61.386 29.6-8.664.036-29.44.163-40.245-.263-31.488-1.241-57.351-28.712-57.015-28.694 66.748 3.488 86.388 4.639 158.646-.643" clip-rule="evenodd"/><path stroke="#1e3a6e" stroke-width="2" d="M114.971 148.378c-9.622.4-23.443-.332-35.902-.063m89.353-45.16c-46.911 7.926-100.004 7.262-143.34.717m-7.825-19.1c8.716.717 40.722 2.808 61.132 3.052"/><path stroke="#1e3a6e" stroke-width="3" d="M78.547 49.265c-.187 6.992 7.209 17.124.392 26.012m31.858-26.016c-.187 6.992 7.209 17.124.392 26.013M96.683 42.857c.213 6.706-1.79 16.513.464 24.962"/></g></g><defs><clipPath id="vrGy71mxjqa"><path fill="#fff" d="M0 0h192v192H0z"/></clipPath><clipPath id="2Y0wwxVJBkb"><path fill="#fff" d="M0 0h192v192H0z"/></clipPath></defs></svg>