<svg xmlns="http://www.w3.org/2000/svg" width="192" height="192" fill="none" viewBox="0 0 192 192"><g clip-path="url(#sBdpYzlZXRa)"><g clip-path="url(#sxz1_L2VCEb)"><path fill="#6b8cce" fill-rule="evenodd" stroke="#6b8cce" stroke-linecap="round" stroke-linejoin="round" stroke-miterlimit="1.5" d="M121.565 113.045c.257-2.19-9.321 9.617-21.344 10.678-4.312.381-12.318-2.171-18.94-3.97-6.223-1.692-11.223-2.72-10.795-.033 2.216 13.902 6.096 31.388 11.904 36.793.534.499 27.366.492 27.655.122 7.275-9.312 9.789-28.797 11.52-43.59" clip-rule="evenodd"/><path stroke="#1e3a6e" stroke-linecap="round" stroke-linejoin="round" stroke-miterlimit="1.5" stroke-width="2.999" d="M64.503 105.491c-.19-.053 4.08 46.002 14.193 55.414.535.499 27.366.492 27.656.122 9.607-12.3 10.911-42.339 13.075-55.881.062-.385-53.113.341-54.924.345" clip-rule="evenodd"/><path stroke="#1e3a6e" stroke-linecap="round" stroke-linejoin="round" stroke-miterlimit="1.5" stroke-width="2.999" d="M118.488 116.314c20.213-6.105 28.937 24.763-5.468 32.204"/><path stroke="#1e3a6e" stroke-linecap="round" stroke-linejoin="round" stroke-miterlimit="1.5" stroke-width="3" d="M167.714 179.772c-.019-3.626-1.276-17.31-6.127-17.492-35.83-1.346-122.053-.25-139.822-.299-5.8-.021-6.219 17.853-5.012 17.858 35.036.229 146.001-.103 150.961-.067" clip-rule="evenodd"/><path stroke="#1e3a6e" stroke-linecap="round" stroke-linejoin="round" stroke-miterlimit="1.5" stroke-width="3" d="M27.484 68.76c-.006.223.113 92.607.1 92.902-.01.213 127.436.083 127.443-.38.115-7.316.093-92.136-.1-92.167-.152-.026-126.799-.386-127.443-.354M31.293 21.4c-7.283-.008-11.862 4.899-11.845 11.5l.067 25.654c.013 5.864 4.462 10.129 11.792 10.137 26.87.03 92.482-.011 119.759-.124 7.582-.031 12.264-5.139 12.275-10.408.016-7.524.007-17.627-.029-25.31-.031-6.503-4.78-11.288-12.308-11.299-27.213-.04-92.762-.123-119.711-.15" clip-rule="evenodd"/><path stroke="#1e3a6e" stroke-linecap="round" stroke-linejoin="round" stroke-miterlimit="1.5" stroke-width="2.0013" d="M68.3 77.763c1.101 3.404 4.501 14.265 4.965 15.463.347.897 36.825.735 37.048.202.734-1.752 3.299-8.832 5.593-15.83.034-.105-45.588.14-47.606.165" clip-rule="evenodd"/><path stroke="#1e3a6e" stroke-linecap="round" stroke-linejoin="round" stroke-miterlimit="1.5" stroke-width="2" d="M64.657 69.649c.04 1.06.108 8.066.144 8.066.295.003 55.246-.17 55.243-.232-.019-.405-.065-7.607-.059-7.87.001-.1-53.812.048-55.328.036" clip-rule="evenodd"/><path fill="#6b8cce" fill-rule="evenodd" stroke="#6b8cce" stroke-linecap="round" stroke-linejoin="round" stroke-miterlimit="1.5" d="M96.32 26.969c-11.892.319-17.175 8.36-17.298 16.14-.137 8.66 5.655 17.124 17.368 17.264 12.07.144 17.374-7.94 17.575-16.826.194-8.56-4.529-16.928-17.645-16.578" clip-rule="evenodd"/><path stroke="#1e3a6e" stroke-linecap="round" stroke-linejoin="round" stroke-miterlimit="1.5" stroke-width="2" d="M91.605 28.369c-11.892.319-17.175 8.36-17.298 16.14-.137 8.66 5.655 17.124 17.368 17.264 12.07.144 17.374-7.94 17.575-16.826.194-8.56-4.529-16.928-17.645-16.578m-63.501 8.295c-.002.136.088 15.572.186 16.001.053.238 35.07.13 35.085.053.075-.383.036-15.843-.01-15.99-.08-.269-35.155-.06-35.262-.064" clip-rule="evenodd"/><path stroke="#1e3a6e" stroke-linecap="round" stroke-linejoin="round" stroke-miterlimit="1.5" stroke-width="2" d="M85.977 53.672c2.47-3.638 9.033-13.902 11.68-17.433m23.241 1.636c8.213-.027 19.295.112 26.804.058m-27.385 14.174c8.406.083 17.506-.023 26.907-.12"/><path fill="#fff" fill-rule="evenodd" d="M115.86 77.743c4.382.02 54.021-.176 56.394-.15 5.392.055 4.29 10.381.052 10.051-4.332-.337-48.107-3.492-57.824-4.296" clip-rule="evenodd"/><path stroke="#1e3a6e" stroke-linecap="round" stroke-linejoin="round" stroke-miterlimit="1.5" stroke-width="2" d="M115.86 77.743c4.382.02 54.021-.176 56.394-.15 5.392.055 4.29 10.381.052 10.051-4.332-.337-48.107-3.492-57.824-4.296m-78.693 78.548c2.679 2.916 7.508 10.777 8.018 10.771 2.392-.029 95.787-.316 95.909-.444.14-.148 6.919-8.454 8.414-10.39M35.782 76.936c.003 5.526.024 29.475.024 38.59m.03 5.688c0 1.65.133 24.274.027 30.463m36.166-22.601c8.32-.379 17.884 5.915 24.288 5 2.338-.334 7.503-2.269 9.269-3.995m57.855-29.135c.01 9.333.235 48.867.256 51.149M93.002 13.271c9.878.044 48.446.201 53.853.183m-87.467-.21c7.368.216 17.281-.004 23.382-.004"/></g></g><defs><clipPath id="sBdpYzlZXRa"><path fill="#fff" d="M0 0h192v192H0z"/></clipPath><clipPath id="sxz1_L2VCEb"><path fill="#fff" d="M0 0h192v192H0z"/></clipPath></defs></svg>