<svg xmlns="http://www.w3.org/2000/svg" width="192" height="192" fill="none" viewBox="0 0 192 192"><g clip-path="url(#VkoaACugwGa)"><g clip-path="url(#a1sU75EwSsb)"><path fill="#6b8cce" fill-rule="evenodd" d="M130.579 164.065c-.319 6.049-6.228 10.347-11.236 10.451-11.811.243-30.007.284-39.689-.212-4.294-.22-7.046-6.153-7.38-9.415-2.096-20.473 3.68-42.776 30.392-42.927 25.233-.143 28.668 27.771 27.913 42.103m26.085-106.771c6.326 5.968 5.088 10.005-3.732 10.014-25.82.029-79.666.327-103.006.045-7.117-.087-5.757-5.728-1.613-9.565 17.284-16 47.873-43.039 50.508-45.755.823-.847 4.395-4.318 10.685 1.953 10.333 10.298 33.743 30.647 47.158 43.308" clip-rule="evenodd"/><path stroke="#1e3a6e" stroke-linecap="round" stroke-linejoin="round" stroke-miterlimit="1.5" stroke-width="2" d="M68.875 170.168c-2.278-6.428-5.886-49.622 28.915-50.404 33.158-.744 28.911 49.307 28.911 48.601M120.063 28.54c-.283-.2-.049-13.839 1.657-13.668.504.05 18.958.381 19.321.745.201.2-.523 30.676 0 30.676m9.536-31.891c-.403 1.429-.168 3.465-.227 4.94-.181 4.516 0 9.043 0 13.563v6.371c0 .666.006 1.401.137 2.055.046.231.068 1.172.068.959"/><path stroke="#1e3a6e" stroke-linecap="round" stroke-linejoin="round" stroke-miterlimit="1.5" stroke-width="2" d="M90.732 129.784c-16.436 3.746-14.481 29.336-14.481 29.279m8.548-10.334c3.166 0 13.264.062 13.043.062M59.935 52.27c.461-1.103 2.868-2.374 3.756-3.188 2.374-2.176 4.76-4.32 7.214-6.396 7.436-6.293 15.058-13.562 21.776-20.28"/><path stroke="#1e3a6e" stroke-linecap="round" stroke-linejoin="round" stroke-miterlimit="1.5" stroke-width="2" d="M48.868 76.703c-.137 0-.407 33.355.06 36.158.342 2.048 4.855 1.754 6.276 1.822 5.137.244 23.137.431 24.581-.291.309-.154 1.573-37.225 1.332-37.466-.204-.204-1.407-.117-1.619-.101-1.76.136-28.871-.122-30.63-.122m60.413 0c-.062.874-.382 34.716-.027 37.435.255 1.95 29.846.901 31.787.763.238-.017 2.14-37.692.228-38.198-4.349-1.153-23.19 0-31.988 0" clip-rule="evenodd"/><path stroke="#1e3a6e" stroke-linecap="round" stroke-linejoin="round" stroke-miterlimit="1.5" stroke-width="2" d="M125.556 76.19c.353 3.393 0 36.079 0 37.902"/><path stroke="#1e3a6e" stroke-linecap="round" stroke-linejoin="round" stroke-miterlimit="1.5" stroke-width="2" d="M109.971 96.397c1.83-.58 28.458-.248 31.07-.34M66.437 77.892c-2.323 2.605-2.489 28.38-1.531 37.009"/><path stroke="#1e3a6e" stroke-linecap="round" stroke-linejoin="round" stroke-miterlimit="1.5" stroke-width="2" d="M48.665 96.821c9.244-.087 26.909-.174 30.485-.174m-58.174 20.894c-.02-.011.203 49.773.285 50.867m-.663-57.288c.111-4.28.152-7.167.152-10.37"/><path stroke="#1e3a6e" stroke-linecap="round" stroke-linejoin="round" stroke-miterlimit="1.5" stroke-width="3" d="M33.511 63.439c.417-.556.721 102.614 2.014 104.339 1.878 2.504 113.664 3.023 120.239 1.64 3.79-.798 3.372-103.192 2.418-104.622-1.105-1.659-8.19-1.446-9.76-1.446-7.653 0-109.906.089-114.911.089" clip-rule="evenodd"/><path stroke="#1e3a6e" stroke-linecap="round" stroke-linejoin="round" stroke-miterlimit="1.5" stroke-width="3" d="M33.511 63.341c2.476-4.01 55.125-48.818 58.657-52.351.801-.801 3.224-3.299 4.566-2.628 5.339 2.669 62.102 54.745 62.102 54.979"/><path stroke="#1e3a6e" stroke-linecap="round" stroke-linejoin="round" stroke-miterlimit="1.5" stroke-width="2" d="M99.439 183.194c17.563.155 39.695-.464 57.285-.464"/></g></g><defs><clipPath id="VkoaACugwGa"><path fill="#fff" d="M0 0h192v192H0z"/></clipPath><clipPath id="a1sU75EwSsb"><path fill="#fff" d="M0 0h192v192H0z"/></clipPath></defs></svg>