<svg xmlns="http://www.w3.org/2000/svg" width="192" height="192" fill="none" viewBox="0 0 192 192"><g stroke-linecap="round" stroke-linejoin="round" stroke-miterlimit="1.5" clip-path="url(#FnstMjwDmDa)"><path stroke="#1e3a6e" stroke-width="1.9988" d="M153.306 125.637c8.466-14.509 11.924-29.888 6.918-49.469-4.096-16.023-13.637-29.478-29.55-39.6m-6.188-4.049c-7.545-3.589-16.539-6.289-28.324-5.72"/><path stroke="#1e3a6e" stroke-width="2" d="M53.971 16.63c-17.93 9.65-29.34 27.559-33.836 35.408m133.284 107.127c-9.496 8.222-22.089 15.347-34.601 17.807"/><path stroke="#1e3a6e" stroke-width="2.9971" d="M27.807 147.387c2.412 4.731 9.256 13.422 16.015 17.782 14.472 9.336 28.357 3.252 37.985-10.868 3.163-4.638 4.526-13.684 7.801-18.148 5.051-6.884 11.872-7.07 17.445-13.421 9.847-11.219 4.785-23.674-2.162-32.201"/><path stroke="#1e3a6e" stroke-width="2.9971" d="M102.738 116.072c11.33-12.911 4.215-27.626-6.264-33.124-9.652-5.064-27.484-4.273-31.782 10.707-1.477 5.15-3.584 9.468-9.172 12.708-6.292 3.647-8.694 2.584-22.592 9.609-8.85 4.473-18.533 26.337 6.579 42.536 14.47 9.336 28.357 3.252 37.984-10.867 3.163-4.639 4.526-13.684 7.801-18.148 5.051-6.885 11.872-7.071 17.446-13.421" clip-rule="evenodd"/><path fill="#6b8cce" fill-rule="evenodd" stroke="#6b8cce" stroke-width=".9961" d="M101.319 110.387c11.331-12.91 4.215-27.626-6.264-33.123-9.652-5.064-27.483-4.273-31.78 10.706-1.478 5.15-3.586 9.468-9.174 12.708-6.291 3.647-8.693 2.585-22.591 9.609-8.85 4.473-18.533 26.338 6.578 42.537 14.471 9.336 28.357 3.252 37.985-10.868 3.163-4.638 4.526-13.684 7.801-18.148 5.05-6.884 11.872-7.07 17.445-13.421" clip-rule="evenodd"/><path stroke="#1e3a6e" stroke-width="3.0027" d="M56.676 93.99c.067 3.525.57 7.058 1.536 10.51"/><path stroke="#1e3a6e" stroke-width="3" d="M58.214 104.51c-5.983-21.358 5.739-45.887 29.284-51.634m4.005 81.06c3.967.581 7.998.591 11.891.012 19.966-2.966 37.906-20.232 35.106-44.732-3.099-27.115-22.759-34.833-35.002-36.898"/><path stroke="#1e3a6e" stroke-width="2.9971" d="M28.891 119.213c-16.084-42.476 9.2-94.975 60.575-100.483 1.42-.152 10.039-.367 14.134.13 21.258 2.573 61.162 14.77 67.103 66.748 5.017 43.896-27.127 74.832-62.901 80.147-11.028 1.64-22.677.643-33.512-2.864"/><path stroke="#1e3a6e" stroke-width="3" d="M25.444 107.043a74 74 0 0 0 3.069 11.151"/><path stroke="#1e3a6e" stroke-width="2.9971" d="M102.738 116.072c11.33-12.911 4.215-27.626-6.264-33.124-9.652-5.064-27.484-4.273-31.782 10.707-1.477 5.15-3.584 9.468-9.172 12.708-6.292 3.647-8.694 2.584-22.592 9.609-8.85 4.473-18.533 26.337 6.579 42.536 14.47 9.336 28.357 3.252 37.984-10.867 3.163-4.639 4.526-13.684 7.801-18.148 5.051-6.885 11.872-7.071 17.446-13.421" clip-rule="evenodd"/><path stroke="#1e3a6e" stroke-width="2" d="M49.836 117.788c-8.369 1.301-15.35 4.875-17.764 12.209m-.452 5.102c.755 8.744 7.54 15.127 15.286 18.245m43.59-67.207c19.58 11.59 9.667 27.556-1.96 31.649"/><path stroke="#1e3a6e" stroke-width="2" d="M125.856 77.41c-4.293 7.46-12.502 3.611-12.086 3.861 7.433 4.475 3.938 11.747 4.069 11.556 4.372-6.402 11.971-3.557 11.777-3.712-3.716-2.973-5.794-6.062-3.76-11.704M36.617 88.307c4.107 7.565-3.472 12.542-3.041 12.318 7.705-3.988 12.069 2.798 11.975 2.587-3.164-7.078 3.24-12.062 3.006-11.978-4.479 1.609-8.199 1.761-11.94-2.927M81.735 61.38c12.884-6.17 20.495 6.81 20.161 6.076-5.962-13.106 5.651-19.769 5.294-19.63-11.998 4.648-19.719-6.384-19.6-5.99 2.29 7.559 2.23 13.737-5.855 19.543" clip-rule="evenodd"/></g><defs><clipPath id="FnstMjwDmDa"><path fill="#fff" d="M0 0h192v192H0z"/></clipPath></defs></svg>