<svg xmlns="http://www.w3.org/2000/svg" width="192" height="192" fill="none" viewBox="0 0 192 192"><g stroke-linecap="round" stroke-linejoin="round" stroke-miterlimit="1.5" clip-path="url(#8-TAcTPJ9Va)"><path fill="#6b8cce" stroke="#6b8cce" d="M39.412 134.48c5.155-8.987 13.13-7.298 15.713-6.178 1.983.859 3.596 2.351 4.801 4.201a376 376 0 0 1-7.175 7.477c.014.012 3.466 2.952 9.528 4.09-.534 3.423-2.162 6.563-5.027 8.472-12.65 8.427-26.766-2.507-17.84-18.062"/><path stroke="#1e3a6e" stroke-width="2.004" d="M113.425 184.072c6.367-.524 12.099-2.001 17.236-4.135a55 55 0 0 0 2.927-1.318m5.623-3.134c17.753-11.253 26.311-30.212 28.056-37.979"/><path stroke="#1e3a6e" stroke-width="2" d="M30.034 104.48c6.46-8.1 14.087-5.22 16.47-3.721 7.807 4.912 7.228 20.188-1.578 24.283-13.783 6.409-26.075-6.541-14.892-20.562" clip-rule="evenodd"/><path stroke="#1e3a6e" stroke-width="2.997" d="M49.646 66.687c-1.89-13.343 15.943-19.673 19.042-20.526 13.288-3.659 24.492-1.776 16.572 12.19-8.44 14.88-33.615 22.457-35.614 8.336" clip-rule="evenodd"/><path stroke="#1e3a6e" stroke-width="2" d="M79.46 160.289c-2.641-10.018 4.222-14.416 6.847-15.433 8.601-3.331 20.511 6.252 18.539 15.762-3.086 14.884-20.814 17.014-25.386-.329m37.542-24.485c7.612-6.271 15.078-1.862 17.338.085 7.405 6.377 4.947 20.75-4.581 22.704-14.913 3.057-25.934-11.936-12.757-22.789" clip-rule="evenodd"/><path fill="#6b8cce" fill-rule="evenodd" stroke="#6b8cce" d="M119.601 108.955c.262-9.84 8.499-12.433 11.454-12.809 9.684-1.23 18.932 10.204 14.149 18.58-7.486 13.11-26.057 11.264-25.603-5.771" clip-rule="evenodd"/><path stroke="#1e3a6e" stroke-width="2" d="M124.993 108.703c.261-9.84 8.498-12.433 11.454-12.808 9.683-1.23 18.931 10.203 14.148 18.58-7.485 13.11-26.056 11.263-25.602-5.772" clip-rule="evenodd"/><path stroke="#1e3a6e" stroke-width="2.004" d="M56.783 29.616C43.18 35.744 28.677 45.018 19.551 61.969"/><path stroke="#1e3a6e" stroke-width="3" d="M175.43 14.458c-4.533-3.912-20.188 9.366-27.056 15.877-13.253 12.566-54.85 59.447-59.563 76.968-.741 2.755-.57 4.785.766 5.84 1.586 1.253 4.169.816 7.454-.886 17.804-9.227 56.236-55.637 68.372-71.598 4.35-5.72 15.233-21.708 10.027-26.201" clip-rule="evenodd"/><path stroke="#1e3a6e" stroke-width="2.9981" d="M83.766 139.678c14.711-8.358 16.52-20.21 12.34-25.472-.624-.786-2.945-1.316-4.77-2.371-1.726-.996-2.949-2.532-3.842-2.799-1.684-.501-2.699-.376-4.102-.263-7.892.638-11.734 9.912-16.129 15.407-4.854 6.07-14.512 15.801-14.512 15.801s12.178 10.399 31.015-.303" clip-rule="evenodd"/><path stroke="#1e3a6e" stroke-width="2" d="M62.056 130.195a10 10 0 0 0-.376-.172c-2.583-1.12-10.557-2.81-15.713 6.177-8.926 15.556 5.19 26.491 17.84 18.063 3.237-2.156 4.897-5.884 5.181-9.815m49.001-90.829c9.001-15.573 29.578-36.994 45.884-43.69m-71.594 91.746c1.324 2.267 6.077 5.927 9.852 7.129m-29.806 34.798c7.464-4.889 14.418-10.742 18.532-18.813"/><path stroke="#1e3a6e" stroke-width="2" d="M164.127 24.515c-2.862-.37-4.371 2.206-4.235 3.856.17 2.053 2.254 3.282 3.987 3.09 3.52-.391 3.88-6.478.248-6.946" clip-rule="evenodd"/><path stroke="#1e3a6e" stroke-width="2" d="M89.388 111.018c-5.533.137-9.891 4.043-13.63 10.634M42.709 67.246c1.537 18.012 24.156 15.62 33.325 8.74"/><path stroke="#1e3a6e" stroke-width="3" d="M136.63 75.32c7.008 2.382 13.762 7.044 19.163 15.905 13.296 21.814 8.824 51.869-19.339 74.705-19.329 15.673-46.843 14.152-58.062 12.963-25.595-2.712-61.37-18.645-64.303-67.4-1.32-21.95 8.36-66.255 61.544-79.77 13.071-3.322 27.211-2.46 32.512 3.583 5.173 5.899-3.856 19.666-7.705 23.9-2.878 3.165-7.2 8.13-3.065 12.263 2.259 2.259 6.943 2.206 12.871 1.905"/></g><defs><clipPath id="8-TAcTPJ9Va"><path fill="#fff" d="M0 0h192v192H0z"/></clipPath></defs></svg>