<svg xmlns="http://www.w3.org/2000/svg" width="192" height="192" fill="none" viewBox="0 0 192 192"><g clip-path="url(#FmDN-VViPca)"><g stroke-linecap="round" stroke-linejoin="round" stroke-miterlimit="1.5" clip-path="url(#Ar9H78GorPb)"><path fill="#6b8cce" fill-rule="evenodd" stroke="#6b8cce" stroke-width="1.0007" d="M151.017 107.543c-4.626-.701-16.259-.801-16.349.426-.329 4.494.85 17.51-.378 17.591-3.978.263-16.744-.944-16.826.123-.217 2.801-.724 13.035.223 15.199.342.784 16.138-.088 16.966.327 1.09.545-.602 16.908.804 17.055 4.01.419 12.77.118 16.031-.028.578-.027.036-13.034.197-16.267.077-1.563 16.206-.12 16.294-.894.262-2.303-.149-13.933-.669-14.68-.863-1.238-15.814.471-16.039-.659-.286-1.439.975-18.006-.254-18.193" clip-rule="evenodd"/><path stroke="#1e3a6e" stroke-width="3.0021" d="M146.108 111.551c-4.626-.702-16.259-.802-16.349.426-.329 4.493.85 17.509-.378 17.59-3.978.263-16.744-.944-16.826.123-.217 2.801-.724 13.035.223 15.199.342.784 16.138-.088 16.966.327 1.09.545-.602 16.908.805 17.055 4.009.419 12.769.118 16.03-.028.578-.027.036-13.034.197-16.267.077-1.563 16.206-.12 16.294-.894.262-2.303-.149-13.933-.669-14.68-.863-1.238-15.814.472-16.039-.659-.286-1.439.975-18.006-.254-18.192" clip-rule="evenodd"/><path stroke="#1e3a6e" stroke-width="1.9998" d="M156.618 20.816c17.536-.383 16.521 11.199 16.011 26.734M36.024 171.509c-17.536.383-16.521-11.198-16.011-26.734"/><path stroke="#1e3a6e" stroke-width="2.9997" d="M112.836 29.57c-4.345.214-7.244 3.657-7.23 7.585.041 11.017.122 32.774.181 43.973.022 4.027 2.808 7.283 7.112 7.361 11.062.2 32.408.12 43.965-.175 4.696-.12 8.03-3.205 8.004-7.19-.071-11.145-.038-32.798-.279-44.085-.093-4.321-3.47-7.495-7.745-7.6-11.513-.282-33.575-.386-44.008.13m-78.348.534c-4.344.214-7.244 3.657-7.23 7.585.041 11.017.122 32.775.182 43.973.021 4.027 2.808 7.283 7.111 7.361 11.062.2 32.409.12 43.966-.175 4.695-.12 8.03-3.205 8.004-7.19-.071-11.144-.039-32.798-.28-44.085-.093-4.321-3.47-7.494-7.745-7.6-11.513-.282-33.574-.386-44.008.13m.332 74.15c-4.344.215-7.244 3.657-7.23 7.586.041 11.017.122 32.774.182 43.973.021 4.026 2.808 7.283 7.111 7.361 11.062.2 32.408.119 43.966-.176 4.695-.12 8.03-3.204 8.004-7.19-.071-11.144-.039-32.797-.28-44.084-.093-4.322-3.47-7.495-7.745-7.6-11.513-.282-33.574-.386-44.008.13" clip-rule="evenodd"/><path stroke="#1e3a6e" stroke-width="2" d="M104.153 137.001c.074 3.581.109 14.28.179 14.647.082.433 12.304.436 14.961.38M36.93 37.285c5.124.214 16.642.193 27.554.129"/></g></g><defs><clipPath id="FmDN-VViPca"><path fill="#fff" d="M0 0h192v192H0z"/></clipPath><clipPath id="Ar9H78GorPb"><path fill="#fff" d="M0 0h192v192H0z"/></clipPath></defs></svg>