<svg xmlns="http://www.w3.org/2000/svg" width="192" height="192" fill="none" viewBox="0 0 192 192"><g stroke-linecap="round" stroke-linejoin="round" stroke-miterlimit="1.5" clip-path="url(#kWNgCzsTeXa)"><path fill="#6b8cce" fill-rule="evenodd" stroke="#6b8cce" stroke-width=".9973" d="M70.751 50.718c-.243-8.54-1.112-12.833 3.148-22.007 10.725-23.083 39.665-22.75 54.606-14.065 17.518 10.185 12.66 42.186 8.616 53.736-10.122 28.91-15.446 36.377-34.771 70.093-1.091 1.905 52.408-2.426 52.41.371.003 12.911.807 25.193-.202 25.338-4.209.601-82.761.307-83.86-2.815-1.01-2.872-1.866-19.074.071-22.007 22.631-34.239 36.593-60.76 42.352-83.8 4.81-19.237-6.536-23.97-15.782-19.162-4.6 2.393-5.656 7.284-6.073 14.386-.422 7.177-20.267 8.679-20.515-.068" clip-rule="evenodd"/><path stroke="#1e3a6e" stroke-width="2" d="M136.503 27.786c4.491 8.297 4.439 27.182.306 43.046m-2.445 7.128c-2.249 4.648-10.317 23.203-12.634 28.396m-75.016 60.995c-1.19-9.336-1.455-17.124-.617-23.329.385-2.856 15.316-26.825 21.734-35.496m-2.219-60.888c2.161-21.36 18.82-26.152 29.943-25.011M47.81 176.972c16.304 1.071 37.215 1.182 46.763 1.182"/><path stroke="#1e3a6e" stroke-width="3" d="M57.751 54.032c-.243-8.54-1.112-12.833 3.148-22.007 10.725-23.083 39.665-22.75 54.606-14.065 17.518 10.185 12.66 42.186 8.616 53.736-10.122 28.909-15.446 36.377-34.77 70.093-1.092 1.905 52.407-2.426 52.409.371.003 12.911.807 25.193-.202 25.338-4.209.601-82.761.307-83.86-2.815-1.01-2.872-1.866-19.074.071-22.007 22.631-34.239 36.593-60.76 42.352-83.8 4.81-19.237-6.536-23.97-15.782-19.162-4.6 2.393-5.656 7.284-6.073 14.386-.422 7.177-20.267 8.679-20.515-.068" clip-rule="evenodd"/></g><defs><clipPath id="kWNgCzsTeXa"><path fill="#fff" d="M0 0h192v192H0z"/></clipPath></defs></svg>