<svg xmlns="http://www.w3.org/2000/svg" width="192" height="192" fill="none" viewBox="0 0 192 192"><g clip-path="url(#geBXHuXgFia)"><g stroke-linecap="round" stroke-linejoin="round" stroke-miterlimit="1.5" clip-path="url(#hTpjAejXfzb)"><path stroke="#1e3a6e" stroke-width="3" d="M33.511 63.439c.417-.556.721 102.614 2.014 104.339 1.878 2.504 113.664 3.023 120.239 1.64 3.79-.798 3.145-102.251 3.145-105.585"/><path stroke="#1e3a6e" stroke-width="3" d="M33.511 63.341c2.476-4.01 55.125-48.818 58.657-52.351.801-.801 3.224-3.299 4.566-2.628 5.339 2.669 62.102 54.745 62.102 54.979"/><path stroke="#1e3a6e" stroke-width="2" d="M120.063 28.54c-.283-.2-.049-13.839 1.657-13.668.504.05 18.958.381 19.321.745.201.2-.523 30.676 0 30.676M99.439 183.194c17.563.155 39.695-.464 57.285-.464m-6.147-168.328c-.403 1.429-.168 3.465-.227 4.94-.181 4.516 0 9.043 0 13.563v6.371c0 .666.006 1.401.137 2.055.046.231.068 1.172.068.959M20.976 117.541c-.02-.011.203 49.773.285 50.867m-.663-57.288c.11-4.28.152-7.167.152-10.37m13.715-28.374c2.62-2.147 59.912-54.136 61.321-54.095 1.317.04 60.121 52.294 62.341 54.28"/><path stroke="#1e3a6e" stroke-width="2.0004" d="M115.246 109.323c-4.688 8.811-10.416 19.9-15.104 28.711"/><path stroke="#1e3a6e" stroke-width="2.9971" d="M57.727 75.768c-.453 9.309-4.643 60.627 34.918 76.658q1.672.677 3.447 1.269c1.34.445 2.885-.696 4.668-1.368 42.408-15.984 34.505-76.083 34.087-76.49-11.948-11.609-50.946-19.247-77.12-.07" clip-rule="evenodd"/><path fill="#6b8cce" fill-rule="evenodd" stroke="#6b8cce" d="M79.336 103.991c.345.556 18.044 28.955 18.344 28.676.55-.511 28.121-56.323 28.121-56.485 0-.005-11.373-3.887-11.639-3.639-.843.784-3.211 5.94-3.818 7.017-3.95 7.017-14.68 31.505-15.364 32.142-.28.26-7.592-12.174-8.66-13.169-.406-.377-6.577 5.458-6.984 5.458" clip-rule="evenodd"/><path stroke="#1e3a6e" stroke-width="2.9992" d="M74.999 107.453c.344.556 18.043 28.955 18.344 28.676.548-.511 28.121-56.323 28.121-56.485 0-.006-11.373-3.887-11.64-3.639-.843.784-3.211 5.94-3.817 7.017-3.951 7.017-14.68 31.505-15.365 32.142-.28.26-7.591-12.174-8.66-13.169-.406-.378-6.577 5.458-6.983 5.458" clip-rule="evenodd"/><path stroke="#1e3a6e" stroke-width="2" d="M48.295 93.756c.184 10.73 2.333 31.758 15.453 47.424"/></g></g><defs><clipPath id="geBXHuXgFia"><path fill="#fff" d="M0 0h192v192H0z"/></clipPath><clipPath id="hTpjAejXfzb"><path fill="#fff" d="M0 0h192v192H0z"/></clipPath></defs></svg>