<svg xmlns="http://www.w3.org/2000/svg" width="192" height="192" fill="none" viewBox="0 0 192 192"><g stroke-linecap="round" stroke-linejoin="round" stroke-miterlimit="1.5" clip-path="url(#JOWq5JTI0qa)"><path fill="#6b8cce" fill-rule="evenodd" stroke="#6b8cce" d="M144.015 167.398c-6.189.059-7.087-3.214-7.105-7.895-.039-10.614-.052-28.744.274-33.889.065-1.027 1.791-2.633 3.679-2.693 3.772-.12 15.899-.083 23.579-.045 3.85.019 6.649.455 6.678 6.174.027 5.241.189 16.219.175 25.085-.007 5.481-4.838 12.734-10.891 13.078-6.191.351-13.339.157-16.389.185" clip-rule="evenodd"/><path stroke="#1e3a6e" stroke-width="2" d="M131.475 113.703c-.063 4.908-.789 42.128-.931 49.142m-27.343-43.274c-.063 4.908-.789 36.379-.931 43.392m51.078-8.47c-5.387.029-10.537.221-15.439.258"/><path fill="#6b8cce" fill-rule="evenodd" stroke="#6b8cce" d="M153.138 68.303c1.924-5.299-2.45-10.5-4.105-12.118-8.025-7.845-18.205-17.727-21.654-20.762-.83-.73-3.114-.863-4.305.266-2.38 2.256-9.706 9.826-14.334 14.632-2.32 2.409-3.682 4.476.705 8.79 4.995 4.912 16.545 16.755 23.942 23.292 3.901 3.448 5.426 3.045 7.649.998 4.323-3.981 10.933-11.875 12.102-15.098" clip-rule="evenodd"/><path stroke="#1e3a6e" stroke-width="2" d="M93.94 57.726c3.468 3.346 29.595 28.906 34.515 33.727m-19.487 21.21c-4.508-4.416-26.82-26.245-33.193-32.444m13.705 53.654c-2.018-1.977-7.603-7.442-13.73-13.433m62.754-53.09c-3.711 4.043-7.102 8.058-10.469 11.746M18.79 75.195c.01 7.88-.186 25.603-.031 35.984m-.236 13.831c.033 12.794-2.46 39.484 8.317 42.995"/><path stroke="#1e3a6e" stroke-width="3" d="M75.794 36.176c-.133-10.94-5.442-14.358-12.04-14.358H39.843c-6.599 0-11.863 2.957-11.903 13.893l-.053 111.286c0 9.116 1.023 15.817 11.956 16.517h23.91c10.504-.323 11.957-7.401 11.957-16.517z" clip-rule="evenodd"/><path fill="#6b8cce" fill-rule="evenodd" stroke="#6b8cce" d="M70.696 89.324c.063-5.375-3.458-6.156-8.493-6.172-11.417-.033-30.919-.045-36.453.238-1.105.057-2.832 1.556-2.897 3.196-.13 3.277-.09 13.811-.048 20.483.02 3.344.489 5.775 6.64 5.801 7.007.03 23.544.446 33.404-.037 5.2-.255 7.316-1.998 7.48-5.015.315-5.869.327-15.098.367-18.494" clip-rule="evenodd"/><path stroke="#1e3a6e" stroke-width="3" d="M75.794 36.176c-.133-10.94-5.442-14.358-12.04-14.358H39.843c-6.599 0-11.863 2.957-11.903 13.893l-.053 111.286c0 9.116 1.023 15.817 11.956 16.517h23.91c10.504-.323 11.957-7.401 11.957-16.517z" clip-rule="evenodd"/><path stroke="#1e3a6e" stroke-width="3" d="m75.763 77.466 33.156-36.291c7.31-7.95 13.089-6.375 17.864-1.697l17.303 16.953c4.775 4.678 6.341 10.936-.847 19.01L75.763 149.5"/><path stroke="#1e3a6e" stroke-width="3" d="m108.326 113.759 45.058-.318c10.601-.04 13.359 5.369 13.221 12.176l-.498 24.667c-.137 6.807-3.562 12.309-14.171 12.526l-94.436.641"/><path stroke="#1e3a6e" stroke-width="1.9984" d="M61.611 154.735c2.79 0 5.052-2.348 5.052-5.244s-2.262-5.245-5.052-5.245-5.052 2.348-5.052 5.245c0 2.896 2.262 5.244 5.052 5.244"/><path stroke="#1e3a6e" stroke-width="2" d="M27.94 87.473c4.758-.038 40.838-.064 47.637-.064m-47.731 29.229c4.758-.038 40.839-.064 47.637-.064M49.15 51.758C49.14 57.315 49 71.906 49 76.96M38.312 36.747c.123 9.408.05 30.641.05 40.091"/></g><defs><clipPath id="JOWq5JTI0qa"><path fill="#fff" d="M0 0h192v192H0z"/></clipPath></defs></svg>