<svg xmlns="http://www.w3.org/2000/svg" width="192" height="192" fill="none" viewBox="0 0 192 192"><g clip-path="url(#GP59ApQw5za)"><g stroke-linecap="round" stroke-linejoin="round" stroke-miterlimit="1.5" clip-path="url(#IBbOVksURMb)"><path fill="#6b8cce" fill-rule="evenodd" stroke="#6b8cce" d="M145.486 78.715c-1.424 3.03-15.035 32.82-23.095 49.209-3.229 6.563-15.456 11.808-16.78 10.629-1.563-1.393-4.058-13.659-1.869-18.785 7.578-17.738 22.421-49.94 23.403-49.521 5.872 2.505 11.915 5.516 18.341 8.468" clip-rule="evenodd"/><path stroke="#1e3a6e" stroke-width="3" d="M168.701 44.607c7.436 3.011 6.644 8.19 5.397 11.011-1.633 3.69-11.654 25.709-16.863 37.191"/><path fill="#6b8cce" fill-rule="evenodd" stroke="#6b8cce" stroke-width=".9983" d="M142.058 42.96c.071.601-.74 1.242-1.303.774-8.377-6.957-17.657-4.14-17.414-6.293.865-7.704-2.088-14.348-3.398-17.009-.374-.759.282-1.403 1.034-1.282 6.893 1.102 19.673 11.88 21.081 23.81" clip-rule="evenodd"/><path stroke="#1e3a6e" stroke-width="2" d="M30.158 176.975c6.424.348 45.348.003 57.483.003M21.838 89.887c.029.598.397 11.078.608 15.458m-3.068-82.59c.296 4.735 2.219 60.724 2.238 61.172m128.176 29.798c-.071 5.146-.227 38.742-.014 46.624M111.697 20.71c10.18-.836 27.403 17.699 27.58 32.404M52.05 95.264c.89.195 9.172.248 19.925.237m-20.55-35.862c1.602.352 25.676.242 46.486.133m6.932-.032c7.723-.041 14.32-.076 18.065-.076"/><path stroke="#1e3a6e" stroke-width="2.9966" d="M170.246 39.56c-2.308 4.955-24.579 53.593-37.467 80.488-5.162 10.771-19.999 21.696-21.186 20.217-1.401-1.744-1.224-19.825 2.438-28.157 12.677-28.834 36.895-81.44 37.884-81.038 5.919 2.404 11.905 5.537 18.331 8.49" clip-rule="evenodd"/><path stroke="#1e3a6e" stroke-width="2.9966" d="M138.798 107.368c-.065 30.152-.167 56.848-.209 57.46-.066.975-102.368 1.311-102.512.846-.23-.746-3.255-143.286-3.232-144.1.014-.481 47.196-.547 78.625-.395 11.366.054 5.518 17.43 8.085 19.726 3.263 2.92 19.283-2.568 19.295 11.995l.002 4.512"/><path stroke="#1e3a6e" stroke-width="2" d="M136.578 45.151c1.722.21 2.321 7.34 2.346 11.47M52.03 112.695c2.372.521 47.17.156 61.335.156M78.814 95.524c17.237-.043 34.81-.06 42.843-.06"/><path stroke="#1e3a6e" stroke-width="2.9966" d="M100.605 146.132c-32.214-2.997-16.053-19.927-14.58-17.511 1.271 2.083.955 24.979 5.595 23.696 3.69-1.021.281-11.387 1.911-13.672 3.219-4.512 6.895 4.553 14.552 3.61 2.021-.249 3.385-1.092 4.51-1.979"/><path stroke="#1e3a6e" stroke-width="2" d="M51.86 77.9c2.373.521 57.319.025 71.484.025"/><path stroke="#1e3a6e" stroke-width="1.9977" d="M117.968 136.78c-.331-2.635-4.486-5.043-6.839-4.345"/><path stroke="#1e3a6e" stroke-width="3" d="M156.238 31.873c1.031-2.5 3.484-7.338 4.325-9.206.122-.27 8.855 3.909 8.731 4.213-1.112 2.75-3.47 8.192-4.366 10.159"/><path stroke="#1e3a6e" stroke-width="2" d="M134.425 69.168c4.161 2.17 12.974 6.57 17.443 8.898"/></g></g><defs><clipPath id="GP59ApQw5za"><path fill="#fff" d="M0 0h192v192H0z"/></clipPath><clipPath id="IBbOVksURMb"><path fill="#fff" d="M0 0h192v192H0z"/></clipPath></defs></svg>