<svg xmlns="http://www.w3.org/2000/svg" width="192" height="192" fill="none" viewBox="0 0 192 192"><g clip-path="url(#DPTEPnZ7I4a)"><g stroke-linecap="round" stroke-linejoin="round" stroke-miterlimit="1.5" clip-path="url(#kOuI-vTykjb)"><path fill="#6b8cce" stroke="#6b8cce" d="M156.169 8.047c12.448 0 23.681 8.269 23.682 20.183 0 9.35-7.077 16.547-16.136 19.213-.142-2.597-.372-5.085-.715-7.333 1.279-.408 2.519-.934 3.648-1.623 3-1.83 5.254-4.817 5.371-9.866l.003-.495c-.005-1.323-.537-2.908-1.498-4.548-.956-1.633-2.316-3.286-3.924-4.738-3.234-2.92-7.376-4.948-11.162-4.517l.001.001c-5.498.628-9.149 2.863-11.377 5.602-2.234 2.747-3.061 6.03-2.857 8.79l.049.587c.562 5.979 2.76 9.087 5.467 10.67 1.591.931 3.395 1.358 5.224 1.5 1.384 2.122 1.918 5.095 1.299 6.975-5.12-.46-9.593-2.246-12.934-5.135-3.917-3.385-6.247-8.256-6.247-14.172.001-11.845 9.58-21.094 22.106-21.094"/><path stroke="#1e3a6e" stroke-width="2" d="M13.675 126.775c.566.587 29.478 31.613 30.159 32.34m126.291-70.702c-.543.668-38.434 49.103-39.231 50.193m-82.342 25.702c2.381 2.763 5.277 5.818 8.395 9.179m-3.908-99.924c.506-.436 40.512-37.547 41.137-38.104"/><path stroke="#1e3a6e" stroke-width="3" d="M159.313 30.514c7.431 6.018 3.761 44.902 3.142 46.758"/><path stroke="#1e3a6e" stroke-width="2" d="M152.867 49.316c-12.273 0-21.352-7.377-21.352-18.928 0-11.55 9.336-20.596 21.608-20.596s23.183 8.136 23.183 19.686c0 7.961-5.306 14.373-12.622 17.589m-10.494-3.933c-6.298.606-14.573-.184-15.528-13.135-.425-5.76 3.448-13.641 14.674-14.922 7.978-.91 17.113 8.519 17.139 14.294.026 5.948-2.748 9.293-6.36 11.214"/><path stroke="#1e3a6e" stroke-width="3" d="M130.969 31.446c-13.311 3.201-26.25 8.163-26.632 8.512-19.224 17.552-85.625 76.785-86.081 79.257-.013.072.006.133.188.385 3.87 5.38 60.074 65.291 61.343 63.952 14.917-15.739 81.709-102.27 82.67-105.152.618-1.855 4.287-41.868-3.144-47.886-3.024-2.45-11.279-2.187-19.16-.934q-.992.158-2.002.34"/><path stroke="#1e3a6e" stroke-width="3" d="M136.403 43.725c-4.976 7.82 12.552 15.833 16.776 4.911.919-2.377-.185-6.769-2.61-8.719-1.492-1.199-5.709-1.794-7.837-.866q-.595.26-1.135.527"/></g></g><defs><clipPath id="DPTEPnZ7I4a"><path fill="#fff" d="M0 0h192v192H0z"/></clipPath><clipPath id="kOuI-vTykjb"><path fill="#fff" d="M0 0h192v192H0z"/></clipPath></defs></svg>