<svg xmlns="http://www.w3.org/2000/svg" width="192" height="192" fill="none" viewBox="0 0 192 192"><g clip-path="url(#Tnier7YJfua)"><g stroke-linecap="round" stroke-linejoin="round" stroke-miterlimit="1.5" clip-path="url(#GGoBGC05dKb)"><path fill="#6b8cce" fill-rule="evenodd" stroke="#6b8cce" d="M156.383 143.668c3-.129 6.458 1.795 3.222 3.605-8.79 4.909-25.903 12.114-47.146 12.178-7.518.02-25.544.089-34.919-.144-21.024-.525-39.157-9.545-46.264-13.676-2.13-1.234 1.393-1.874 3.599-1.804 49.736 1.641 68.631 2.142 121.508-.159M48.966 55.517c-.848.009-1.581.624-1.486 1.761.104 1.273.287 3.194.55 5.625.046.42.532 1.387 1.245 1.42 8.33.403 61.566.153 80.371-.302 4.093-.099 6.616-.517 6.826-2.383.149-1.292.332-2.53.5-3.71.146-1.034-.868-3.09-3.202-3.119-15.316-.185-74.137.587-84.804.708" clip-rule="evenodd"/><path stroke="#1e3a6e" stroke-width="3" d="M44.07 59.058c-.312-.087 6.689 75.41 23.266 90.838.876.817 44.859.806 45.334.199 15.748-20.161 17.886-69.403 21.434-91.601.101-.633-87.065.559-90.034.564" clip-rule="evenodd"/><path stroke="#1e3a6e" stroke-width="3" d="m130.813 87.116 1.751-10.315c16.568-5.005 28.427 5.144 29.094 18.068s-9.858 28.624-38.059 34.722l1.907-11.231c.933-.225 1.838-.445 2.059-.504 34.414-9.085 27.251-38.092 5.062-31.305-.251.077-1.016.314-1.814.565" clip-rule="evenodd"/><path stroke="#1e3a6e" stroke-width="3" d="M69.786 17.112c-.207 7.73 7.97 18.932.434 28.759m35.226-28.763c-.207 7.73 7.97 18.932.434 28.759m-16.044-35.84c.235 7.414-1.979 18.257.512 27.597"/><path stroke="#1e3a6e" stroke-width="2.001" d="M32.664 61.696c.581 18.377 4.798 42.559 10.464 56.649"/><path stroke="#1e3a6e" stroke-width="2.0011" d="M113.081 123.229c-.814 4.065-3.747 13.038-5.17 15.793m11.299-54.219c.05 6.042-4.049 27.731-5.075 31.352m33.29-46.877c15.093-1.459 24.372 15.334 21.72 29.302"/><path stroke="#1e3a6e" stroke-width="2.001" d="M114.393 174.955c19.352-2.319 38.499-8.684 47.05-14.997"/><path stroke="#1e3a6e" stroke-width="3" d="M161.484 148.667c-2.857 2.658-24.196 16.111-53.259 16.2-7.518.02-25.544.089-34.919-.144-27.319-.679-49.758-15.714-49.466-15.704 57.91 1.909 74.951 2.539 137.644-.352" clip-rule="evenodd"/><path stroke="#1e3a6e" stroke-width="2.0011" d="M104.781 175.137c-8.348.219-20.34-.181-31.15-.034"/><path stroke="#1e3a6e" stroke-width="2.996" d="M46.753 69.433c19.707.071 70.004-.791 85.099-.556"/></g></g><defs><clipPath id="Tnier7YJfua"><path fill="#fff" d="M0 0h192v192H0z"/></clipPath><clipPath id="GGoBGC05dKb"><path fill="#fff" d="M-2-2h192v192H-2z"/></clipPath></defs></svg>