<svg xmlns="http://www.w3.org/2000/svg" width="192" height="192" fill="none" viewBox="0 0 192 192"><g clip-path="url(#FhuVpd6IkCa)"><g stroke-linecap="round" stroke-linejoin="round" stroke-miterlimit="1.5" clip-path="url(#myRZMy5i5ab)"><path stroke="#1e3a6e" stroke-width="3" d="M66.361 21.727c-9.123 8.378 13.417 27.202 10.037 31.709-1.816 2.421-27.518 20.992-38.032 42.456-11.253 22.971-28.282 71.504 28.907 82.408 15.437 2.944 44.276 3.523 60.577-.837 60.355-16.144 29.667-70.801 26.816-78.06-12.887-32.812-44.748-45.667-47.794-49.729-5.651-7.534.831-14.384 4.117-20.957.749-1.498 2.405-9.235.699-10.941-2.862-2.862-10.408 6.613-13.428 7.217-4.461.892-9.74-8.588-14.171-7.111-6.153 2.05-10.89 3.845-17.728 3.845" clip-rule="evenodd"/><path stroke="#1e3a6e" stroke-width="2" d="M137.989 58.768c19.289 14.657 26.846 35.341 31.277 50.334M25.447 98.87c-8.612 13.057-19.513 61.019 9.6 74.279m-6.625-78.651c6.251-10.517 12.704-19.651 17.616-23.744m104.951 49.388c8.227 11.253 5.105 40.509-29.406 50.037M49.09 96.587c-6.067 5.196-13.908 30.844-12.417 44.613m62.429-82.766c7.625 2.515 11.215 7.636 13.344 11.901"/><path fill="#fff" fill-rule="evenodd" stroke="#1e3a6e" stroke-width="2.0033" d="M86.812 51.084c-7.24-.45-16.539-8.097-14.9 1.621.717 4.258 4.83 5.657 8.55 6.577 8.344 2.063 16.392 1.876 23.512-3.758 1.614-1.276 7.243-10.296 2.851-11.743-2.706-.892-6.153.539-8.227 2.028-4.732 3.398-8.23 5.496-11.786 5.275" clip-rule="evenodd"/><path fill="#6b8cce" fill-rule="evenodd" stroke="#6b8cce" d="M72.527 49.438c-5.959 3.984-9.711 4.431-14.62 4.738-6.92.432-11.421-5.408-10.904-7.652.891-3.857 14.139-3.446 24.762.158.56.19.798 1.651.762 2.756" clip-rule="evenodd"/><path fill="#6b8cce" fill-rule="evenodd" stroke="#6b8cce" stroke-width="1.0001" d="M108.536 43.468c7.2.744 10.756-.63 15.278-2.676 6.373-2.884 7.619-10.23 6.095-11.99-2.621-3.026-14.237 3.602-21.999 11.843-.409.434.071 1.852.626 2.823" clip-rule="evenodd"/><path fill="#6b8cce" fill-rule="evenodd" stroke="#6b8cce" stroke-width=".9963" d="M86.845 47.84c-7.24-.448-16.54-8.096-14.902 1.623.718 4.258 4.832 5.656 8.55 6.576 8.345 2.063 16.393 1.876 23.514-3.758 1.613-1.276 7.242-10.296 2.85-11.743-2.706-.892-6.153.54-8.227 2.029-4.732 3.397-8.23 5.495-11.785 5.274" clip-rule="evenodd"/><path stroke="#1e3a6e" stroke-width="2" d="M86.16 51.09c-3.138-3.136-7.418-9.48-8.314-13.89m14.439 12.675c3.185-4.841 2.353-9.72 1.774-13.541"/><path stroke="#1e3a6e" stroke-width="2" d="M72.495 52.681c-5.959 3.984-9.711 4.431-14.62 4.738-6.92.432-11.421-5.408-10.904-7.652.891-3.857 14.139-3.446 24.762.158.56.19.798 1.651.762 2.756" clip-rule="evenodd"/><path stroke="#1e3a6e" stroke-width="2.0033" d="M86.812 51.084c-7.24-.45-16.539-8.097-14.9 1.621.717 4.258 4.83 5.657 8.55 6.577 8.344 2.063 16.392 1.876 23.512-3.758 1.614-1.276 7.243-10.296 2.851-11.743-2.706-.892-6.153.539-8.227 2.028-4.732 3.398-8.23 5.496-11.786 5.275" clip-rule="evenodd"/><path stroke="#1e3a6e" stroke-width="2.0002" d="M108.504 46.71c7.2.745 10.756-.63 15.278-2.675 6.373-2.884 7.619-10.23 6.095-11.991-2.621-3.025-14.237 3.603-21.999 11.844-.409.434.071 1.852.626 2.823" clip-rule="evenodd"/><path stroke="#1e3a6e" stroke-width="3" d="M66.361 21.727c-6.652 6.109 3.529 17.771 8.223 25.388.12.196.24.386.35.578.181.318 8.922 4.336 14.071 3.047 4.032-1.009 7.155-3.686 11.224-5.69 2.411-1.186 4.439-.83 4.422-1.2-.234-5.303 3.919-10.293 6.338-15.133.749-1.498 2.405-9.235.699-10.941-2.862-2.862-10.408 6.613-13.428 7.217-4.461.892-9.74-8.588-14.171-7.111-6.153 2.05-10.89 3.845-17.728 3.845" clip-rule="evenodd"/></g></g><defs><clipPath id="FhuVpd6IkCa"><path fill="#fff" d="M0 0h192v192H0z"/></clipPath><clipPath id="myRZMy5i5ab"><path fill="#fff" d="M0 0h192v192H0z"/></clipPath></defs></svg>