<svg xmlns="http://www.w3.org/2000/svg" width="192" height="192" fill="none" viewBox="0 0 192 192"><g stroke-linecap="round" stroke-linejoin="round" stroke-miterlimit="1.5" clip-path="url(#oAlKQoQdwTa)"><path fill="#6b8cce" fill-rule="evenodd" stroke="#6b8cce" d="M147.567 106.782c-1.943 82.669-71 64.414-74.94 64.155-1.133-.074-1.562-21.132 1.056-20.847 26.23 2.85 51.457-2.457 50.816-47.648-.059-4.17-9.15 9.234-24.047 9.411-27.818.329-35.479-23.04-35.557-43.678-.108-28.553 11.413-50.234 40.594-51.02 19.413-.524 43.731 19.29 42.078 89.627m-50.27-22.408c4.585 2.673 21.772 3.44 20.77-21.403-.84-20.83-29.319-22.814-29.959.401-.34 12.345 4.194 18.09 9.19 21.002" clip-rule="evenodd"/><path stroke="#1e3a6e" stroke-width="3" d="M140.134 108.886c-1.943 82.669-71.001 64.414-74.94 64.155-1.133-.074-1.562-21.132 1.056-20.847 26.229 2.85 51.457-2.457 50.816-47.648-.059-4.171-9.15 9.234-24.047 9.411-27.818.329-35.48-23.04-35.557-43.678-.108-28.553 11.413-50.234 40.594-51.02 19.413-.524 43.731 19.29 42.078 89.627m-50.27-22.408c4.585 2.673 21.772 3.44 20.77-21.403-.84-20.83-29.32-22.814-29.96.401-.34 12.345 4.195 18.09 9.19 21.002" clip-rule="evenodd"/><path stroke="#1e3a6e" stroke-width="2" d="M68.655 18.558c-13.006 4.48-23.704 28.55-23.704 42.547M45 68.059c-.374 18.334 3.682 36.195 14.545 43.732m71.661-25.521c3.207 24.462.969 59.277-24.27 75.543m13.638-145.226c20.911 9.799 25.044 35.194 26.495 45.866M59.13 148.975c-4.154 3.979-6.912 15.71-1.98 24.643"/></g><defs><clipPath id="oAlKQoQdwTa"><path fill="#fff" d="M0 0h192v192H0z"/></clipPath></defs></svg>