<svg xmlns="http://www.w3.org/2000/svg" width="192" height="192" fill="none" viewBox="0 0 192 192"><g stroke-linecap="round" stroke-linejoin="round" stroke-miterlimit="1.5" clip-path="url(#DnM0cGAzmDa)"><path fill="#6b8cce" fill-rule="evenodd" stroke="#6b8cce" d="M144.952 95.026c.811 42.533-11.911 75.664-40.129 76.035-33.348.439-40.34-44.89-40.879-77.371-.546-32.913 10.296-77.183 39.477-77.97 18.094-.488 40.399 19.992 41.531 79.306m-46.45 22.334c4.583 3.483 21.768 4.468 20.787-27.928-.823-27.163-29.3-29.725-29.959.549-.35 16.098 4.18 23.585 9.172 27.379" clip-rule="evenodd"/><path stroke="#1e3a6e" stroke-width="3" d="M136.267 96.291c.811 42.533-11.911 75.664-40.13 76.035-33.347.439-40.34-44.89-40.878-77.37-.546-32.914 10.296-77.184 39.477-77.97 18.094-.489 40.399 19.991 41.531 79.305m-46.45 22.334c4.583 3.483 21.768 4.468 20.787-27.928-.823-27.163-29.3-29.725-29.96.55-.35 16.097 4.18 23.584 9.173 27.378" clip-rule="evenodd"/><path stroke="#1e3a6e" stroke-width="2" d="M73.882 16.08c-22.945 15.122-30.664 55.904-27.86 86.964m100.051 1.189c-.848 55.082-17.391 68.354-38.725 74.894M96.77 25.785c14.181 3.41 24.761 22.813 26.527 42.89M65.42 113.616c-.275 17.722 11.303 46.266 26.116 49.075"/></g><defs><clipPath id="DnM0cGAzmDa"><path fill="#fff" d="M0 0h192v192H0z"/></clipPath></defs></svg>