<svg xmlns="http://www.w3.org/2000/svg" width="192" height="192" fill="none" viewBox="0 0 192 192"><g clip-path="url(#dx9hpfqsLta)"><g clip-path="url(#IIol4oSvqmb)"><path fill="#6b8cce" stroke="#6b8cce" d="M152.812 142.353c3.452 1.415 9.717 2.414 17.259 3.608zm0 0 .199-.457m-.199.457.198-.457h.001m0 0c1.677.687 4.065 1.283 7.001 1.858 2.902.569 6.307 1.111 10.039 1.702m-17.04-3.56c-.527-.216-1.098-.683-1.669-1.379-.565-.691-1.105-1.576-1.579-2.58-.948-2.012-1.604-4.45-1.683-6.652l-.504.022.504-.022c-.414-11.536-1.024-29.633-1.345-44.913-.16-7.64-.248-14.573-.203-19.626.022-2.528.078-4.578.174-6.008a16 16 0 0 1 .17-1.636q.038-.219.072-.325c5.694-2.03 16.081-4.282 18.455-4.746.393-.077.811.059 1.283.57.48.522.954 1.375 1.407 2.558.902 2.358 1.66 5.864 2.281 10.167 1.24 8.595 1.914 20.248 2.144 31.956.23 11.706.016 23.449-.516 32.219-.267 4.388-.612 8.019-1.019 10.526-.204 1.259-.42 2.209-.64 2.824-.112.313-.212.502-.288.6l-.004.005m0 0-.035.039m.035-.039.106.016a.2.2 0 0 0-.141.023m0 0-.004.004zm-23.224-86.662Z"/><path stroke="#1e3a6e" stroke-linecap="round" stroke-linejoin="round" stroke-miterlimit="1.5" stroke-width="2.9953" d="M162.461 68.368c6.312 24.256 2.623 58.406.557 73.847"/><path stroke="#1e3a6e" stroke-linecap="round" stroke-linejoin="round" stroke-miterlimit="1.5" stroke-width="2.998" d="M157.919 61.417q-3.406.38-6.65.573c-7.684.462-14.699.173-21.115-.644-34.295-4.365-51.52-23.778-62.316-23.881-8.66-.083-11.125 9.843-8.77 15.775 5.401 13.612 22.167 21.438 21.346 23.85-.746 2.186-26.6 3.924-37.701 6.346-12.17 2.655-9.087 13.523-6.027 17.102 1.864 2.178 6.231 3.46 6.298 3.844.052.299-6.61 5.753-5.196 12.049 1.594 7.085 8.256 8.275 11.925 8.356.867.019.308 1.197.09 1.567-2.41 4.102-4.823 14.793 11.5 17.828 5.516 1.024 79.943 4.851 94.767 10.016"/><path stroke="#1e3a6e" stroke-linecap="round" stroke-linejoin="round" stroke-miterlimit="1.5" stroke-width="1.9987" d="M42.537 103.306c3.594 1.499 20.268 2.986 30.81-2.492 9.216-4.789 9.648-21.699-7.817-20.65"/><path stroke="#1e3a6e" stroke-linecap="round" stroke-linejoin="round" stroke-miterlimit="1.5" stroke-width="1.9987" d="M49.524 124.164c1.829.073 15.803.1 24.059-2.271 7.999-2.299 9.898-21.364-5.642-18.975"/><path stroke="#1e3a6e" stroke-linecap="round" stroke-linejoin="round" stroke-miterlimit="1.5" stroke-width="1.9987" d="M61.303 144.182c3.785.226 10.585-.337 13.752-1.276 9.641-2.856 11.054-19.732-5.517-20.137"/><path stroke="#1e3a6e" stroke-linecap="round" stroke-linejoin="round" stroke-miterlimit="1.5" stroke-width="2" d="M97.503 38.227c7.687 6.875 24.227 12.93 40.261 15.221"/><path stroke="#1e3a6e" stroke-linecap="round" stroke-linejoin="round" stroke-miterlimit="1.5" stroke-width="1.9992" d="M95.124 137.633c12.512.419 49.842 3.791 59.507 7.5"/></g></g><defs><clipPath id="dx9hpfqsLta"><path fill="#fff" d="M0 0h192v192H0z"/></clipPath><clipPath id="IIol4oSvqmb"><path fill="#fff" d="M0 0h192v192H0z"/></clipPath></defs></svg>