<svg xmlns="http://www.w3.org/2000/svg" width="192" height="192" fill="none" viewBox="0 0 192 192"><g stroke-linecap="round" stroke-linejoin="round" stroke-miterlimit="1.5"><path fill="#6b8cce" fill-rule="evenodd" stroke="#6b8cce" d="M85.23 86.768c.723-7.668-18.114-10.58-16.339-35.757 2.002-28.409 22.544-32.678 34.94-33.178 25.258-1.017 34.333 22.111 34.196 33.255-.398 32.575-17.821 27.511-17.754 36.764.038 5.16 22.898 15.138 22.058 47.827-.557 21.635-9.889 33.183-21.887 36.687-13.578 3.966-58.562 9.44-59.842-39.211-.84-31.95 23.842-38.079 24.627-46.387m18.417 29.13c-5.48.099-17.324 4.489-17.52 19.397-.226 17.187 24.585 16.621 29.425 8.463 5.919-9.976 2.549-28.123-11.905-27.86M91.102 58.103c.28 4.907 5.8 10.24 12.204 10.411 5.652.152 12.855-1.04 13.855-9.462 1.423-11.992-6.526-16.123-12.947-16.635-13.065-1.043-13.405 10.535-13.112 15.686" clip-rule="evenodd"/><path stroke="#1e3a6e" stroke-width="3" d="M76.952 87.698c.724-7.668-18.113-10.581-16.338-35.757 2.002-28.41 22.544-32.678 34.94-33.178 25.258-1.017 34.333 22.11 34.196 33.255-.398 32.575-17.821 27.51-17.754 36.764.038 5.16 22.898 15.138 22.058 47.827-.557 21.635-9.889 33.183-21.887 36.687-13.578 3.966-58.562 9.44-59.842-39.211-.841-31.95 23.842-38.08 24.627-46.387m18.418 29.13c-5.481.099-17.324 4.489-17.52 19.397-.226 17.187 24.585 16.621 29.425 8.463 5.919-9.976 2.549-28.123-11.905-27.86M82.825 59.033c.28 4.907 5.799 10.239 12.204 10.41 5.652.153 12.855-1.04 13.855-9.461 1.423-11.992-6.526-16.123-12.947-16.635-13.065-1.043-13.405 10.535-13.112 15.686" clip-rule="evenodd"/><path stroke="#1e3a6e" stroke-width="2" d="M90.986 10.873c-20.736 1.028-41.417 14.27-39.903 40.74m.785 5.723c-.058 11.915 3.778 20.848 11.069 27.022m62.439 6.439c19.198 12.033 22.599 47.173 16.393 62.739m-1.629 5.52c-6.69 16.647-16.987 22.289-27.974 23.935m-34.538-81.216c-6.323 2.664-22.162 20.228-14.524 42.698M111.592 32.47c5.746 3.902 12.108 13.523 8.979 27.492"/></g></svg>