<svg xmlns="http://www.w3.org/2000/svg" width="192" height="192" fill="none" viewBox="0 0 192 192"><g stroke-linecap="round" stroke-linejoin="round" stroke-miterlimit="1.5" clip-path="url(#CT33jslc4Ua)"><path fill="#6b8cce" fill-rule="evenodd" stroke="#6b8cce" d="M40.842 32.875c-11.338-.074-12.717.847-12.806 7.245-.147 10.522.109 31.303.32 41.999.144 7.231 3.166 6.96 12.599 7.03 19.596.144 57.412.184 77.883-.168 11.773-.202 13.944-.808 14.18-6.867.414-10.639.05-31.329-.496-42.105-.303-5.955-1.501-7.158-13.72-7.258-20.396-.167-59.466.244-77.96.123" clip-rule="evenodd"/><path stroke="#1e3a6e" stroke-width="2.0026" d="M74.293 95.09c-.02 8.512-.223 41.289-.223 54.756M30.954 85.544c8.513.019 36.708-.305 50.174-.305m20.609 78.959c8.512.019 52.923-.297 66.389-.297M22.196 27.604c8.513.02 36.928-.35 50.395-.35"/><path stroke="#1e3a6e" stroke-width="2.9995" d="M21.663 95.322c8.512.018 90.179-.378 103.646-.378m.312 54.989c.013-5.851.168-67.652.242-109.685"/><path stroke="#1e3a6e" stroke-width="3" d="M39.558 40.405c-16.161-.143-18.126 1.651-18.254 14.117-.209 20.5.155 60.991.457 81.829.204 14.091 4.512 13.562 17.957 13.698 27.931.281 81.833.358 111.012-.326 16.781-.395 19.874-1.576 20.211-13.381.59-20.728.072-61.04-.707-82.036-.431-11.603-2.138-13.947-19.556-14.142-29.071-.325-84.76.476-111.12.241" clip-rule="evenodd"/><path stroke="#1e3a6e" stroke-width="2" d="M160.374 76.184c.17 20.073.228 45.251-.216 59.889m-74.156-108.6c8.68-.091 24.894-.022 34.429-.141"/></g><defs><clipPath id="CT33jslc4Ua"><path fill="#fff" d="M0 0h192v192H0z"/></clipPath></defs></svg>