<svg xmlns="http://www.w3.org/2000/svg" width="192" height="192" fill="none" viewBox="0 0 192 192"><g stroke-linecap="round" stroke-linejoin="round" stroke-miterlimit="1.5"><path fill="#6b8cce" fill-rule="evenodd" stroke="#6b8cce" stroke-width=".9973" d="M69.876 59.578c-.22-8.54-1.077-12.836 3.207-21.997 10.788-23.054 39.727-22.642 54.645-13.916 17.49 10.232 14.247 42.854 8.469 53.757-5.918 11.168-9.781 7.84-9.712 17.093.036 5.162 17.402 8.81 16.561 41.498-.556 21.636-9.889 33.184-21.886 36.689-13.579 3.966-50.792 4.388-54.317-20.328-1.89-13.24.413-22.195.877-24.951.421-2.518 15.513-1.445 20.233-1.191 3.764.205.433 6.934 3.19 17.614 2.49 9.656 20.285 8.405 25.124.247 7.28-12.269 2.737-36.282-19.897-39.83-3.672-.575-6.454-15.201 1.297-17.599 11.728-3.628 16.371-13.959 18.436-22.122 4.862-19.225-9.93-25.055-19.19-20.27-4.605 2.377-6.086 8.33-6.523 15.43-.441 7.176-20.29 8.623-20.514-.124" clip-rule="evenodd"/><path stroke="#1e3a6e" stroke-width="3" d="M61.103 59.62c-.22-8.54-1.077-12.836 3.208-21.998C75.1 14.568 104.038 14.98 118.955 23.706c17.49 10.232 14.247 42.855 8.47 53.757-5.918 11.168-9.781 7.84-9.713 17.093.037 5.162 17.403 8.81 16.562 41.498-.556 21.636-9.889 33.184-21.887 36.689-13.579 3.966-50.792 4.388-54.317-20.328-1.89-13.24.413-22.195.877-24.951.422-2.518 15.514-1.445 20.234-1.191 3.764.205.433 6.934 3.189 17.614 2.491 9.656 20.285 8.405 25.124.247 7.281-12.269 2.738-36.282-19.897-39.83-3.671-.575-6.453-15.201 1.298-17.599 11.727-3.628 16.37-13.959 18.435-22.122 4.863-19.225-9.93-25.055-19.189-20.27-4.606 2.377-6.087 8.33-6.523 15.43-.442 7.176-20.29 8.623-20.515-.124" clip-rule="evenodd"/><path stroke="#1e3a6e" stroke-width="2" d="M51.419 49.39c1.749-26.941 14.603-37.295 44.86-39.14m46.317 99.303c7.273 12.758 6.952 65.048-23.609 71.675M46.308 131.69c-.566 18.741-.37 46.427 28.111 50.345m42.913-147.209c10.792 10.946 4.968 37.212-1.593 44.514"/></g></svg>