<svg xmlns="http://www.w3.org/2000/svg" width="192" height="192" fill="none" viewBox="0 0 192 192"><g clip-path="url(#DiJZTDKxUqa)"><g stroke-linecap="round" stroke-linejoin="round" stroke-miterlimit="1.5" clip-path="url(#Wc_0T5QXlpb)"><path stroke="#1e3a6e" stroke-width="2.9986" d="M58.013 21.794c-11.762.342-20.15.689-21.451.882-1.814-.385 3.1 144.873 4.973 146.808.31.322 107.38-1.33 107.615-1.574.239-.247 7.022-144.418 5.504-145.399-1.492-.963-10.575-1.443-23.1-1.618m-60.886.567a2597 2597 0 0 1 18.064-.365m12.836-.179a1595 1595 0 0 1 17.972-.102"/><path fill="#6b8cce" fill-rule="evenodd" stroke="#6b8cce" stroke-width="1.004" d="M31.191 156.188c-2.272.023-8.307 2.092-8.255 7.424.073 7.336 5.115 8.06 8.67 7.996 11.871-.213 35.603.146 48.02-.042 6.176-.094 8.596-1.968 8.797-7.858.169-4.945-3.876-7.529-8.449-7.68-12.848-.423-47.135.143-48.783.16" clip-rule="evenodd"/><path fill="#6b8cce" fill-rule="evenodd" stroke="#6b8cce" stroke-width="1.002" d="M39.761 140.368c-2.272.024-8.307 2.165-8.255 7.684.073 7.593 5.115 8.342 8.67 8.275 11.871-.219 35.603.152 48.02-.043 6.175-.097 8.595-2.037 8.797-8.133.168-5.118-3.876-7.793-8.45-7.949-12.847-.438-47.134.148-48.782.166" clip-rule="evenodd"/><path fill="#6b8cce" fill-rule="evenodd" stroke="#6b8cce" stroke-width="1.0029" d="M34.268 124.481c-2.272.024-8.308 2.169-8.256 7.698.074 7.606 5.116 8.357 8.67 8.29 11.872-.22 35.604.152 48.021-.043 6.175-.098 8.595-2.041 8.796-8.148.17-5.127-3.875-7.807-8.448-7.963-12.849-.439-47.135.149-48.783.166" clip-rule="evenodd"/><path stroke="#1e3a6e" stroke-width="3.0025" d="M26.843 160.079c-2.272.023-8.308 2.091-8.256 7.424.074 7.336 5.115 8.06 8.67 7.995 11.872-.212 35.604.147 48.021-.042 6.175-.094 8.595-1.967 8.796-7.858.169-4.944-3.875-7.529-8.449-7.679-12.848-.423-47.135.143-48.782.16" clip-rule="evenodd"/><path stroke="#1e3a6e" stroke-width="3.0025" d="M35.412 144.247c-2.272.024-8.307 2.092-8.255 7.424.073 7.336 5.115 8.06 8.67 7.996 11.871-.212 35.603.146 48.02-.042 6.175-.094 8.595-1.968 8.797-7.858.168-4.944-3.876-7.529-8.45-7.68-12.848-.423-47.134.144-48.782.16m-5.493-15.887c-2.272.023-8.308 2.092-8.256 7.424.074 7.336 5.115 8.06 8.67 7.996 11.872-.213 35.604.146 48.021-.042 6.175-.094 8.595-1.968 8.796-7.858.17-4.945-3.875-7.529-8.448-7.68-12.849-.423-47.135.143-48.783.16" clip-rule="evenodd"/><path stroke="#1e3a6e" stroke-width="2" d="M163.711 132.356c.081-.405-.258 10.254-.25 10.067m3.422-77.538c-.096 4.628-2.876 61.037-2.895 61.485"/><path stroke="#1e3a6e" stroke-width="2.0032" d="M25.69 167.62c3.288.025 32.574-.325 35.865-.372M26.457 91.054c-.724-11.19-1.149-59.942-1.317-62.458"/><path stroke="#1e3a6e" stroke-width="2.0004" d="M60.255 17.163c-.898 3.266-3.046 10.586.02 18.15 2.155 5.316 6.43 4.348 7.35-1.299.933-5.731 2.476-15.75 2.355-16.877-.4-3.686-9.063-2.382-9.725.026m30.605-.006c-.898 3.265-3.046 10.586.02 18.149 2.155 5.317 6.43 4.349 7.35-1.298.933-5.732 2.477-15.751 2.355-16.878-.399-3.685-9.062-2.381-9.725.027m30.338-.078c-.898 3.265-3.046 10.585.02 18.149 2.155 5.317 6.43 4.349 7.35-1.298.933-5.732 2.477-15.751 2.355-16.878-.399-3.685-9.062-2.381-9.725.026" clip-rule="evenodd"/><path stroke="#1e3a6e" stroke-width="2" d="M56.662 69.892c2.621.745 63.341.036 78.994.036M56.152 86.203c2.62.745 63.34.036 78.994.036M56.717 56.115c4.56.206 63.34.036 78.994.036m-80.079 44.627c1.538.438 23.098.374 43.81.247"/></g></g><defs><clipPath id="DiJZTDKxUqa"><path fill="#fff" d="M0 0h192v192H0z"/></clipPath><clipPath id="Wc_0T5QXlpb"><path fill="#fff" d="M0 0h192v192H0z"/></clipPath></defs></svg>