<svg xmlns="http://www.w3.org/2000/svg" width="192" height="192" fill="none" viewBox="0 0 192 192"><g clip-path="url(#UtgLaxW1vKa)"><g stroke-linecap="round" stroke-linejoin="round" stroke-miterlimit="1.5" clip-path="url(#QoT42EwYBmb)"><path fill="#6b8cce" fill-rule="evenodd" stroke="#6b8cce" stroke-width="1.0012" d="M35.841 115.921c-1.57-2.059-1.365-4.586-.067-5.612 2.361-1.867 5.59-4.453 6.806-5.539 10.826-9.663 17.345-30.435 19.77-38.126.57-1.815 1.704-2.094 2.85-.603 6.776 8.813 30.52 39.961 37.065 48.559.815 1.07.595 2.217-1.224 2.384-6.672.611-23.901 2.467-36.872 9.793-.99.559-6.117 4.445-9.575 7.052-1.84 1.386-4.062 1.298-5.197-.184-3.28-4.283-9.85-12.868-13.556-17.724" clip-rule="evenodd"/><path stroke="#1e3a6e" stroke-width="3.0035" d="M32.29 116.041c-3.751-4.647-22.23 10.287-18.962 14.482.313.403 3.16 4.138 3.16 4.138l14.815 19.396s.548.791 1.302 1.702c5.013 6.066 23.442-8.761 20.708-12.275-1.31-1.684-4.026-5.188-4.026-5.188l-14.771-19.339s-1.459-1.964-2.227-2.916" clip-rule="evenodd"/><path stroke="#1e3a6e" stroke-width="3" d="M49.947 149.962s-3.017 2.58-4.556 3.604c-1.466.975-4.68 2.536-4.68 2.536l20.673 27.066 8.795-6.717zm20.984-89.848c-1.796-2.135-10.462 4.607-8.795 6.717.113.144 1.447 1.894 1.447 1.894l42.356 55.457s1.103 1.461 1.202 1.573c2.157 2.442 11.664-3.158 8.795-6.717a330 330 0 0 1-1.296-1.697L72.32 61.934s-1.276-1.686-1.389-1.82" clip-rule="evenodd"/><path stroke="#1e3a6e" stroke-width="3.0035" d="M58.057 138.63c3.599 5.265 4.955 12.564-2.12 18.266"/><path stroke="#1e3a6e" stroke-width="3.0035" d="M34.188 118.498c.84-.632 7.553-5.915 9.437-7.597 13.38-11.945 20.183-40.86 20.804-41.068.08-.026 38.213 50.007 40.46 52.973.237.313-23.168.779-39.674 10.102-1.518.857-12.74 9.517-12.804 9.435-.471-.608-17.923-23.399-18.223-23.845" clip-rule="evenodd"/><path stroke="#1e3a6e" stroke-width="2.0023" d="M19.077 128.995c6.7 8.056 16.592 20.699 17.907 22.557m51.879-81.01c3.648 4.932 29.677 39.29 33.485 44.515M67.263 83.308c-2.442 7.04-8.496 21.682-15.538 27.747"/><path stroke="#1e3a6e" stroke-width="1.9987" d="M114.292 52.422c.299 3.97 6.008 6.74 8.589 3.88 4.313-4.781 9.025 3.876 16.477-7.083"/><path stroke="#1e3a6e" stroke-width="1.9987" d="M112.988 56.712c1.45-6.52 4.981-16.917 13.402-17.348 8.135-.415 15.168 12.372 17.266 17.398"/><path fill="#6b8cce" fill-rule="evenodd" stroke="#6b8cce" stroke-width=".9962" d="M151.495 32.772c-6.674.008-6.883 9.974.003 10.047 7.306.077 7.026-10.056-.003-10.047" clip-rule="evenodd"/><path stroke="#1e3a6e" stroke-width="1.9958" d="M149.262 34.729c-6.675.008-6.883 9.974.002 10.047 7.307.077 7.026-10.056-.002-10.048" clip-rule="evenodd"/><path stroke="#1e3a6e" stroke-width="1.9989" d="M132.116 75.713c2.194-9.792 8.69-20.269 16.867-20.242 4.154.014 9.565.743 13.103 9.749"/><path stroke="#1e3a6e" stroke-width="1.9989" d="M140.504 60.176c4.649 5.63 9.094 2.654 11.722.665 1.759-1.33 6.899 4.592 8.084.488"/><path stroke="#1e3a6e" stroke-width="2.9993" d="M118.779 26.891c-3.618.18-6.032 3.046-6.02 6.318.034 9.175.101 27.294.151 36.62.018 3.353 2.338 6.065 5.922 6.13 9.212.167 26.989.1 36.614-.146 3.91-.1 6.687-2.669 6.666-5.988-.06-9.28-.033-27.313-.233-36.713-.078-3.599-2.89-6.241-6.451-6.329-9.587-.235-27.96-.322-36.649.108" clip-rule="evenodd"/><path stroke="#1e3a6e" stroke-width="3.001" d="M99.956 15.581c-.01-3.192-2.334-5.513-5.86-5.559-10.84-.14-33.984-.079-43.935.18-2.923.076-4.722 2.53-4.738 5.03-.048 7.591-.125 22.134.026 29.916.061 3.17 2.904 5.209 4.841 5.207 10.857-.008 45.068-.046 45.91-.019 1.532.05 3.656-2.358 3.676-5.17.053-7.572.101-21.827.08-29.585" clip-rule="evenodd"/><path stroke="#1e3a6e" stroke-width="1.9989" d="M67.263 17.193c-.178 2.246-1.43 21.335-1.534 25.23M77.654 16.96c-.104 1.722-1.493 22.282-1.625 24.596"/><path stroke="#1e3a6e" stroke-width="1.9989" d="M60.858 26.3c5.404-1.182 18.377-3.161 23.202-4.18M61.14 36.832c4.628-1.039 19.955-3.534 23.413-4.302"/><path stroke="#1e3a6e" stroke-width="2.9986" d="M138.923 93.017c-3.396.168-5.663 2.86-5.651 5.93.031 8.613.094 25.622.141 34.376.017 3.148 2.195 5.693 5.559 5.755 8.648.156 25.335.093 34.37-.138 3.671-.093 6.277-2.505 6.257-5.621-.055-8.711-.03-25.639-.218-34.462-.073-3.378-2.713-5.86-6.055-5.941-9-.22-26.246-.302-34.403.101" clip-rule="evenodd"/><path fill="#6b8cce" fill-rule="evenodd" stroke="#6b8cce" stroke-width=".9957" d="M159.157 105.175c-14.364.017-14.812 21.465.006 21.622 15.723.167 15.12-21.64-.006-21.622" clip-rule="evenodd"/><path stroke="#1e3a6e" stroke-width="1.9986" d="M155.818 108.071c-14.364.018-14.812 21.465.006 21.623 15.723.166 15.12-21.641-.006-21.623" clip-rule="evenodd"/><path stroke="#1e3a6e" stroke-width="1.9955" d="M169.96 98.333c-3.534.004-3.644 5.281.002 5.319 3.868.041 3.72-5.324-.002-5.32" clip-rule="evenodd"/></g></g><defs><clipPath id="UtgLaxW1vKa"><path fill="#fff" d="M0 0h192v192H0z"/></clipPath><clipPath id="QoT42EwYBmb"><path fill="#fff" d="M0 0h192v192H0z"/></clipPath></defs></svg>