<svg xmlns="http://www.w3.org/2000/svg" width="192" height="192" fill="none" viewBox="0 0 192 192"><g clip-path="url(#zSzo9lZfQQa)"><g stroke-linecap="round" stroke-linejoin="round" stroke-miterlimit="1.5" clip-path="url(#z73OAym2vhb)"><path fill="#6b8cce" fill-rule="evenodd" stroke="#6b8cce" d="M98.232 161.217c-29.842-.506-45.136 7.362-45.1 9.952.098 6.791 31.67 11.209 44.465 11.167 27.082-.088 45.489-6.705 45.503-10.546.009-2.486-10.428-9.991-44.868-10.573" clip-rule="evenodd"/><path stroke="#1e3a6e" stroke-width="3.0008" d="M96.982 109.972c16.489 0 29.857-13.368 29.857-29.858s-13.368-29.857-29.857-29.857c-16.49 0-29.858 13.368-29.858 29.857 0 16.49 13.368 29.858 29.858 29.858"/><path stroke="#1e3a6e" stroke-width="3" d="M96.483 173.224c-9.042-7.478-31.765-22.531-53.294-66.384-3.886-7.916-7.922-23.836-7.654-34.396.75-29.54 30.472-50.165 61.7-50.152 43.042.015 58.723 32.48 59.761 48.573.541 8.389-.546 22.86-6.863 35.983-17.372 36.08-42.949 57.16-53.65 66.376" clip-rule="evenodd"/><path stroke="#1e3a6e" stroke-width="1.9953" d="M84.455 175.802c9.584 4.214 15.639 3.264 23.113.04"/><path stroke="#1e3a6e" stroke-width="2" d="M60.954 49.26c-9.167 4.204-16.826 19.915-11.823 38.01m95.283-20.603c2.769 20.021.297 33.036-16.269 51.447m40.349-56.441c1.852 5.556 2.388 21.033-1.123 33.76m-53.481-82.98c32.527 4.305 46.459 27.003 51.801 40.466"/></g></g><defs><clipPath id="zSzo9lZfQQa"><path fill="#fff" d="M0 0h192v192H0z"/></clipPath><clipPath id="z73OAym2vhb"><path fill="#fff" d="M0 0h192v192H0z"/></clipPath></defs></svg>