<svg xmlns="http://www.w3.org/2000/svg" width="192" height="192" fill="none" viewBox="0 0 192 192"><g stroke-linecap="round" stroke-linejoin="round" stroke-miterlimit="1.5" clip-path="url(#JKq_uMx7bca)"><path fill="#6b8cce" fill-rule="evenodd" stroke="#6b8cce" d="M90.798 170.777c1.82-4.287 22.081 2.583 36.137-35.285 8.669-23.354-5.995-47.465-23.321-78.423C90.198 33.098 89.73 12.872 91.02 14.712c1.02 1.457 6.413 16.24 16.011 33.293 13.338 23.699 26.926 37.488 32.204 55.578.116.394 6.321 24.135-1.254 41.872-5.988 14.02-26.243 22.967-26.317 22.971-1.294.074-13.475 3.371-20.866 2.351" clip-rule="evenodd"/><path stroke="#1e3a6e" stroke-width="3" d="M91.737 12.659c-17.645 59.836-51 79.32-50.432 111.868.386 22.431 20.038 46.178 50.861 46.701 30.809.524 50.789-22.896 50.462-46.781-.59-42.599-31.937-51.64-50.89-111.788" clip-rule="evenodd"/><path stroke="#1e3a6e" stroke-width="2" d="M152.978 106.153c11.157 40.424-13.048 77.255-60.73 76.295"/><path stroke="#1e3a6e" stroke-width="1.9969" d="M87.058 47.301c-3.203 15.307-13.344 31.082-26.147 48.81m-4.274 7.414c-17.522 31.894 16.017 57.893 30.217 56.905M80.752 13.483c-16.907 45.638-33.298 58.368-43.48 75.74m113.781 10.232c-4.273-15.388-27.226-40.18-30.073-52.41"/></g><defs><clipPath id="JKq_uMx7bca"><path fill="#fff" d="M0 0h192v192H0z"/></clipPath></defs></svg>