<svg xmlns="http://www.w3.org/2000/svg" width="192" height="192" fill="none" viewBox="0 0 192 192"><g stroke-linecap="round" stroke-linejoin="round" stroke-miterlimit="1.5" clip-path="url(#mCDwTM0Xh8a)"><path fill="#6b8cce" fill-rule="evenodd" stroke="#6b8cce" stroke-width="1.001" d="M116.701 113.211c-.077.302 12.41 5.908 23.466 15.529 10.322 8.985 15.461 19.046 15.641 18.922 3.54-2.422 6.429-4.934 8.361-6.965 6.587-6.923-27.457-48.868-41.969-35.068-2.125 2.02-4.846 5.011-5.499 7.582M90.823 65.349c-5.718-12.226-27.522-34.045-38.376-27.13-2.225 1.416-4.301 3.168-6.103 6.25-.06.1 9.383 7.189 19.022 17.15 11.25 11.627 17.178 19.698 17.296 19.629q.354-.206.65-.484c3.512-3.309 9.57-11.013 7.511-15.415" clip-rule="evenodd"/><path stroke="#1e3a6e" stroke-width="2.0034" d="M132.873 65.254c5.811 5.385 11.706 14.502 11.544 30.543"/><path stroke="#1e3a6e" stroke-width="2" d="M37.788 45.32c8.158 4.333 33.072 29.398 37.545 37.902m37.377 34.416c10.131 3.743 34.512 20.047 39.752 35.008"/><path stroke="#1e3a6e" stroke-width="3" d="M84.398 66.448c-6.063-12.894-29.184-35.904-40.694-28.611-4.596 2.912-8.598 7.163-11.01 20.525-3.847 21.311-1.367 50.319 26.295 77.343 28.869 28.201 58.008 31.308 78.411 25.284 10.86-3.207 20.268-10.371 24.773-15.078 6.985-7.301-29.115-51.537-44.504-36.983-2.762 2.612-6.477 6.765-5.93 9.752 3.948 21.567-7.777 16.874-8.403 16.881-1.725.013-13.439-2.611-27.784-17.379-13.874-14.283-16.774-24.005-17.688-26.284-1.254-3.123.875-11.368 11.43-8.29 1.46.426 5.236.883 7.14-.903 3.723-3.49 10.147-11.615 7.964-16.257" clip-rule="evenodd"/><path stroke="#1e3a6e" stroke-width="2.0034" d="M20.013 52.503c-6.17 15.998-4.557 42.723 6.623 66.646m8.677 12.849c9.398 14.145 22.753 26.147 40.517 32.587m13.103-25.609c12.145 8.042 29.556 8.131 30.831-3.862"/><path stroke="#1e3a6e" stroke-width="2" d="M109.248 24.502c35.587.954 66.246 35.466 62.947 74.805"/><path stroke="#1e3a6e" stroke-width="2" d="M106.544 42.947c26.275.86 49.738 23.923 47.301 52.989"/></g><defs><clipPath id="mCDwTM0Xh8a"><path fill="#fff" d="M0 0h192v192H0z"/></clipPath></defs></svg>