<svg xmlns="http://www.w3.org/2000/svg" width="192" height="192" fill="none" viewBox="0 0 192 192"><g clip-path="url(#uZpziiFVMga)"><g stroke-linecap="round" stroke-linejoin="round" stroke-miterlimit="1.5" clip-path="url(#2DR2Kul6dHb)"><path fill="#6b8cce" fill-rule="evenodd" stroke="#6b8cce" stroke-width=".9976" d="M70.55 124.903c-6.11-.06-9.937-1.725-10.21-5.635-.659-9.434 1.588-10.378 12.939-10.528 16.05-.214 40.625.016 56.448.005 9.751-.008 12.108 2.241 12.348 8.792.232 6.321-1.974 7.609-12.612 7.807-16.75.312-44.226-.298-58.913-.441" clip-rule="evenodd"/><path fill="#6b8cce" fill-rule="evenodd" stroke="#6b8cce" stroke-width=".9983" d="M152.004 42.658c.071.601-.739 1.241-1.302.774-8.378-6.957-17.657-4.14-17.415-6.293.865-7.705-2.088-14.349-3.398-17.01-.373-.758.282-1.402 1.034-1.282 6.893 1.102 19.673 11.88 21.081 23.811" clip-rule="evenodd"/><path stroke="#1e3a6e" stroke-width="2" d="M52.606 41.073c8.59-.076 36.79-.296 54.495-.296"/><path stroke="#1e3a6e" stroke-width="3" d="M46.318 164.938c-.23-.746-3.255-143.286-3.232-144.1.014-.481 47.196-.547 78.625-.395 11.366.054 5.518 17.43 8.085 19.726 3.262 2.92 19.283-2.568 19.294 11.995.035 41.725-.193 110.938-.26 111.928-.066.975-102.369 1.311-102.512.846" clip-rule="evenodd"/><path stroke="#1e3a6e" stroke-width="2" d="M40.398 176.24c6.424.348 45.348.003 57.483.003m-63.373-28.26c.03.599.397 11.078.609 15.459M32.049 80.85c.296 4.736 2.218 60.725 2.237 61.173M160.567 20.75c-.071 5.145-.386 80.837-.173 88.719"/><path stroke="#1e3a6e" stroke-width="1.9966" d="M121.938 19.974c10.179-.836 27.403 17.699 27.58 32.404"/><path stroke="#1e3a6e" stroke-width="2" d="M52.64 51.822c4.145-.2 25.002-.196 42.706-.196m-40.228 60.197c3.13.155 73.604-.047 81.682.019m.356-16.939c-6.572.12-73.879-.165-82.243-.03"/><path stroke="#1e3a6e" stroke-width="3" d="M55.273 145.118c-.027-5.757-.278-37.776-.354-47.455-.008-1.058-.34-14.488-.45-18.865-.002-.075 67.288-.035 82.81-.032.809 0-.896 56.506-.606 66.752.013.432-81.4-.4-81.4-.4" clip-rule="evenodd"/><path stroke="#1e3a6e" stroke-width="2" d="M55.31 128.884c15.565.073 64.869.078 81.06-.1"/><path stroke="#1e3a6e" stroke-width="2" d="M75.89 145.057c.007-9.099-.356-57.033-.362-66.287"/></g></g><defs><clipPath id="uZpziiFVMga"><path fill="#fff" d="M0 0h192v192H0z"/></clipPath><clipPath id="2DR2Kul6dHb"><path fill="#fff" d="M0 0h192v192H0z"/></clipPath></defs></svg>