<svg xmlns="http://www.w3.org/2000/svg" width="192" height="192" fill="none" viewBox="0 0 192 192"><g stroke-linecap="round" stroke-linejoin="round" stroke-miterlimit="1.5" clip-path="url(#MaJYW2RFUHa)"><path fill="#6b8cce" fill-rule="evenodd" stroke="#6b8cce" d="M69.829 81.371c-.77-11.597-1.652-58.956-1.354-63.456.08-1.182 61.855-1.65 63.759-1.64 1.135.008.595 18.248.546 21.111-.022 1.296-39.931-.456-39.97.742-.067 2.189.108 16.335.276 20.776.39 10.338 42.315 10.725 46.655 59.023 2.13 23.698-5.542 52.537-33.221 52.837-43.83.475-39.453-43.403-39.244-46.762.087-1.389 16.46-.792 19.629-.673 1.124.045-2.331 21.91 19.214 22.504 12.739.352 11.971-19.887 7.283-34.679-10.817-34.139-43.324-26.003-43.573-29.783" clip-rule="evenodd"/><path stroke="#1e3a6e" stroke-width="3.0033" d="M62.517 84.272c-.769-11.598-1.652-58.956-1.354-63.456.08-1.182 61.855-1.65 63.76-1.64 1.135.008.595 18.248.545 21.11-.021 1.297-39.93-.456-39.969.743-.067 2.189.107 16.335.276 20.776.39 10.338 42.315 10.725 46.654 59.023 2.13 23.698-5.542 52.537-33.22 52.837-43.83.475-39.454-43.403-39.244-46.762.087-1.389 16.46-.793 19.629-.673 1.123.045-2.332 21.91 19.214 22.504 12.738.352 11.971-19.887 7.283-34.679-10.817-34.139-43.325-26.003-43.574-29.783" clip-rule="evenodd"/><path stroke="#1e3a6e" stroke-width="2" d="M51.355 27.684c-.192 12.805.605 42.77.307 52.121m60.908-11.831c43.447 28.608 33.197 91.916 14.745 103.534m-59.703-38.866c.48 20.1 9.528 33.21 27.938 32.698M80.252 27.008c10.694-.386 28.806.144 35.092.144"/></g><defs><clipPath id="MaJYW2RFUHa"><path fill="#fff" d="M0 0h192v192H0z"/></clipPath></defs></svg>