<svg xmlns="http://www.w3.org/2000/svg" width="192" height="192" fill="none" viewBox="0 0 192 192"><g stroke-linecap="round" stroke-linejoin="round" stroke-miterlimit="1.5" clip-path="url(#pVfGsZZm-ca)"><path fill="#6b8cce" fill-rule="evenodd" stroke="#6b8cce" d="M58.767 81.02c1.942-82.67 71-64.414 74.939-64.156 1.134.075 1.562 21.134-1.056 20.848-26.228-2.85-51.457 2.457-50.815 47.647.06 4.172 9.15-9.234 24.046-9.41 27.818-.329 35.479 23.04 35.557 43.677.109 28.554-11.413 50.234-40.594 51.021-19.411.524-43.73-19.291-42.077-89.628m48.974 22.876c-4.585-2.674-21.772-3.44-20.77 21.403.84 20.831 29.319 22.814 29.959-.402.341-12.345-4.194-18.089-9.189-21.001" clip-rule="evenodd"/><path stroke="#1e3a6e" stroke-width="3" d="M50.392 82.868c1.942-82.669 71-64.413 74.939-64.155 1.134.075 1.562 21.133-1.056 20.848-26.228-2.85-51.457 2.457-50.815 47.647.06 4.172 9.15-9.234 24.047-9.41 27.817-.329 35.478 23.04 35.556 43.677.109 28.554-11.413 50.234-40.593 51.021-19.412.524-43.731-19.291-42.078-89.628m48.975 22.877c-4.586-2.674-21.773-3.44-20.77 21.403.84 20.831 29.318 22.814 29.958-.402.341-12.345-4.194-18.089-9.189-21.001" clip-rule="evenodd"/><path stroke="#1e3a6e" stroke-width="2" d="M85.052 10.863C65.482 14.19 53.417 31.207 47.78 43.22m-2.725 5.833c-7.922 15.693-6.586 43.831-4.264 58.917m94.085-20.105c13.658 14.142 11.811 57.477.159 71.406m-73.231-34.199c8.655 40.513 33.71 42.796 47.602 33.347"/></g><defs><clipPath id="pVfGsZZm-ca"><path fill="#fff" d="M0 0h192v192H0z"/></clipPath></defs></svg>