<svg xmlns="http://www.w3.org/2000/svg" width="192" height="192" fill="none" viewBox="0 0 192 192"><g stroke-linecap="round" stroke-linejoin="round" stroke-miterlimit="1.5" clip-path="url(#9CswflV5wha)"><path fill="#6b8cce" fill-rule="evenodd" stroke="#6b8cce" d="M47.445 100.777c.826 1.432 40.002 70.136 41.965 72.101.23.23 1.29 2.506 2.01 1.787 1.316-1.318 8.93-24.557 11.607-31.921 9.852-27.093 55.807-113.202 55.807-113.621 0-.014-27.264-10.015-27.903-9.376-2.021 2.02-7.698 15.304-9.152 18.081-9.47 18.08-35.192 81.176-36.832 82.816-.671.671-18.2-31.367-20.76-33.93-.973-.973-15.02 12.307-16.742 14.063" clip-rule="evenodd"/><path stroke="#1e3a6e" stroke-width="3" d="M40.342 99.608c.825 1.432 40.001 70.136 41.965 72.101.23.229 1.29 2.505 2.01 1.786 1.316-1.317 8.93-24.557 11.607-31.92 9.852-27.094 55.806-113.203 55.806-113.621 0-.014-27.263-10.016-27.903-9.376-2.021 2.02-7.697 15.304-9.152 18.08-9.469 18.08-35.192 81.177-36.832 82.817-.67.671-18.199-31.368-20.76-33.93-.973-.974-15.02 12.306-16.741 14.063" clip-rule="evenodd"/><path stroke="#1e3a6e" stroke-width="2" d="M163.261 37.008c-7.603 15.026-28.69 58.661-33.216 66.859m-73.713 46.957c3.543 5.929 11.607 20.568 15.09 26.023M128.654 31.24c-2.975 4.509-17.069 33.626-21.373 42.234m19.27 36.543c-2.944 6.34-8.831 20.505-10.737 24.351M52 141.775c-1.834-3.262-24.242-43.066-24.091-43.171.553-.384 18.223-17.686 24.268-22.556"/></g><defs><clipPath id="9CswflV5wha"><path fill="#fff" d="M0 0h192v192H0z"/></clipPath></defs></svg>