<svg xmlns="http://www.w3.org/2000/svg" width="192" height="192" fill="none" viewBox="0 0 192 192"><g clip-path="url(#vKKkRKmNGja)"><g stroke-linecap="round" stroke-linejoin="round" stroke-miterlimit="1.5" clip-path="url(#GCYekDgG_Pb)"><path fill="#6b8cce" fill-rule="evenodd" stroke="#6b8cce" d="M110.081 45.385C95.504 65.71 73.535 98.033 75.598 98.86c2.114.847 24.231.201 25.418 1.242 1.028.902 3.162 41.588 3.499 40.912 1.515-3.027 18.76-53.934 17.154-54.209-5.093-.87-14.903-.345-20.934-1.058-.846-.1 4.477-17.936 9.346-40.362" clip-rule="evenodd"/><path stroke="#1e3a6e" stroke-width="3" d="M103.114 48.434c-14.577 20.324-36.546 52.648-34.483 53.474 2.114.848 24.231.202 25.418 1.243 1.028.901 3.162 41.587 3.499 40.911 1.515-3.026 18.76-53.934 17.154-54.208-5.093-.87-14.902-.346-20.934-1.059-.846-.1 4.478-17.935 9.346-40.361" clip-rule="evenodd"/><path stroke="#1e3a6e" stroke-width="2" d="M121.2 100.486c-2.179 7.28-8.42 26.487-11.715 36.186M64.824 89.591c5.273-7.818 18.328-28.71 23.39-35.091"/><path stroke="#1e3a6e" stroke-width="3" d="M103.337 22.018c-4.096-.496-12.715-.281-14.135-.129-65.62 7.035-88.675 90.734-37.327 132.288 15.394 12.459 36.469 17.59 55.664 14.737 35.774-5.315 67.918-36.251 62.901-80.147-5.941-51.979-45.845-64.175-67.103-66.749" clip-rule="evenodd"/><path stroke="#1e3a6e" stroke-width="1.9971" d="M157.719 86.483c-1.995-17.16-11.31-33.667-29.469-44.154-37.543-21.68-65.345-1.123-77.544 11.763-2.35 2.483-6.458 8.328-7.057 9.349-26.397 44.979 12.727 98.57 62.374 91.561"/><path stroke="#1e3a6e" stroke-width="2" d="M113.469 152.914c9.663-2.6 17.598-9.153 22.848-14.347M52.228 20.215c-17.93 9.649-29.34 27.558-33.836 35.407m157.31 78.137c-5.393 11.344-14.063 22.928-24.532 30.207"/></g></g><defs><clipPath id="vKKkRKmNGja"><path fill="#fff" d="M0 0h192v192H0z"/></clipPath><clipPath id="GCYekDgG_Pb"><path fill="#fff" d="M0 0h192v192H0z"/></clipPath></defs></svg>