<svg xmlns="http://www.w3.org/2000/svg" width="192" height="192" fill="none" viewBox="0 0 192 192"><g stroke-linecap="round" stroke-linejoin="round" stroke-miterlimit="1.5"><path fill="#6b8cce" fill-rule="evenodd" stroke="#6b8cce" d="M71.166 5.19s4.41 57.576 2.273 62.499c-.82 1.886-47.465 22.127-47.465 22.127l53.602 12.699-3.782 64.79 40.868-55.269 64.797 9.861s-43.165-44.302-44.237-45.696l25.844-45.782s-49.851 21.956-52.084 20.104C104.165 44.869 71.166 5.19 71.166 5.19" clip-rule="evenodd"/><path stroke="#1e3a6e" stroke-width="2" d="m71.757 36.215 2.3 37.19m23.346 47.418c-5.507 7.912-11.082 15.712-16.082 22.746m25.536-92.874 12.568-36.96m-6.212 115.256c5.463 7.226 17.46 33.45 22.791 43.662"/><path stroke="#1e3a6e" stroke-width="3" d="M63.966 13.246s4.41 57.576 2.272 62.5c-.819 1.885-47.464 22.126-47.464 22.126l53.602 12.699-3.782 64.79 40.868-55.269 64.797 9.861s-43.165-44.302-44.237-45.696l25.844-45.782s-49.851 21.956-52.084 20.104c-6.817-5.654-39.816-45.333-39.816-45.333" clip-rule="evenodd"/><path stroke="#1e3a6e" stroke-width="2" d="m124.177 90.209 27.406 26.994m-11.969-33.932 30.66-13.258m-116.159-.628c-7.413-4.044-27.826-15.39-35.328-19.27m45.393 67.012c-11.993 9.761-23.488 20.18-35.538 29.912"/></g></svg>