<svg xmlns="http://www.w3.org/2000/svg" width="192" height="192" fill="none" viewBox="0 0 192 192"><g stroke-linecap="round" stroke-linejoin="round" stroke-miterlimit="1.5" clip-path="url(#60H9JuNdrQa)"><path stroke="#1e3a6e" stroke-width="3" d="M144.706 40.593a103 103 0 0 1-5.289.457c-6.111.367-11.69.137-16.794-.513-27.275-3.471-40.975-18.911-49.56-18.993-6.888-.066-8.85 7.829-6.976 12.546 4.296 10.826 17.63 17.05 16.977 18.968-.593 1.74-21.156 3.121-29.984 5.048-9.68 2.111-7.228 10.755-4.793 13.601 1.482 1.733 4.955 2.752 5.008 3.058.041.238-5.257 4.575-4.132 9.583 1.267 5.635 6.566 6.58 9.484 6.645.69.015.245.952.072 1.246-1.917 3.263-3.836 11.766 9.146 14.179 4.386.815 63.58 3.859 75.37 7.967"/><path stroke="#1e3a6e" stroke-width="2" d="m40.33 124.18-4.262 12.941m-2.341 38.811 12.41-8.863"/><path stroke="#1e3a6e" stroke-width="2.0042" d="M52.94 73.91c2.858 1.191 16.119 2.374 24.503-1.983 7.33-3.808 7.673-17.257-6.217-16.423"/><path stroke="#1e3a6e" stroke-width="2.0042" d="M58.496 90.498c1.454.058 12.568.08 19.135-1.806 6.361-1.829 7.872-16.991-4.488-15.091"/><path stroke="#1e3a6e" stroke-width="2.0042" d="M67.865 106.418c3.01.18 8.419-.268 10.938-1.014 7.667-2.272 8.79-15.693-4.388-16.016"/><path stroke="#1e3a6e" stroke-width="1.9953" d="M96.654 22.15c6.115 5.468 19.269 10.283 32.022 12.106"/><path fill="#6b8cce" fill-rule="evenodd" stroke="#6b8cce" d="M51.537 123.885c-2.538 4.199-4.906 15.906-6 17-.419.419-15.487-.606-16 .5-.087.188 10.834 6.834 13 9 .495.495-8.44 16.925-7 18.5.075.082 2.776-.21 16-12 .605-.539 13.334 12.109 15.5 11.5 1.173-.33-7.157-18.265-7-18.5.536-.804 12.6-8.95 12.5-9-.776-.388-14.597.733-15 0-1.23-2.237-3.95-13.455-6-17m101.258-.042c-2.538 4.199-4.906 15.906-6 17-.419.419-15.487-.606-16 .5-.087.188 10.834 6.834 13 9 .495.495-8.44 16.925-7 18.5.075.082 2.776-.21 16-12 .605-.539 13.334 12.109 15.5 11.5 1.173-.33-7.157-18.265-7-18.5.536-.804 12.599-8.95 12.5-9-.776-.388-14.597.733-15 0-1.23-2.237-3.95-13.455-6-17m-51.06-.397c-2.538 4.199-4.906 15.906-6 17-.42.419-15.487-.606-16 .5-.087.188 10.834 6.834 13 9 .495.495-8.44 16.925-7 18.5.075.082 2.776-.21 16-12 .605-.539 13.334 12.109 15.5 11.5 1.173-.33-7.157-18.265-7-18.5.536-.804 12.599-8.95 12.5-9-.776-.388-14.597.733-15 0-1.23-2.237-3.95-13.455-6-17" clip-rule="evenodd"/><path stroke="#1e3a6e" stroke-width="3" d="M46.183 125.473c-2.538 4.199-4.906 15.906-6 17-.419.419-15.487-.606-16 .5-.087.188 10.834 6.834 13 9 .495.495-8.44 16.925-7 18.5.075.082 2.776-.21 16-12 .605-.539 13.334 12.109 15.5 11.5 1.173-.33-7.157-18.265-7-18.5.536-.804 12.6-8.95 12.5-9-.776-.388-14.597.733-15 0-1.23-2.237-3.95-13.455-6-17" clip-rule="evenodd"/><path stroke="#1e3a6e" stroke-width="2" d="m102.812 123.292 4.682 12.486"/><path stroke="#1e3a6e" stroke-width="3" d="M147.441 125.432c-2.538 4.199-4.906 15.906-6 17-.419.419-15.487-.606-16 .5-.087.188 10.834 6.834 13 9 .495.495-8.44 16.925-7 18.5.075.082 2.776-.21 16-12 .605-.539 13.334 12.109 15.5 11.5 1.173-.33-7.157-18.265-7-18.5.536-.804 12.599-8.95 12.5-9-.776-.388-14.597.733-15 0-1.23-2.237-3.95-13.455-6-17" clip-rule="evenodd"/><path stroke="#1e3a6e" stroke-width="2" d="M156.256 136.607c3.553 0 9.268-.208 12.802 0"/><path stroke="#1e3a6e" stroke-width="3" d="M96.38 125.035c-2.537 4.199-4.905 15.906-6 17-.418.419-15.486-.606-16 .5-.086.188 10.835 6.834 13 9 .496.495-8.44 16.925-7 18.5.076.082 2.777-.21 16-12 .606-.539 13.335 12.109 15.501 11.5 1.173-.33-7.157-18.265-7-18.5.536-.804 12.599-8.95 12.5-9-.776-.388-14.597.733-15 0-1.23-2.237-3.95-13.455-6-17" clip-rule="evenodd"/><path stroke="#1e3a6e" stroke-width="2" d="m163.953 153.837 4.889 14.07M94.763 101.21c9.951.333 39.64 3.015 47.327 5.965"/></g><defs><clipPath id="60H9JuNdrQa"><path fill="#fff" d="M0 0h192v192H0z"/></clipPath></defs></svg>