<svg xmlns="http://www.w3.org/2000/svg" width="192" height="192" fill="none" viewBox="0 0 192 192"><g stroke-linecap="round" clip-path="url(#C0fBN80GSBa)"><path fill="#6b8cce" fill-rule="evenodd" stroke="#6b8cce" stroke-linejoin="round" stroke-miterlimit="1.5" d="M34.906 89.398c-.043 5 .49 5.608 4.196 5.647 6.094.065 23.631-.548 29.825-.641 4.19-.063 4.032-1.396 4.073-5.556.083-8.641.356-8.755.153-16.532-.118-5.192-.469-6.149-3.978-6.253-6.162-.182-23.895-.022-30.137.219-3.45.133-4.146.662-4.204 6.05-.097 8.994.142 8.91.072 17.066" clip-rule="evenodd"/><path stroke="#1e3a6e" stroke-linejoin="round" stroke-miterlimit="1.5" stroke-width="2" d="M178.993 82.626c.026 19.987-.216 44.988-.216 59.888M88.433 31.192c8.68-.091 17.143-.023 26.678-.142m-82.339.673c10.712-.17 40.565-.278 47.396-.261"/><path stroke="#1e3a6e" stroke-linejoin="round" stroke-miterlimit="1.5" stroke-width="3" d="M39.316 41.32c-16.162-.144-18.127 1.65-18.254 14.116-.21 20.502.155 60.992.457 81.83.204 14.09 4.512 13.562 17.957 13.698 27.93.281 81.833.358 111.012-.327 16.78-.394 19.874-1.575 20.21-13.38.591-20.728.072-61.04-.706-82.036-.431-11.603-2.139-13.947-19.556-14.142-29.072-.326-84.761.476-111.12.241" clip-rule="evenodd"/><path stroke="#1e3a6e" stroke-linejoin="round" stroke-miterlimit="1.5" stroke-width="2" d="M126.292 60.25c6.499.091 21.665-.003 30.112.009m-123.75 63.994c6.5.091 15.666-.003 24.112.009m9.752-.204c6.499.091 15.665-.003 24.112.009m41.912-.067c6.499.091 15.665-.003 24.112.009M100.327 124c6.499.091 15.666-.003 24.112.009"/><path stroke="#1e3a6e" stroke-linejoin="round" stroke-miterlimit="1.5" stroke-width="1.9982" d="M32.654 138.722c7.61-.08 35.007.245 43.365.141"/><path stroke="#1e3a6e" stroke-linejoin="round" stroke-miterlimit="1.5" stroke-width="2" d="M30.906 85.648c-.043 5 .49 5.607 4.196 5.647 6.094.064 23.881-.048 30.075-.142 4.19-.063 4.032-1.395 4.073-5.555.083-8.641.106-9.255-.097-17.032-.118-5.192-.469-6.149-3.978-6.253-6.162-.183-23.895-.022-30.137.219-3.45.133-4.146.661-4.204 6.05-.097 8.994.142 8.91.072 17.066" clip-rule="evenodd"/><path stroke="#1e3a6e" stroke-width="2" d="M50.148 62.695c0 9.2.307 18.385.307 27.583m-.46-13.251H31.606"/></g><defs><clipPath id="C0fBN80GSBa"><path fill="#fff" d="M0 0h192v192H0z"/></clipPath></defs></svg>