<svg xmlns="http://www.w3.org/2000/svg" width="192" height="192" fill="none" viewBox="0 0 192 192"><g stroke-linecap="round" stroke-linejoin="round" stroke-miterlimit="1.5"><path fill="#6b8cce" fill-rule="evenodd" stroke="#6b8cce" d="M171.233 21.395c-2.146.928-132.642 43.87-132.508 43.947.392.223 37.994 23.464 38.15 23.324 4.349-3.894 91.611-64.203 94.358-67.271m4.499 2.239c-8.739 11.917-65.908 82.751-70.516 88.504-.412.513 40.189 34.592 40.821 34.908.041.02 22.104-95.381 29.695-123.412" clip-rule="evenodd"/><path stroke="#1e3a6e" stroke-width="2" d="M42.822 66.919c10.04-3.971 21.702-8.781 31.123-12.545m7.269-2.952c11.327-4.405 37.061-14.809 48.282-19.485m28.837 23.244c-4.903 14.304-11.25 29.801-16.784 45.761m-1.95 4.695c-2.036 4.825-4.918 12.925-8.192 20.565"/><path stroke="#1e3a6e" stroke-width="3" d="M82.215 131.389c10.129-6.766 14.2-9.253 24.082-16.379"/><path stroke="#1e3a6e" stroke-width="3" d="M174.83 22.785C172.739 23.83 44.812 73.91 44.95 73.979c.403.2 39.23 21.33 39.378 21.183C88.456 91.034 172.257 26 174.83 22.785" clip-rule="evenodd"/><path stroke="#1e3a6e" stroke-width="3" d="M174.829 22.785c-9.443 11.368-70.783 78.622-75.73 84.086-.442.487 38.028 36.955 38.639 37.308.04.023 27.821-93.873 37.091-121.394" clip-rule="evenodd"/><path stroke="#1e3a6e" stroke-width="3" d="M84.327 95.162c-.724 12.944-2.275 36.227-2.113 36.227.038 0 8.302-11.884 16.885-24.518"/><path stroke="#1e3a6e" stroke-width="2" d="M78.86 136.716c-5.022 7.306-9.618 13.758-15.065 19.264m-5.549 4.603c-10.136 7.554-14.465 7.926-19.83 8.283-17.81 1.186-24.092-15.004-18.985-26.463 4.152-9.318 19.154-12.608 25.293-2.53"/></g></svg>