<svg xmlns="http://www.w3.org/2000/svg" width="192" height="192" fill="none" viewBox="0 0 192 192"><g clip-path="url(#IQ5i9ouy9va)"><g stroke-linecap="round" stroke-linejoin="round" stroke-miterlimit="1.5" clip-path="url(#DVChP_HaHvb)"><path fill="#6b8cce" fill-rule="evenodd" stroke="#6b8cce" d="M170.033 148.153c-3.936.197-6.388-3.669-6.462-7.343-.274-13.888-.466-48.947.224-64.568.473-10.735 19.6-3.543 20.462-2.945 3.201 2.22 1.861 5.485 1.991 12.249.407 21.046.126 57.538-1.451 58.876-1.939 1.643-8.912 3.438-14.764 3.731m-149.1.731c3.742.203 4.994-3.365 5.063-7.146.26-14.286.793-48.808.136-64.877-.449-11.045-16.872-4.822-18.314-3.896-3.13 2.008-2.638 8.954-2.763 15.913-.386 21.652-.246 48.201 2.755 54.813 2.253 4.968 7.557 4.891 13.123 5.193" clip-rule="evenodd"/><path stroke="#1e3a6e" stroke-width="3.0012" d="M49.792 37.801c-8.815.436-14.698 7.421-14.668 15.391.083 22.354.246 66.497.367 89.219.044 8.169 5.698 14.777 14.43 14.935 22.443.407 65.754.242 89.202-.356 9.528-.243 16.292-6.502 16.241-14.588-.145-22.611-.079-66.544-.568-89.445-.188-8.768-7.04-15.206-15.715-15.419-23.358-.573-68.12-.784-89.29.263" clip-rule="evenodd"/><path stroke="#1e3a6e" stroke-width="3" d="M35.086 50.907c-3.244.288-24.95 2.519-26.18 4.058-1.018 1.276-1.13 84.623.84 86.626 2.666 2.71 24.035 3.37 25.998 3.794m119.799-94.827c3.244.288 24.95 2.519 26.18 4.058 1.018 1.276 1.13 84.623-.84 86.626-2.666 2.711-23.346 3.381-25.309 3.805"/><path stroke="#1e3a6e" stroke-width="1.9998" d="M45.885 87.119c0 17.162.226 36.379.226 35.704m-.339-45.589c-.027.07.03-12.812.03-18.58M96.17 26.612c-.011.328 34.5-.006 44.877-.006m-14.962 22.611c13.035.198 18.2.566 18.2 22.67M63.871 145.91c-10.972-.167-15.997-.264-17.313-13.472m49.258 36.272c-5.36-.046-45.823.243-54.408-.007m31.252-22.771c10.895.007 29.39-.15 36.513-.15"/></g></g><defs><clipPath id="IQ5i9ouy9va"><path fill="#fff" d="M0 0h192v192H0z"/></clipPath><clipPath id="DVChP_HaHvb"><path fill="#fff" d="M0 0h192v192H0z"/></clipPath></defs></svg>