<svg xmlns="http://www.w3.org/2000/svg" width="192" height="192" fill="none" viewBox="0 0 192 192"><path fill="#6b8cce" stroke="#6b8cce" d="M77.268 116.989c3.387-.146 6.489.555 8.42 1.976 3.04 2.237 6.602 5.488 14.153 5.48.387 0 1.008-.127 1.74-.327.751-.205 1.67-.502 2.68-.874 2.018-.743 4.418-1.792 6.574-3.02 4.789-2.729 9.291-2.27 12.708-.957a17.6 17.6 0 0 1 4.202 2.32c.526.395.953.767 1.268 1.077.324.32.503.548.563.656 3.366 6.062 4.654 13.964 4.953 20.396.15 3.21.052 6.035-.149 8.055-.101 1.013-.226 1.81-.356 2.349-.057.239-.114.41-.161.521l-.031.001h-.533c-.449-.002-1.077-.008-1.863-.017-1.574-.017-3.779-.047-6.453-.083-5.347-.072-12.566-.17-20.336-.254-15.535-.167-33.29-.272-42.707.023-.846.026-1.538-.321-2.112-1.007-.588-.704-1.047-1.764-1.358-3.127-.623-2.723-.62-6.484-.059-10.485.56-3.994 1.669-8.185 3.227-11.755 1.564-3.586 3.553-6.48 5.832-7.964 2.844-1.853 6.422-2.838 9.798-2.984Z"/><path stroke="#1e3a6e" stroke-linecap="round" stroke-linejoin="round" stroke-miterlimit="1.5" stroke-width="2.9976" d="M36.54 94.262c-2.016 4.99-3.772 5.43-6.987 6.236-1.721.432-3.86.968-6.681 2.363-12.958 6.407-12.129 26.381-10.94 35.49.024.188 23.751.362 42.177.331m-1.891-44.89c.953 7.065 6.886 7.955 10.153 8.275"/><path stroke="#1e3a6e" stroke-linecap="round" stroke-linejoin="round" stroke-miterlimit="1.5" stroke-width="1.9984" d="M34.463 102.6c2.968 2 6.284 3.549 9.428 3.633 3.932.105 7.68-1.216 10.056-2.763"/><path stroke="#1e3a6e" stroke-linecap="round" stroke-linejoin="round" stroke-miterlimit="1.5" stroke-width="2.9988" d="M23.004 73.19c1.213 4.534 2.966 9.61 5.671 13.586 5.193 7.63 14.635 12.669 23.649 7.05 1.323-.826 3.165-2.535 4.23-3.673a28 28 0 0 0 3.175-4.079"/><path stroke="#1e3a6e" stroke-linecap="round" stroke-linejoin="round" stroke-miterlimit="1.5" stroke-width="3.0011" d="M67.655 49.235c-3.163-2.17-8.49-5.183-12.572-7.101-.766-.36-1.431-1.49-2.09-2.605-.692-1.175-1.376-2.335-2.16-2.565-4.259-1.252-9.053.918-13.406 2.888-1.584.717-3.11 1.407-4.53 1.897-1.303.45-2.483-.007-3.555-.421-1.065-.412-2.022-.783-2.884-.178-11.17 7.837-5.418 31.277-3.537 32.217.191-.306.27-1.023.382-2.052.332-3.025.96-8.748 5.606-14.634 4.412-5.59 19.114-4.562 19.125-4.51 1.154 5.223 4.518 7.64 7.856 10.04 1.916 1.378 3.823 2.749 5.3 4.64"/><path stroke="#1e3a6e" stroke-linecap="round" stroke-linejoin="round" stroke-miterlimit="1.5" stroke-width="2.0008" d="M22.256 73.186c-8.128.721-3.367 10.608 1.599 5.383"/><path stroke="#1e3a6e" stroke-linecap="round" stroke-linejoin="round" stroke-miterlimit="1.5" stroke-width="1.9977" d="M11.999 145.526c-.219.029 11.608.094 23.634.126"/><path stroke="#1e3a6e" stroke-linecap="round" stroke-linejoin="round" stroke-miterlimit="1.5" stroke-width="2.9976" d="M141.494 93.436c-2.015 4.99-3.771 5.43-6.986 6.235a58 58 0 0 0-1.69.443m24.355-7.148c1.001 7.425 7.505 8.029 10.631 8.32.595.055 1.067.099 1.356.176 13.254 3.543 12.431 26.234 11.165 36.035-.048.367-23.344.412-41.689.322"/><path stroke="#1e3a6e" stroke-linecap="round" stroke-linejoin="round" stroke-miterlimit="1.5" stroke-width="1.9984" d="M139.418 101.774c2.968 2 6.284 3.549 9.428 3.633 3.932.105 7.68-1.216 10.056-2.763"/><path stroke="#1e3a6e" stroke-linecap="round" stroke-linejoin="round" stroke-miterlimit="1.5" stroke-width="2.9988" d="M169.067 73.677c-.878 5.175-3.056 10.848-7.557 15.65-1.066 1.137-2.908 2.847-4.232 3.672-8.151 5.082-16.652 1.448-22.044-4.937"/><path stroke="#1e3a6e" stroke-linecap="round" stroke-linejoin="round" stroke-miterlimit="1.5" stroke-width="3.0011" d="M126.852 45.96c1.038-2.245 2.515-4.202 4.559-5.636.862-.605 1.819-.235 2.884.178 1.072.414 2.252.87 3.555.42 1.421-.489 2.946-1.18 4.53-1.896 4.353-1.97 9.147-4.14 13.406-2.889.784.23 1.468 1.391 2.161 2.566.658 1.115 1.323 2.244 2.09 2.604 6.007 2.823 14.71 8.02 15.243 9.405 2.64 6.868-6.406 23.427-6.412 23.303-.312-7.086-4.151-9.845-8.025-12.63-3.338-2.4-6.702-4.818-7.856-10.04-.011-.052-14.713-1.08-19.125 4.51q-.352.447-.674.89m-6.336-10.785q-.076.165 0 0"/><path stroke="#1e3a6e" stroke-linecap="round" stroke-linejoin="round" stroke-miterlimit="1.5" stroke-width="2.0008" d="M168.951 73.707c5.671-4.158 7.017 3.034 4.676 4.037-1.38.591-3.008.076-4.422.076"/><path stroke="#1e3a6e" stroke-linecap="round" stroke-linejoin="round" stroke-miterlimit="1.5" stroke-width="1.9977" d="M156.466 145.469c-.218.029 11.609.093 23.635.126"/><path stroke="#1e3a6e" stroke-linecap="round" stroke-linejoin="round" stroke-miterlimit="1.5" stroke-width="2.9999" d="M126.979 112.897c7.126-11.737 8.662-21.71 9.264-40.327.426-13.22-10.769-40.36-38.524-39.858-25.977.469-35.477 20.852-37.524 40.943-1.392 13.675-.271 27.271 7.193 39.387"/><path stroke="#1e3a6e" stroke-linecap="round" stroke-linejoin="round" stroke-miterlimit="1.5" stroke-width="3.0029" d="M86.934 100.876c-4.076 10.091-7.345 6.056-18.002 11.326-17.066 8.439-15.974 34.746-14.409 46.744.053.404 83.452.762 83.555-.037 1.667-12.909 2.751-42.794-14.705-47.461-2.385-.636-14.219.448-15.789-11.19"/><path stroke="#1e3a6e" stroke-linecap="round" stroke-linejoin="round" stroke-miterlimit="1.5" stroke-width="1.9995" d="M84.2 111.858c3.909 2.634 8.276 4.674 12.416 4.785 5.179.138 10.116-1.601 13.245-3.639"/><path stroke="#1e3a6e" stroke-linecap="round" stroke-linejoin="round" stroke-miterlimit="1.5" stroke-width="1.9981" d="M86.543 132.931a3.175 3.175 0 1 0 0-6.35 3.175 3.175 0 0 0 0 6.35m.136 13.212a3.176 3.176 0 1 0-.001-6.352 3.176 3.176 0 0 0 0 6.352"/><path stroke="#1e3a6e" stroke-linecap="round" stroke-linejoin="round" stroke-miterlimit="1.5" stroke-width="1.9995" d="M70.791 118.29c-7.984 4.491-10.568 18.034-10.102 29.005"/><path stroke="#1e3a6e" stroke-linecap="round" stroke-linejoin="round" stroke-miterlimit="1.5" stroke-width="1.9964" d="M81.259 166.167c-.452.06 38.227.238 55.599.179"/><path stroke="#1e3a6e" stroke-linecap="round" stroke-linejoin="round" stroke-miterlimit="1.5" stroke-width="3" d="M70.256 69.222a29 29 0 0 0 .837 4.646c1.492 5.585 3.65 11.844 6.985 16.745 6.386 9.384 17.998 15.58 29.084 8.67 1.628-1.016 3.893-3.118 5.204-4.517 7.732-8.25 9.891-18.588 9.904-26.43"/><path stroke="#1e3a6e" stroke-linecap="round" stroke-linejoin="round" stroke-miterlimit="1.5" stroke-width="2.0046" d="M69.449 71.362c-9.997.888-4.141 13.047 1.966 6.622m51.883-6.831c8.64.322 5.206 8.804 2.182 7.983-1.782-.484-2.958-2.224-4.321-3.304"/><path stroke="#1e3a6e" stroke-linecap="round" stroke-linejoin="round" stroke-miterlimit="1.5" stroke-width="3.0016" d="M64.494 55.315c-2.496 5.655-4.707 18.316-4.385 18.372.402.07 7.571-1.489 13.816-7.445 5.21-4.97 9.163-14.498 13.776-14.61 4.645-.111 5.483 8.032 7.864 10.522 3.39 3.545 11.064.236 16.552 1.565 9.802 2.376 22.138 13.955 23.079 12.035 3.02-6.155-1.952-19.6-4.935-24.74-5.76-9.926-16.412-18.871-32.69-18.577-17.741.32-27.625 10.53-33.077 22.878" clip-rule="evenodd"/><path stroke="#1e3a6e" stroke-linecap="round" stroke-linejoin="round" stroke-miterlimit="1.5" stroke-width="2.0046" d="M125.945 59.342c-3.329-8.399-12.117-18.317-23.878-19.655"/><path stroke="#1e3a6e" stroke-linecap="round" stroke-linejoin="round" stroke-miterlimit="1.5" stroke-width="1.9981" d="M105.417 25.925c-10.354-4.696-30.544 2.525-35.924 9.497M96.662 117c0 12.004.018 30.343.018 42.32"/><path stroke="#1e3a6e" stroke-linecap="round" stroke-linejoin="round" stroke-miterlimit="1.5" stroke-width="2" d="M102.894 152.148c1.179.181 25.864.12 28.758.027"/></svg>