<svg xmlns="http://www.w3.org/2000/svg" width="192" height="192" fill="none" viewBox="0 0 192 192"><g clip-path="url(#5p4vEnab18a)"><g stroke-linecap="round" stroke-linejoin="round" stroke-miterlimit="1.5" clip-path="url(#WBMA4hHuAIb)"><path fill="#6b8cce" fill-rule="evenodd" stroke="#6b8cce" d="M177.069 94.687c-.017.17-151.753-.566-151.762-.17-.153 6.765.219 22.674.213 23.27-.003.35 150.83 2.089 151.186-.368.438-3.028.23-16.694.363-22.732" clip-rule="evenodd"/><path stroke="#1e3a6e" stroke-width="3" d="M171.798 27.24c-.017.17-151.753-.566-151.762-.169-.153 6.765.219 22.673.213 23.269-.003.35 150.83 2.089 151.186-.368.438-3.028.23-16.693.363-22.732m.077 38.022c-.017.17-151.753-.566-151.762-.17-.153 6.765.219 22.674.213 23.27-.003.35 150.83 2.089 151.186-.368.438-3.028.23-16.694.363-22.732m.077 38.021c-.017.17-151.753-.565-151.762-.168-.153 6.764.219 22.673.213 23.268-.003.351 150.83 2.09 151.186-.367.438-3.028.23-16.694.363-22.733m.077 38.022c-.017.17-151.753-.565-151.762-.169-.153 6.765.219 22.674.213 23.269-.003.351 150.83 2.089 151.186-.368.438-3.028.23-16.693.363-22.732" clip-rule="evenodd"/><path stroke="#1e3a6e" stroke-width="2" d="M76.332 35.97c9.427-.03 55.188.474 75.07.265M29.024 80.275c6.348.23 56.069.209 61.814.13m9.544.037c7.555-.02 23.683.481 30.777.481m-34.746 31.585c10.919.465 55.017.206 66.858-.016M31.896 156.087c10.131.267 49.561.33 62.721.545M10.272 43.407c-.22-7.346.213-26.267.338-27.383.092-.825 25.834.301 32.698.168m140.103 128.577c.031 5.342-.126 30.633-.211 31.018-.07.321-49.067.017-58.604.017"/></g></g><defs><clipPath id="5p4vEnab18a"><path fill="#fff" d="M0 0h192v192H0z"/></clipPath><clipPath id="WBMA4hHuAIb"><path fill="#fff" d="M0 0h192v192H0z"/></clipPath></defs></svg>