<svg xmlns="http://www.w3.org/2000/svg" width="192" height="192" fill="none" viewBox="0 0 192 192"><g clip-path="url(#NBT301aZ8da)"><g stroke-linecap="round" stroke-linejoin="round" stroke-miterlimit="1.5" clip-path="url(#dw-CVMGv4Sb)"><path fill="#6b8cce" fill-rule="evenodd" stroke="#6b8cce" d="M119.362 80.853c-1.611.01-2.774.662-2.772 1.648.014 6.71.067 32.115.138 39.642.012 1.312 1.141 2.277 2.823 2.345 4.702.193 14.198.297 19.257.149 2.039-.059 3.311-1.716 3.3-2.963-.076-8.48.08-32.195.022-38.826-.009-1.061-1.415-1.906-3.447-1.95-5.095-.108-14.612-.07-19.321-.045M65.59 31.693c-1.61.01-2.774.74-2.771 1.845.013 7.509.066 35.944.137 44.369.013 1.468 1.141 2.549 2.823 2.625 4.703.216 14.198.332 19.257.166 2.04-.066 3.312-1.92 3.3-3.316-.076-9.492.08-36.034.022-43.457-.009-1.187-1.415-2.132-3.447-2.181-5.095-.122-14.612-.08-19.32-.05" clip-rule="evenodd"/><path stroke="#1e3a6e" stroke-width="3" d="M39.05 27.933c-8.902.246-10.665 8.732-10.43 15.39.093 2.645-.342 77.213.5 107.244.204 7.279 2.94 15.563 10.017 16.17 5.234.449 99.755.685 111.899-.134 11.127-.749 12.678-7.873 12.887-16.389.17-6.969.861-96.509.68-104.138-.291-12.252-5.277-17.003-11.563-17.447-8.155-.576-100.825-1.062-113.99-.696" clip-rule="evenodd"/><path stroke="#1e3a6e" stroke-width="2.998" d="M57.164 85.795c3.448-.075 17.246.125 23.506.06"/><path stroke="#1e3a6e" stroke-width="2" d="M112.183 85.565c4.975-.04 19.083.19 25.208.14"/><path stroke="#1e3a6e" stroke-width="2.998" d="M29.558 130.001c23.04.133 110.415.498 134.382.173"/><path stroke="#1e3a6e" stroke-width="2.0007" d="M19.457 152.356c.131 6.032-.27 22.141 18.422 21.806M146.23 19.44c27.798.2 26.843 18.31 26.891 34.457m-.065 7.441c-.102 6.17.054 18.048.054 21.363M19.405 146.459c-.055-10.081-.105-16.99-.105-22.996"/><path stroke="#1e3a6e" stroke-width="3.0011" d="M80.792 129.781c-.044-11.158.006-95.445-.032-101.37"/><path stroke="#1e3a6e" stroke-width="3" d="M112.266 129.266c.01-16.583-.782-84.17-.791-101.036"/><path stroke="#1e3a6e" stroke-width="2.9991" d="M137.518 130.008c.057-16.586-.323-84.464-.298-101.33"/><path stroke="#1e3a6e" stroke-width="3" d="M96.482 167.394c-.066-8.147-.018-28.551-.078-36.837m-39.194-1.25c.01-16.583-.138-83.932-.149-100.798"/></g></g><defs><clipPath id="NBT301aZ8da"><path fill="#fff" d="M0 0h192v192H0z"/></clipPath><clipPath id="dw-CVMGv4Sb"><path fill="#fff" d="M0 0h192v192H0z"/></clipPath></defs></svg>