<svg xmlns="http://www.w3.org/2000/svg" width="192" height="192" fill="none" viewBox="0 0 192 192"><g stroke-linecap="round" stroke-linejoin="round" stroke-miterlimit="1.5" clip-path="url(#QP4QP8HxYwa)"><path fill="#6b8cce" fill-rule="evenodd" stroke="#6b8cce" d="M77.27 99.948c-.814.017-31.744 45.792-33.735 51.178-.846 2.285 21.224 17.04 22.782 14.859 15.27-21.394 22.656-35.991 32.694-50.309 5.396-7.697 29.261 45.338 31.587 48.574 2.253 3.133 16.197-3.045 26.145-13.919 4.349-4.755-34.293-50.135-33.341-51.495 17.163-24.517 43.74-64.095 43.74-64.498 0-.014-17.238-10.853-27.455-10.486-2.757.099-28.075 33.76-35.174 50.235-8.238 19.12-18.636-6.951-43.578-39.276-.56-.723-10.53 3.547-20.612 19.998-.695 1.131 26.998 34.854 36.947 45.139" clip-rule="evenodd"/><path stroke="#1e3a6e" stroke-width="3.0009" d="M69.628 98.512c-.814.016-31.745 45.792-33.736 51.178-.846 2.285 21.224 17.04 22.782 14.859 15.27-21.394 22.656-35.991 32.695-50.309 5.395-7.697 29.26 45.338 31.587 48.574 2.252 3.133 16.196-3.045 26.144-13.919 4.35-4.755-34.293-50.136-33.341-51.495C132.922 72.882 159.5 33.305 159.5 32.902c0-.014-17.239-10.853-27.456-10.486-2.756.099-28.075 33.76-35.174 50.235-8.238 19.12-18.635-6.951-43.578-39.276-.559-.723-10.53 3.547-20.611 19.998-.695 1.131 26.997 34.854 36.947 45.139" clip-rule="evenodd"/><path stroke="#1e3a6e" stroke-width="2" d="M133.721 34.575c-4.221 6.735-22.004 32.778-27.669 39.972m-26.526 25.608c-1.986 2.582-6.447 9.484-8.184 11.871m41.492-3.613c2.387 3.583 23.303 31.877 26.04 36.142m-71.015-27.392c-3.14 5.45-17.47 26.233-19.855 29.706M46.01 22.886c-9.8 4.832-19.717 13.754-23.269 22.091m105.655 129.718c8.641-2.668 22.578-9.498 28.438-18.668"/></g><defs><clipPath id="QP4QP8HxYwa"><path fill="#fff" d="M0 0h192v192H0z"/></clipPath></defs></svg>