<svg xmlns="http://www.w3.org/2000/svg" width="192" height="192" fill="none" viewBox="0 0 192 192"><g clip-path="url(#GEczH3Iqfea)"><g clip-path="url(#JZguJZAh3lb)"><path fill="#6b8cce" stroke="#6b8cce" d="m25.931 130.813.457.203c.204-.46.778-1.283 1.731-2.458.94-1.158 2.214-2.617 3.777-4.334 3.124-3.433 7.386-7.879 12.403-12.985 10.034-10.211 23.075-23.046 36.042-35.652a5653 5653 0 0 1 35.59-34.274c4.866-4.646 8.943-8.52 11.844-11.268a1316 1316 0 0 1 3.422-3.23q.613-.575.958-.896l.274-.252.081-.073.024-.02.009-.009-.316-.387.316.387c.171-.139.507-.308 1.037-.484a16 16 0 0 1 1.955-.49c1.557-.302 3.56-.544 5.798-.685 4.478-.28 9.85-.15 14.41.697l.091-.492-.091.492c3.985.739 7.695 3.286 9.586 6.684 1.872 3.365 1.982 7.596-1.272 11.836-.753.982-2.495 2.718-4.823 4.904-2.317 2.175-5.181 4.764-8.153 7.439l-1.486 1.336c-5.486 4.934-11.097 9.98-14.071 13.073-16.847 17.522-63.27 63.095-83.17 82.631-4.285 4.208-7.34 7.208-8.606 8.46-2.862 2.831-5.301 4.748-7.384 5.897s-3.771 1.511-5.15 1.3c-1.366-.209-2.513-.993-3.501-2.311-.994-1.327-1.808-3.175-2.49-5.449-1.124-3.749-1.757-9.034-1.642-14.43.116-5.398.98-10.852 2.807-14.957z"/><path stroke="#1e3a6e" stroke-linecap="round" stroke-linejoin="round" stroke-miterlimit="1.5" stroke-width="3" d="M39.05 27.933c-8.902.246-10.665 8.732-10.43 15.39.093 2.646-.342 77.213.5 107.244.204 7.279 2.94 15.564 10.017 16.17 5.234.449 99.755.686 111.899-.133 11.127-.75 12.678-7.874 12.887-16.389.17-6.97.861-96.51.68-104.14-.291-12.25-5.277-17.002-11.563-17.446-8.155-.575-100.825-1.062-113.99-.696" clip-rule="evenodd"/><path stroke="#1e3a6e" stroke-linecap="round" stroke-linejoin="round" stroke-miterlimit="1.5" stroke-width="2.0007" d="M19.457 152.356c.131 6.032-.27 22.141 18.422 21.807M146.23 19.44c27.798.2 26.843 18.31 26.891 34.457m-.065 7.441c-.102 6.17.054 18.048.054 21.363M19.405 146.459c-.055-10.081-.105-16.99-.105-22.996"/><path stroke="#1e3a6e" stroke-linecap="round" stroke-linejoin="round" stroke-miterlimit="1.5" stroke-width="3.0011" d="M29.015 139.734c7.786-7.992 107.838-106.436 111.961-110.69"/><path stroke="#1e3a6e" stroke-linecap="round" stroke-linejoin="round" stroke-miterlimit="1.5" stroke-width="3" d="M50.146 166.617C61.773 154.789 152.35 64.503 164.16 52.462"/><path stroke="#1e3a6e" stroke-linecap="round" stroke-linejoin="round" stroke-miterlimit="1.5" stroke-width="2.9991" d="M92.199 166.897c19.31-19.719 53.012-54.615 71.861-73.88m-35.759 73.389c12.24-12.522 23.209-24.09 35.451-36.618"/><path stroke="#1e3a6e" stroke-linecap="round" stroke-linejoin="round" stroke-miterlimit="1.5" stroke-width="3" d="M29.168 95.751C47.8 76.711 79.947 47.727 99.094 28.594M29.216 61.66c12.255-11.73 23.207-21.674 35.56-33.422"/><path stroke="#1e3a6e" stroke-linecap="round" stroke-linejoin="round" stroke-miterlimit="1.5" stroke-width="2" d="M110.756 72.994c-6.009 3.77-11.609 8.491-16.76 13.341-19.915 18.753-32.306 42.911-29.879 45.989 6.086 7.72 29.943-29.941 29.833-31.259-.533-6.413-17.21 12.49-15.501 11.797m85.208-72.974c-12.361 11.904-52.259 50.934-61.368 59.132m61.443-37.006c-5.996 5.482-55.221 54.963-62.736 61.576m31.729-17.606c-.505-.123-52.298 42.225-71.927 60.43m55.967-38.024c-6.271 5.762-32.429 31.805-38.11 38.154m77.619-86.66c-4.404 5.055-14.107 15.37-19.522 20.773M28.43 110.667c27.032-32.254 67.768-67.741 84.604-82.27m17.001-.203C115.124 48.39 98.385 49.672 84.38 64.963M53.006 92.835c-7.123 8.159-1.298 10.476-5.384 16.445-5.18 7.569-13.704 12.834-17.78 17.073m48.613-56.595c-9.954 8.33-21.652 18.875-22.566 29.393-.268 3.093 33.095-27.594 36.507-35.664M28.437 77.849c24.988-16.465 17.317-22.621 27.896-32.863 6.19-5.994 15.826-12.195 27.91-17.075M46.986 31.68c.18-.501-8.407 16.004-18.678 15.65"/><path stroke="#1e3a6e" stroke-linecap="round" stroke-linejoin="round" stroke-miterlimit="1.5" stroke-width="2" d="M69.683 42.585c-4.674 2.502-7.148 5.094-10.965 9.523m104.776 50.226c-7.294 11.316-42.804 49.563-52.007 58.254m41.568-32.929c-7.369 5.111-27.507 33.208-34.252 39.11m40.33-21.166c-1.526.462-12.76 8.253-13.587 12.999-.575 3.294 2.856 4.289 8.56-3.081m-92.9-35.933c-3.804 4.524-24.679 30.981-30.259 38.147m5.489 7.777c3.36-7.593 18.246-26.72 20.88-30.444m92.131-97.484c-4.776 12.414-46.871 52.199-50.052 54.657"/></g></g><defs><clipPath id="GEczH3Iqfea"><path fill="#fff" d="M0 0h192v192H0z"/></clipPath><clipPath id="JZguJZAh3lb"><path fill="#fff" d="M0 0h192v192H0z"/></clipPath></defs></svg>