<svg xmlns="http://www.w3.org/2000/svg" width="192" height="192" fill="none" viewBox="0 0 192 192"><g clip-path="url(#BNl2ePPlnTa)"><g stroke-linecap="round" stroke-linejoin="round" stroke-miterlimit="1.5" clip-path="url(#u-d1SI8bv7b)"><path fill="#6b8cce" fill-rule="evenodd" stroke="#6b8cce" d="M177.745 144.846c-.029 3.235-2.46 6.645-6.439 6.641-16.397-.014-59.645.55-72.64-.212-2.376-.14-3.754-2.943-3.762-4.528-.069-12.67-.194-38.131-.082-50.24.037-4.12 3.775-6.697 6.596-6.707 16.073-.05 52.276-.237 69.345-.302 3.045-.012 7.202 2.212 7.224 5.852.072 11.75-.13 36.901-.242 49.496" clip-rule="evenodd"/><path stroke="#1e3a6e" stroke-width="3" d="M45.053 20.574c-8.901.247-10.664 8.733-10.43 15.391.094 2.645-.34 77.213.5 107.243.205 7.28 2.94 15.564 10.018 16.17 5.234.45 99.755.686 111.899-.133 11.127-.749 12.678-7.873 12.887-16.389.17-6.97.861-96.51.68-104.139-.291-12.251-5.277-17.002-11.563-17.447-8.156-.575-100.826-1.062-113.99-.696" clip-rule="evenodd"/><path stroke="#1e3a6e" stroke-width="3" d="M123.67 79.779c0 5.522.083 10.898.083 16.42m.098-74.466c.086 8.807-.044 39.436-.012 41.981.002.207-23.649.044-27.384.151m-61.395-.439c14.092.095 30.011-.019 43.862.091m-43.136 67.745c7.228.081 16.344.082 23.25.11M35.37 107.994c13.54-.251 24.691 8.151 24.297 22.986m28.039 28.863c.137-5.03-.07-13.828-.024-19.075"/><path stroke="#1e3a6e" stroke-width="3" d="M87.325 123.383c-.012-2.513.104-26.878.107-27.271.001-.051 80.057-.169 82.635-.061"/><path stroke="#1e3a6e" stroke-width="2.0029" d="M19.544 24.767c-.103 6.127-.207 129.326-.207 132.619"/><path stroke="#1e3a6e" stroke-width="1.9984" d="M39.413 171.865c5.99.102 126.446.207 129.665.207"/><path stroke="#1e3a6e" stroke-width="2.003" d="M14.387 35.67c2.17-3.86 4.881-15.085 4.914-14.998 1.618 4.382 4.313 14.192 5.07 15.08"/><path stroke="#1e3a6e" stroke-width="2.0003" d="M50.073 177.021c-3.773-2.169-14.75-4.881-14.664-4.914 4.284-1.618 13.876-4.313 14.745-5.07"/><path stroke="#1e3a6e" stroke-width="2.003" d="M14.133 144.433c2.169 3.859 4.88 15.085 4.914 14.998 1.618-4.382 4.313-14.193 5.07-15.081"/><path stroke="#1e3a6e" stroke-width="2.0003" d="M156.414 177.275c3.774-2.169 14.75-4.881 14.664-4.914-4.284-1.618-13.876-4.313-14.744-5.07"/><path stroke="#1e3a6e" stroke-width="2" d="M160.399 40.454c.015 10.617-.119 26.452-.078 38.529m-63.66 69.714c11.72-.164 40.873.289 51.151.127M44.926 31.001c12.582-.116 57.572.109 66.099.233"/></g></g><defs><clipPath id="BNl2ePPlnTa"><path fill="#fff" d="M0 0h192v192H0z"/></clipPath><clipPath id="u-d1SI8bv7b"><path fill="#fff" d="M0 0h192v192H0z"/></clipPath></defs></svg>