<svg xmlns="http://www.w3.org/2000/svg" width="192" height="192" fill="none" viewBox="0 0 192 192"><g stroke-linecap="round" stroke-linejoin="round" stroke-miterlimit="1.5" clip-path="url(#y5_8c8XTQ0a)"><path fill="#6b8cce" fill-rule="evenodd" stroke="#6b8cce" d="M51.749 91.052c-2.976-5.724-1.108-8.901 5.256-17.063 10.382-13.307 31.057-39.446 42.72-52.179 4.417-4.82 16.474 1.242 16.91 9.147 2.093 37.92 4.074 131.987.071 140.865-3.097 6.867-23.85 5.379-26.478.727-6.644-11.755-1.999-94.898-2.412-95.328-1.32-1.378-16.069 21.524-21.142 25.055-8.554 5.949-10.932-3.543-14.926-11.224" clip-rule="evenodd"/><path stroke="#1e3a6e" stroke-width="2.9976" d="M46.943 85.63c-2.976-5.725-1.107-8.902 5.257-17.064C62.58 55.26 83.256 29.12 94.919 16.387c4.418-4.82 16.475 1.242 16.91 9.148 2.093 37.92 4.074 131.987.071 140.864-3.097 6.867-23.85 5.38-26.478.727-6.644-11.755-1.999-94.897-2.411-95.328-1.32-1.378-16.07 21.524-21.143 25.055-8.554 5.949-10.931-3.543-14.925-11.224" clip-rule="evenodd"/><path stroke="#1e3a6e" stroke-width="2" d="M124.491 68.703c.507 6.69-.34 41.436-.34 58.366m.202 10.168c-.085 7.896.375 18.27-1.354 30.373m-31.605-61.889c-.692 15.548-.43 40.013 1.675 53.829M39.294 70.683c6.346-9.517 25.18-34.607 35.19-44.965"/></g><defs><clipPath id="y5_8c8XTQ0a"><path fill="#fff" d="M0 0h192v192H0z"/></clipPath></defs></svg>