<svg xmlns="http://www.w3.org/2000/svg" width="192" height="192" fill="none" viewBox="0 0 192 192"><g stroke-linecap="round" stroke-linejoin="round" stroke-miterlimit="1.5" clip-path="url(#kExzI27IYJa)"><path stroke="#1e3a6e" stroke-width="1.9986" d="M111.181 61.532c-.095-2.732.013-11.183.019-13.855"/><path stroke="#1e3a6e" stroke-width="2" d="M33.542 83.695c14.239.061 115.921-.028 129.746-.028M33.98 160.082c11.978.139 101.11-.407 129.712-.407"/><path fill="#6b8cce" fill-rule="evenodd" stroke="#6b8cce" d="M158.981 139.535c5.152-2.243 6.243-28.619.285-29.823-8.547-1.728-32.772-2.534-40.673-.148-.956.289-8.467 2.092-8.056 15.438.368 11.934 7.704 13.417 8.11 13.665 6.458 3.954 39.489 1.236 40.334.868" clip-rule="evenodd"/><path stroke="#1e3a6e" stroke-width="3" d="M164.055 135.305c5.152-2.243 6.243-28.62.285-29.824-8.547-1.727-32.772-2.533-40.673-.147-.956.288-8.467 2.091-8.056 15.438.368 11.933 7.704 13.417 8.11 13.665 6.458 3.954 39.489 1.236 40.334.868" clip-rule="evenodd"/><path stroke="#1e3a6e" stroke-width="2.9991" d="M129.251 124.608c5.301-.252 6.048-9.678-1.113-9.186-5.505.38-4.997 9.476 1.113 9.186" clip-rule="evenodd"/><path stroke="#1e3a6e" stroke-width="1.9977" d="M98.983 152.4c6.972-.11 26.397-.18 30.842-.169"/><path stroke="#1e3a6e" stroke-width="3" d="M104.839 35.23c-.233-10.92-.93-12.933-7.897-13.152-12.234-.384-36.025-.047-48.416.46-6.848.28-8.232 1.391-8.347 12.725-.101 10.02-.017 24.902.065 39.231v.01m112.536-.301a1390 1390 0 0 0-.153-10.978c-.233-12.567-.93-14.883-7.897-15.135-5.791-.21-14.174-.233-22.71-.138"/><path stroke="#1e3a6e" stroke-width="3" d="M122.399 73.876c-.052-8.711-.145-16.857-.294-23.204-.257-10.92-1.025-12.933-8.707-13.152-13.488-.384-39.72-.047-53.382.46-7.55.28-9.076 1.392-9.203 12.726-.07 6.331-.06 14.604-.019 23.451"/><path stroke="#1e3a6e" stroke-width="1.9986" d="M111.398 73.894c.004-2.895.011-5.192.011-6.593z" clip-rule="evenodd"/><path stroke="#1e3a6e" stroke-width="1.9986" d="m61.764 55.79.012 16.219v2.142zm0 0-.01-17.456c0 2.15.004 8.705.01 17.456"/><path stroke="#1e3a6e" stroke-width="1.9977" d="M135.204 152.055c5.649-.059 11.155-.015 17.359-.093"/><path stroke="#1e3a6e" stroke-width="2" d="M31.685 26.883c.027 10.453.788 27.816.537 38.542m-7.549 19.773c.114 17.748.343 51.948.538 73.142"/><path stroke="#1e3a6e" stroke-width="3" d="M163.876 105.419c-.141-7.215-.317-13.844-.511-19.094-.379-10.17-1.875-12.224-17.14-12.394-13.496-.152-33.537-.026-52.836.096-17.135.108-33.685.212-44.55.115-14.164-.126-15.886 1.447-15.998 12.371-.183 17.968.136 53.454.4 71.716.173 11.873 3.67 11.903 14.412 11.993l1.326.012c24.48.247 71.719.314 97.292-.286 14.707-.346 17.418-1.381 17.713-11.726.174-6.135.238-14.226.22-22.962"/><path stroke="#1e3a6e" stroke-width="2" d="M138.207 40.948c3.79.01 10.74-.024 15.574.182 3.624.154 5.156 3.303 5.277 6.105.248 5.756.676 12.87.649 15.225"/></g><defs><clipPath id="kExzI27IYJa"><path fill="#fff" d="M0 0h192v192H0z"/></clipPath></defs></svg>