<svg xmlns="http://www.w3.org/2000/svg" width="192" height="192" fill="none" viewBox="0 0 192 192"><g clip-path="url(#NImZna4YlPa)"><g stroke-linecap="round" stroke-linejoin="round" stroke-miterlimit="1.5" clip-path="url(#2F7j-15p6Tb)"><path fill="#6b8cce" fill-rule="evenodd" stroke="#6b8cce" d="M47.952 158.433c-3.835.082-7.08-2.349-7.154-5.015-.554-19.735-2.347-102.466-2.923-130.155-.116-5.6 2.695-9.247 7.494-9.346 19.192-.398 69.195-.833 89.63-.304 5.471.141 9 4.678 9.035 10.884.156 27.878.098 104.478.041 126.405-.009 3.674-2.033 6.744-7.446 6.585-5.832-.173-7.403-3.249-7.478-6.986-.419-21.184-.918-92.815-1.181-114.7-.048-4.037-1.652-7.984-3.997-8.062-12.535-.42-50.92.25-65.824.89-3.44.148-5.897 1.204-5.79 4.408.683 20.257 3.637 97.737 2.282 119.149-.228 3.613-2.026 6.149-6.69 6.247" clip-rule="evenodd"/><path stroke="#1e3a6e" stroke-width="3" d="M46.318 164.938c-.23-.746-3.255-143.286-3.232-144.1.014-.481 105.173-1.63 105.591.072.364 1.477.22 142.192.153 143.182-.066.975-102.369 1.311-102.512.846" clip-rule="evenodd"/><path stroke="#1e3a6e" stroke-width="3" d="M58.378 164.955c-.172-.687-2.433-131.728-2.416-132.476.01-.442 78.589-1.497 78.901.067.272 1.357.164 130.72.114 131.631-.049.896-76.492 1.205-76.6.778" clip-rule="evenodd"/><path stroke="#1e3a6e" stroke-width="2" d="M126.275 40.577c-.009 6.446.322 62.631.322 82.678m.01 6.932c-.009 7.543-.129 12.649-.034 20.787M40.398 176.24c6.424.348 45.348.003 57.483.003M32.079 89.15c.029.6.397 11.079.608 15.46M29.62 22.018c.296 4.736 2.219 60.725 2.238 61.173m128.175 29.798c-.071 5.146-.227 38.742-.014 46.624"/><path stroke="#1e3a6e" stroke-width="2" d="M64.382 89.727c.002.495-.06 6.117.005 6.115.491-.012 15.41-.045 15.51-.057.048-.007-.072-6.089-.149-6.121-.279-.112-11.166-.109-15.366.063" clip-rule="evenodd"/></g></g><defs><clipPath id="NImZna4YlPa"><path fill="#fff" d="M0 0h192v192H0z"/></clipPath><clipPath id="2F7j-15p6Tb"><path fill="#fff" d="M0 0h192v192H0z"/></clipPath></defs></svg>