<svg xmlns="http://www.w3.org/2000/svg" width="192" height="192" fill="none" viewBox="0 0 192 192"><g clip-path="url(#wvEgpd5a4ha)"><g stroke-linecap="round" stroke-linejoin="round" stroke-miterlimit="1.5" clip-path="url(#0utTXmMVQ2b)"><path fill="#6b8cce" fill-rule="evenodd" stroke="#6b8cce" stroke-width=".9973" d="M149.334 32.002c-34.861-.04-99.204.551-101.387.7-32.542 2.213 32.906 67.015 49.59 64.21 19.453-3.272 72.359-55.99 51.797-64.91" clip-rule="evenodd"/><path stroke="#1e3a6e" stroke-width="3" d="M33.577 40.473c-4.525.069-10.355 3.69-10.315 9.602.14 20.798.233 69.09.3 89.313.014 3.991 4.412 7.818 10.092 7.855 26.99.178 99.734.187 126.788.168 6.22-.005 10.611-5.324 10.659-10.704.185-20.489.382-66.475.164-86.88-.065-6.17-4.955-10.3-10.703-10.274-20.345.09-99.8.507-126.985.92" clip-rule="evenodd"/><path stroke="#1e3a6e" stroke-width="3" d="M26.899 42.93c-1.054.824 49.312 63.43 70.205 63.302 24.175-.148 71.137-63.717 70.567-64.194"/><path stroke="#1e3a6e" stroke-width="3" d="M23.795 136.847c3.821-3.581 24.662-30.46 53.16-40.503m93.923 40.412c-3.539-2.498-24.892-30.101-52.708-40.366"/><path stroke="#1e3a6e" stroke-width="2" d="M103.596 159.735c-3.05-.055-11.239-.037-15.429-.037M11.478 95.827c-.43 14.34.025 39.109.099 48.68M44.86 49.18c3.24 3.78 13.772 16.971 17.962 21.393m6.259 5.724c4.11 3.956 8.111 8.192 12.258 11.93m31.459 71.525c9.853.023 41.874-.362 57.463-.362"/></g></g><defs><clipPath id="wvEgpd5a4ha"><path fill="#fff" d="M0 0h192v192H0z"/></clipPath><clipPath id="0utTXmMVQ2b"><path fill="#fff" d="M0 0h192v192H0z"/></clipPath></defs></svg>