<svg xmlns="http://www.w3.org/2000/svg" width="192" height="192" fill="none" viewBox="0 0 192 192"><g clip-path="url(#b1naZXGPHYa)"><g stroke-linecap="round" stroke-linejoin="round" stroke-miterlimit="1.5" clip-path="url(#hW3gIRgbHKb)"><path fill="#6b8cce" fill-rule="evenodd" stroke="#6b8cce" d="M111.678 37.882c.402-33.15-28.32-29.163-32.455-28.04-21.018 5.712-19.591 22.178-41.34 34.065-13.76 7.52 26.185 28.572 45.48 22.803 8.492-2.54 28.097-10.9 28.315-28.828m35.49 108.9c28.951 16.152 39.134-10.998 40.117-15.169 4.996-21.199-10.16-27.793-10.246-52.577-.053-15.681-37.597 9.403-41.721 29.116-1.814 8.674-3.808 29.894 11.85 38.63M29.63 119.311c-28.052 17.669-9.102 39.618-5.912 42.479 16.211 14.545 29.262 4.403 51.055 16.205 13.79 7.469 9.766-37.505-5.56-50.571-6.743-5.75-24.412-17.669-39.583-8.113" clip-rule="evenodd"/><path stroke="#1e3a6e" stroke-width="3" d="M119.964 37.49c.402-33.15-28.32-29.163-32.455-28.04-21.017 5.712-19.591 22.178-41.339 34.065-13.76 7.52 26.185 28.572 45.48 22.802 8.491-2.539 28.096-10.899 28.314-28.827m-86.392 73.983c-28.051 17.669-9.102 39.618-5.912 42.479 16.212 14.545 29.262 4.403 51.056 16.205 13.789 7.469 9.765-37.504-5.56-50.571-6.744-5.75-24.413-17.669-39.584-8.113m107.938 35.835c28.951 16.152 39.134-10.999 40.116-15.169 4.996-21.2-10.159-27.793-10.245-52.577-.054-15.682-37.597 9.403-41.721 29.115-1.815 8.675-3.808 29.895 11.85 38.631" clip-rule="evenodd"/><path stroke="#1e3a6e" stroke-width="3" d="M71.945 46.295c17.702-19.964 47.804-27.184 60.218-20.173 4.748 2.682 27.85 17.104 24.143 44.953m-89.257 75.931c-26.377-4.018-48.79-25.37-49.648-39.601-.327-5.443-.768-32.674 24.628-44.689m114.623 38.181c9.115 25.076 1.117 54.981-10.963 62.554-4.621 2.895-28.309 16.332-51.025-.199"/><path stroke="#1e3a6e" stroke-width="2" d="M101.294 16.98c-5.576-1.47-18.075-4.726-33.284 17M26.494 138.29c1.795 5.479 5.85 17.743 32.353 18.71m109.59-16.331c3.949-4.201 12.769-13.638.917-37.363m-37.225-88.329c10.295 3.712 15.546 7.816 22.133 18.043m-146.2 80.468c-2.475-10.66-1.882-17.297 3.127-28.384m144.314 83.628c-8.17 7.281-14.28 9.941-26.411 10.859"/></g></g><defs><clipPath id="b1naZXGPHYa"><path fill="#fff" d="M0 0h192v192H0z"/></clipPath><clipPath id="hW3gIRgbHKb"><path fill="#fff" d="M0 0h192v192H0z"/></clipPath></defs></svg>