<svg xmlns="http://www.w3.org/2000/svg" width="192" height="192" fill="none" viewBox="0 0 192 192"><g clip-path="url(#YYyM8TTrzRa)"><g clip-path="url(#4j_SoKEdZOb)"><path stroke="#1e3a6e" stroke-linecap="round" stroke-linejoin="round" stroke-miterlimit="1.5" stroke-width="1.9984" d="M103.185 156.166c16.005 6.611 26.831-4.173 27.549-7.912"/><path fill="#6b8cce" stroke="#6b8cce" d="M9.2 89.467c.58-2.324 2.424-5.818 5.043-9.893 2.606-4.058 5.946-8.639 9.468-13.118 7.056-8.974 14.794-17.476 18.81-20.553a.3.3 0 0 1 .13-.016c.118.002.298.033.552.122.508.178 1.225.551 2.182 1.192 1.875 1.253 4.592 3.47 8.34 7.026l-.03.053a13 13 0 0 1-.733 1.026c-.687.892-1.728 2.15-3.04 3.705-.68.808-1.433 1.696-2.244 2.652-2.304 2.716-5.078 5.986-8.015 9.567-7.935 9.67-17.12 21.673-21.552 31.276l-.014.027a.5.5 0 0 1-.148-.034c-.265-.095-.66-.365-1.163-.83-.988-.913-2.216-2.407-3.403-4.076-1.185-1.666-2.312-3.48-3.102-5.018-.396-.77-.702-1.46-.89-2.021a4.4 4.4 0 0 1-.183-.712 1 1 0 0 1-.008-.376Zm44.612-35.411-.001.003zm-35.723 48.488.002-.002zm122.722-66.17c.146-.153.394-.25.88-.147.494.105 1.139.402 1.93.906 1.573 1.002 3.581 2.733 5.87 4.99 4.572 4.504 10.182 11.019 15.551 17.736 5.367 6.715 10.48 13.617 14.058 18.89 1.791 2.64 3.189 4.86 4.042 6.44.429.796.706 1.403.831 1.81q.04.133.056.214a55.4 55.4 0 0 0-9.749 3.838c-.764.386-1.427.738-1.964 1.024a77 77 0 0 1-.716.378 10 10 0 0 1-.57.28c-1.246-1.822-4.28-5.24-8.111-9.355-4.048-4.346-9.028-9.517-13.845-14.506l-1.359-1.408c-4.327-4.48-8.434-8.734-11.514-12.02-1.701-1.814-3.083-3.328-4.013-4.418a19 19 0 0 1-1.024-1.282 4 4 0 0 1-.139-.21c.459-.629 1.023-1.405 1.648-2.265a1265 1265 0 0 1 3.688-5.06 314 314 0 0 1 2.775-3.735c.8-1.054 1.398-1.809 1.675-2.1Zm-9.929 13.356Z"/><path stroke="#1e3a6e" stroke-linecap="round" stroke-linejoin="round" stroke-miterlimit="1.5" stroke-width="3" d="M140.696 40.919c-15.628 26.425-31.981 18.46-48.374 27.705-4.942 2.787-28.614 25.242-27.204 30.848 1.037 4.124 7.677 4.595 11.274 4.355 6.03-.402 11.41-6.992 16.708-9.495 16.941-8.006 51.662 26.316 57.089 25.638 2.728-.341 17.758-21.002 33.724-23.54"/><path stroke="#1e3a6e" stroke-linecap="round" stroke-linejoin="round" stroke-miterlimit="1.5" stroke-width="2" d="M71.772 97.384c4.03-1.648 5.938-5.48 7.18-8.219m46.831 48.517c-7.609-.995-22.882-5.421-28.443-8.413m42.319.14c-11.367-3.01-24.753-10.1-30.776-13.565"/><path stroke="#1e3a6e" stroke-linecap="round" stroke-linejoin="round" stroke-miterlimit="1.5" stroke-width="3" d="M10.819 87.898c6.036 10.824 25.05 26.915 31.95 31.178 59.973 37.041 74.971 25.416 76.744 24.298 2.791-1.759 5.226-5.257 5.727-5.243.89.025 5.19.583 8.269-.171 4.895-1.2 5.701-7.136 5.786-8.164.009-.114 9.442 2.62 11.665.756 2.557-2.145 2.822-7.207-4.373-11.943M46.69 40.559c9.728 11.346 30.07 28.269 48.7 26.36"/><path stroke="#1e3a6e" stroke-linecap="round" stroke-linejoin="round" stroke-miterlimit="1.5" stroke-width="3" d="M45.632 121.033c-3.036 3.852-2.01 8.251-1.026 9.682 4.547 6.623 15.537-.392 15.537-.392s-3.182 10.208 2.088 12.901c7.08 3.619 14.1-4.297 14.644-4.297.07 0-1.976 10.735 4.878 12.29 3.836.87 8.468-2.304 9.903-7.447"/><path stroke="#1e3a6e" stroke-linecap="round" stroke-linejoin="round" stroke-miterlimit="1.5" stroke-width="2" d="M9.253 105.584c3.514 5.47 11.56 15.743 19.168 18.751m119.333-17.533c4.238-6.411 16.472-15.674 23.946-18.217M22.648 84.41c6.36 9.628 18.942 19.806 27.782 25.962"/><path stroke="#1e3a6e" stroke-linecap="round" stroke-linejoin="round" stroke-miterlimit="1.5" stroke-width="3" d="M37.385 43.798s-22.361 20.55-29.867 39.01m139.323-49.2c15.016 10.424 28.636 30.346 34.556 39.52"/></g></g><defs><clipPath id="YYyM8TTrzRa"><path fill="#fff" d="M0 0h192v192H0z"/></clipPath><clipPath id="4j_SoKEdZOb"><path fill="#fff" d="M0 0h192v192H0z"/></clipPath></defs></svg>