<svg xmlns="http://www.w3.org/2000/svg" width="192" height="192" fill="none" viewBox="0 0 192 192"><g clip-path="url(#qmSk-s4CcVa)"><g stroke-linecap="round" stroke-linejoin="round" stroke-miterlimit="1.5" clip-path="url(#clr9nqJvLPb)"><path fill="#6b8cce" fill-rule="evenodd" stroke="#6b8cce" stroke-width=".998" d="M63.534 47.072c-4.477.021-7.62 2.325-7.635 5.6-.067 14.415-.197 52.874-.141 69.31.016 4.717 3.076 7.617 7.933 7.615 18.3-.009 63.826-.027 83.898-.044 6.01-.005 9.806-2.874 9.825-7.527.064-15.757.129-52.097.109-67.807-.006-4.606-3.627-7.479-9.408-7.465-19.944.043-66.28.236-84.581.318" clip-rule="evenodd"/><path stroke="#1e3a6e" stroke-width="2.9992" d="M23.874 38.509c-.057 2.386-.496 116.625-.107 116.619.316-.007 143.261-.056 143.494-.089.128-.018.347-116.866.171-117.026-.154-.14-140.683.466-143.558.496" clip-rule="evenodd"/><path stroke="#1e3a6e" stroke-width="2" d="M67.6 51.824c-16.101.066-28.237.119-28.975.126-.045 1.834-.393 89.622-.084 89.617.166-.004 50.68-.022 84.392-.041m14.569-.009a5221 5221 0 0 0 15.002-.019c.101-.013.275-89.806.135-89.929-.061-.053-27.833.035-55.953.14"/><path stroke="#1e3a6e" stroke-width="1.9974" d="M100.683 25.5c6.633-.086 54.593.198 65.26.212m-101.409-.027c6.052.048 21.969.007 25.79-.024m89.823 49.311s.013 63.75.013 78.992"/></g></g><defs><clipPath id="qmSk-s4CcVa"><path fill="#fff" d="M0 0h192v192H0z"/></clipPath><clipPath id="clr9nqJvLPb"><path fill="#fff" d="M0 0h192v192H0z"/></clipPath></defs></svg>