<svg xmlns="http://www.w3.org/2000/svg" width="192" height="192" fill="none" viewBox="0 0 192 192"><g stroke-linecap="round" stroke-linejoin="round" stroke-miterlimit="1.5" clip-path="url(#wWnXvd45-Za)"><path fill="#6b8cce" stroke="#6b8cce" d="M128.352 124.821c13.984 3.452 28.558 7.113 33.653 8.619 1.087.323 1.599 2.627.568 3.078-8.502 3.716-44.25 17.262-58.84 22.769-3.862 1.458-10.512.66-10.512.66-.086-.032-48.43-17.938-57.258-22.694-2.213-1.192 1.816-5.083 4.241-5.865 4.121-1.328 14.163-3.845 24.724-6.384l30.664 12.305zm1.119-66.059c13.939 3.44 28.428 7.081 33.505 8.582 1.088.322 1.599 2.627.568 3.078-8.501 3.716-44.249 17.26-58.84 22.768-3.862 1.458-10.512.66-10.512.66-.085-.031-48.43-17.938-57.258-22.694-2.213-1.192 1.816-5.083 4.241-5.865 4.007-1.291 13.607-3.704 23.84-6.17l30.94 12.416z"/><path stroke="#1e3a6e" stroke-width="2.9996" d="m77.595 130.087-49.908 11.96 68.952 27.668 69.807-26.607-51.576-13.147M77.359 64.075 27.124 76.114l68.952 27.668 69.807-26.607-50.767-12.941"/><path stroke="#1e3a6e" stroke-width="2" d="M138.306 166.683c3.654-1.524 23.532-10.666 28.019-12.664M51.85 24.059c-3.858.888-24.99 6.561-29.747 7.778m107.961 137.987c-4.694 1.812-22.113 9.813-25.482 10.989M60.505 22.349c4.93-.998 23.447-5.96 26.965-6.552"/><path stroke="#1e3a6e" stroke-width="2.9996" d="M79.253 97.032 26.64 109.64l68.952 27.668 69.807-26.606-52.42-13.363"/><path stroke="#1e3a6e" stroke-width="2" d="M150.551 107.43c-4.693 1.813-62.97 22.952-66.338 24.127m52.179-27.724c-4.694 1.811-62.816 21.972-66.183 23.148m51.568-26.945c-4.695 1.811-59.352 20.467-62.72 21.642m-15.207-5.572c2.312-.807 28.912-8.897 46.87-14.473M43.973 40.87c4.693 1.812 60.569 24.203 63.936 25.377M57.24 37.517c4.693 1.813 62.062 22.365 65.429 23.54M71.88 33.708c4.694 1.812 59.756 21.161 63.125 22.335M85.264 30.47c4.694 1.811 61.506 18.32 64.874 19.496"/><path stroke="#1e3a6e" stroke-width="2.9996" d="m95.955 71.537 69.807-26.606-69.383-17.687-69.376 16.625z" clip-rule="evenodd"/></g><defs><clipPath id="wWnXvd45-Za"><path fill="#fff" d="M0 0h192v192H0z"/></clipPath></defs></svg>