<svg xmlns="http://www.w3.org/2000/svg" width="192" height="192" fill="none" viewBox="0 0 192 192"><g stroke-linecap="round" stroke-linejoin="round" stroke-miterlimit="1.5" clip-path="url(#qjK3SwE81ha)"><path stroke="#1e3a6e" stroke-width="3.0039" d="M68.49 123.609c10.106-12.013 48.493-47.616 55.077-55.156"/><path fill="#6b8cce" fill-rule="evenodd" stroke="#6b8cce" d="M119.845 103.625c-13.171-1.567-13.584 17.523-.217 17.686 11.207.137 9.989-16.521.217-17.686M83.538 65.68c-13.171-1.566-13.584 17.524-.217 17.687 11.207.137 9.989-16.521.217-17.686" clip-rule="evenodd"/><path stroke="#1e3a6e" stroke-width="3" d="M115.434 106.556c-13.171-1.567-13.584 17.523-.217 17.686 11.207.137 9.989-16.521.217-17.686M79.126 68.612c-13.17-1.567-13.584 17.524-.217 17.686 11.207.137 9.99-16.521.217-17.686" clip-rule="evenodd"/><path stroke="#1e3a6e" stroke-width="1.9953" d="M172.162 116.541c13.763-6.28 11.963-31.575.687-39.294M13.298 107.638c-3.273-8.584-4.336-23.879 5.881-30.217"/><path stroke="#1e3a6e" stroke-width="3.0006" d="M78.67 32.026c2.822-5.49 9.573-9.718 17.23-9.718 7.655 0 14.406 4.227 17.229 9.718 5.188-3.344 13.15-3.63 19.779.199 6.631 3.828 10.365 10.865 10.064 17.03 6.166-.3 13.201 3.433 17.029 10.063s3.545 14.59.201 19.78c5.489 2.822 9.716 9.573 9.716 17.23 0 7.655-4.227 14.406-9.716 17.229 3.344 5.188 3.627 13.149-.201 19.779s-10.863 10.365-17.029 10.063c.301 6.167-3.433 13.202-10.064 17.03-6.629 3.828-14.591 3.544-19.779.199-2.823 5.49-9.574 9.718-17.23 9.718s-14.407-4.228-17.23-9.718c-5.188 3.345-13.15 3.629-19.779-.199-6.63-3.828-10.364-10.863-10.063-17.03-6.165.302-13.201-3.432-17.03-10.063-3.828-6.63-3.543-14.591-.2-19.779-5.49-2.823-9.717-9.574-9.717-17.23s4.228-14.407 9.718-17.23c-3.344-5.188-3.63-13.15.2-19.78 3.828-6.629 10.864-10.363 17.029-10.063-.3-6.164 3.434-13.2 10.063-17.029 6.63-3.828 14.591-3.543 19.78-.2" clip-rule="evenodd"/><path stroke="#1e3a6e" stroke-width="1.9971" d="M41.219 64.757c3.265-5.655 9.267-8.84 14.526-8.584-.256-5.259 2.93-11.261 8.584-14.527a17.8 17.8 0 0 1 5.262-2.007m11.611 1.837c2.408-4.683 8.167-8.289 14.698-8.289 6.53 0 12.289 3.606 14.697 8.29m39.983 86.42c-3.266 5.656-9.267 8.842-14.526 8.584.257 5.26-2.929 11.261-8.585 14.527m-7.492 2.326c-3.467.271-6.819-.505-9.38-2.156-2.408 4.683-8.167 8.289-14.697 8.289-6.531 0-12.29-3.606-14.698-8.289"/><path stroke="#1e3a6e" stroke-width="1.9953" d="M96.008 147.37c28.053 0 50.794-22.741 50.794-50.794s-22.741-50.793-50.794-50.793-50.794 22.74-50.794 50.793 22.742 50.794 50.794 50.794"/></g><defs><clipPath id="qjK3SwE81ha"><path fill="#fff" d="M0 0h192v192H0z"/></clipPath></defs></svg>