<svg xmlns="http://www.w3.org/2000/svg" width="192" height="192" fill="none" viewBox="0 0 192 192"><g stroke-linecap="round" stroke-linejoin="round" stroke-miterlimit="1.5" clip-path="url(#jtxMqdwGVma)"><path fill="#6b8cce" fill-rule="evenodd" stroke="#6b8cce" d="M66.213 91.283c-1.055-6.4-2.497-66.86 3.87-75.039 2.416-3.106 21.29-3.97 21.33 1.384.129 16.594-5.816 47.258-1.047 57.592 2.146 4.648 15.131 5.108 20.709 2.124 4.923-2.63 4.022-21.5 12.734-23.885 12.4-3.397 15.058 4.988 15.493 12.91 2.093 37.999 1.548 80.363 1.195 102.109-.058 3.507-28.525 3.205-28.56-1.759-.153-22.159-.846-58.446-.898-63.566-.021-1.932-42.089 4.729-44.826-11.87" clip-rule="evenodd"/><path stroke="#1e3a6e" stroke-width="3.0007" d="M60.24 94.194c-1.054-6.4-2.497-66.86 3.87-75.038 2.417-3.107 21.29-3.97 21.33 1.383.13 16.595-5.815 47.259-1.047 57.592 2.146 4.648 15.132 5.109 20.71 2.124 4.922-2.63 4.021-21.5 12.733-23.884 12.401-3.397 15.058 4.988 15.494 12.91 2.093 37.999 1.547 80.362 1.194 102.109-.057 3.507-28.525 3.205-28.559-1.76-.154-22.158-.846-58.445-.899-63.565-.021-1.932-42.088 4.729-44.826-11.87" clip-rule="evenodd"/><path stroke="#1e3a6e" stroke-width="2" d="M68.216 37.04c-.24 5.147-.512 29.909-.555 34.479M50.009 92.884c-.834 20.06 23.723 25.23 45.599 24.175m48.928-55.869c.232 7.439.266 29.345.266 38.017m.246 10.6c.164 11.302.31 52.503-.173 61.403"/></g><defs><clipPath id="jtxMqdwGVma"><path fill="#fff" d="M0 0h192v192H0z"/></clipPath></defs></svg>