<svg xmlns="http://www.w3.org/2000/svg" width="192" height="192" fill="none" viewBox="0 0 192 192"><g clip-path="url(#Ffh1SJPjeHa)"><g stroke-linecap="round" stroke-linejoin="round" stroke-miterlimit="1.5" clip-path="url(#SUnBXEQzJkb)"><path fill="#6b8cce" fill-rule="evenodd" stroke="#6b8cce" stroke-width=".9983" d="M152.004 42.658c.071.601-.739 1.241-1.302.774-8.378-6.957-17.657-4.14-17.415-6.293.865-7.705-2.088-14.349-3.398-17.01-.373-.758.282-1.402 1.034-1.282 6.893 1.102 19.673 11.88 21.081 23.811" clip-rule="evenodd"/><path stroke="#1e3a6e" stroke-width="3" d="M46.318 164.938c-.23-.746-3.255-143.286-3.232-144.1.014-.481 47.196-.547 78.625-.395 11.366.054 5.518 17.43 8.085 19.726 3.262 2.92 19.283-2.568 19.294 11.995.035 41.725-.193 110.938-.26 111.928-.067.975-102.369 1.311-102.512.846" clip-rule="evenodd"/><path stroke="#1e3a6e" stroke-width="2" d="M40.398 176.24c6.424.348 45.348.003 57.483.003m-63.373-28.26c.03.599.398 11.078.609 15.459M32.049 80.85c.296 4.736 2.218 60.725 2.237 61.173M160.567 20.75c-.071 5.145-.386 80.837-.173 88.719"/><path fill="#6b8cce" fill-rule="evenodd" stroke="#6b8cce" stroke-width="1.0016" d="M76.48 87.705c-4.534.288-3.49 6.746 1.024 5.972 3.785-.649 2.342-6.186-1.023-5.972m.052 17.17c-4.535.289-3.49 6.747 1.024 5.973 3.784-.649 2.34-6.187-1.024-5.973m.216 16.207c-4.536.289-3.491 6.747 1.023 5.973 3.785-.649 2.341-6.186-1.023-5.973" clip-rule="evenodd"/><path fill="#6b8cce" fill-rule="evenodd" stroke="#6b8cce" stroke-width=".9998" d="M66.097 64.167c.2.323 9.7 15.825 10.177 16.268.055.052.312.565.487.403.32-.297 2.166-5.54 2.815-7.202 2.389-6.113 13.533-25.54 13.533-25.635 0-.003-6.612-2.26-6.767-2.116-.49.456-1.866 3.453-2.219 4.08-2.296 4.079-8.534 18.315-8.932 18.685-.163.151-4.413-7.077-5.034-7.656-.236-.22-3.824 3.173-4.06 3.173" clip-rule="evenodd"/><path stroke="#1e3a6e" stroke-width="2.0033" d="M73.03 87.804c-4.536.288-3.491 6.746 1.023 5.972 3.785-.649 2.341-6.186-1.024-5.972m.052 17.17c-4.535.289-3.49 6.747 1.024 5.972 3.785-.648 2.341-6.186-1.024-5.972" clip-rule="evenodd"/><path stroke="#1e3a6e" stroke-width="1.9978" d="M85.302 72.675c5.434-.103 40.668.113 40.817.113M85.538 90.462c5.434-.102 40.668.114 40.817.114m-41.072 17.337c5.435-.102 40.669.114 40.818.114"/><path stroke="#1e3a6e" stroke-width="2.0033" d="M73.297 121.181c-4.535.289-3.49 6.747 1.023 5.973 3.785-.649 2.342-6.186-1.023-5.973" clip-rule="evenodd"/><path stroke="#1e3a6e" stroke-width="1.9978" d="M85.656 124.479c3.184-.06 30.11.084 40.703.135"/><path stroke="#1e3a6e" stroke-width="1.9966" d="M121.938 19.974c10.179-.836 27.403 17.699 27.58 32.404"/><path stroke="#1e3a6e" stroke-width="1.9955" d="M62.646 64.266c.2.323 9.7 15.824 10.176 16.268.056.051.313.565.488.403.319-.297 2.165-5.54 2.814-7.202 2.39-6.113 13.533-25.54 13.533-25.635 0-.004-6.611-2.26-6.766-2.116-.49.456-1.867 3.453-2.22 4.08-2.296 4.079-8.534 18.315-8.931 18.685-.163.15-4.414-7.078-5.035-7.656-.236-.22-3.823 3.173-4.06 3.173" clip-rule="evenodd"/></g></g><defs><clipPath id="Ffh1SJPjeHa"><path fill="#fff" d="M0 0h192v192H0z"/></clipPath><clipPath id="SUnBXEQzJkb"><path fill="#fff" d="M0 0h192v192H0z"/></clipPath></defs></svg>