<svg xmlns="http://www.w3.org/2000/svg" width="192" height="192" fill="none" viewBox="0 0 192 192"><g clip-path="url(#lz1etTbs8va)"><path fill="#6b8cce" fill-rule="evenodd" d="M144.57 64.79c.174 4.186.317 8.602.433 13.24 1.238 49.785 2.783 103.679-12.259 104.493-15.196.823-14.139-53.561-14.067-103.672q.007-6.792.075-12.918c8.935-.288 19.121-.731 25.818-1.142m-10.105 92.708c-3.107-.755-7.177 2.949-5.677 6.213.696 1.515 2.25 2.392 4.03 2.661 2.595.393 5.853-1.9 5.479-4.937-.235-1.906-2.032-3.499-3.832-3.937" clip-rule="evenodd"/><path fill="#6b8cce" d="M129.647 13.334c3.542.01 6.266 2.305 8.37 6.696-4.953.24-10.289.505-15.382.759 1.616-4.93 3.872-7.464 7.012-7.455"/><path stroke="#6b8cce" stroke-linecap="round" stroke-linejoin="round" stroke-miterlimit="1.5" d="M144.57 64.79c.174 4.186.317 8.602.433 13.24 1.238 49.785 2.783 103.679-12.259 104.493-15.196.823-14.139-53.561-14.067-103.672q.007-6.792.075-12.918c8.935-.288 19.121-.731 25.818-1.142m-10.105 92.708c-3.107-.755-7.177 2.949-5.677 6.213.696 1.515 2.25 2.392 4.03 2.661 2.595.393 5.853-1.9 5.479-4.937-.235-1.906-2.032-3.499-3.832-3.937" clip-rule="evenodd"/><path stroke="#6b8cce" stroke-linecap="round" stroke-linejoin="round" stroke-miterlimit="1.5" d="M129.647 13.334c3.542.01 6.266 2.305 8.37 6.696-4.953.24-10.289.505-15.382.759 1.616-4.93 3.872-7.464 7.012-7.455"/><path stroke="#1e3a6e" stroke-linecap="round" stroke-linejoin="round" stroke-miterlimit="1.5" stroke-width="2.9974" d="M98.885 21.904c2.55.046 56.203-2.872 59.463-2.704 12.226.628 22.89 9.815 24.435 29.943.094 1.223-13.141-10.881-27.245.843-3.62 3.009-3.174 13.889-3.675 14.132-1.628.786-48.256 2.639-51.583 1.988-1.347-.264-10.443-15.103-12.42-7.902-1.09 3.965-1.364 8.783-1.364 8.783s-16.08.979-16.118.354c-.43-7.19-1.776-37.935-2.033-45.387-.02-.556 16.216-.665 16.216-.665s1.386 6.548 2.725 10.388c2.418 6.94 6.353-9.865 11.599-9.773" clip-rule="evenodd"/><path stroke="#1e3a6e" stroke-linecap="round" stroke-linejoin="round" stroke-miterlimit="1.5" stroke-width="2.9974" d="M116.658 21.089c1.62-5.036 3.891-7.626 7.066-7.618 3.582.01 6.328 2.357 8.443 6.846m6.491 44.802c.171 4.129.308 8.48.422 13.048 1.238 49.786 2.784 103.68-12.258 104.494-15.196.823-14.14-53.56-14.068-103.671.007-4.514.029-8.81.074-12.884"/><path stroke="#1e3a6e" stroke-linecap="round" stroke-linejoin="round" stroke-miterlimit="1.5" stroke-width="2" d="M149.957 103.895c1.674 24.586-.917 66.648-8.366 76.901M24.1 11.148c-.397 25.876-2.317 61.103 7.095 79.146"/><path stroke="#1e3a6e" stroke-linecap="round" stroke-linejoin="round" stroke-miterlimit="1.5" stroke-width="2.0004" d="M126.895 166.51c2.596.393 5.853-1.898 5.479-4.936-.235-1.908-2.032-3.5-3.833-3.939-3.107-.755-7.175 2.95-5.676 6.213.697 1.515 2.251 2.392 4.03 2.662m-81.638.014c2.595.393 5.853-1.898 5.478-4.936-.235-1.908-2.031-3.5-3.832-3.939-3.107-.755-7.176 2.95-5.676 6.213.697 1.515 2.25 2.392 4.03 2.662" clip-rule="evenodd"/><path stroke="#1e3a6e" stroke-linecap="round" stroke-linejoin="round" stroke-miterlimit="1.5" stroke-width="1.9983" d="M98.243 22.026c.36 4.782 1.432 34.389 1.818 43.876m-15.94-44.595c.36 4.784 1.495 36.296 1.88 45.782m21.221-7.5c9.875-.358 28.579-1.07 37.47-1.108M112.718 78.87c8.41-.095 19.514-.208 25.137-.688"/><path stroke="#1e3a6e" stroke-linecap="round" stroke-linejoin="round" stroke-miterlimit="1.5" stroke-width="2.9971" d="m32.539 112.927 26.375.465s-.212 9.537-.338 14.296c-1.188 44.709-2.846 54.502-11.92 54.293-10.883-.251-12.36-9.638-13.71-53.757-.157-5.094-.407-15.297-.407-15.297" clip-rule="evenodd"/><path fill="#6b8cce" fill-rule="evenodd" stroke="#6b8cce" stroke-linecap="round" stroke-linejoin="round" stroke-miterlimit="1.5" stroke-width=".999" d="M36.346 14.842c-.014-.573 1.093-.863 1.744-.874 3.663-.06 18.338.282 23.106.399.947.023 1.492.524 1.474 1.333-.061 2.772-.21 9.317-.309 12.999-1.187 44.71-2.482 68.95-11.556 68.742-10.884-.25-12.723-24.087-14.074-68.205-.128-4.176-.32-11.786-.385-14.394" clip-rule="evenodd"/><path stroke="#1e3a6e" stroke-linecap="round" stroke-linejoin="round" stroke-miterlimit="1.5" stroke-width="2.9971" d="m30.786 9.78 26.376.466s-.212 9.537-.339 14.296c-1.187 44.71-2.482 68.95-11.557 68.742-10.883-.25-12.722-24.087-14.073-68.205-.157-5.095-.407-15.298-.407-15.298" clip-rule="evenodd"/><path stroke="#1e3a6e" stroke-linecap="round" stroke-linejoin="round" stroke-miterlimit="1.5" stroke-width="2.0026" d="M32.716 120.246c2.79.056 20.631.516 26.097.487"/><path stroke="#1e3a6e" stroke-linecap="round" stroke-linejoin="round" stroke-miterlimit="1.5" stroke-width="3.0039" d="M37.876 112.632c.646-6.194 1.759-18.472 2.342-20.645m12.606 20.897c-.768-6.326-1.64-15.245-2.515-22.392"/><path stroke="#1e3a6e" stroke-linecap="round" stroke-linejoin="round" stroke-miterlimit="1.5" stroke-width="1.9983" d="M123.077 28.196c10.228-.465 41.756-4.852 46.878 2.514"/></g><defs><clipPath id="lz1etTbs8va"><path fill="#fff" d="M0 0h192v192H0z"/></clipPath></defs></svg>