<svg xmlns="http://www.w3.org/2000/svg" width="192" height="192" fill="none" viewBox="0 0 192 192"><g clip-path="url(#oH3XXrxLM5a)"><g stroke-linecap="round" stroke-linejoin="round" stroke-miterlimit="1.5" clip-path="url(#u5l5qRCB4jb)"><path stroke="#1e3a6e" stroke-width="3" d="M43.476 28.235c-8.451.138-10.125 4.885-9.903 8.609.09 1.48.365 68.663.4 68.939.028.229 128.474.389 128.507.121.164-1.323.371-63.253.199-67.52-.276-6.853-5.01-9.511-10.978-9.76-1.641-.068-29.46-.191-56.502-.283-25.052-.085-49.436-.143-51.723-.106m129.36 101.905c-.031-.415-149.318.526-149.334.822-.043.745-.175 8.545-.079 12.506.12 4.942.673 16.872 11.618 17.148 5.772.146 110.013.166 123.405-.032 12.271-.181 14.87-8.406 14.83-16.501-.034-6.947-.397-13.391-.44-13.943" clip-rule="evenodd"/><path stroke="#1e3a6e" stroke-width="1.9963" d="M150.655 20.632c8.996.065 14.828.607 18.153 4.131 5.059 5.36 5.02 12.437 4.638 25.072m-.055 6.306c-.087 5.229.045 15.296.045 18.106"/><path fill="#6b8cce" fill-rule="evenodd" stroke="#6b8cce" stroke-width="1.0001" d="M89.56 39.253c-24.402 2.233-32.334 31.921-13.732 46.975 5.46 4.419 12.934 6.238 19.74 5.227 12.687-1.885 24.087-12.856 22.308-28.423-2.193-19.181-17.427-23.087-24.681-23.767-1.06-.1-2.982-.013-3.635-.012" clip-rule="evenodd"/><path stroke="#1e3a6e" stroke-width="3.0002" d="M95.635 39.946c-24.402 2.233-32.334 31.921-13.731 46.976 5.459 4.418 12.933 6.238 19.74 5.226 12.687-1.885 24.086-12.856 22.307-28.423-2.192-19.181-17.427-23.087-24.681-23.766-1.06-.1-2.981-.014-3.635-.013" clip-rule="evenodd"/><path stroke="#1e3a6e" stroke-width="1.9999" d="M96.16 46.049C77.436 47.762 71.35 70.54 85.623 82.09c4.189 3.39 9.923 4.786 15.146 4.01 9.734-1.446 18.48-9.864 17.115-21.808-1.682-14.717-13.371-17.713-18.937-18.235-.813-.076-2.287-.01-2.789-.01" clip-rule="evenodd"/><path stroke="#1e3a6e" stroke-width="2.0003" d="M86.31 56.122c-8.839 8.57-1.186 26.364 10.822 24.414m28.828-30.542c5.423 8.561 6.606 23.414-1.142 34.026"/><path stroke="#1e3a6e" stroke-width="2" d="M43.707 35.257c-.761.002-1.92 1.345-1.895 2.21.109 3.801.16 9.737.175 13.003.007 1.353.635 2.377 1.68 2.389l1.324.012c4.234.033 11.86.033 15.586-.003 1.332-.012 2.165-1.168 2.163-2.533-.001-3.182-.012-8.664-.077-12.07-.034-1.777-1.06-3.046-2.406-3.05-3.894-.01-11.904.03-16.55.042m97.269-.422c-.509.001-1.284 1.023-1.267 1.68.073 2.893.107 7.41.118 9.894.004 1.03.424 1.808 1.122 1.817.259.004.557.007.885.01 2.829.025 7.924.025 10.414-.003.89-.009 1.446-.889 1.445-1.927-.001-2.42-.008-6.592-.051-9.183-.023-1.352-.708-2.317-1.608-2.32-2.602-.008-7.954.023-11.058.032m.184 17.97c-.509 0-1.283.472-1.266.775.072 1.334.107 3.416.117 4.561.005.475.424.834 1.123.838l.884.005c2.83.011 7.925.011 10.414-.002.891-.004 1.447-.41 1.446-.888-.001-1.116-.008-3.04-.052-4.234-.023-.623-.708-1.068-1.608-1.07-2.601-.003-7.954.011-11.058.015m17.022 88.163c-2.641-.298-117.822.047-120.21.131-2.958.105-3.878 1.718-3.837 3.241.064 2.46 2.18 3.639 3.511 3.652 2.85.027 118.71.305 120.998.092 1.015-.094 3.208-.27 3.212-3.519.005-3.04-2.745-3.493-3.674-3.597" clip-rule="evenodd"/><path stroke="#1e3a6e" stroke-width="2.9953" d="M34.059 105.672c-2.486 7.205-7.664 18.895-10.592 25.306M162.6 106.282c1.901 7.425 8.182 17.501 10.088 23.95"/><path stroke="#1e3a6e" stroke-width="1.9956" d="M51.194 97.673a7.704 7.704 0 1 0 0-15.408 7.704 7.704 0 0 0 0 15.407"/><path stroke="#1e3a6e" stroke-width="2" d="M14.669 137.909c.004.899-1.584 21.282 6.456 27.927 4.885 4.037 9.473 3.811 13.922 3.811m71.736-47.716c9.603-.208 33.928.296 43.518.296"/></g></g><defs><clipPath id="oH3XXrxLM5a"><path fill="#fff" d="M0 0h192v192H0z"/></clipPath><clipPath id="u5l5qRCB4jb"><path fill="#fff" d="M0 0h192v192H0z"/></clipPath></defs></svg>