<svg xmlns="http://www.w3.org/2000/svg" width="192" height="192" fill="none" viewBox="0 0 192 192"><g stroke-linecap="round" stroke-linejoin="round" stroke-miterlimit="1.5" clip-path="url(#rhs_votFoXa)"><path fill="#6b8cce" fill-rule="evenodd" stroke="#6b8cce" d="m146.922 28.683.068 6.533 23.084-.043s.303-2.56.033-3.656c-.264-1.072-1.652-2.924-1.652-2.924zM134.521 40.27l.066 6.654 36.309-.121-.248-6.621z" clip-rule="evenodd"/><path fill="#6b8cce" fill-rule="evenodd" stroke="#6b8cce" stroke-width="1.0002" d="m147.178 52.372.043 6.655 21.391.101s1.069-1.996 1.404-3.059c.349-1.112.696-3.611.696-3.611z" clip-rule="evenodd"/><path fill="#6b8cce" fill-rule="evenodd" stroke="#6b8cce" d="M59.243 31.504c3.503-1.103 17.878-5.205 17.878-5.205l.013 31.789s-9.397-1.85-17.573-4.039c-3.33-.892-6.416-1.799-6.544-5.417-.092-2.576-.138-8.25-.13-12.32.006-3.044 2.847-3.703 6.356-4.808" clip-rule="evenodd"/><path fill="#6b8cce" fill-rule="evenodd" stroke="#6b8cce" d="M52.867 39.046c-2.764-.045-18.392-.021-18.392-.021s-13.784 3.799-13.78 4.056c.004.26 13.677 4.463 13.677 4.463l18.627.008s-.092-6.885-.132-8.506" clip-rule="evenodd"/><path fill="#6b8cce" fill-rule="evenodd" stroke="#6b8cce" stroke-width="2" d="M152.326 147.872c-.001-.036.874 11.307-.333 12.832-1.138 1.439-3.399 1.969-9.447 2.009-16.809.112-48.83.005-48.823-.257.205-7.22 4.019-14.316 7.975-14.48 7.552-.312 45.562-.104 50.628-.104" clip-rule="evenodd"/><path stroke="#1e3a6e" stroke-width="2" d="M80.782 14.872c17.69-.132 43.803-.003 59.131-.003M53.628 62.373c4.618 1.418 12.46 5.09 18.165 6.861m-3.998 96.553c3.777-10.761 10.437-34.146 32.271-33.639M76.979 175.26c8.818 0 21.18-.366 30.799-.324m9.156-.014c3.107 0 26.327-.414 34.882-.414M84.664 24.251c-.122 5.901-.068 11.76-.068 17.762m-.136 5.478c-.107 2.768-.013 7.692-.013 11.508"/><path stroke="#1e3a6e" stroke-width="3" d="M109.252 85.537c-.484 15.131 8.705 21.343 24.306 21.016"/><path stroke="#1e3a6e" stroke-width="2" d="M154.268 82.586c-3.658-.088-5.918-.296-5.699 3.501.062 1.067.508 31.854.619 36.156.103 4.019 3.271 5.3 5.424 5.2m-58.238 39.135c-.17-7.573 3.826-15.383 7.978-15.555 7.552-.312 45.562-.104 50.628-.104"/><path stroke="#1e3a6e" stroke-width="3" d="M148.504 140.473s-40.379.13-51.504.446c-9.887.28-15.626 13.809-18.65 21.243-1.764 4.342 2.286 5.071 2.286 5.071l67.827-.111s7.169-.529 7.315-6.899c.049-2.177-.061-8.567-.181-12.619-.167-5.653-7.093-7.131-7.093-7.131" clip-rule="evenodd"/><path stroke="#1e3a6e" stroke-width="3" d="m148.104 69.717-47.808-.242s-2.602 10.603 5.712 14.264c2.933 1.291 8.264 1.639 12.691 3.087 4.565 1.495 15.089 6.469 15.105 16.79.033 20.8-16.911 36.506-16.743 36.73.286.383 31.443.127 31.443.127s11.066-16.367 10.62-37.168c-.368-17.228-11.02-33.588-11.02-33.588m-59.838-46.16c-8.2-.075-10.804 2.72-10.77 9.238.047 8.861-.007 19.039.095 27.04.1 7.941 3.928 9.107 10.222 9.027 4.142-.052 41.065.499 60.727.455 12.147-.025 22.598-2.929 23.088-15.395.213-5.42-.169-7.312-.272-15.434-.139-10.994-10.294-14.595-22.843-14.61-18.209-.02-51.437-.24-60.247-.32" clip-rule="evenodd"/><path stroke="#1e3a6e" stroke-width="2" d="m147.667 31.64.068 6.533 23.083-.043s.304-2.56.034-3.656c-.264-1.072-1.652-2.924-1.652-2.924zm-12.402 11.586.066 6.655 36.309-.121-.248-6.621zm12.657 12.104.043 6.654 21.392.101s1.069-1.995 1.403-3.059c.35-1.112.696-3.611.696-3.611z" clip-rule="evenodd"/><path stroke="#1e3a6e" stroke-width="3" d="M59.616 35.112c3.503-1.103 17.878-5.204 17.878-5.204l.014 31.788s-9.397-1.849-17.574-4.039c-3.329-.891-6.416-1.799-6.544-5.417-.092-2.576-.138-8.25-.13-12.32.006-3.044 2.847-3.703 6.356-4.808" clip-rule="evenodd"/><path stroke="#1e3a6e" stroke-width="3" d="M53.24 42.654c-2.764-.045-18.392-.021-18.392-.021s-13.783 3.8-13.779 4.056c.004.26 13.676 4.463 13.676 4.463l18.628.008s-.092-6.884-.133-8.506" clip-rule="evenodd"/><path stroke="#1e3a6e" stroke-width="2" d="M61.086 35.422c.08 6.847-.128 14.054.129 21.724m49.032 13.189c-1.374 7.82 9.034 7.863 14.015 9.418 12.139 3.79 20.007 13.895 18.06 32.018-1.126 10.476-4.312 16.051-12.406 28.589M21.034 46.757c7.63 0 24.666-.092 32.224-.092"/></g><defs><clipPath id="rhs_votFoXa"><path fill="#fff" d="M0 0h192v192H0z"/></clipPath></defs></svg>