<svg xmlns="http://www.w3.org/2000/svg" width="192" height="192" fill="none" viewBox="0 0 192 192"><g stroke-linecap="round" stroke-linejoin="round" stroke-miterlimit="1.5" clip-path="url(#pP8TgFVUdfa)"><path stroke="#1e3a6e" stroke-width="2" d="M10.532 67.725c.037 6.44-.055 19.02.14 27.424.137 5.815 2.495 10.828 8.162 10.969 8.443.21 19.619.324 26.388.311m73.48 49.561c2.437 0 27.208-.11 34.209-.11M110.2 96.6c.004-1.364-.082-14.093-.065-15.235.058-3.922-1.437-6.17-6.184-6.293-6.107-.156-12.469-.153-16.685-.154M49.03 84.9c-3.62-.026-8.058.09-12.718-.015-4.256-.098-6.22-1.997-6.322-7.621-.093-5.066-.058-21.21-.058-23.281"/><path fill="#6b8cce" stroke="#6b8cce" stroke-width="1.0011" d="M21.52 8.734v17.775h37.16V8.734z"/><path stroke="#1e3a6e" stroke-width="3" d="M15.23 13.817v17.775h40.1V13.817z"/><path fill="#6b8cce" stroke="#6b8cce" d="M166.036 167.259h17.775v-40.102h-17.775z"/><path stroke="#1e3a6e" stroke-width="3" d="M160.711 171.878h17.775v-40.102h-17.775z"/><path fill="#6b8cce" stroke="#6b8cce" d="M67.119 90.778h12.24V50.676h-12.24z"/><path stroke="#1e3a6e" stroke-width="3" d="M61.921 99.608h12.371V59.506h-12.37z"/><path fill="#6b8cce" stroke="#6b8cce" d="M135.153 120.32v-12.371H95.051v12.371z"/><path stroke="#1e3a6e" stroke-width="3" d="M127.714 124.927v-12.371H87.612v12.371zM74.777 94.384c3.7-.008 6.994-.007 9.526.006 6.234.032 7.568 1.086 7.756 9.117.01.411.04 3.749.077 8.453"/><path stroke="#1e3a6e" stroke-width="2" d="M172.127 171.788c0-8.623-.065-31.223-.065-39.861M54.91 20.375c-8.624 0-31.224.065-39.862.065m113.877 154.049c-3.282-.115-8.807 0-14.477-.078-18.66-.258-29.137-11.919-29.707-25.477-.194-4.621-.12-9.161-.093-13.336m74.111-14.17c4.984-.058 16.911.161 21.66.103M62.58 33.165c0-2.375-.076-18.68-.076-20.356"/><path stroke="#1e3a6e" stroke-width="3" d="m49.12 31.592.038 7.215v.02c.038 7.114.076 14.467.117 19.244.054 6.2.696 7.298 9.358 7.335q1.538.006 3.288.006m-40.64-33.82c-.015 5.687-.05 12.629-.086 19.72-.052 10.475-.107 21.28-.103 28.862.004 8.647 1.331 14.24 12.519 14.37 1.853.021 8.91-.015 17.419-.06h.023c3.467-.018 7.174-.037 10.868-.054m12.37-.045c3.897-.009 7.37-.009 10.012.005 6.234.032 7.568 1.086 7.756 9.117.01.428.042 4.033.082 9.049M74.29 65.367l5.604-.032c6.274-.037 13.315-.078 20.955-.103 13.221-.043 19.814 1.383 19.887 14.055.041 7.15.152 14.018.26 20.761.068 4.205.134 8.361.183 12.508m-28.943 12.37c.061 8.134.122 16.514.153 21.024.093 13.611 11.763 19.793 21.919 19.734 2.954-.017 15.964.092 29.334.204h.036c5.882.05 11.834.1 17.031.14m-39.453-41.102c.055 8.862 2.152 12.9 8.819 12.914 8.892.017 20.988.071 30.634.129"/></g><defs><clipPath id="pP8TgFVUdfa"><path fill="#fff" d="M0 0h192v192H0z"/></clipPath></defs></svg>