<svg xmlns="http://www.w3.org/2000/svg" width="192" height="192" fill="none" viewBox="0 0 192 192"><g stroke-linecap="round" stroke-linejoin="round" stroke-miterlimit="1.5" clip-path="url(#ECygBTCbbza)"><path fill="#6b8cce" fill-rule="evenodd" stroke="#6b8cce" stroke-width="1.0034" d="M66.402 101.238c.071-1.342.982-5.288 2.09-5.976 3.398-2.107 10.187-3.923 9.952 1.912-.548 13.613 1.622 29.86 1.622 43.459 0 6.924.239 29.846-6.324 30.696-10.302 1.333-9.677-28.563-9.785-30.904-.047-1.031 1.323-17.912 2.445-39.187" clip-rule="evenodd"/><path fill="#6b8cce" fill-rule="evenodd" stroke="#6b8cce" d="M136.692 103.731c-.444-14.158-12.738-13.863-11.805-4.599 1.863 18.497-4.048 28.264-4.048 41.142 0 6.555 1.688 28.312 8.251 29.116 10.302 1.263 9.267-27.339 9.374-29.557.047-.961-1.155-16.377-1.772-36.102" clip-rule="evenodd"/><path stroke="#1e3a6e" stroke-width="3" d="M128.031 18.086c.028-.006-5.919 1.295-10.539 9.896-9.823 18.29-18.299 66.745-15.76 66.877 9.219.479 17.264-1.985 18.551 7.236 1.787 12.808-3.55 28.219-3.55 41.097 0 6.554 1.688 28.312 8.251 29.116 10.302 1.263 9.268-27.339 9.375-29.557.131-2.703-6.328-119.85-6.328-124.665" clip-rule="evenodd"/><path stroke="#1e3a6e" stroke-width="2.997" d="M50.579 24.878c-.003 0 32.203-.183 32.227.186 1.772 28.58 4.92 66.195 3.862 66.244-5.356.249-12.934-.634-13.246 7.107-.548 13.613 1.622 29.86 1.622 43.459 0 6.924.239 29.846-6.324 30.696-10.302 1.334-9.677-28.563-9.785-30.904-.05-1.096 1.5-20.104 2.655-43.262.1-2.007-.37-8.135-14.637-7.93-.672.01 3.626-62.63 3.626-65.596" clip-rule="evenodd"/><path stroke="#1e3a6e" stroke-width="1.9855" d="M60.606 25.122c.039 13.26.063 34.892-.1 48.763M72.195 25.51c.303 8.06.484 28.842.894 48.202"/><path stroke="#1e3a6e" stroke-width="1.9865" d="M115.325 94.988c5.917 1.014 11.246 1.248 16.085-1.945m-10.279 10.833c-.033.019 6.308.226 11.069-2.472M56.771 91.398c7.14 3.043 14.14 2.865 21.748.027"/><path stroke="#1e3a6e" stroke-width="2" d="M61.24 100.223c4.709 3.754 8.467 2.803 11.686.752m48.271-53.415c.048 7.506 1.338 35.387 1.397 36.646m21.931 25.955c1.633 33.949 4.673 69.506-14.365 71.887m-79.458-70.825c-2.64 25.781-9.793 70.124 17.423 70.406m9.106-.942c3.904-1.721 7.64-7.163 8.93-11.651M54.801 15.69c5.72-.08 17.115.106 24.73.058m63.988 84.211c-.454-8.818-1.709-33.734-2.949-50.681"/></g><defs><clipPath id="ECygBTCbbza"><path fill="#fff" d="M0 0h192v192H0z"/></clipPath></defs></svg>