<svg xmlns="http://www.w3.org/2000/svg" width="192" height="192" fill="none" viewBox="0 0 192 192"><g stroke-linecap="round" stroke-linejoin="round" stroke-miterlimit="1.5" clip-path="url(#e6t7bdYrGda)"><path stroke="#1e3a6e" stroke-width="3" d="M39.049 27.933c-8.902.246-10.664 8.732-10.43 15.39.093 2.646-.341 77.213.5 107.244.205 7.279 2.94 15.564 10.017 16.17 5.235.449 99.756.686 111.899-.133 11.127-.75 12.678-7.874 12.887-16.389.171-6.97.861-96.51.68-104.14-.291-12.25-5.277-17.002-11.562-17.446-8.156-.575-100.826-1.062-113.991-.696" clip-rule="evenodd"/><path stroke="#1e3a6e" stroke-width="2" d="M95.556 37.583c-21.53-.117-43.024-.136-48.506.016-7.664.212-9.182 7.519-8.98 13.251.045 1.281-.054 22.146-.02 44.762.01 6.51.03 13.164.07 19.539m.382 28.035c.176 6.267 2.53 13.4 8.624 13.922 4.508.387 85.889.59 96.345-.115 9.58-.645 10.916-6.779 11.095-14.111.147-6 .742-83.093.586-89.662-.251-10.548-4.543-14.64-9.955-15.022-2.868-.201-17.865-.39-35.38-.523"/><path fill="#6b8cce" fill-rule="evenodd" stroke="#6b8cce" stroke-width="1.0023" d="M66.588 98.412c.535.928 25.928 45.46 27.2 46.734.149.148.836 1.624 1.303 1.157.853-.853 5.788-15.916 7.523-20.689 6.386-17.561 36.172-73.374 36.172-73.645 0-.01-17.672-6.492-18.086-6.077-1.31 1.31-4.989 9.92-5.932 11.719-6.138 11.718-22.81 52.615-23.873 53.679-.435.434-11.796-20.332-13.456-21.993-.63-.63-9.735 7.977-10.851 9.115" clip-rule="evenodd"/><path stroke="#1e3a6e" stroke-width="2.9957" d="M59.522 98.96c.534.927 25.927 45.459 27.2 46.733.148.148.835 1.624 1.303 1.157.852-.853 5.787-15.916 7.523-20.689 6.385-17.561 36.171-73.374 36.171-73.645 0-.01-17.671-6.492-18.085-6.078-1.31 1.31-4.989 9.92-5.932 11.72-6.138 11.718-22.81 52.615-23.873 53.678-.435.435-11.796-20.331-13.456-21.992-.631-.63-9.735 7.977-10.852 9.115" clip-rule="evenodd"/><path stroke="#1e3a6e" stroke-width="2.0028" d="M140.941 58.198c-4.928 9.74-19.22 41.29-22.154 46.604m-61.424 12.76c2.297 3.843 15.872 27.241 18.13 30.777m39.588-36.314c-1.908 4.11-8.714 18.121-9.95 20.614"/><path stroke="#1e3a6e" stroke-width="2.0007" d="M18.023 156.088c.132 6.032-.27 22.141 18.422 21.807m112.41-162.681c27.798.198 26.843 18.309 26.891 34.456m-.065 7.441c-.102 6.17.054 18.048.054 21.364M17.973 150.191c-.056-10.081-.106-16.99-.106-22.996"/></g><defs><clipPath id="e6t7bdYrGda"><path fill="#fff" d="M0 0h192v192H0z"/></clipPath></defs></svg>