<svg xmlns="http://www.w3.org/2000/svg" width="192" height="192" fill="none" viewBox="0 0 192 192"><g stroke-linecap="round" stroke-linejoin="round" stroke-miterlimit="1.5" clip-path="url(#25dUT669ola)"><path fill="#6b8cce" fill-rule="evenodd" stroke="#6b8cce" d="M61.457 43.67c-1.814-6.493-.287-17.212-.003-23.33.2-4.308 45.007-2.55 60.363-2.325 7.692.11 15.047.066 14.909 8.148-.665 39.145-17.401 129.316-19.331 141.016-1.247 7.564-25.973 6.035-28.6 1.287-6.643-12 21.192-121.528 20.782-121.965-1.323-1.41-46.56 2.765-48.12-2.83" clip-rule="evenodd"/><path stroke="#1e3a6e" stroke-width="3" d="M54.005 48.972c-1.814-6.494-.287-17.212-.003-23.33.2-4.308 45.007-2.55 60.363-2.325 7.692.11 15.047.066 14.909 8.147-.665 39.146-17.401 129.317-19.331 141.017-1.248 7.564-25.974 6.035-28.601 1.287C74.7 161.767 102.535 52.24 102.125 51.803c-1.323-1.41-46.56 2.764-48.12-2.83" clip-rule="evenodd"/><path stroke="#1e3a6e" stroke-width="2" d="M139.425 70.608c-1.601 12.776-3.391 25.614-4.801 33.32m-1.681 8.477c-4.489 28.243-6.269 37.537-10.398 61.87M44.173 48.267c-2.392-11.086-1.528-24.586.323-29.975 1.478-4.306 45.772-4.576 59.317-3.977"/></g><defs><clipPath id="25dUT669ola"><path fill="#fff" d="M0 0h192v192H0z"/></clipPath></defs></svg>