<svg xmlns="http://www.w3.org/2000/svg" width="192" height="192" fill="none" viewBox="0 0 192 192"><g stroke-linecap="round" stroke-linejoin="round" stroke-miterlimit="1.5" clip-path="url(#Kl7vAvmp9Ja)"><path fill="#6b8cce" fill-rule="evenodd" stroke="#6b8cce" d="M139.829 78.295c.125-1.839-.846-3.942-2.795-4.016-5.974-.227-18.727 1.03-33.396 1.033-17.473.003-35.89-1.017-41.901-.487-1.317.115-1.838 3.027-1.635 4.202 2.678 15.473 22.677 28.175 44.8 27.759 26.66-.502 33.961-14.222 34.927-28.492" clip-rule="evenodd"/><path stroke="#1e3a6e" stroke-width="3" d="M93.24 109.62c-.073 3.076-1.517 56.893-1.405 58.165.023.247-22.788 6.351-22.786 6.831.003.496 14.466 5.079 27.268 5.189 11.853.101 26.885-4.503 26.934-5.009.072-.737-20.435-6.077-23.071-7.11-.023-.009-.752-57.866-.987-57.869-1.401-.019-3.687-.154-5.952-.197" clip-rule="evenodd"/><path stroke="#1e3a6e" stroke-width="2" d="M85.478 115.756c-.276 9.237-.728 34.147-1.075 46.613m43.789-53.501c23.495-12.224 19.404-38.92 8.356-64.534"/><path stroke="#1e3a6e" stroke-width="3" d="M118.955 21.286c-.546.027-47.154.092-47.173.19-1.318 6.38-11.897 33.845-15.494 48.109-5.654 22.413 11.326 39.374 39.376 39.857 28.085.484 46.792-16.339 39.608-41.079-4.752-16.368-13.081-40.417-16.317-47.077" clip-rule="evenodd"/><path stroke="#1e3a6e" stroke-width="2" d="M72.388 15.199c11.778-.28 35.538.128 45.696.122M77.28 30.354c-3.377 10.595-9.1 29.824-12.304 41.713m.634 13.479c2.724 9.43 12.129 13.883 19.192 14.925"/><path stroke="#1e3a6e" stroke-width="3" d="M56.277 78.783c14.519-.045 58.758.193 80.213-.153"/></g><defs><clipPath id="Kl7vAvmp9Ja"><path fill="#fff" d="M0 0h192v192H0z"/></clipPath></defs></svg>