<svg xmlns="http://www.w3.org/2000/svg" width="192" height="192" fill="none" viewBox="0 0 192 192"><g clip-path="url(#47_pFj2Ky8a)"><g stroke-linecap="round" stroke-linejoin="round" stroke-miterlimit="1.5" clip-path="url(#Hr9o-QTvU5b)"><path fill="#6b8cce" fill-rule="evenodd" stroke="#6b8cce" d="M132.486 66.894c.482-1.145 10.636-25.722 14.262-33.733.733-1.62 2.044-1.64 3.064-.483 5.629 6.384 22.671 25.956 28.19 32.437 1.117 1.311-.222 6.504-1.587 8.27-11.668 15.096-69.584 97.99-72.593 97.987-.451 0 28.123-102.703 28.664-104.478" clip-rule="evenodd"/><path stroke="#1e3a6e" stroke-width="3" d="M22.014 67.237c.505-.635 24.222-29.037 31.84-36 .559-.511 87.866-.433 88.255-.044 1.021 1.02 31.843 36.405 31.735 36.56-9.002 12.935-71.942 104.121-75.926 104.148-4.072.028-75.602-104.217-75.904-104.664" clip-rule="evenodd"/><path stroke="#1e3a6e" stroke-width="2" d="M68.91 68.247c1.63 7.819 24.419 89.343 28.326 102.966m29.438-103.216c-2.735 10.255-27.904 98.71-28.481 103.327"/><path stroke="#1e3a6e" stroke-width="3" d="M22.732 67.588c4.317-.011 142.805-.052 151.021.136"/><path stroke="#1e3a6e" stroke-width="2" d="M97.878 30.913c-5.002 6.45-22.893 29.797-29.076 36.179m29.477-36.22c3.593 4.654 21.734 27.322 28.091 36.387M54.227 31.844c3.12 7.89 13.206 32.11 14.439 34.94m73.367-35.272c-2.551 5.58-13.027 30.344-15.142 35.36M143.4 44c3.171 3.049 11.397 12.668 15.32 16.907M28.29 91.479c5.782 8.316 41.335 59.81 48.85 69.028m40.185-24.471c4.867-7.081 11.341-16.562 17.14-25.252m3.016-5.144a14952 14952 0 0 0 21.042-31.637m-121.714.755c4.14.094 15.534.132 24.806.196m7.87-51.335c13.869-.231 54.921.126 66.318.126M79.14 75.223c2.008 9.165 10.972 46.474 13.514 56.534"/></g></g><defs><clipPath id="47_pFj2Ky8a"><path fill="#fff" d="M0 0h192v192H0z"/></clipPath><clipPath id="Hr9o-QTvU5b"><path fill="#fff" d="M0 0h192v192H0z"/></clipPath></defs></svg>