<svg xmlns="http://www.w3.org/2000/svg" width="430" height="430" fill="none" viewBox="0 0 430 430"><path fill="#6b8cce" d="M150 40h130v80l95 75v60H55v-60l95-75z"/><path fill="#6b8cce" d="m280 120 95 75H55l95-75z" opacity=".5" style="mix-blend-mode:multiply"/><path fill="#6b8cce" d="M188.333 120H150l-95 75h320l-31.667-25H133.641c-2.845 0-4.092-3.591-1.858-5.355z" opacity=".4" style="mix-blend-mode:multiply"/><path fill="#6b8cce" d="M185 40h-35v80h35zM90 195H55v60h35z" opacity=".5" style="mix-blend-mode:multiply"/><path stroke="#1e3a6e" stroke-linejoin="round" stroke-width="7" d="M150 40h130v80H150zM55 195l95-75m225 75-95-75M55 195h320v60H55z"/><path stroke="#1e3a6e" stroke-linecap="round" stroke-width="7" d="M282 225h.01"/><path stroke="#e8e6f2" stroke-linecap="round" stroke-width="7" d="M342 225h.01m-30.261 0h.01"/><path stroke="#1e3a6e" stroke-linecap="round" stroke-linejoin="round" stroke-miterlimit="10" stroke-width="7" d="M154 295q26 25 0 50t0 50m61-100q26 25 0 50t0 50m61-100q26 25 0 50t0 50"/></svg>