<svg xmlns="http://www.w3.org/2000/svg" width="430" height="430" fill="none" viewBox="0 0 430 430"><path fill="#fff" d="M55 55h320v320H55z"/><path fill="#6b8cce" d="M162 175h107v200H162z" opacity=".85" style="mix-blend-mode:multiply"/><path fill="#6b8cce" d="M269 246h106v129H269zm-214 0h107v129H55zM162 55h107v120H162zM55 55h107v191H55zm214 0h106v191H269z"/><path fill="#6b8cce" d="M269 246h106v129H269zm-214 0h107v129H55zM162 55h107v120H162z" opacity=".5" style="mix-blend-mode:multiply"/><path fill="#6b8cce" d="M162 55h20v300h87V55h20v300h86v20H55V55h20v300h87z" opacity=".4" style="mix-blend-mode:multiply"/><path stroke="#1e3a6e" stroke-linecap="round" stroke-linejoin="round" stroke-miterlimit="10" stroke-width="7" d="M197 265v110m37-200v110m70-165v90m37-120v65m-214-20v110M90 95v100m251 120v60m-37-100v60m-195-35v75M234 55v70m-37-10v30M55 55h320v320H55zm0 191h107m0-71h107m0 71h106M162 55v320M269 55v320"/></svg>