<svg xmlns="http://www.w3.org/2000/svg" width="430" height="430" fill="none" viewBox="0 0 430 430"><path fill="#e8e6f2" d="M302.34 55H128.15c-10.852 0-19.65 8.798-19.65 19.65v280.94c0 10.852 8.798 19.65 19.65 19.65h174.19c10.852 0 19.65-8.798 19.65-19.65V74.65c0-10.852-8.798-19.65-19.65-19.65"/><path fill="#6b8cce" d="M243.59 295.18h-56.68V135.06h56.68v80.06"/><path fill="#6b8cce" d="M243.59 295.18h-56.68V135.06h56.68v80.06" opacity=".5" style="mix-blend-mode:multiply"/><path fill="#6b8cce" d="M270.59 255.15h-56.68l-27.01-40.03h56.69zm-27 40.03h-56.68l27-40.03h56.68z"/><path fill="#6b8cce" d="M270.59 255.15h-56.68l-27.01-40.03h56.69z" style="mix-blend-mode:multiply"/><path stroke="#1e3a6e" stroke-linecap="round" stroke-linejoin="round" stroke-width="7" d="M215.25 79.62v26.67M302.34 55H128.15c-10.852 0-19.65 8.798-19.65 19.65v280.94c0 10.852 8.798 19.65 19.65 19.65h174.19c10.852 0 19.65-8.798 19.65-19.65V74.65c0-10.852-8.798-19.65-19.65-19.65"/><path stroke="#1e3a6e" stroke-linecap="round" stroke-linejoin="round" stroke-width="7" d="M215.25 350.62c7.882 0 14.27-6.389 14.27-14.27s-6.388-14.27-14.27-14.27-14.27 6.389-14.27 14.27 6.389 14.27 14.27 14.27m28.34-135.5v-80.06h-56.68v160.12h56.68l27.01-40.03zm0 0h-56.68"/><path stroke="#1e3a6e" stroke-linecap="round" stroke-linejoin="round" stroke-width="7" d="m188.1 293.41 25.81-38.26h56.69m-56.69 0-27-40.03"/></svg>