<svg xmlns="http://www.w3.org/2000/svg" width="430" height="430" fill="none" viewBox="0 0 430 430"><path fill="#6b8cce" d="M277.05 286.25h102.96c2.3 0 3.74 2.47 2.61 4.47l-28.42 50.37a40.14 40.14 0 0 1-34.96 20.42h-42.19v20.29c0 2.94-3.8 4.13-5.47 1.7l-40-57.92a3 3 0 0 1 0-3.41l40-57.92c1.67-2.42 5.47-1.24 5.47 1.7zm40.85-25.84-30.44-52.73a3 3 0 0 1 1.1-4.1l59.98-34.63c1.43-.83 3.27-.34 4.1 1.1l34.38 59.54c8.12 14.07-1.93 31.68-18.17 31.84l-48.31.48c-1.08.01-2.09-.56-2.63-1.5zM65.95 202.02l-21.08 36.56a40.13 40.13 0 0 0 .22 40.48l29.44 49.78c1.17 1.98 4.03 1.96 5.18-.03l51.44-89.19 17.57 10.13c2.55 1.47 5.47-1.23 4.21-3.89l-30.19-63.59a2.99 2.99 0 0 0-2.95-1.7l-70.15 5.72c-2.93.24-3.8 4.12-1.26 5.59l17.58 10.14zm67.561 84.39 60.89-.03c1.66 0 3 1.34 3 3l.03 69.26c0 1.66-1.34 3-3 3l-68.75.03c-16.25 0-26.48-17.49-18.5-31.65l23.72-42.09c.53-.94 1.53-1.53 2.61-1.53zM309.92 101.78l-20.7-36.77a40.14 40.14 0 0 0-34.94-20.45l-57.84-.06c-2.3 0-3.74 2.47-2.62 4.47l50.51 89.72-17.68 9.95c-2.56 1.44-1.73 5.33 1.2 5.6l70.1 6.45c1.24.11 2.42-.55 2.97-1.67l30.85-63.26c1.29-2.64-1.6-5.37-4.17-3.93zm-108.519 16.11-31.02 52.39a2.99 2.99 0 0 1-4.11 1.05l-59.6-35.28a2.99 2.99 0 0 1-1.05-4.11l35.02-59.16c8.28-13.98 28.55-13.86 36.66.22l24.11 41.86c.54.94.53 2.09-.02 3.03z"/><path fill="#6b8cce" d="M196.45 44.5c-2.3 0-3.74 2.47-2.62 4.47l50.51 89.72-17.68 9.96c-2.56 1.44-1.73 5.33 1.2 5.6l70.1 6.45c1.14.1 2.22-.45 2.81-1.4l-52.91-4.87c-2.93-.27-3.76-4.16-1.2-5.6l17.68-9.96-50.51-89.72c-1.13-2 .32-4.47 2.62-4.47m-89.769 91.56a2.99 2.99 0 0 1-1.05-4.11l35.02-59.16c2.14-3.62 5.1-6.29 8.43-8.02-9.49-5.14-22.28-2.55-28.43 7.84l-35.02 59.16a3.006 3.006 0 0 0 1.05 4.11l59.6 35.28c1.43.84 3.27.37 4.11-1.05l3.58-6.05zM65.09 279.23a40.13 40.13 0 0 1-.22-40.48l21.08-36.56-17.58-10.14c-2.55-1.47-1.68-5.35 1.26-5.59l53.03-4.32a3 3 0 0 0-2.88-1.57l-70.15 5.72c-2.93.24-3.8 4.12-1.26 5.59l17.58 10.14-21.08 36.56a40.13 40.13 0 0 0 .22 40.48l29.44 49.78c1.17 1.98 4.03 1.96 5.18-.03l7.26-12.58zm68.42 7.18c-1.08 0-2.08.58-2.61 1.53l-23.72 42.09c-7.98 14.15 2.26 31.66 18.5 31.65h19.7c-16.07-.22-26.13-17.58-18.2-31.65l23.72-42.09c.53-.94 1.53-1.53 2.61-1.53m98.07 39.17a3 3 0 0 1 0-3.41l25.47-36.88v-19.33c0-2.94-3.8-4.13-5.47-1.71l-40 57.92a3 3 0 0 0 0 3.41l40 57.92c1.67 2.42 5.47 1.24 5.47-1.71v-19.33zm86.32-65.17-30.44-52.73a3 3 0 0 1 1.1-4.1l47.58-27.47-3.5-6.06a3.005 3.005 0 0 0-4.1-1.1l-59.98 34.63a3.005 3.005 0 0 0-1.1 4.1l30.44 52.73c.54.94 1.55 1.51 2.63 1.5l18.99-.19c-.67-.23-1.25-.68-1.61-1.31z" opacity=".5" style="mix-blend-mode:multiply"/><path stroke="#1e3a6e" stroke-linecap="round" stroke-linejoin="round" stroke-width="7" d="M277.05 286.25h102.96c2.3 0 3.74 2.47 2.61 4.47l-28.42 50.37a40.14 40.14 0 0 1-34.96 20.42h-42.19v20.29c0 2.94-3.8 4.13-5.47 1.7l-40-57.92a3 3 0 0 1 0-3.41l40-57.92c1.67-2.42 5.47-1.24 5.47 1.7zm40.85-25.84-30.44-52.73a3 3 0 0 1 1.1-4.1l59.98-34.63c1.43-.83 3.27-.34 4.1 1.1l34.38 59.54c8.12 14.07-1.93 31.68-18.17 31.84l-48.31.48c-1.08.01-2.09-.56-2.63-1.5zM65.95 202.02l-21.08 36.56a40.13 40.13 0 0 0 .22 40.48l29.44 49.78c1.17 1.98 4.03 1.96 5.18-.03l51.44-89.19 17.57 10.13c2.55 1.47 5.47-1.23 4.21-3.89l-30.19-63.59a2.99 2.99 0 0 0-2.95-1.7l-70.15 5.72c-2.93.24-3.8 4.12-1.26 5.59l17.58 10.14zm67.561 84.39 60.89-.03c1.66 0 3 1.34 3 3l.03 69.26c0 1.66-1.34 3-3 3l-68.75.03c-16.25 0-26.48-17.49-18.5-31.65l23.72-42.09c.53-.94 1.53-1.53 2.61-1.53zM309.92 101.78l-20.7-36.77a40.14 40.14 0 0 0-34.94-20.45l-57.84-.06c-2.3 0-3.74 2.47-2.62 4.47l50.51 89.72-17.68 9.95c-2.56 1.44-1.73 5.33 1.2 5.6l70.1 6.45c1.24.11 2.42-.55 2.97-1.67l30.85-63.26c1.29-2.64-1.6-5.37-4.17-3.93zm-108.519 16.11-31.02 52.39a2.99 2.99 0 0 1-4.11 1.05l-59.6-35.28a2.99 2.99 0 0 1-1.05-4.11l35.02-59.16c8.28-13.98 28.55-13.86 36.66.22l24.11 41.86c.54.94.53 2.09-.02 3.03z"/></svg>