<svg xmlns="http://www.w3.org/2000/svg" width="430" height="430" fill="none" viewBox="0 0 430 430"><path fill="#6b8cce" d="M313.42 51 276 144s44.42 46.5 68.921 105c24.474 58.439 16.779 145.818-130.461 146C67.22 394.818 59.525 307.439 84 249c24.5-58.5 68.92-105 68.92-105l-38.5-93.5S145.73 71 163.97 71c8.931 0 16.15-4.854 23.519-9.81 7.681-5.165 15.526-10.44 25.641-10.44 9.714 0 16.653 4.863 23.73 9.823C244.224 65.734 251.737 71 262.68 71c21.21 0 50.74-20 50.74-20"/><path stroke="#1e3a6e" stroke-linecap="round" stroke-linejoin="round" stroke-width="7" d="M214.46 395c147.24-.182 154.935-87.561 130.461-146C320.42 190.5 276 144 276 144l37.42-93s-29.53 20-50.74 20c-10.943 0-18.456-5.266-25.82-10.427-7.077-4.96-14.016-9.823-23.73-9.823-10.115 0-17.96 5.275-25.641 10.44C180.12 66.146 172.901 71 163.97 71c-18.24 0-49.55-20.5-49.55-20.5l38.5 93.5S108.5 190.5 84 249c-24.475 58.439-16.78 145.818 130.46 146m0 0h.46m-.46 0H214"/><path fill="#6b8cce" d="M272.242 69.877 233.78 123.17l10.244-57.821C249.34 68.547 255.211 71 262.68 71c3.053 0 6.277-.414 9.562-1.123m-89.492-5.56 8.47 58.833-38.745-54.086c4.1 1.197 8.033 1.936 11.495 1.936 7.016 0 12.975-2.996 18.78-6.683m-57.503 113.486C111.571 196.441 95.566 221.384 84 249c-24.475 58.439-16.78 145.818 130.46 146 13.769-.017 26.317-.796 37.733-2.243-134.839-33.754-150.907-133.816-126.946-214.954" opacity=".5" style="mix-blend-mode:multiply"/><path stroke="#e8e6f2" stroke-linecap="round" stroke-linejoin="round" stroke-width="7" d="M150.42 144h129.5s-21.5 53.5 9 84m-9-84s32.5 15 23.5 50.5M245 330h-65a94.7 94.7 0 0 0 10-42.361V280m55-35v-5c0-11.046-8.954-20-20-20h-15c-11.046 0-20 8.954-20 20v40m0 0h-15m15 0h35"/></svg>