<svg xmlns="http://www.w3.org/2000/svg" width="430" height="430" fill="none" viewBox="0 0 430 430"><path fill="#6b8cce" d="M334.68 119.08H95.77v255.66h238.91z"/><path fill="#e8e6f2" d="M334.68 54.5H94.5v64.58h240.18zm-76.19 251.39c25.521 0 46.21-20.689 46.21-46.21s-20.689-46.21-46.21-46.21-46.21 20.689-46.21 46.21 20.689 46.21 46.21 46.21m-95.72-39.61c-12.16 0-22.33-9.26-23.46-21.36l-2.95-31.45h52.81l-2.95 31.45c-1.13 12.11-11.3 21.36-23.46 21.36z"/><path stroke="#e8e6f2" stroke-linecap="round" stroke-linejoin="round" stroke-width="7" d="M162.77 266.28v39.61m19.46 0h-38.92"/><path fill="#6b8cce" d="m262.84 119.08-6.03 16.42a15.66 15.66 0 0 1-14.7 10.26h-51.94c-6.57 0-12.44-4.1-14.7-10.26l-6.03-16.42" opacity=".5" style="mix-blend-mode:multiply"/><path stroke="#1e3a6e" stroke-linecap="round" stroke-linejoin="round" stroke-width="7" d="M334.68 54.5H94.5v320.24h240.18zM95.77 119.08h238.45"/><path stroke="#1e3a6e" stroke-linecap="round" stroke-linejoin="round" stroke-width="7" d="m262.84 119.08-6.03 16.42a15.66 15.66 0 0 1-14.7 10.26h-51.94c-6.57 0-12.44-4.1-14.7-10.26l-6.03-16.42"/><path stroke="#6b8cce" stroke-linecap="round" stroke-miterlimit="10" stroke-width="16" d="M123.14 92.262h.01"/><path stroke="#08A88A" stroke-linecap="round" stroke-miterlimit="10" stroke-width="16" d="M156.44 92.262h.01"/><path stroke="#6b8cce" stroke-linecap="round" stroke-miterlimit="10" stroke-width="16" d="M189.75 92.269h.01"/></svg>