<svg xmlns="http://www.w3.org/2000/svg" width="430" height="430" fill="none" viewBox="0 0 430 430"><path stroke="#1e3a6e" stroke-linecap="round" stroke-linejoin="round" stroke-width="7" d="M90 60v50m0 70v190M215 60v185m0 70v55M340 60v110m0 70v130"/><circle cx="215" cy="280" r="35" fill="#e8e6f2"/><circle cx="340" cy="205" r="35" fill="#6b8cce"/><circle cx="90" cy="145" r="35" fill="#6b8cce"/><path fill="#e8e6f2" d="M244.241 299.241A34.84 34.84 0 0 1 225 305c-19.33 0-35-15.67-35-35 0-7.108 2.119-13.72 5.759-19.241C186.265 257.019 180 267.778 180 280c0 19.33 15.67 35 35 35 12.222 0 22.981-6.265 29.241-15.759" opacity=".5" style="mix-blend-mode:multiply"/><path fill="#6b8cce" d="M369.241 224.241A34.84 34.84 0 0 1 350 230c-19.33 0-35-15.67-35-35 0-7.108 2.119-13.72 5.759-19.241C311.265 182.019 305 192.778 305 205c0 19.33 15.67 35 35 35 12.222 0 22.981-6.265 29.241-15.759m-250-60A34.84 34.84 0 0 1 100 170c-19.33 0-35-15.67-35-35 0-7.108 2.119-13.72 5.759-19.241C61.265 122.019 55 132.778 55 145c0 19.33 15.67 35 35 35 12.222 0 22.981-6.265 29.241-15.759" opacity=".5" style="mix-blend-mode:multiply"/><circle cx="215" cy="280" r="35" stroke="#1e3a6e" stroke-width="7"/><circle cx="340" cy="205" r="35" stroke="#1e3a6e" stroke-width="7"/><circle cx="90" cy="145" r="35" stroke="#1e3a6e" stroke-width="7"/></svg>