<svg xmlns="http://www.w3.org/2000/svg" width="430" height="430" fill="none" viewBox="0 0 430 430"><circle cx="190" cy="190.5" r="145" fill="#6b8cce"/><path fill="#6b8cce" d="M296.935 288.428c-22.298 13.985-48.672 22.071-76.935 22.071-80.081 0-145-64.918-145-145 0-37.749 14.426-72.13 38.065-97.929C72.182 93.211 45 138.681 45 190.5c0 80.082 64.919 145 145 145 42.332 0 80.427-18.14 106.935-47.071" opacity=".5" style="mix-blend-mode:multiply"/><circle cx="190" cy="190.5" r="137.5" stroke="#e8e6f2" stroke-width="15"/><circle cx="190" cy="190.5" r="145" stroke="#1e3a6e" stroke-width="7"/><path stroke="#1e3a6e" stroke-linecap="round" stroke-width="7" d="m293.003 294.5 79.5 79.5"/><rect width="40" height="85" x="302.503" y="332.285" fill="#1e3a6e" rx="10" transform="rotate(-45 302.503 332.285)"/><rect width="40" height="85" x="302.503" y="332.285" stroke="#1e3a6e" stroke-width="7" rx="10" transform="rotate(-45 302.503 332.285)"/></svg>