<svg xmlns="http://www.w3.org/2000/svg" width="430" height="430" fill="none" viewBox="0 0 430 430"><path fill="#6b8cce" d="M331.511 169.75c-4.15-57.66-51.05-104.22-108.74-107.94a116.82 116.82 0 0 0-124.57 116.55 120.1 120.1 0 0 0 6 37c23.39 72.45 110.8 153.07 110.8 153.07s92.89-92.73 111.64-155.68a119.8 119.8 0 0 0 4.87-43m-116.51 63.58a55 55 0 0 1-50.813-33.952 55.002 55.002 0 0 1 40.083-74.991 55.002 55.002 0 0 1 61.544 74.991 55 55 0 0 1-50.814 33.952"/><path fill="#6b8cce" d="M123.471 178.36a116.82 116.82 0 0 1 104.35-116.14c-1.59-.17-3.18-.31-4.78-.41a116.82 116.82 0 0 0-124.57 116.55 120 120 0 0 0 6 37c23.39 72.45 110.83 153.07 110.83 153.07a40 40 0 0 0 3.66-3.65c-25.21-25.45-71.69-94.26-89.52-149.41a120.1 120.1 0 0 1-5.97-37.01" opacity=".5" style="mix-blend-mode:multiply"/><path stroke="#1e3a6e" stroke-linecap="round" stroke-linejoin="round" stroke-width="7" d="M103.73 215.37a120.1 120.1 0 0 1-6-37 116.81 116.81 0 0 1 124.6-116.55c57.67 3.71 104.59 50.27 108.74 107.93a119.8 119.8 0 0 1-4.84 43c-18.75 63-111.64 155.68-111.64 155.68s-87.44-80.62-110.86-153.06"/><path stroke="#1e3a6e" stroke-linecap="round" stroke-linejoin="round" stroke-width="7" d="M269.539 178.37a55 55 0 1 1-110.001 0 55 55 0 0 1 110.001 0"/></svg>