<svg xmlns="http://www.w3.org/2000/svg" width="430" height="430" fill="none" viewBox="0 0 430 430"><path fill="#e8e6f2" d="m215 51.415 146.78 123V382c0 1.66-1.34 3-3 3H71.22c-1.66 0-3-1.34-3-3V174.405z"/><path fill="#e8e6f2" d="M236.63 89.055 95.7 205.165V385H71.22c-1.66 0-3-1.34-3-3V194.065l146.77-123.16 21.64 18.16z" opacity=".5" style="mix-blend-mode:multiply"/><path fill="#6b8cce" d="M268.37 95.895v-28.13c0-1.66 1.34-3 3-3h47.37c1.66 0 3 1.34 3 3v72.61z"/><path stroke="#1e3a6e" stroke-linecap="round" stroke-linejoin="round" stroke-width="7" d="M361.785 174.41V385H68.225V174.41M268.36 95.905v-31.14h53.38v75.61"/><path fill="#6b8cce" fill-rule="evenodd" d="M207.998 50.397a12.5 12.5 0 0 1 16.004 0l171.156 142.63a3 3 0 0 1 .384 4.225l-12.164 14.596a3 3 0 0 1-4.225.384L216 76.272 52.847 212.231a3 3 0 0 1-4.225-.384l-12.164-14.596a3 3 0 0 1 .384-4.225z" clip-rule="evenodd"/><path stroke="#1e3a6e" stroke-linejoin="round" stroke-width="7" d="M207.998 50.397a12.5 12.5 0 0 1 16.004 0l171.156 142.63a3 3 0 0 1 .384 4.225l-12.164 14.596a3 3 0 0 1-4.225.384L216 76.272 52.847 212.231a3 3 0 0 1-4.225-.384l-12.164-14.596a3 3 0 0 1 .384-4.225z" clip-rule="evenodd"/><path fill="#6b8cce" d="M287.54 64.755v34.18l-19.16-16.08v-15.1c0-1.66 1.34-3 3-3z" opacity=".5" style="mix-blend-mode:multiply"/><path stroke="#1e3a6e" stroke-linecap="round" stroke-linejoin="round" stroke-width="7" d="M255.03 211.66v-18.69c0-4.42-3.58-8-8-8h-64.06c-4.42 0-8 3.58-8 8v18.69"/><path fill="#6b8cce" d="M288.41 211.66H141.6c-11.046 0-20 8.954-20 20v93.71c0 11.046 8.954 20 20 20h146.81c11.046 0 20-8.954 20-20v-93.71c0-11.046-8.954-20-20-20"/><path stroke="#1e3a6e" stroke-linecap="round" stroke-linejoin="round" stroke-width="7" d="M288.41 211.66H141.6c-11.046 0-20 8.954-20 20v93.71c0 11.046 8.954 20 20 20h146.81c11.046 0 20-8.954 20-20v-93.71c0-11.046-8.954-20-20-20"/><path fill="#6b8cce" d="M141.6 211.66h20c-11.046 0-20 8.954-20 20v93.71c0 11.046 8.954 20 20 20h-20c-11.046 0-20-8.954-20-20v-93.71c0-11.046 8.954-20 20-20" opacity=".5" style="mix-blend-mode:multiply"/><path fill="#6b8cce" d="M308.4 326.009V291.6H121.6v33.77c0 11.046 8.954 20 20 20h146.81c10.832 0 19.653-8.611 19.99-19.361" opacity=".5" style="mix-blend-mode:multiply"/><path fill="#1e3a6e" d="M235.01 291.6v18.46h-40.02V291.6"/><path stroke="#1e3a6e" stroke-linecap="round" stroke-linejoin="round" stroke-width="7" d="M235.01 291.6v18.46h-40.02V291.6"/><path fill="#1e3a6e" d="M194.99 291.6v18.46H215V291.6z" opacity=".5" style="mix-blend-mode:multiply"/><path stroke="#1e3a6e" stroke-linecap="round" stroke-linejoin="round" stroke-width="7" d="M308.4 291.6H121.6"/></svg>