<svg xmlns="http://www.w3.org/2000/svg" width="430" height="431" fill="none" viewBox="0 0 430 431"><g clip-path="url(#s2WszYltUaa)"><path fill="#6b8cce" d="M248.88 242.48h7.62c45.84 0 83 37.16 83 83v27.76c0 7.62-5.71 14.03-13.28 14.9l-29.04 3.36a85.3 85.3 0 0 0-23.07 6.03c-18.91 7.91-39 11.88-59.11 11.92h-.3c-20.1 0-40.2-3.93-59.12-11.8l-.2-.08c-7.69-3.2-15.79-5.3-24.07-6.26l-27.53-3.17c-7.57-.87-13.28-7.28-13.28-14.9v-27.76c0-45.84 37.16-83 83-83z"/><path fill="#6b8cce" d="M181.44 220.32v22.16L215 276.04l33.56-33.56v-22.16z"/><path fill="#e8e6f2" d="M174.97 242.48v96.14h-32.6v-90.1c9.61-3.9 20.11-6.04 31.12-6.04zm112.67 6.06v89.84h-32.6v-95.89h1.46c11.01 0 21.53 2.15 31.14 6.05"/><path fill="#6b8cce" d="m215 276.05-20.75 26.75-19.28-28.15-20.51-29.96h.01c6.11-1.44 12.48-2.2 19.03-2.2h7.94zm0 0 20.75 26.75 19.28-28.15 20.51-29.96h-.01a83 83 0 0 0-19.03-2.2h-7.94z"/><path fill="#6b8cce" d="M191.15 252.19c-8.87 2.52-17.17 5.84-24.75 9.92l-11.93-17.42h.01c2.29-.54 4.62-.98 6.98-1.33.79-.11 1.58-.22 2.37-.31q2.385-.27 4.8-.42c1.62-.09 3.24-.14 4.88-.14h7.94z" opacity=".5" style="mix-blend-mode:multiply"/><path fill="#e8e6f2" d="M166.4 262.109c-9.18 4.94-17.29 11.02-24.02 18.21v-31.79c1.75-.71 3.52-1.36 5.33-1.95.55-.18 1.11-.35 1.67-.52s1.12-.34 1.68-.49c.5-.14 1-.28 1.51-.41.63-.16 1.26-.32 1.9-.47z" opacity=".5" style="mix-blend-mode:multiply"/><path fill="#6b8cce" d="M121 336.571v29.56c0 1.4.18 2.76.52 4.06l-17.74-2.04c-7.57-.88-13.28-7.29-13.28-14.9v-27.77c0-34.82 21.46-64.65 51.88-76.95v31.79c-13.44 14.36-21.38 33.16-21.38 56.25M248.56 220.32v11.34s-9.24 10.83-44.09 17.39c-4.56.86-9 1.9-13.32 3.14l-9.7-9.7v-22.17z" opacity=".5" style="mix-blend-mode:multiply"/><path fill="#e8e6f2" d="M242.09 53.44v-10.9h-53.44v10.58c-25.38 9.68-44.04 32.95-47.1 60.909v3.79h146.84v-3.79c-3.02-27.67-21.32-50.74-46.3-60.6z"/><path fill="#e8e6f2" d="M295.55 114.039h-161.1a5 5 0 0 0-5 5v18.66a5 5 0 0 0 5 5h161.1a5 5 0 0 0 5-5v-18.66a5 5 0 0 0-5-5"/><path fill="#6b8cce" d="M154.26 142.689c.54 15.56 1.17 33.57 1.17 33.57.55 16.04 7.42 30.43 18.16 40.8 10.73 10.37 25.35 16.73 41.41 16.73 32.12 0 58.46-25.44 59.57-57.53 0 0 .63-18.02 1.17-33.57"/><path fill="#e8e6f2" d="M295.55 114.039h-161.1a5 5 0 0 0-5 5v18.66a5 5 0 0 0 5 5h161.1a5 5 0 0 0 5-5v-18.66a5 5 0 0 0-5-5" opacity=".5" style="mix-blend-mode:multiply"/><path fill="#1e3a6e" d="M287.63 335.881v37.28a86 86 0 0 0-13.52 4.37c-18.91 7.91-39 11.88-59.11 11.92h-.3c-20.1 0-40.2-3.93-59.12-11.8l-.2-.08a88.4 88.4 0 0 0-13.01-4.27v-37.42z"/><path stroke="#1e3a6e" stroke-linecap="round" stroke-linejoin="round" stroke-width="7" d="M142.37 248.52v87.36h32.6v-61.24"/><path stroke="#1e3a6e" stroke-linecap="round" stroke-linejoin="round" stroke-width="7" d="M142.37 373.299v-37.42h145.26v37.28"/><path stroke="#1e3a6e" stroke-linecap="round" stroke-linejoin="round" stroke-width="7" d="M255.03 274.9v60.98h32.6v-87.36m-133.18-3.84 39.8 58.12L215 276.05m0-.01 20.75 26.75 39.79-58.11m-26.98-21.231v19.03L215 276.039l-33.56-33.56v-19.03"/><path stroke="#1e3a6e" stroke-linecap="round" stroke-linejoin="round" stroke-width="7" d="M248.88 242.479h7.62c45.84 0 83 37.16 83 83v27.76c0 7.62-5.71 14.03-13.28 14.9l-29.04 3.36a85.3 85.3 0 0 0-23.07 6.03c-18.91 7.91-39 11.88-59.11 11.92h-.3c-20.1 0-40.2-3.93-59.12-11.8l-.2-.08c-7.69-3.2-15.79-5.3-24.07-6.26l-27.53-3.17c-7.57-.87-13.28-7.28-13.28-14.9v-27.76c0-45.84 37.16-83 83-83h7.63m-26.87-99.79c.54 15.56 1.17 33.57 1.17 33.57.55 16.04 7.42 30.43 18.16 40.8 10.73 10.37 25.35 16.73 41.41 16.73 32.12 0 58.46-25.44 59.57-57.53 0 0 .63-18.02 1.17-33.57M242.04 42.54v37.5m-53.45.25V42.54m26.41 50v-50"/><path stroke="#1e3a6e" stroke-linecap="round" stroke-linejoin="round" stroke-width="7" d="M295.55 114.039h-161.1a5 5 0 0 0-5 5v18.66a5 5 0 0 0 5 5h161.1a5 5 0 0 0 5-5v-18.66a5 5 0 0 0-5-5M242.09 53.44v-10.9h-53.44v10.58c-25.38 9.68-44.04 32.95-47.1 60.909h146.84c-3.02-27.67-21.32-50.74-46.3-60.6z"/></g><defs><clipPath id="s2WszYltUaa"><path fill="#fff" d="M0 .947h430v430H0z"/></clipPath></defs></svg>