<svg xmlns="http://www.w3.org/2000/svg" width="430" height="430" fill="none" viewBox="0 0 430 430"><path fill="#e8e6f2" d="M349.06 172.44h-37.11v28.83h37.11z"/><path fill="#e8e6f2" d="M321.58 172.45h-9.63v28.82h9.63z" opacity=".5" style="mix-blend-mode:multiply"/><path fill="#6b8cce" d="M146.73 159.42v203.83l-22.62 11.31-22.61-11.31V159.42l22.61-11.01zm45.23 0v203.83l-22.62 11.31-22.61-11.31V159.42l22.61-11.01zm45.23 0v203.83l-22.62 11.31-22.61-11.31V159.42l22.61-11.01zm45.23 0v203.83l-22.62 11.31-22.61-11.31V159.42l22.61-11.01z"/><path fill="#6b8cce" d="M116.96 152.05v218.87l-15.23-7.62V159.47zm45.12 0v218.87l-15.23-7.62V159.47zm45.17 0v218.87l-15.23-7.62V159.47zm45.17 0v218.87l-15.23-7.62V159.47z" opacity=".5" style="mix-blend-mode:multiply"/><path stroke="#1e3a6e" stroke-linecap="round" stroke-linejoin="round" stroke-width="7" d="m146.73 363.25-22.61 11.3-22.62-11.3V159.42l22.62-11.02 22.61 11.02zm45.23 0-22.61 11.3-22.62-11.3V159.42l22.62-11.02 22.61 11.02zm45.23 0-22.61 11.3-22.62-11.3V159.42l22.62-11.02 22.61 11.02zm45.23 0-22.61 11.3-22.62-11.3V159.42l22.62-11.02 22.61 11.02zm0-177.16h29.53m37.11-13.65h-37.11v28.83h37.11z"/><path stroke="#1e3a6e" stroke-linecap="round" stroke-miterlimit="10" stroke-width="7" d="M158.5 55c0 10.89-7.78 10.89-7.78 21.79s7.78 10.9 7.78 21.79c0 10.9-7.78 10.9-7.78 21.79M195.85 55c0 10.89-7.78 10.89-7.78 21.79s7.78 10.9 7.78 21.79-7.78 10.9-7.78 21.79M233.2 55c0 10.89-7.78 10.89-7.78 21.79s7.78 10.9 7.78 21.79c0 10.9-7.78 10.9-7.78 21.79"/></svg>