<svg xmlns="http://www.w3.org/2000/svg" width="430" height="430" fill="none" viewBox="0 0 430 430"><path fill="#6b8cce" d="m335.848 114.2-96.3 109.4v111.2l-49.1 49.2V223.6l-96.3-109.4z"/><path fill="#6b8cce" d="M335.848 68v46.2h-241.7V68c0-1.7 1.3-3 3-3h235.7c1.6 0 3 1.3 3 3"/><path fill="#6b8cce" d="M335.848 65h-241.7v49.2h241.7z" opacity=".5" style="mix-blend-mode:multiply"/><path fill="#6b8cce" d="m207.348 367-16.9 17V223.6l-96.3-109.4h17l96.2 109.4z" opacity=".5" style="mix-blend-mode:multiply"/><path stroke="#1e3a6e" stroke-linecap="round" stroke-linejoin="round" stroke-miterlimit="10" stroke-width="7" d="m190.448 223.6-96.3-109.4h241.7l-96.3 109.4m.001 0v111.2l-49.1 49.2V223.6"/><path stroke="#1e3a6e" stroke-linecap="round" stroke-linejoin="round" stroke-miterlimit="10" stroke-width="7" d="M335.848 65h-241.7v49.2h241.7z"/></svg>