<svg xmlns="http://www.w3.org/2000/svg" width="430" height="431" fill="none" viewBox="0 0 430 431"><path fill="#e8e6f2" d="M213.608 400.787H215c27.614 0 50-22.386 50-50v-80h79.134c24.438 0 43.164-21.721 39.564-45.893l-18.618-125c-2.919-19.599-19.748-34.107-39.564-34.107H185l-65 25v170c37.638 0 69.129 28.568 72.783 66.028l5.896 60.429c.749 7.683 7.209 13.543 14.929 13.543"/><path fill="#e8e6f2" d="M224.193 399.944c-2.98.554-6.053.843-9.193.843h-1.392c-7.721 0-14.18-5.86-14.93-13.543l-5.895-60.429c-2.261-23.171-15.171-42.939-33.599-54.65 31.1 6.125 55.415 32.013 58.599 64.65l5.895 60.429q.138 1.395.515 2.7M145 265.179a73 73 0 0 0-25-4.392v-170l65-25h140.516c17.378 0 32.459 11.158 37.875 27.122a40 40 0 0 0-12.875-2.122H210l-65 25z" opacity=".5" style="mix-blend-mode:multiply"/><path fill="#6b8cce" d="M50 275.787h70v-200H50z"/><path fill="#6b8cce" d="M75 75.787H50v200h70v-25H75z" opacity=".5" style="mix-blend-mode:multiply"/><path stroke="#1e3a6e" stroke-linejoin="round" stroke-width="7" d="m120 90.787 65-25h140.516c19.816 0 36.645 14.508 39.564 34.107l18.618 125c3.6 24.172-15.126 45.893-39.564 45.893H265v80c0 27.614-22.386 50-50 50h-1.392c-7.72 0-14.18-5.86-14.929-13.543l-5.896-60.429c-3.654-37.46-35.145-66.028-72.783-66.028m-70 15h70v-200H50z"/></svg>