<svg xmlns="http://www.w3.org/2000/svg" width="430" height="430" fill="none" viewBox="0 0 430 430"><path fill="#e8e6f2" d="M367.951 62.65h-246.1v246.1h246.1z"/><path fill="#1e3a6e" d="M218.15 62.65v71.3c0 1.9-1.6 3.5-3.5 3.5h-25.7c-1.9 0-3.5-1.6-3.5-3.5s1.6-3.5 3.5-3.5h22.2v-67.8zm-59.399 71.3c0 1.9-1.6 3.5-3.5 3.5h-33.4v-7h33.4c1.9 0 3.5 1.6 3.5 3.5m209.199 37.8v7h-113.3c-1.9 0-3.5-1.6-3.5-3.5v-37.1c0-1.9 1.6-3.5 3.5-3.5s3.5 1.6 3.5 3.5v33.7h109.8zm-109.8-109.1v45.1c0 1.9-1.6 3.5-3.5 3.5s-3.5-1.6-3.5-3.5v-45.1zm0 210.1v35.9h-7v-35.9c0-1.9 1.6-3.5 3.5-3.5 2 0 3.5 1.6 3.5 3.5m109.8-65.9v7h-109.8v26.2c0 1.9-1.6 3.5-3.5 3.5s-3.5-1.6-3.5-3.5v-29.7c0-1.9 1.6-3.5 3.5-3.5zm-186.399 63.3c0 1.9-1.6 3.5-3.5 3.5h-56.2v-7h52.6c-1.8-27.4-24.7-49.1-52.5-49.1v-7c32.8 0 59.6 26.7 59.6 59.6"/><path fill="#e8e6f2" d="M121.851 65.65v240.1c0 1.7 1.3 3 3 3h20.5V62.65h-20.5c-1.6 0-3 1.3-3 3" opacity=".5" style="mix-blend-mode:multiply"/><path stroke="#1e3a6e" stroke-linecap="round" stroke-linejoin="round" stroke-miterlimit="10" stroke-width="7" d="M68.55 65.05v256.7m-18.6-238.1 18.6-18.6 18.5 18.6m0 219.5-18.5 18.6-18.6-18.6m330.1 45.6H77.25m284.3-18.6 18.5 18.6-18.5 18.6m-265.8 0-18.5-18.6 18.5-18.6m272.201-267.5h-246.1v246.1h246.1z"/></svg>