<svg xmlns="http://www.w3.org/2000/svg" width="430" height="430" fill="none" viewBox="0 0 430 430"><path fill="#6b8cce" d="M348.568 38.406c11.217 7.821-57.528 125.347-111.661 202.532-29.919 42.837-49.143 64.284-62.204 73.646l-26.595 4.486 1.032-24.713c4.889-15.623 18.584-40.664 47.323-81.72 54.029-77.287 140.99-182.053 152.105-174.231"/><path fill="#6b8cce" d="M179.228 265.731c-9.861 15.865-16.321 28.112-20.231 37.642-.414.954-.829 1.918-1.14 2.882a34.6 34.6 0 0 0-9.056-3.775l.339-8.123c4.889-15.623 18.584-40.664 47.323-81.72 54.029-77.287 140.99-182.053 152.105-174.231a2.2 2.2 0 0 1 .365.323q.382.426.59 1.09l.016.062c-23.612 16.467-97.122 119.489-145.61 188.727a1024 1024 0 0 0-8.244 11.935c-6.315 9.281-11.77 17.639-16.457 25.188" opacity=".5" style="mix-blend-mode:multiply"/><path fill="#e8e6f2" d="M170.841 251.288c4.638-7.538 10.066-15.918 16.381-25.241l40.235 28.205c-6.592 9.128-12.603 17.098-18.096 24.034z"/><path fill="#e8e6f2" d="M199.65 234.758a983 983 0 0 0-3.965 5.785 784 784 0 0 0-12.715 19.245l-12.128-8.5c4.638-7.538 10.066-15.918 16.381-25.241z" style="mix-blend-mode:multiply"/><path fill="#e8e6f2" d="M156.682 297.377c-21.482-10.981-47.656-2.527-58.784 18.844s-4.657 53.206-19.437 69.033c45.656 8.058 85.919-7.85 96.918-29.204 11.258-21.388 2.785-47.691-18.697-58.673"/><path fill="#e8e6f2" d="M176.997 352.629c-12.07 10.832-30.407 19.796-52.314 23.862 13.613-9.827 10.891-21.803 10.891-21.803-3.604-9.234-2.104-26.04-2.104-26.04-4.81 5.403-7.247 17.436-7.247 17.436a50.15 50.15 0 0 1-20.131 32.558c-2.104.097-4.24.159-6.382.169 6.544-10.214 5.784-24.132 4.999-38.485-.634-11.6-1.283-23.483 1.896-33.923.278-.892.587-1.762.915-2.616a44 44 0 0 0-9.623 12.435c-4.99 9.585-6.441 21.275-7.857 32.681-1.74 14.025-3.428 27.623-11.58 36.351 45.657 8.058 85.92-7.85 96.919-29.203a44 44 0 0 0 1.618-3.422" opacity=".5" style="mix-blend-mode:multiply"/><path stroke="#1e3a6e" stroke-linejoin="round" stroke-width="7" d="m170.841 251.288 38.52 26.998m-22.139-52.239 40.235 28.205"/><path stroke="#1e3a6e" stroke-linecap="round" stroke-linejoin="round" stroke-width="7" d="M174.703 314.584c8.754-6.275 20.278-17.98 35.936-37.917 7.702-9.807 16.404-21.605 26.269-35.729 54.132-77.185 122.877-194.71 111.66-202.532-11.115-7.822-98.076 96.944-152.105 174.231-9.865 14.092-17.957 26.297-24.529 36.883-12.574 20.254-19.583 34.577-22.794 44.837"/><path stroke="#1e3a6e" stroke-linecap="round" stroke-linejoin="round" stroke-width="7" d="M156.682 297.377c-21.482-10.981-47.656-2.527-58.784 18.844s-4.657 53.206-19.437 69.033c45.656 8.058 85.919-7.85 96.918-29.204 11.258-21.388 2.785-47.691-18.697-58.673"/></svg>