<svg xmlns="http://www.w3.org/2000/svg" width="430" height="430" fill="none" viewBox="0 0 430 430"><path fill="#e8e6f2" d="M268.37 148.28v226.84H54.88V54.88h120.09z"/><path stroke="#1e3a6e" stroke-linecap="round" stroke-linejoin="round" stroke-width="7" d="M94.91 188.31h133.43M94.91 228.37h133.43m-40.03 40.03h40.03m-133.43 0h66.72"/><path fill="#6b8cce" d="m321.75 321.75 20.01 53.37 20.01-53.37m0-226.7h-40.02v226.69h40.02z"/><path fill="#1e3a6e" d="M321.75 95.05V74.89c0-11.05 8.96-20.01 20.01-20.01s20.01 8.96 20.01 20.01v20.16z"/><path stroke="#1e3a6e" stroke-linecap="round" stroke-linejoin="round" stroke-width="7" d="M161.63 302.07c-1.83-2.88-4.35-5.6-7.84-6.29-2.72-.54-5.58.29-7.95 1.72-10.66 6.44-16.01 25.26-5.92 34.64 3.88 3.61 10.72 4.16 14.27.23 1.68-1.87 2.43-4.4 3.96-6.39s4.54-3.36 6.51-1.8c1.49 1.18 1.58 3.35 2.22 5.13 1.46 4.07 6.63 6.33 10.6 4.64 4.73-2.01 13.38-19.79 18.06-18.42 2.94.87.63 12.19 5.05 14.46 4.5 2.31 8.81 1.89 13.45-.13s9.25-4.8 14.3-4.6"/><path fill="#e8e6f2" d="M174.97 148.28h93.4l-93.4-93.4z" style="mix-blend-mode:multiply"/><g opacity=".5" style="mix-blend-mode:multiply"><path fill="#6b8cce" d="m350.01 353.12-8.25 22-20.02-53.37h16.5zM338.24 95.05h-16.5v226.7h16.5z"/><path fill="#1e3a6e" d="M350 56.66c-6.94 3.14-11.76 10.12-11.76 18.23v20.16h-16.5V74.89c0-11.05 8.96-20.01 20.02-20.01 2.94 0 5.73.64 8.24 1.78"/></g><path stroke="#1e3a6e" stroke-linecap="round" stroke-linejoin="round" stroke-width="7" d="M321.75 95.05h47.8c10.49 0 19 8.51 19 19v60.92m-120.18-26.69v226.84H54.88V54.88h120.09"/><path stroke="#1e3a6e" stroke-linecap="round" stroke-linejoin="round" stroke-width="7" d="M174.97 148.28h93.4l-93.4-93.4zm146.78-53.23v226.7h40.02V95.05m-40.02 226.7 20.01 53.37 20.01-53.37m0-226.7V74.89c0-11.05-8.96-20.01-20.01-20.01s-20.01 8.96-20.01 20.01v20.16"/></svg>