<svg xmlns="http://www.w3.org/2000/svg" width="430" height="430" fill="none" viewBox="0 0 430 430"><path fill="#6b8cce" d="M121.23 100.29H87.58a3.5 3.5 0 0 0-3.5 3.5v26.65a3.5 3.5 0 0 0 3.5 3.5h33.65a3.5 3.5 0 0 0 3.5-3.5v-26.65a3.5 3.5 0 0 0-3.5-3.5"/><path fill="#6b8cce" d="M104.4 100.29H87.58a3.5 3.5 0 0 0-3.5 3.5v26.65a3.5 3.5 0 0 0 3.5 3.5h16.82z" opacity=".5" style="mix-blend-mode:multiply"/><path fill="#e8e6f2" d="M376.07 126.94h-97.53L263 87.15a3.49 3.49 0 0 0-3.26-2.23h-89.5a3.49 3.49 0 0 0-3.24 2.23l-15.53 39.79H53.93a3.5 3.5 0 0 0-3.5 3.5v212.14a3.5 3.5 0 0 0 3.5 3.5h322.14a3.5 3.5 0 0 0 3.5-3.5V130.44a3.5 3.5 0 0 0-3.5-3.5"/><path stroke="#6b8cce" stroke-linecap="round" stroke-linejoin="round" stroke-width="7" d="M351 164.26a16.402 16.402 0 0 1-19.603 16.084 16.405 16.405 0 0 1-12.883-12.891 16.4 16.4 0 0 1 6.982-16.834 16.4 16.4 0 0 1 9.114-2.759 16.4 16.4 0 0 1 11.593 4.804A16.4 16.4 0 0 1 351 164.26"/><path fill="#e8e6f2" d="m200.63 87.15 1-2.23h-31.38a3.49 3.49 0 0 0-3.25 2.23l-15.53 39.79h33.65zM84.08 130.44v-3.5H53.93a3.5 3.5 0 0 0-3.5 3.5v212.14a3.5 3.5 0 0 0 3.5 3.5h30.15zm115.74 33.82a83.61 83.61 0 1 0 83.61 83.61 83.69 83.69 0 0 0-83.61-83.61" opacity=".5" style="mix-blend-mode:multiply"/><path fill="#1e3a6e" d="M215 152.9a83.61 83.61 0 0 0 0 167.22z" opacity=".34"/><path fill="#1e3a6e" d="M215 152.9a83.61 83.61 0 0 0-77.246 51.616 83.608 83.608 0 0 0 60.941 113.999 83.615 83.615 0 0 0 85.829-35.561A83.6 83.6 0 0 0 298.61 236.5 83.71 83.71 0 0 0 215 152.9"/><path fill="#e8e6f2" d="M215 178.5a58.002 58.002 0 0 0-41.012 99.012 57.995 57.995 0 0 0 63.208 12.573A58 58 0 0 0 273 236.5a58.06 58.06 0 0 0-17.005-40.995A58.06 58.06 0 0 0 215 178.5"/><path fill="#e8e6f2" d="M233.72 283.5a55.229 55.229 0 0 1-24.58-104.7 58.003 58.003 0 0 0-47.401 81.024 58 58 0 0 0 40.769 33.366 58 58 0 0 0 27.084-.576A58 58 0 0 0 253.46 279.8a55.1 55.1 0 0 1-19.74 3.7" opacity=".5" style="mix-blend-mode:multiply"/><path stroke="#1e3a6e" stroke-linecap="round" stroke-linejoin="round" stroke-width="7" d="M53.93 231.31V130.44h322.14v212.14H53.93z"/><path stroke="#1e3a6e" stroke-linecap="round" stroke-linejoin="round" stroke-width="7" d="M295.11 236.5a80.11 80.11 0 1 1-160.22.02 80.11 80.11 0 0 1 160.22-.02M121.23 103.79H87.58v26.65h33.65zm138.52-15.37h-89.5l-16.4 42h122.3z"/><path stroke="#1e3a6e" stroke-linecap="round" stroke-linejoin="round" stroke-width="7" d="M269.49 236.5A54.49 54.49 0 1 1 215 182.02a54.503 54.503 0 0 1 54.49 54.48"/></svg>