<svg xmlns="http://www.w3.org/2000/svg" width="430" height="430" fill="none" viewBox="0 0 430 430"><path fill="#1e3a6e" d="M285 401v-60H145v60z"/><path fill="#1e3a6e" d="M170 366v35h-25v-60h140v25z" opacity=".5" style="mix-blend-mode:multiply"/><path fill="#1e3a6e" d="M125 306h180v35H125z"/><path fill="#e8e6f2" d="M160.786 110.403C176.465 94.294 194.776 75.48 205.433 31c28.429 16.414 46.325 44.057 51.328 74.093 2.461 14.777 1.802 30.134-2.261 45.017a113 113 0 0 0 29.08-23.556 89.9 89.9 0 0 1 16.378 28.508c3.266 9.32 5.042 19.341 5.042 29.776 0 49.706-40.294 90-90 90s-90-40.294-90-90v-.145q0-.286.003-.572.005-.659.02-1.316c.307-13.863 3.749-26.953 9.645-38.59a90 90 0 0 1 10.645-16.335c4.491-6.194 9.811-11.659 15.473-17.477"/><path fill="#e8e6f2" d="M205.433 31c-10.657 44.48-28.968 63.294-44.647 79.403-5.662 5.818-10.982 11.283-15.473 17.477a90 90 0 0 0-10.645 16.335c-5.896 11.637-9.338 24.727-9.645 38.59a82 82 0 0 0-.023 1.888v.145c0 49.706 40.294 90 90 90 4.784 0 9.481-.373 14.062-1.092-43.026-6.751-75.937-43.986-75.937-88.908v-.145q0-.286.003-.572.005-.659.02-1.316c.307-13.863 3.749-26.953 9.645-38.59a90 90 0 0 1 10.645-16.335c4.491-6.194 9.811-11.659 15.473-17.477 13.391-13.759 28.704-29.491 39.526-61.503A105.6 105.6 0 0 0 205.433 31" opacity=".5" style="mix-blend-mode:multiply"/><path fill="#6b8cce" d="M250.438 238.276c0 20.193-16.37 36.562-36.563 36.562s-36.563-16.369-36.563-36.562 36.563-67.902 36.563-67.902 36.563 47.709 36.563 67.902"/><path fill="#6b8cce" d="M223.207 183.279c-5.343-7.7-9.332-12.905-9.332-12.905s-36.563 47.709-36.563 67.902 16.37 36.562 36.563 36.562a36.4 36.4 0 0 0 19.665-5.733c-18.868-1.447-33.728-17.215-33.728-36.454 0-12.002 12.917-33.724 23.395-49.372" opacity=".5" style="mix-blend-mode:multiply"/><path stroke="#1e3a6e" stroke-linecap="round" stroke-linejoin="round" stroke-width="7" d="M160.786 110.403C176.465 94.294 194.776 75.48 205.433 31c28.429 16.414 46.325 44.057 51.328 74.093 2.461 14.777 1.802 30.134-2.261 45.017a113 113 0 0 0 29.08-23.556 89.9 89.9 0 0 1 16.378 28.508c3.266 9.32 5.042 19.341 5.042 29.776 0 49.706-40.294 90-90 90s-90-40.294-90-90v-.145q0-.286.003-.572.005-.659.02-1.316c.307-13.863 3.749-26.953 9.645-38.59a90 90 0 0 1 10.645-16.335c4.491-6.194 9.811-11.659 15.473-17.477"/><path stroke="#1e3a6e" stroke-linejoin="round" stroke-width="7" d="M250.438 238.276c0 20.193-16.37 36.562-36.563 36.562s-36.563-16.369-36.563-36.562 36.563-67.902 36.563-67.902 36.563 47.709 36.563 67.902Z"/><path fill="#1e3a6e" d="M150 341v-35h-25v35z" opacity=".5" style="mix-blend-mode:multiply"/><path stroke="#1e3a6e" stroke-linejoin="round" stroke-width="7" d="M125 306h180v35H125zm20 35v60h140v-60"/></svg>