<svg xmlns="http://www.w3.org/2000/svg" width="430" height="430" fill="none" viewBox="0 0 430 430"><path fill="#e8e6f2" d="M55 55h220v220H55z"/><path fill="#6b8cce" d="M155 155h220v220H155z"/><path fill="#1e3a6e" d="M155 155h120v120H155z"/><path fill="#6b8cce" d="M155 275h60v40h160v60H155z" opacity=".4" style="mix-blend-mode:multiply"/><path fill="#e8e6f2" d="M55 55h60v160h40v60H55z" opacity=".4" style="mix-blend-mode:multiply"/><path fill="#1e3a6e" d="M155 155h60v60h60v60H155z" opacity=".5" style="mix-blend-mode:multiply"/><path stroke="#1e3a6e" stroke-linecap="round" stroke-linejoin="round" stroke-miterlimit="10" stroke-width="7" d="M275 155V55H55v220h100"/><path stroke="#1e3a6e" stroke-linecap="round" stroke-linejoin="round" stroke-miterlimit="10" stroke-width="7" d="M155 275v100h220V155H275"/><path fill="#1e3a6e" d="M155 155v-3.5a3.5 3.5 0 0 0-3.5 3.5zm120 0h3.5v-3.5H275zm0 120v3.5a3.5 3.5 0 0 0 3.5-3.5zm-120 0h-3.5v3.5h3.5zm0-116.5h120v-7H155zm116.5-3.5v120h7V155zm3.5 116.5H155v7h120zM158.5 275V155h-7v120z"/></svg>