<svg xmlns="http://www.w3.org/2000/svg" width="430" height="430" fill="none" viewBox="0 0 430 430"><path fill="#e8e6f2" d="m157.5 55-115 66.408v254.988L157.5 310l115 66.396L387.5 310V55l-115 66.408z"/><path fill="#e8e6f2" d="m157.5 55 115 66.408v254.988L157.5 310z" opacity=".6" style="mix-blend-mode:multiply"/><path fill="#e8e6f2" d="M157.5 310V55l25 14.436v254.998z" opacity=".3" style="mix-blend-mode:multiply"/><path fill="#1e3a6e" d="M67.5 146.971v69.991l65-37.528v-69.997z"/><path fill="#1e3a6e" d="M87.5 135.422v69.992l-20 11.548v-69.991z" opacity=".5" style="mix-blend-mode:multiply"/><path fill="#6b8cce" d="M297.5 251.971v69.991l65-37.528v-69.997z"/><path fill="#6b8cce" d="M317.5 240.422v69.992l-20 11.548v-69.991z" opacity=".5" style="mix-blend-mode:multiply"/><path fill="#e8e6f2" d="M67.5 361.962V106.971l-25 14.437v254.988z" opacity=".5" style="mix-blend-mode:multiply"/><path fill="#e8e6f2" d="M272.5 121.408v254.988l25-14.434V106.971z" opacity=".3" style="mix-blend-mode:multiply"/><path stroke="#1e3a6e" stroke-linejoin="round" stroke-width="7" d="m157.5 55-115 66.408v254.988L157.5 310m0-255 115 66.408v254.988L157.5 310z"/><path stroke="#1e3a6e" stroke-linecap="round" stroke-linejoin="round" stroke-width="7" d="M67.5 146.971v69.991l65-37.528v-69.997zm180 52.49-65-37.527m65 72.528-65-37.528m65 72.528-65-37.528"/><path stroke="#1e3a6e" stroke-linejoin="round" stroke-width="7" d="M272.5 121.408 387.5 55v255l-115 66.396"/><path stroke="#1e3a6e" stroke-linecap="round" stroke-linejoin="round" stroke-width="7" d="m67.5 321.961 32.5-18.763m-32.5-16.237 65-37.527m0-35-65 37.527m230 .01v69.991l65-37.528v-69.997zm0-35.01 32.5-18.763m-32.5-16.237 65-37.527m0-35-65 37.527"/></svg>