<svg xmlns="http://www.w3.org/2000/svg" width="430" height="430" fill="none" viewBox="0 0 430 430"><path fill="#e8e6f2" d="M25 215.001C58.524 143.703 130.998 94.343 215 94.343S371.476 143.702 405 215c-33.524 71.298-105.998 120.658-190 120.658S58.524 286.298 25 215.001"/><path fill="#e8e6f2" d="M123.828 115.131C98.056 143.223 76.455 175.169 60 210.001c19.925 42.176 47.396 80.122 80.68 112.116C89.623 302.776 48.08 264.088 25 215.001c20.485-43.567 55.513-78.942 98.828-99.87" opacity=".5" style="mix-blend-mode:multiply"/><path fill="#1e3a6e" d="M295 215c0 44.221-35.779 80.001-80 80.001s-80-35.78-80-80.001 35.779-80 80-80 80 35.779 80 80"/><path fill="#1e3a6e" d="M260.423 280.885A80 80 0 0 1 235 285.001c-44.221 0-80-35.779-80-80 0-27.345 13.68-51.461 34.577-65.886C157.84 149.726 135 179.668 135 215c0 44.221 35.779 80 80 80 16.877 0 32.525-5.211 45.423-14.115" opacity=".5" style="mix-blend-mode:multiply"/><path fill="#6b8cce" d="M255 215c0 22.111-17.89 40-40 40-22.111 0-40-17.889-40-40s17.889-40 40-40c22.11 0 40 17.889 40 40"/><path fill="#6b8cce" d="M234.403 249.996C212.569 249.677 195 231.911 195 210c0-15.067 8.307-28.174 20.596-34.996A39 39 0 0 0 215 175c-22.111 0-40 17.889-40 40s17.889 40 40 40a39.85 39.85 0 0 0 19.403-5.004" opacity=".5" style="mix-blend-mode:multiply"/><path fill="#e8e6f2" d="M205 187.5c0 9.673-7.827 17.5-17.5 17.5s-17.5-7.827-17.5-17.5 7.827-17.5 17.5-17.5 17.5 7.827 17.5 17.5"/><path stroke="#1e3a6e" stroke-linecap="round" stroke-linejoin="round" stroke-miterlimit="13.8" stroke-width="7" d="M295 214.999C295 259.221 259.221 295 215 295s-80-35.779-80-80.001c0-44.221 35.779-80 80-80s80 35.779 80 80"/><path stroke="#1e3a6e" stroke-linecap="round" stroke-linejoin="round" stroke-miterlimit="10" stroke-width="7" d="M25 215C58.524 143.702 130.998 94.342 215 94.342S371.476 143.702 405 215c-33.524 71.298-105.998 120.658-190 120.658S58.524 286.298 25 215"/></svg>