<svg xmlns="http://www.w3.org/2000/svg" width="430" height="431" fill="none" viewBox="0 0 430 431"><path fill="#e8e6f2" d="M271.9 257.498c-.4 4.1-2.3 8.2-5.2 12.3-22.4 31.1-81.1 31.1-103.4 0-2.9-4-4.8-8.2-5.2-12.3 5-.9 10.1-1.4 15.4-1.4h7.6v-19.2c9.6 6.7 21.3 10.6 33.9 10.6s24.3-3.9 33.9-10.6v19.2h7.6c5.3 0 10.4.5 15.4 1.4"/><path fill="#6b8cce" d="M339.5 339.098v27.8c0 7.6-5.7 14-13.3 14.9l-29 3.4c-7.9.9-15.7 2.9-23.1 6-19 7.9-39.2 11.9-59.4 11.9-20.1 0-40.2-3.9-59.1-11.8l-.2-.1c-7.7-3.2-15.8-5.3-24.1-6.3l-27.5-3.2c-7.6-.9-13.3-7.3-13.3-14.9v-27.8c0-40.6 29.1-74.3 67.6-81.6.4 4.1 2.3 8.2 5.2 12.3 22.4 31.1 81.1 31.1 103.4 0 2.9-4 4.8-8.2 5.2-12.3 38.5 7.3 67.6 41.1 67.6 81.7"/><path fill="#e8e6f2" d="m254.8 145.898-10.9-32.5-22.8 32.5h-67.2l.5 14.3c.7 1.8 1 3.7 1 5.6v24c.6 16.1 7.4 30.4 18.2 40.8 2.3 2.3 4.9 4.3 7.5 6.2 9.6 6.7 21.3 10.6 33.9 10.6s24.3-3.9 33.9-10.6c13.4-9.3 22.8-23.8 25.2-40.7.3-2 .5-4 .5-6.1v-24.2c0-2 .4-3.9 1-5.7l.5-14.3h-21.3zm-19.9 63.2c0 3.1-2.5 5.6-5.6 5.6h-7.5c-1.6 0-3-.6-4-1.7-1-1-1.7-2.4-1.7-4 0-3.1 2.5-5.6 5.6-5.6h7.5c1.6 0 3 .6 4 1.7 1 1 1.7 2.4 1.7 4"/><path fill="#1e3a6e" d="M155.4 189.898v6.9c0 8.8-7.2 16-16 16s-16-7.2-16-16v-30.9c0-4.4 1.8-8.4 4.7-11.3s6.9-4.7 11.3-4.7c6.8 0 12.6 4.3 14.9 10.3zm119.2.201v7.5c.4 8.4 7.4 15.1 16 15.1s15.5-6.8 15.9-15.1v-32.4c-.3-8.5-7.4-15.4-15.9-15.4-4.4 0-8.4 1.8-11.3 4.7-1.6 1.6-2.8 3.5-3.6 5.6v.2zm-39.7 18.899c0 3.2-2.5 5.7-5.6 5.7h-7.5c-1.6 0-3-.6-4-1.7-1-1-1.7-2.4-1.7-4 0-3.1 2.5-5.6 5.6-5.6h7.5c1.6 0 3 .6 4 1.7 1 1 1.7 2.4 1.7 3.9"/><path fill="#6b8cce" d="M265.6 77.398c0 4.3-.6 8.5-1.6 12.5-7.9-8.6-18.3-15.2-30.4-18.8-5.7-1.7-11.9-2.7-18.5-2.7s-12.8 1-18.5 2.7c-11.2 3.3-21 9.2-28.7 17-.8-3.4-1.2-7-1.2-10.7 0-10.9 3.5-21 9.6-29.2 9-12.3 23.5-20.3 39.9-20.3 17.1 0 32.2 8.7 41.1 21.9 5.2 7.9 8.3 17.4 8.3 27.6"/><path fill="#6b8cce" d="M199.2 30.898c-31.7 26.7-23.2 50.2-23.2 50.2-2.9 2.1-5.7 4.4-8.2 7-.8-3.4-1.2-7-1.2-10.7 0-10.9 3.5-21 9.6-29.2 5.7-7.8 13.7-13.9 23-17.3m-36.4 238.3c-20.5 8.8-37.7 22.2-43.6 32.3-9.5 16.1-7.4 81.2-7.4 81.2l-8-.9c-7.6-.9-13.3-7.3-13.3-14.9v-31.1c0-.5.1-1 .1-1.5 0-.4 0-.8.1-1.2 0-.4.1-.9.1-1.3 0-.3 0-.6.1-.9 0-.5.1-1 .1-1.4.1-1.2.3-2.5.5-3.7.1-.6.2-1.1.3-1.7.1-.7.2-1.3.4-2l.3-1.2c.4-2 .9-3.9 1.5-5.8.1-.4.3-.8.4-1.2.8-2.4 1.6-4.8 2.6-7.1.2-.5.4-1 .7-1.5.7-1.7 1.5-3.3 2.4-4.9.3-.5.6-1 .9-1.6.2-.4.4-.8.7-1.2l.6-.9c1.2-2 2.4-3.9 3.8-5.8.2-.3.5-.7.8-1.1.4-.5.7-.9 1.1-1.4s.7-.9 1.1-1.4.7-.9 1.1-1.4c.8-.9 1.5-1.8 2.3-2.6.4-.4.8-.9 1.2-1.3s.7-.8 1.1-1.1l.3-.3c.4-.4.8-.7 1.1-1.1.4-.4.9-.8 1.3-1.2s.9-.8 1.3-1.2c1.3-1.2 2.7-2.3 4.1-3.4s2.8-2.1 4.3-3.1c.5-.3 1-.7 1.5-1 1-.6 2-1.3 3-1.9 2.6-1.5 5.2-2.9 7.9-4.1 1.2-.5 2.4-1.1 3.7-1.5.1 0 .2-.1.3-.1s.2-.1.3-.1c.3-.1.7-.3 1-.4.5-.2 1.1-.4 1.6-.6s1-.4 1.5-.5c.9-.3 1.8-.6 2.7-.8.8-.2 1.5-.4 2.3-.6.2 0 .3-.1.5-.1l2.4-.6h.2l1.2-.3c.3-.1.6-.1.9-.2.1 0 .3-.1.4-.1-.2 4 1.6 8 4.2 11.8" opacity=".5" style="mix-blend-mode:multiply"/><path fill="#e8e6f2" d="M248.9 236.899c-.4.6-14 21.7-47.7 22.9-6.4.2-12.9 1.3-19.3 2.9-6.5 1.6-12.9 3.9-19 6.5-2.7-3.8-4.4-7.8-4.7-11.7 1.1-.2 2.2-.4 3.4-.6.3-.1.7-.1 1-.1.5-.1.9-.1 1.4-.2s1.1-.1 1.6-.2c.4 0 .8-.1 1.2-.1.9-.1 1.8-.1 2.7-.2.7 0 1.3-.1 2-.1h9.8v-19.2c9.6 6.6 21.3 10.5 33.9 10.5.8 0 1.5 0 2.3-.1h.1c1.1 0 2.2-.1 3.3-.2 4.3-.4 8.4-1.3 12.3-2.5 3.6-1.1 7-2.6 10.2-4.3 1.3-.7 2.6-1.4 3.8-2.2.5-.3 1.1-.7 1.7-1.1" opacity=".5" style="mix-blend-mode:multiply"/><path stroke="#1e3a6e" stroke-linecap="round" stroke-linejoin="round" stroke-miterlimit="10" stroke-width="7" d="M262.6 94c.5-1.4.9-2.8 1.3-4.3 1.1-4 1.6-8.2 1.6-12.5 0-10.2-3.1-19.7-8.4-27.5-8.9-13.2-24-22-41.1-22-16.4 0-30.9 8-39.9 20.3-6 8.2-9.6 18.3-9.6 29.2 0 3.7.4 7.2 1.2 10.7.3 1.5.7 2.9 1.1 4.3m80.1 164.099h7.6c45.8 0 83 37.2 83 83v27.8c0 7.6-5.7 14-13.3 14.9l-29 3.4c-7.9.9-15.7 3-23.1 6-19 8-39.2 11.9-59.4 11.9-20.1 0-40.2-3.9-59.1-11.8l-.2-.1c-7.7-3.2-15.8-5.3-24.1-6.3l-27.5-3.2c-7.6-.9-13.3-7.3-13.3-14.9v-27.8c0-45.8 37.2-83 83-83h7.6m0 .101v-19.2m93.5-47c0 1-.1 2-.2 3.1s-.2 2.1-.4 3.2a59.7 59.7 0 0 1-25.1 40.7c-.1.1-.2.1-.3.2-9.6 6.5-21.2 10.4-33.6 10.4-12.6 0-24.2-3.9-33.9-10.6-2.7-1.9-5.2-3.9-7.5-6.2-10.7-10.4-17.6-24.8-18.2-40.8m-1-29.7v-.2l-.5-14v-.2l-.4-11.6c-1.2-33.7 124.2-33.7 123 0l-.4 11.6v.2l-.1 1.4-.4 12.6v.2"/><path stroke="#1e3a6e" stroke-linecap="round" stroke-linejoin="round" stroke-miterlimit="10" stroke-width="7" d="M158.1 257.699c.4 4.1 2.3 8.2 5.2 12.3 22.4 31.1 81.1 31.1 103.4 0 2.9-4 4.8-8.2 5.2-12.3m-23-1.399v-19.2"/><path stroke="#1e3a6e" stroke-linecap="round" stroke-linejoin="round" stroke-miterlimit="10" stroke-width="12" d="M215 322.699v.1m0 52.9v.1m0-26v.2"/><path stroke="#1e3a6e" stroke-linecap="round" stroke-linejoin="round" stroke-miterlimit="10" stroke-width="7" d="M139.5 212.9c8.8 0 16-7.2 16-16V166c0-8.8-7.2-16-16-16s-16 7.2-16 16v30.9c0 8.8 7.2 16 16 16m151 0c8.8 0 16-7.2 16-16V166c0-8.8-7.2-16-16-16s-16 7.2-16 16v30.9c.1 8.8 7.3 16 16 16m-68.8 1.999h7.5c3.1 0 5.6-2.5 5.6-5.6s-2.5-5.6-5.6-5.6h-7.5c-3.1 0-5.6 2.5-5.6 5.6s2.5 5.6 5.6 5.6"/><path stroke="#1e3a6e" stroke-linecap="round" stroke-linejoin="round" stroke-miterlimit="10" stroke-width="7" d="M123.5 194.499v-63.7c0-25.2 10.3-48.1 26.9-64.7s39.5-26.9 64.6-26.9c50.3 0 91.5 41.2 91.5 91.5v63.7"/><path stroke="#1e3a6e" stroke-linecap="round" stroke-linejoin="round" stroke-miterlimit="10" stroke-width="7" d="m234.3 209.298 15.5-2.3c6.4-.9 12.5-3.2 18-6.7 13.7-8.8 38.9-24.4 38.9-24.4"/><path fill="#6b8cce" d="M280.6 146.199h-25.8l-10.9-32.5-22.8 32.5h-71.7v-13.2c0-17.6 6.9-33.4 18.4-45.1 7.7-7.7 17.4-13.6 28.7-17 5.7-1.7 11.9-2.7 18.5-2.7s12.8 1 18.5 2.7c12.1 3.6 22.5 10.2 30.4 18.8 10.5 11.4 16.6 26.5 16.7 43.2z"/><path fill="#6b8cce" d="M206.7 68.7c-12.8 8.8-55 30.4-57.4 77.399v-13.2c0-17.6 6.9-33.4 18.4-45.1 7.7-7.7 17.4-13.6 28.7-17 3.3-.8 6.8-1.6 10.3-2.1" opacity=".5" style="mix-blend-mode:multiply"/><path stroke="#1e3a6e" stroke-linecap="round" stroke-linejoin="round" stroke-miterlimit="10" stroke-width="7" d="M280.6 132.899v13.2h-25.8l-10.9-32.5-22.9 32.5h-71.6v-13.2c.1-29.4 19-53.6 47.1-62 5.7-1.7 11.9-2.7 18.5-2.7s12.8 1 18.5 2.7c28.2 8.4 47.1 32.6 47.1 62"/></svg>