<svg xmlns="http://www.w3.org/2000/svg" width="430" height="430" fill="none" viewBox="0 0 430 430"><path fill="#e8e6f2" d="M398.81 76.89H31.19a3.5 3.5 0 0 0-3.5 3.5V350.6a3.5 3.5 0 0 0 3.5 3.5h367.62a3.5 3.5 0 0 0 3.5-3.5V80.39a3.5 3.5 0 0 0-3.5-3.5"/><path stroke="#1e3a6e" stroke-linecap="round" stroke-linejoin="round" stroke-width="7" d="m88.56 294.21 92.09-92.09 49.43 48.59 111.82-112.4"/><path stroke="#1e3a6e" stroke-linecap="round" stroke-linejoin="round" stroke-width="7" d="M312 133.81h35v34.94"/><path fill="#e8e6f2" d="M46.44 341.29a3.62 3.62 0 0 1-2.521-1.135 3.6 3.6 0 0 1-.98-2.585V76.89H31.19a3.5 3.5 0 0 0-3.5 3.5v270.22a3.5 3.5 0 0 0 3.5 3.5h367.62a3.503 3.503 0 0 0 3.5-3.5v-9.32z" opacity=".5" style="mix-blend-mode:multiply"/><path stroke="#1e3a6e" stroke-linecap="round" stroke-linejoin="round" stroke-width="7" d="M398.81 76.89H31.19a3.5 3.5 0 0 0-3.5 3.5V350.6a3.5 3.5 0 0 0 3.5 3.5h367.62a3.5 3.5 0 0 0 3.5-3.5V80.39a3.5 3.5 0 0 0-3.5-3.5"/></svg>