<svg xmlns="http://www.w3.org/2000/svg" width="430" height="430" fill="none" viewBox="0 0 430 430"><path fill="#6b8cce" d="m312.402 125.28 51.25 76.08h-.308L214.94 352.371l-.008.019-.003-.007-.006.006L66.343 201.21h.262l51.149-75.93z"/><path fill="#6b8cce" d="M280.864 201.21h-131.88l33.51-76.08h64.93z"/><path fill="#6b8cce" d="M363.492 201.21h-82.63l-33.44-76.08h64.82zm-180.998-76.08-33.51 76.08h-82.64l51.25-76.08zm32.43 227.26L66.344 201.21h82.64z"/><path fill="#6b8cce" d="m363.492 201.21-148.57 151.18 65.94-151.18z"/><path fill="#6b8cce" d="m280.864 201.21-65.94 151.18-65.94-151.18z"/><path fill="#6b8cce" d="M363.652 201.36h-82.65l-33.42-76.08h64.82zm-181.008-76.08-33.5 76.08h-82.64l51.25-76.08z" opacity=".5" style="mix-blend-mode:multiply"/><path fill="#6b8cce" d="m280.862 201.21-65.93 151.18-65.94-151.18z" opacity=".5" style="mix-blend-mode:multiply"/><path stroke="#1e3a6e" stroke-linejoin="round" stroke-width="7" d="M280.864 201.21h-131.88l33.51-76.08h64.93zm-65.94 151.18L66.344 201.21h82.64"/><path stroke="#1e3a6e" stroke-linejoin="round" stroke-width="7" d="m214.922 352.39 148.57-151.18h-82.63"/><path stroke="#1e3a6e" stroke-linejoin="round" stroke-width="7" d="m363.652 201.36-51.25-76.08h-64.82m-64.938 0h-64.89l-51.25 76.08m214.358-.15-65.93 151.18-65.94-151.18"/></svg>