<svg xmlns="http://www.w3.org/2000/svg" width="430" height="430" fill="none" viewBox="0 0 430 430"><path fill="#6b8cce" d="M214.999 395c187.993-90.473 169.188-227.796 169.188-310.678C329.964 76.515 214.999 35 214.999 35S100.035 76.515 45.812 84.312c0 82.892-18.806 220.215 169.187 310.688"/><path fill="#6b8cce" d="M215 35v360C42.013 311.748 44.127 188.828 45.567 105.15c.125-7.258.245-14.222.245-20.838C100.035 76.515 215 35 215 35" opacity=".3" style="mix-blend-mode:multiply"/><path stroke="#1e3a6e" stroke-linecap="round" stroke-linejoin="round" stroke-width="7" d="M214.999 395c187.993-90.473 169.188-227.796 169.188-310.678C329.964 76.515 214.999 35 214.999 35S100.035 76.515 45.812 84.312c0 82.892-18.806 220.215 169.187 310.688"/><path fill="#e8e6f2" fill-rule="evenodd" d="M308.121 171.567 194.688 285 131 221.312l26.567-26.567 37.121 37.121L281.554 145z" clip-rule="evenodd"/><path fill="#e8e6f2" d="M194.688 285 131 221.312l26.567-26.567 37.121 37.121.029-.029z" opacity=".5" style="mix-blend-mode:multiply"/><path stroke="#1e3a6e" stroke-linecap="square" stroke-linejoin="round" stroke-miterlimit="10" stroke-width="7" d="M308.121 171.567 194.688 285 131 221.312l26.567-26.567 37.121 37.121L281.554 145z" clip-rule="evenodd"/></svg>