<svg xmlns="http://www.w3.org/2000/svg" width="430" height="430" fill="none" viewBox="0 0 430 430"><path fill="#e8e6f2" d="M370.89 179.26c1.95 0 3.39 1.84 2.91 3.73l-7.37 29.29c-13.09 51.98-57.21 89.62-109.58 95.16v9.42c0 1.66-1.34 3-3 3h-78.46c-1.66 0-3-1.34-3-3v-9.42c-52.37-5.53-96.5-43.17-109.58-95.16l-7.37-29.29c-.48-1.89.96-3.73 2.91-3.73z"/><path fill="#e8e6f2" d="M185.8 308.07h57.7q1.83 0 3.65-.052c-56.563-1.614-105.448-40.632-119.35-95.848l-8.3-32.9h-65l8.3 32.9c14.2 56.4 64.9 95.9 123 95.9" opacity=".5" style="mix-blend-mode:multiply"/><path fill="#6b8cce" d="M256.85 307.44v34.42c0 1.66-1.34 3-3 3h-78.46c-1.66 0-3-1.34-3-3v-34.42c4.41.46 8.88.7 13.39.7h57.69c4.51 0 8.97-.24 13.38-.7"/><path fill="#6b8cce" d="M172.39 341.86c0 1.66 1.34 3 3 3h39.23l.005-36.72H185.78c-4.51 0-8.98-.24-13.39-.7z" opacity=".5" style="mix-blend-mode:multiply"/><path stroke="#1e3a6e" stroke-linecap="round" stroke-linejoin="round" stroke-width="7" d="M214.62 178.7v-61.31c0-17.62 14.28-31.9 31.9-31.9s31.9 14.28 31.9 31.9v12.78m-96 49.1v-33.82m64.4 33.82v-33.82m-3.36 162.69h-57.69c-58.11 0-108.78-39.5-122.97-95.85l-8.3-33.02h320.24l-8.31 33.02c-14.18 56.35-64.86 95.85-122.97 95.85"/><path stroke="#1e3a6e" stroke-linecap="round" stroke-linejoin="round" stroke-width="7" d="M256.85 307.44v37.43h-84.46v-37.43"/></svg>