<svg xmlns="http://www.w3.org/2000/svg" width="430" height="430" fill="none" viewBox="0 0 430 430"><path fill="#6b8cce" d="M343.028 338.438H87.052v37.012h255.976z"/><path fill="#6b8cce" d="M87.052 338.438h40v37.012h-40z" opacity=".5" style="mix-blend-mode:multiply"/><path fill="#e8e6f2" d="M359.094 55.45H71.106v287.985h287.988z"/><path fill="#e8e6f2" d="M71.106 55.45h30v287.985h-30z" opacity=".5" style="mix-blend-mode:plus-darker"/><path fill="#6b8cce" d="M312.574 140.817H117.505v130.445h195.069z"/><path fill="#6b8cce" d="M117.505 140.817h25v130.445h-25z" opacity=".5" style="mix-blend-mode:multiply"/><path stroke="#e8e6f2" stroke-linecap="round" stroke-linejoin="round" stroke-miterlimit="10" stroke-width="7" d="M166.302 174.749h97.595"/><path fill="#e8e6f2" d="M117.505 308.069h195.069v-36.807H117.505z" style="mix-blend-mode:multiply"/><path fill="#e8e6f2" d="M142.505 308.069h-25v-36.807h25z" opacity=".5" style="mix-blend-mode:multiply"/><path stroke="#1e3a6e" stroke-linecap="round" stroke-linejoin="round" stroke-miterlimit="10" stroke-width="7" d="M359.094 55.45H71.106v287.985h287.988z"/><path stroke="#1e3a6e" stroke-linecap="round" stroke-linejoin="round" stroke-miterlimit="10" stroke-width="7" d="M312.574 140.817H117.505v167.252h195.069zm-195.069-40.282h56.471m169.052 242.903H87.052v32.012h255.976zm-30.334-72.176H117.505"/><path stroke="#1e3a6e" stroke-linecap="round" stroke-linejoin="round" stroke-miterlimit="10" stroke-width="10" d="M242.436 100.535h.121m35.008 0h.121m34.888 0h.121"/></svg>