<svg xmlns="http://www.w3.org/2000/svg" width="430" height="430" fill="none" viewBox="0 0 430 430"><path fill="#6b8cce" d="M220.12 336.7c-52.45-3.93-110.38-7.33-155.99 2.98-26.97-67.52 18.99-164.91 7.02-293.18 107.71 15.94 274.46-13.7 300.46 27.32-13.87 20.23-27.68 76.08-33.81 131.97"/><path fill="#6b8cce" d="M83.58 277.96c-5.29-58.6 19.42-134.55 16.73-228.28-10.07-.77-19.84-1.8-29.16-3.18 11.97 128.27-33.99 225.66-7.02 293.18 45.61-10.31 103.54-6.91 155.99-2.98l24.44-27.18c-41.15-3.05-85.44-5.63-124.38-1.45-18.45 1.98-34.92-11.63-36.59-30.1z" opacity=".5" style="mix-blend-mode:multiply"/><path fill="#e8e6f2" d="m316.44 216.32-14.38-40.69-14.38-40.69-5.86-16.59-4.83-13.68c-2.04-5.76-8.35-8.77-14.1-6.74l-1.33.47c-4.07 1.43-7.5 3.85-10.14 6.89l38.47 109.88"/><path fill="#e8e6f2" d="M281.82 118.35c.14-.06.29-.13.43-.19l4.86-2.11c4.97-2.16 10.76.12 15.62 11.99l9.4 21.65 10.64 23.78 13.32 30.66c.18.55.35 1.09.52 1.66 4.82 16.57 2.98 40.33.56 73.01l35.62 34.99-66.9 69.24-41.08-35.85-1.24-1.12h-.01l10.89-2.33c-23.54 7.8-48.52-3.8-48.52-3.8a104.12 104.12 0 0 1-53.77-50.76l-23.17-47.82c-2.82-5.83-.59-12.84 5.09-15.96 15.1-8.3 29.69-1.81 41.97 12.81l25.31 32.2c15.43-25.43 12.4-61.16 12.34-61.86l1.12 5.78-7.99-41.26-15-31-10.73-9.23c-10.49-9.02-11.68-24.84-2.66-35.33 4.14-4.81 11.39-5.36 16.2-1.22l26.77 23.02 19.56 40.42c-.07 2.43 4.74 22.22 9.29 51.3 6 8.23 25.08-5.83 31.2-10.15 6.12-4.33-3.74-18.92-19.65-82.52z"/><path fill="#e8e6f2" d="M281.869 118.35c.14-.06.29-.13.43-.19l4.86-2.11c4.97-2.16 10.76.12 15.62 11.99l9.4 21.65 10.64 23.78 13.32 30.66"/><path fill="#e8e6f2" d="M303.02 217.08c2.12.09 3.67-1.99 2.96-4l-13.93-37.79-14.38-40.69-5.86-16.59-4.83-13.68c-1-2.83-3.04-4.99-5.53-6.22.04-.01.08-.03.12-.05-4.07 1.43-7.5 3.85-10.14 6.89l41.69 109.79a3 3 0 0 0 2.64 1.93l7.27.41z" opacity=".5" style="mix-blend-mode:multiply"/><path fill="#e8e6f2" d="m293.8 216.99-4.08-27.88-3.06-20.91-.64-1.57-15.11-36.82-2.96-7.23-16.53-17.29-9.6-10.05a11.47 11.47 0 0 0-8.31-3.55c-2.85 0-5.71 1.06-7.94 3.19a24.9 24.9 0 0 0-4.92 6.56l41.72 65.91 6.82 49.64zm-92.69-84.49 10.73 9.23 15 31 6.87 35.48c.05.58 3.08 36-12.34 62.2h6.03c3.97 0 7.48-2.57 8.69-6.35l3.42-10.74c9.28-30.08 4.25-54.4 4.19-55.1l-6.87-35.48-15-31-10.73-9.23c-8.54-7.34-10.91-19.19-6.64-28.99-2.26.54-4.39 1.77-6.02 3.67-9.02 10.49-7.83 26.31 2.66 35.33zm82.82 212.31-10.36-9.08h.01c-19.77 2.17-37.66-6.14-37.66-6.14a104.12 104.12 0 0 1-53.77-50.76l-23.17-47.82a12.07 12.07 0 0 1-.95-7.8c-1.32.5-2.64 1.11-3.96 1.84-5.67 3.12-7.91 10.13-5.09 15.96l23.17 47.82a104.12 104.12 0 0 0 53.77 50.76s17.89 8.3 37.66 6.13h-.01l1.24 1.12 41.08 35.85 9.82-10.16-31.78-27.73z"/><path fill="#e8e6f2" d="m201.11 132.5 10.73 9.23 15 31 6.87 35.48c.05.58 3.08 36-12.34 62.2h6.03c3.97 0 7.48-2.57 8.69-6.35l3.42-10.74c9.28-30.08 4.25-54.4 4.19-55.1l-6.87-35.48-15-31-10.73-9.23c-8.54-7.34-10.91-19.19-6.64-28.99-2.26.54-4.39 1.77-6.02 3.67-9.02 10.49-7.83 26.31 2.66 35.33zm82.82 212.31-10.36-9.08h.01c-19.77 2.17-37.66-6.14-37.66-6.14a104.12 104.12 0 0 1-53.77-50.76l-23.17-47.82a12.07 12.07 0 0 1-.95-7.8c-1.32.5-2.64 1.11-3.96 1.84-5.67 3.12-7.91 10.13-5.09 15.96l23.17 47.82a104.12 104.12 0 0 0 53.77 50.76s17.89 8.3 37.66 6.13h-.01l1.24 1.12 41.08 35.85 9.82-10.16-31.78-27.73z"/><path fill="#e8e6f2" d="M275.97 212.44c2.06.51 3.99-1.22 3.7-3.32l-.86-6.25-4.98-37.56c-.2-1.52-.64-3-1.31-4.38l-20.24-41.83a8.95 8.95 0 0 0-2.2-2.87l-15.67-13.48c-2.55-2.42-3.29-6.06-2.13-9.14.34-.9-.4-1.85-1.34-1.64-1.95.45-3.82 1.41-5.38 2.89a24.9 24.9 0 0 0-4.48 5.75c-.27.47-.16 1.07.23 1.44l4.32 4.09 15.59 13.41c.12.11.23.24.3.39l20.19 41.72c.06.11.09.24.11.36l4.86 36.65 1.35 9.84c.17 1.21 1.05 2.2 2.24 2.5l5.7 1.42zm17.83-84.59c-1.63-3.97-7.94-9.13-11.98-9.5l32.88 94.55c.62 1.79 2.41 2.9 4.29 2.65l2.51-.33c1.9-.25 3.08-2.19 2.43-3.99z" opacity=".5" style="mix-blend-mode:multiply"/><path stroke="#1e3a6e" stroke-linecap="round" stroke-linejoin="round" stroke-width="7" d="M220.12 336.7c-52.45-3.93-110.38-7.33-155.99 2.98-26.97-67.52 18.99-164.91 7.02-293.18 107.71 15.94 274.46-13.7 300.46 27.32-13.87 20.23-27.68 76.08-33.81 131.97"/><path stroke="#1e3a6e" stroke-linecap="round" stroke-linejoin="round" stroke-width="7" d="M283.01 118.35c.14-.06.29-.13.43-.19l4.86-2.11c4.97-2.16 10.76.12 15.62 11.99l9.4 21.65 10.64 23.78 13.32 30.66m-102.389 4.39c.06.71 3.09 36.44-12.34 61.87m114.729-66.26c.18.55.35 1.09.52 1.66 4.82 16.57 2.98 40.33.56 73.01l35.62 34.99-66.9 69.24L266 347.18l-1.24-1.12h-.01"/><path stroke="#1e3a6e" stroke-linecap="round" stroke-linejoin="round" stroke-width="7" d="m317.629 216.32-14.38-40.69-14.38-40.69-5.86-16.59-4.83-13.68c-2.04-5.76-8.35-8.77-14.1-6.74l-1.33.47c-4.07 1.43-7.5 3.85-10.14 6.89m12.481 72.01.01.02m-15.11-42.77-.01-.02"/><path stroke="#1e3a6e" stroke-linecap="round" stroke-linejoin="round" stroke-width="7" d="m294.99 216.99-4.08-27.88-3.06-20.91-15.75-38.39-2.96-7.23-16.53-17.29-9.6-10.05a11.47 11.47 0 0 0-8.31-3.55c-2.85 0-5.71 1.06-7.94 3.19a24.9 24.9 0 0 0-4.92 6.56"/><path stroke="#1e3a6e" stroke-linecap="round" stroke-linejoin="round" stroke-width="7" d="m236.01 214.31-7.99-41.26-15-31-10.73-9.23c-10.49-9.02-11.68-24.84-2.66-35.33 4.14-4.81 11.39-5.36 16.2-1.22l26.77 23.02 20.38 42.12 6.51 49.11m6.149 133.21c-23.54 7.8-48.52-3.8-48.52-3.8a104.12 104.12 0 0 1-53.77-50.76l-23.17-47.82c-2.82-5.83-.59-12.84 5.09-15.96 15.1-8.3 29.69-1.81 41.97 12.81l25.31 32.2"/></svg>