<svg xmlns="http://www.w3.org/2000/svg" width="430" height="430" fill="none" viewBox="0 0 430 430"><path stroke="#1e3a6e" stroke-linecap="round" stroke-linejoin="round" stroke-miterlimit="10" stroke-width="7" d="m380.9 223.701-38.9-44.7c-7.8-8.9-19.7-13.2-31.4-11.4l-29.6 4.6-4.022.785M128.1 299.401l-13.1-8.8c-16.6-11.1-27-29.2-28.4-49.1l-3.9-58.1c-1.5-21.7-13.8-41.1-32.7-51.8"/><path fill="#6b8cce" d="m200.31 116.909-10.19-36.35c8.13-10.58 46.5-11.44 53.37 0l-10.19 36.35m-47.85.001h62.67c15.65 0 28.36 12.71 28.36 28.36h-119.4c0-15.65 12.71-28.36 28.36-28.36z"/><path fill="#e8e6f2" d="M276.52 145.27v10.32c0 37.72 7.27 75.08 21.52 110 7.48 18.34 14.69 42.19 17.39 70.05 1.2 12.38-8.52 23.12-20.96 23.12H139.14c-12.44 0-22.16-10.74-20.96-23.12 2.7-27.86 9.9-51.71 17.39-70.05 14.25-34.92 21.52-72.29 21.52-110v-10.32"/><path fill="#e8e6f2" d="M157.09 145.27v10.32c0 37.72-7.27 75.08-21.52 110-7.48 18.34-14.69 42.19-17.39 70.05-1.2 12.38 8.52 23.12 20.96 23.12h16.43c-10.69-1.8-18.5-11.64-17.42-22.82 2.7-27.86 9.9-51.71 17.39-70.05 14.25-34.92 21.52-72.29 21.52-110v-10.621" opacity=".5" style="mix-blend-mode:multiply"/><path fill="#6b8cce" d="M185.44 116.909c-15.67 0-28.36 12.7-28.36 28.36h19.98c.16-15.53 12.793-28.367 28.363-28.367" opacity=".5" style="mix-blend-mode:multiply"/><path fill="#6b8cce" d="M216.289 76.432c3.46-1.54 7.81-2.63 12.47-3.25-14.04-2.45-33.16.26-38.63 7.37l10.19 36.35h19.89l-8.54-30.48c-1.12-4.01.82-8.29 4.63-9.99z" opacity=".5" style="mix-blend-mode:multiply"/><path stroke="#1e3a6e" stroke-linecap="round" stroke-linejoin="round" stroke-width="7" d="m200.31 116.899-10.19-36.35c8.13-10.58 46.5-11.44 53.37 0l-10.19 36.35m-47.85.01h62.67c15.65 0 28.36 12.71 28.36 28.36h-119.4c0-15.65 12.71-28.36 28.36-28.36zm128.555 207.019h27.86M276.52 145.27v10.32c0 37.72 7.27 75.08 21.52 110 7.48 18.34 14.69 42.19 17.39 70.05 1.2 12.38-8.52 23.12-20.96 23.12H139.14c-12.44 0-22.16-10.74-20.96-23.12 2.7-27.86 9.9-51.71 17.39-70.05 14.25-34.92 21.52-72.29 21.52-110v-10.32"/></svg>