<svg xmlns="http://www.w3.org/2000/svg" width="430" height="430" fill="none" viewBox="0 0 430 430"><path fill="#1e3a6e" d="M252.23 339.5a38.5 38.5 0 0 1-6.306 33.738 38.5 38.5 0 0 1-30.724 15.299 38.51 38.51 0 0 1-30.724-15.299 38.5 38.5 0 0 1-6.306-33.738"/><path fill="#6b8cce" d="M312.34 166.599c0-47.87-43.06-86.74-96.1-86.74-53 0-95.91 39.54-95.67 88.24.23 48.71.42 88.59.42 89 0 .42-11.26 19-25.14 41.58-13.85 22.54-25.1 40.82-25.04 40.82h188.44c55.19 0 100 0 99.94-.08 0-.05-10.54-19.11-23.45-42.54-12.92-23.43-23.4-42.69-23.4-43z"/><path fill="#6b8cce" d="M231.66 82.86V53.64c0-6.18-6.95-11.19-15.5-11.19s-15.5 5-15.5 11.11v29.3"/><path fill="#1e3a6e" d="M222 387.95a39.4 39.4 0 0 1-6.83.6 38.51 38.51 0 0 1-37-49.05h18a44.4 44.4 0 0 0-1.26 10.55c-.04 18.92 11.68 34.67 27.09 37.9" opacity=".7" style="mix-blend-mode:multiply"/><path fill="#6b8cce" d="M231.66 53.64v23c-50 3.35-89.37 44.769-89.15 91.449.06 10.83-.18 15.37-.18 43 0 14.47 25.11 20.06 53.75 28.53 9.74 2.87 7.73 17.2-2.43 17.22l-35.21.14a27.48 27.48 0 0 0-23.44 13.36c-4.5 7.49-10.57 17.51-17.24 28.34-13.84 22.48-25 40.73-25 40.83H70.81c0-.1 11.2-18.35 25-40.83s25.19-41.18 25.19-41.58-.2-40.29-.43-89c-.21-43.83 34.49-80.23 80.1-87.08V53.56c0-6.13 6.94-11.11 15.49-11.11s15.5 5.05 15.5 11.19" opacity=".5" style="mix-blend-mode:multiply"/><path stroke="#1e3a6e" stroke-linecap="round" stroke-linejoin="round" stroke-width="7" d="M252.229 339.5a38.5 38.5 0 0 1-6.306 33.738 38.5 38.5 0 0 1-30.724 15.299 38.51 38.51 0 0 1-30.724-15.299 38.5 38.5 0 0 1-6.306-33.738M231.66 79.86V53.64c0-6.18-6.95-11.19-15.5-11.19s-15.5 5-15.5 11.11v26.3m111.68 86.739c0-47.87-43.06-86.74-96.1-86.74-53 0-95.91 39.54-95.67 88.24.23 48.71.42 88.59.42 89 0 .42-11.26 19-25.14 41.58-13.85 22.54-25.1 40.82-25.04 40.82h188.44c55.19 0 100 0 99.94-.08 0-.05-10.54-19.11-23.45-42.54-12.92-23.43-23.4-42.69-23.4-43z"/></svg>