<svg xmlns="http://www.w3.org/2000/svg" width="430" height="430" fill="none" viewBox="0 0 430 430"><path fill="#6b8cce" d="m340 300 14.548 24.977 28.25 6.117-19.259 21.554 2.911 28.758L340 369.75l-26.45 11.656 2.911-28.758-19.259-21.554 28.25-6.117zm-250 0 14.548 24.977 28.25 6.117-19.259 21.554 2.911 28.758L90 369.75l-26.45 11.656 2.911-28.758-19.258-21.554 28.25-6.117z"/><path fill="#6b8cce" d="M63.55 381.406 90 369.75V300l-14.547 24.977-28.25 6.117 19.259 21.554z" opacity=".5" style="mix-blend-mode:multiply"/><path fill="#6b8cce" d="m215 300 14.548 24.977 28.25 6.117-19.259 21.554 2.911 28.758L215 369.75l-26.45 11.656 2.911-28.758-19.259-21.554 28.25-6.117z"/><path fill="#6b8cce" d="m188.55 381.406 26.451-11.656V300l-14.548 24.977-28.25 6.117 19.259 21.554z" opacity=".5" style="mix-blend-mode:multiply"/><path fill="#e8e6f2" d="M208.269 33.245c.838-7.54 7.21-13.245 14.796-13.245 19.184 0 34.736 15.554 34.736 34.742v56.053h54.493c16.305 0 28.802 14.488 26.412 30.619l-13.449 90.795C323.318 245.303 312.08 255 298.845 255H199.06L151 233.636V121.477h2.714c25.478 0 46.881-19.157 49.694-44.479z"/><path fill="#6b8cce" d="M91 111h60v134H91z"/><path fill="#6b8cce" d="M111 111H91v134h60v-15h-40zm202.55 270.406 26.451-11.656V300l-14.548 24.977-28.25 6.117 19.259 21.554z" opacity=".5" style="mix-blend-mode:multiply"/><path fill="#e8e6f2" d="M231.16 20.948a14.83 14.83 0 0 0-2.891 7.297l-4.861 43.753c-2.743 24.696-23.169 43.528-47.812 44.444 14.98-7.301 25.863-21.891 27.813-39.444l4.861-43.753c.837-7.54 7.21-13.245 14.796-13.245 2.786 0 5.497.328 8.094.948M151 233.637 199.06 255h99.785c13.235 0 24.473-9.697 26.412-22.791l1.514-10.217c-4.698 7.86-13.282 13.009-22.926 13.009H204.06L171 219.989V118.403a49.9 49.9 0 0 1-17.286 3.075H151z" opacity=".5" style="mix-blend-mode:multiply"/><path stroke="#1e3a6e" stroke-linecap="round" stroke-linejoin="round" stroke-width="7" d="m90 300 14.548 24.977 28.25 6.117-19.259 21.554 2.911 28.758L90 369.75l-26.45 11.656 2.911-28.758-19.258-21.554 28.25-6.117zm125 0 14.548 24.977 28.25 6.117-19.259 21.554 2.911 28.758L215 369.75l-26.45 11.656 2.911-28.758-19.259-21.554 28.25-6.117zm125 0 14.548 24.977 28.25 6.117-19.259 21.554 2.911 28.758L340 369.75l-26.45 11.656 2.911-28.758-19.259-21.554 28.25-6.117z"/><path stroke="#1e3a6e" stroke-linejoin="round" stroke-width="7" d="M91 111h60v134H91zm60 122.636L199.06 255h99.785c13.235 0 24.473-9.697 26.412-22.791l13.449-90.795c2.39-16.131-10.107-30.619-26.412-30.619h-54.493V54.742c0-19.188-15.552-34.742-34.736-34.742-7.586 0-13.958 5.705-14.796 13.245l-4.861 43.753c-2.813 25.322-24.216 44.479-49.694 44.479H151"/></svg>