<svg xmlns="http://www.w3.org/2000/svg" width="430" height="430" fill="none" viewBox="0 0 430 430"><path fill="#e8e6f2" d="M30 350V80h370v270z"/><path fill="#6b8cce" d="M30 347.558V350h222.386L140 235z"/><path fill="#6b8cce" d="M30 347.558V350h222.386L140 235z" opacity=".4" style="mix-blend-mode:multiply"/><path fill="#6b8cce" d="M98.863 350h153.523l-76.761-78.547z" opacity=".3" style="mix-blend-mode:multiply"/><path fill="#6b8cce" d="M400 282.326V350H133.863L300 180z"/><path fill="#1e3a6e" d="M223 160c0 22.078-17.922 40-40 40s-40-17.922-40-40 17.922-40 40-40 40 17.922 40 40"/><path fill="#1e3a6e" d="M210.155 189.361c-2.322.42-4.713.639-7.155.639-22.078 0-40-17.922-40-40 0-11.6 4.947-22.052 12.845-29.361C157.177 124.016 143 140.364 143 160c0 22.078 17.922 40 40 40 10.478 0 20.02-4.037 27.155-10.639" opacity=".5" style="mix-blend-mode:multiply"/><path fill="#6b8cce" d="M330.568 211.279 195 350h-61.137L300 180z" opacity=".3" style="mix-blend-mode:multiply"/><path stroke="#1e3a6e" stroke-linecap="round" stroke-linejoin="round" stroke-miterlimit="14.72" stroke-width="7" d="M223 160c0 22.078-17.922 40-40 40s-40-17.922-40-40 17.922-40 40-40 40 17.922 40 40m177 122.326L300 180 193.125 289.36 140 235 30 347.558M133.867 350l59.299-60.678"/><path stroke="#1e3a6e" stroke-linecap="round" stroke-linejoin="round" stroke-miterlimit="14.72" stroke-width="7" d="M30 350V80h370v270z"/></svg>