<svg xmlns="http://www.w3.org/2000/svg" width="430" height="430" fill="none" viewBox="0 0 430 430"><path fill="#6b8cce" d="m113.737 54.633-60.104 60.104L154.896 216 54.633 316.262l60.104 60.104L215 276.104l100.262 100.262 60.104-60.104L275.104 216l101.262-101.263-60.104-60.104L215 155.896z"/><path fill="#6b8cce" d="M215 155.895v120.209L114.737 376.366l-60.104-60.104L154.896 216 53.633 114.737l60.104-60.104z" opacity=".5" style="mix-blend-mode:multiply"/><path stroke="#1e3a6e" stroke-linejoin="round" stroke-width="7" d="m113.737 54.633-60.104 60.104L154.896 216 54.633 316.262l60.104 60.104L215 276.104l100.262 100.262 60.104-60.104L275.104 216l101.262-101.263-60.104-60.104L215 155.896z"/></svg>