<svg xmlns="http://www.w3.org/2000/svg" width="430" height="430" fill="none" viewBox="0 0 430 430"><path fill="#6b8cce" d="M308.747 225.135c36.849 0 66.72-29.871 66.72-66.72 0-36.848-29.871-66.72-66.72-66.72-36.848 0-66.72 29.872-66.72 66.72s29.872 66.72 66.72 66.72m-187.429 0c36.848 0 66.72-29.871 66.72-66.72 0-36.848-29.872-66.72-66.72-66.72s-66.72 29.872-66.72 66.72 29.871 66.72 66.72 66.72"/><path fill="#6b8cce" d="M356.547 204.946a66.71 66.71 0 0 1-53.694 19.902 66.72 66.72 0 0 1-60.052-56.381 66.715 66.715 0 0 1 40.476-71.741 66.73 66.73 0 0 0-7.423 83.939 66.73 66.73 0 0 0 80.693 24.281m-187.449-.001a66.73 66.73 0 1 1-73.24-108.23 66.729 66.729 0 0 0 73.24 108.23" opacity=".5" style="mix-blend-mode:multiply"/><path stroke="#1e3a6e" stroke-linecap="round" stroke-linejoin="round" stroke-width="7" d="m331.949 181.615-46.4-46.4m0 46.4 46.4-46.4m-23.202 89.92c36.849 0 66.72-29.871 66.72-66.72 0-36.848-29.871-66.72-66.72-66.72-36.848 0-66.72 29.872-66.72 66.72s29.872 66.72 66.72 66.72M88.508 166.606l16.41 16.41 49.21-49.21"/><path stroke="#1e3a6e" stroke-linecap="round" stroke-linejoin="round" stroke-width="7" d="M121.318 225.135c36.848 0 66.72-29.871 66.72-66.72 0-36.848-29.872-66.72-66.72-66.72s-66.72 29.872-66.72 66.72 29.871 66.72 66.72 66.72m-29.791 61.99h86.17"/><path stroke="#1e3a6e" stroke-linecap="round" stroke-linejoin="round" stroke-width="12" d="M64.928 287.125h.71"/><path stroke="#1e3a6e" stroke-linecap="round" stroke-linejoin="round" stroke-width="7" d="M91.527 338.306h86.17"/><path stroke="#1e3a6e" stroke-linecap="round" stroke-linejoin="round" stroke-width="12" d="M64.928 338.306h.71"/><path stroke="#1e3a6e" stroke-linecap="round" stroke-linejoin="round" stroke-width="7" d="M278.969 287.125h86.17"/><path stroke="#1e3a6e" stroke-linecap="round" stroke-linejoin="round" stroke-width="12" d="M252.367 287.125h.7"/><path stroke="#1e3a6e" stroke-linecap="round" stroke-linejoin="round" stroke-width="7" d="M278.969 338.306h86.17"/><path stroke="#1e3a6e" stroke-linecap="round" stroke-linejoin="round" stroke-width="12" d="M252.367 338.306h.7"/></svg>