<svg xmlns="http://www.w3.org/2000/svg" width="430" height="430" fill="none" viewBox="0 0 430 430"><path fill="#6b8cce" d="M334.14 334.64a168.49 168.49 0 0 1-183.619 36.524A168.489 168.489 0 0 1 247.87 50.247a168.5 168.5 0 0 1 86.27 46.113 168.47 168.47 0 0 1 36.53 183.619 168.5 168.5 0 0 1-36.53 54.661"/><path fill="#e8e6f2" d="M312.37 312.869a137.7 137.7 0 1 1 29.854-150.067 137.69 137.69 0 0 1-29.854 150.067"/><path fill="#e8e6f2" d="M300.52 323.43a137.712 137.712 0 0 1-203.25-36.571 137.705 137.705 0 0 1 14.839-162.884A137.7 137.7 0 0 1 158.85 89.74a137.72 137.72 0 0 0-32.21 179.315 137.715 137.715 0 0 0 173.88 54.375" opacity=".5" style="mix-blend-mode:multiply"/><path stroke="#1e3a6e" stroke-linecap="round" stroke-linejoin="round" stroke-width="7" d="M215 212.26v-69m0 72.241 36.11-36.11"/><path fill="#1e3a6e" d="M215 227.539c6.649 0 12.04-5.391 12.04-12.04 0-6.65-5.391-12.04-12.04-12.04-6.65 0-12.04 5.39-12.04 12.04s5.39 12.04 12.04 12.04"/><path stroke="#1e3a6e" stroke-linecap="round" stroke-linejoin="round" stroke-width="7" d="M215 335.851v-18.04m85.1-17.211-12.76-12.76m48.01-72.34h-18.04m-17.21-85.1-12.76 12.76M215 95.15v18.04m-85.1 17.21 12.76 12.76M94.65 215.5h18.04m17.21 85.1 12.76-12.76"/><path fill="#6b8cce" d="M305.79 357.499a168.53 168.53 0 0 1-131.03 21.499A168.54 168.54 0 0 1 47.755 234.52 168.53 168.53 0 0 1 138.9 65.12a168.543 168.543 0 0 0-55.603 225.557 168.537 168.537 0 0 0 222.493 66.822" opacity=".4" style="mix-blend-mode:multiply"/><path stroke="#1e3a6e" stroke-linecap="round" stroke-linejoin="round" stroke-width="7" d="M334.14 334.64a168.49 168.49 0 0 1-183.619 36.524A168.489 168.489 0 0 1 247.87 50.247a168.5 168.5 0 0 1 86.27 46.113 168.47 168.47 0 0 1 36.53 183.619 168.5 168.5 0 0 1-36.53 54.661"/><path stroke="#1e3a6e" stroke-linecap="round" stroke-linejoin="round" stroke-width="7" d="M312.37 312.869a137.7 137.7 0 1 1 29.854-150.067 137.69 137.69 0 0 1-29.854 150.067"/></svg>