<svg xmlns="http://www.w3.org/2000/svg" width="430" height="430" fill="none" viewBox="0 0 430 430"><path fill="#6b8cce" fill-rule="evenodd" d="M205 400 20 215 205 30zM100.938 215l47.031-47.031v94.062z" clip-rule="evenodd"/><path fill="#6b8cce" d="M205 359.531V400L20 215 205 30v40.469L60.469 215z" opacity=".5" style="mix-blend-mode:multiply"/><path fill="#6b8cce" d="M260 30h90v370h-90z"/><path fill="#6b8cce" d="M260 30v370h45V30z" opacity=".5" style="mix-blend-mode:multiply"/><path stroke="#1e3a6e" stroke-linecap="round" stroke-linejoin="round" stroke-width="7" d="m20 215 185 185V30z"/><path stroke="#1e3a6e" stroke-linecap="round" stroke-linejoin="round" stroke-width="7" d="M147.969 167.969 100.938 215l47.031 47.031z"/><path stroke="#1e3a6e" stroke-linecap="round" stroke-width="7" d="M260 340h35m-35-62h25m-25-62h35m-35-62h25m-25-62h35"/><path stroke="#1e3a6e" stroke-linecap="round" stroke-linejoin="round" stroke-width="7" d="M260 30h90v370h-90z"/></svg>