<svg xmlns="http://www.w3.org/2000/svg" width="430" height="430" fill="none" viewBox="0 0 430 430"><path fill="#e8e6f2" d="M85 399.5v-370h260v370l-43.333-30-43.334 30-43.569-30-43.097 30-43.334-30z"/><path fill="#e8e6f2" d="M115 29.5H85v370l30-20.769z" opacity=".5" style="mix-blend-mode:multiply"/><path stroke="#1e3a6e" stroke-linecap="round" stroke-width="7" d="M70 30h290"/><path stroke="#1e3a6e" stroke-linecap="round" stroke-linejoin="round" stroke-width="7" d="M85 30v370l43.333-30 43.334 30 43.097-30 43.569 30 43.334-30L345 400V30"/><path stroke="#1e3a6e" stroke-linecap="round" stroke-width="7" d="M130 299h80m-80-40h80m-80-40h80m-80-110h81m-81 70h170"/><path stroke="#1e3a6e" stroke-linecap="round" stroke-linejoin="round" stroke-width="7" d="M260.882 263.706v-22.398c0-9.559 7.506-17.308 16.765-17.308 7.3 0 13.509 4.816 15.811 11.538m-32.576 28.168v3.651c0 7.436-2.319 14.674-6.614 20.642L246.353 299h48.059m-33.53-35.294H245m15.882 0h15"/></svg>