<svg xmlns="http://www.w3.org/2000/svg" width="430" height="430" fill="none" viewBox="0 0 430 430"><path fill="#e8e6f2" d="M213.608 35H215c27.614 0 50 22.386 50 50v80h79.134c24.438 0 43.164 21.721 39.564 45.893l-18.618 125C362.161 355.492 345.332 370 325.516 370H185l-65-25V175c37.638 0 69.129-28.568 72.783-66.028l5.896-60.428C199.428 40.86 205.888 35 213.608 35"/><path fill="#e8e6f2" d="M224.193 35.843A50.3 50.3 0 0 0 215 35h-1.392c-7.721 0-14.18 5.86-14.93 13.544l-5.895 60.428c-2.261 23.171-15.171 42.939-33.599 54.65 31.1-6.125 55.415-32.012 58.599-64.65l5.895-60.428q.138-1.397.515-2.7M145 170.608A73 73 0 0 1 120 175v170l65 25h140.516c17.378 0 32.459-11.158 37.875-27.122A40 40 0 0 1 350.516 345H210l-65-25z" opacity=".5" style="mix-blend-mode:multiply"/><path fill="#6b8cce" d="M50 160h70v200H50z"/><path fill="#6b8cce" d="M75 160H50v200h70v-25H75z" opacity=".5" style="mix-blend-mode:multiply"/><path stroke="#1e3a6e" stroke-linejoin="round" stroke-width="7" d="m120 345 65 25h140.516c19.816 0 36.645-14.508 39.564-34.107l18.618-125c3.6-24.172-15.126-45.893-39.564-45.893H265V85c0-27.614-22.386-50-50-50h-1.392c-7.72 0-14.18 5.86-14.929 13.544l-5.896 60.428C189.129 146.432 157.638 175 120 175m-70-15h70v200H50z"/></svg>