<svg xmlns="http://www.w3.org/2000/svg" width="430" height="430" fill="none" viewBox="0 0 430 430"><path fill="#e8e6f2" d="M374.9 175.05H54.7v28.7h320.2z"/><path fill="#e8e6f2" d="M84.1 175.05H54.7v28.7h29.4z" opacity=".5" style="mix-blend-mode:multiply"/><path fill="#6b8cce" d="M195.4 246.75a15.16 15.16 0 0 1-4.3 10.5 14.8 14.8 0 0 1-10.5 4.4h-57.3a14.9 14.9 0 0 1 0-29.8h57.3a14.916 14.916 0 0 1 14.8 14.9m126.8-.301a15.16 15.16 0 0 1-4.3 10.5 14.7 14.7 0 0 1-10.5 4.3h-57.2a14.9 14.9 0 1 1 0-29.8h57.2a15 15 0 0 1 14.8 15"/><path fill="#6b8cce" d="M143.2 261.548h-19.9a14.904 14.904 0 0 1-14.9-14.9 14.9 14.9 0 0 1 14.9-14.9h19.9a14.904 14.904 0 0 0-14.9 14.9 14.9 14.9 0 0 0 14.9 14.9m126.8-.6h-19.9a14.898 14.898 0 0 1-10.536-25.435 14.9 14.9 0 0 1 10.536-4.365H270a14.899 14.899 0 0 0-10.536 25.436A14.9 14.9 0 0 0 270 260.948" opacity=".5" style="mix-blend-mode:multiply"/><path fill="#e8e6f2" d="m346.9 101.84-30.1 36.8-29.7-36.8z"/><path fill="#6b8cce" d="m244.9 101.84-30.1 36.8-29.7-36.8zm-103.6 0-30 36.8-29.7-36.8z"/><path fill="#e8e6f2" d="m327.2 125.95-10.3 12.69-29.8-36.8h20.7z" opacity=".5" style="mix-blend-mode:multiply"/><path fill="#6b8cce" d="m225.2 125.95-10.3 12.69-29.8-36.8h20.7zm-103.5 0-10.4 12.69-29.7-36.8h20.6z" opacity=".5" style="mix-blend-mode:multiply"/><path stroke="#1e3a6e" stroke-linecap="round" stroke-linejoin="round" stroke-miterlimit="10" stroke-width="7" d="M68 203.748v157m293.601-157v157M374.9 175.049H54.7v28.7h320.2zm-261.7 185.7 15.9-99.2m59.3 99.9-16-99.9m-54.299 68.099h65.3m56.499 30.4 15.9-99.1m61.2-159.1 23.3-34.7m-159.8 194.4h-57.2c-8.2 0-14.9-6.7-14.9-14.9s6.7-14.9 14.9-14.9h57.3c8.2 0 14.9 6.7 14.9 14.9-.1 8.2-6.8 14.9-15 14.9m34.3-159.7-23.3-34.7m123.7 293.6-16-99.8m-54.3 68.101h65.2m-2.799-68.101h-57.3c-8.2 0-14.9-6.7-14.9-14.9s6.7-14.9 14.9-14.9h57.3c8.2 0 14.9 6.7 14.9 14.9-.1 8.2-6.7 14.9-14.9 14.9M111.3 101.848l23.3-34.7m192.8 107.901h-22.1m11.5 0v-36.5l-29.7-36.7h59.7l-30 36.7m-91.4 36.5h-22.1m11.5 0v-36.5l-29.7-36.7h59.7l-30 36.7m-92.9 36.5H99.8m11.5 0v-36.5l-29.7-36.7h59.7l-30 36.7"/></svg>