<svg xmlns="http://www.w3.org/2000/svg" width="430" height="430" fill="none" viewBox="0 0 430 430"><path fill="#6b8cce" d="M374.17 109.6v210.82H55.83V109.58z"/><path fill="#e8e6f2" d="M374.17 109.6 241 243.21a36.94 36.94 0 0 1-40.288 8.019 37 37 0 0 1-11.992-8.019L55.83 109.58H76z"/><path stroke="#1e3a6e" stroke-linecap="round" stroke-linejoin="round" stroke-width="7" d="m58.07 112.3 130.66 130.91a37 37 0 0 0 11.99 8.025 36.94 36.94 0 0 0 28.3 0 36.9 36.9 0 0 0 11.99-8.025l130.65-130.87"/><path stroke="#1e3a6e" stroke-linecap="round" stroke-linejoin="round" stroke-width="7" d="M55.83 109.58v210.84h318.34V109.61z"/><path stroke="#1e3a6e" stroke-linecap="round" stroke-linejoin="round" stroke-width="7" d="M271 213.22a105.6 105.6 0 0 1 19.74 13.55l83.48 72.15m-318.39 1.55 84-73.85A105.5 105.5 0 0 1 159 213.43"/><path fill="#e8e6f2" d="M220.06 253.68a36.87 36.87 0 0 1-31.33-10.47L55.83 109.58H76z" opacity=".5" style="mix-blend-mode:multiply"/><path fill="#6b8cce" d="M166.42 220.78 55.83 313.32v-12.86l84-73.84A105.5 105.5 0 0 1 159 213.43zm207.75 79.74v12.81l-110.61-92.55 7.42-7.35a105.5 105.5 0 0 1 19.15 13.19l84 73.84z" opacity=".5" style="mix-blend-mode:multiply"/></svg>