<svg xmlns="http://www.w3.org/2000/svg" width="430" height="430" fill="none" viewBox="0 0 430 430"><path fill="#6b8cce" d="M306.75 54.09H204.38c-6.628 0-12 5.372-12 12v45.88c0 6.627 5.372 12 12 12h102.37c6.627 0 12-5.373 12-12V66.09c0-6.628-5.373-12-12-12M169.69 163.43H67.32c-6.627 0-12 5.373-12 12v45.88c0 6.627 5.373 12 12 12h102.37c6.628 0 12-5.373 12-12v-45.88c0-6.627-5.372-12-12-12m0 119.39H67.32c-6.627 0-12 5.373-12 12v45.88c0 6.627 5.373 12 12 12h102.37c6.628 0 12-5.373 12-12v-45.88c0-6.627-5.372-12-12-12"/><path fill="#e8e6f2" d="M319.75 374.91c28.752 0 52.06-23.308 52.06-52.06s-23.308-52.06-52.06-52.06-52.06 23.308-52.06 52.06 23.308 52.06 52.06 52.06"/><path fill="#6b8cce" d="M79.32 282.82v69.89h-12a12 12 0 0 1-12-12v-45.89a12 12 0 0 1 12-12zm0-119.39v69.88h-12a12 12 0 0 1-12-12v-45.88a12 12 0 0 1 12-12zM216.38 54.09v69.88h-12a12 12 0 0 1-8.485-3.515 12 12 0 0 1-3.515-8.485V66.09a12 12 0 0 1 12-12z" opacity=".5" style="mix-blend-mode:multiply"/><path fill="#e8e6f2" d="M349.96 365.25a52.07 52.07 0 0 1-41.91 8.319 52.07 52.07 0 0 1-34.02-25.85 52.056 52.056 0 0 1 26.54-73.269 52.055 52.055 0 0 0-15.534 67.282 52.06 52.06 0 0 0 64.924 23.518" opacity=".5" style="mix-blend-mode:multiply"/><path stroke="#1e3a6e" stroke-linecap="round" stroke-linejoin="round" stroke-width="7" d="M181.69 322.85h86m-86-124.48h43.66a31.5 31.5 0 0 0 31.5-31.5v-42.9M118.511 233.14v49.68M306.75 54.09H204.38c-6.628 0-12 5.372-12 12v45.88c0 6.627 5.372 12 12 12h102.37c6.627 0 12-5.373 12-12V66.09c0-6.628-5.373-12-12-12"/><path stroke="#1e3a6e" stroke-linecap="round" stroke-linejoin="round" stroke-width="7" d="M169.69 163.43H67.32c-6.627 0-12 5.373-12 12v45.88c0 6.627 5.373 12 12 12h102.37c6.628 0 12-5.373 12-12v-45.88c0-6.627-5.372-12-12-12m0 119.39H67.32c-6.627 0-12 5.373-12 12v45.88c0 6.627 5.373 12 12 12h102.37c6.628 0 12-5.373 12-12v-45.88c0-6.627-5.372-12-12-12m150.06 92.09c28.752 0 52.06-23.308 52.06-52.06s-23.308-52.06-52.06-52.06-52.06 23.308-52.06 52.06 23.308 52.06 52.06 52.06M153.86 198.37h-45.79"/><path stroke="#1e3a6e" stroke-linecap="round" stroke-linejoin="round" stroke-width="10" d="M83.15 198.37h.08"/><path stroke="#1e3a6e" stroke-linecap="round" stroke-linejoin="round" stroke-width="7" d="M153.86 317.77h-45.79"/><path stroke="#1e3a6e" stroke-linecap="round" stroke-linejoin="round" stroke-width="10" d="M83.15 317.77h.08"/><path stroke="#1e3a6e" stroke-linecap="round" stroke-linejoin="round" stroke-width="7" d="M290.92 89.03h-45.79"/><path stroke="#1e3a6e" stroke-linecap="round" stroke-linejoin="round" stroke-width="10" d="M220.21 89.03h.08"/><path stroke="#1e3a6e" stroke-linecap="round" stroke-linejoin="round" stroke-width="7" d="m299.24 316.51 18.87 18.87 56.57-56.57"/></svg>