<svg xmlns="http://www.w3.org/2000/svg" width="430" height="430" fill="none" viewBox="0 0 430 430"><path fill="#e8e6f2" d="M350.2 158.95H83.3v198.4h266.9z"/><path fill="#e8e6f2" d="M97 188.351H83.3v169H97z" opacity=".5" style="mix-blend-mode:multiply"/><path fill="#e8e6f2" d="M243.1 357.35v-120.1h80.4v120.1m-202.9-189.5c0 17.7-14.3 32-32 32s-32-14.3-32-32l26.7-77.4h266.9l26.7 77.4c0 17.7-14.3 32-32 32s-32-14.3-32-32l-39.8-32.8-24.3 32.8c0 17.7-14.3 32-32 32s-32-14.3-32-32l-29.4-40.5z"/><path fill="#e8e6f2" d="M120.5 170.551c-1.4 16.4-15.1 29.3-31.9 29.3s-30.6-12.9-31.9-29.3zm128.1 0c-1.4 16.4-15.1 29.3-31.9 29.3s-30.6-12.9-31.9-29.3zm128.1 0c-1.4 16.4-15.1 29.3-31.9 29.3s-30.6-12.9-31.9-29.3z" opacity=".5" style="mix-blend-mode:multiply"/><path fill="#6b8cce" d="M216.7 303.951H110v-67.6h106.7z"/><path fill="#e8e6f2" d="m194.1 303.951-67.6-67.6H110v37.5l30.1 30.1zm22.6-28.6v28.6h-.9l-67.6-67.6h29.5z" opacity=".3"/><path fill="#6b8cce" d="M216.8 292.25H110v11.8h106.8zm133.4-215.1H83.3v13.3h266.9zm-106.8 13.3 5.3 77.4c0 17.7 14.3 32 32 32s32-14.3 32-32l-16-77.4"/><path fill="#6b8cce" d="M312.7 170.551c-1.4 16.4-15.1 29.3-31.9 29.3s-30.6-12.9-31.9-29.3z" opacity=".5" style="mix-blend-mode:multiply"/><path fill="#6b8cce" d="m136.7 90.45-16 77.4c0 17.7 14.3 32 32 32s32-14.3 32-32l5.3-77.4"/><path fill="#6b8cce" d="M184.6 170.551c-1.4 16.4-15.1 29.3-31.9 29.3s-30.6-12.9-31.9-29.3z" opacity=".5" style="mix-blend-mode:multiply"/><path stroke="#1e3a6e" stroke-linecap="round" stroke-linejoin="round" stroke-width="7" d="M216.7 236.351H110v67.6h106.7zm26.4 120.999v-120.1h80.4v120.1"/><path stroke="#1e3a6e" stroke-linecap="round" stroke-linejoin="round" stroke-width="7" d="M350.2 199.95v157.4H83.3v-157.4m37.3-32.1c0 17.7-14.3 32-32 32s-32-14.3-32-32l26.7-77.4v-13.3h266.9v13.3l26.7 77.4c0 17.7-14.3 32-32 32s-32-14.3-32-32"/><path stroke="#1e3a6e" stroke-linecap="round" stroke-linejoin="round" stroke-width="7" d="M248.7 167.851c0 17.7-14.3 32-32 32s-32-14.3-32-32"/><path stroke="#1e3a6e" stroke-linecap="round" stroke-linejoin="round" stroke-width="7" d="m243.4 90.45 5.3 77.4c0 17.7 14.3 32 32 32s32-14.3 32-32l-16-77.4m-160 0-16 77.4c0 17.7 14.3 32 32 32s32-14.3 32-32l5.3-77.4"/><path fill="#6b8cce" d="M310.1 250.65h-53.4v53.4h53.4z"/><path fill="#e8e6f2" d="M310.1 303.25v.7h-36.6l-16.8-16.8v-36.5h.8zm0-38.5v18.4l-32.5-32.5H296z" opacity=".3"/><path stroke="#1e3a6e" stroke-linecap="round" stroke-linejoin="round" stroke-width="7" d="M83.3 90.45h266.9"/><path stroke="#1e3a6e" stroke-linecap="round" stroke-linejoin="round" stroke-width="10" d="M306.4 320.75h.01"/></svg>