<svg xmlns="http://www.w3.org/2000/svg" width="430" height="430" fill="none" viewBox="0 0 430 430"><path fill="#6b8cce" d="M246.389 246.488a211 211 0 0 0-31.667-2.388C136.613 244.1 68.046 292.924 30 355c3.906-116.147 99.36-216.519 216.389-216.519V65L410 195.423 246.389 317.581z"/><path fill="#6b8cce" d="M214.722 204.1c9.275 0 18.425.608 27.412 1.786 2.45.321 4.255 2.429 4.255 4.9v35.702a211 211 0 0 0-31.667-2.388C136.613 244.1 68.046 292.924 30 355c.603-17.93 3.388-35.485 8.097-52.352 39.23-56.08 103.778-98.548 176.625-98.548m31.667 73.481v40L410 195.424l-25.91-20.655z" opacity=".4" style="mix-blend-mode:multiply"/><path stroke="#1e3a6e" stroke-linejoin="round" stroke-width="7" d="M246.389 246.488a211 211 0 0 0-31.667-2.388C136.613 244.1 68.046 292.924 30 355c3.906-116.147 99.36-216.519 216.389-216.519V65L410 195.423 246.389 317.581z"/></svg>