<svg xmlns="http://www.w3.org/2000/svg" width="430" height="430" fill="none" viewBox="0 0 430 430"><path fill="#6b8cce" d="m388.91 173.56-127.47-.05a4.44 4.44 0 0 1-4.19-3L216.84 46.92a3.18 3.18 0 0 0-3.08-2.2 3.17 3.17 0 0 0-3.07 2.21l-39.82 122.8a4.42 4.42 0 0 1-4.19 3L41 172.77a3.252 3.252 0 0 0-3.08 4.258 3.25 3.25 0 0 0 1.18 1.622l102.18 73.68a4.4 4.4 0 0 1 1.62 4.94L104.18 379a3.252 3.252 0 0 0 3.088 4.262c.687 0 1.356-.218 1.912-.622L211 303.94a4.39 4.39 0 0 1 5.15 0l102.58 80.76a3.239 3.239 0 0 0 4.92-3.73L285.3 258.55a4.44 4.44 0 0 1 1.62-5l103.87-74.07a3.241 3.241 0 0 0-1.88-5.89z"/><path fill="#6b8cce" d="m39.2 178.65 102.17 73.68a4.37 4.37 0 0 1 1.62 4.94L104.27 379a3.14 3.14 0 0 0 1.18 3.61L215 228.53 38 175a3.17 3.17 0 0 0 1.2 3.65M212.1 45.22a3.2 3.2 0 0 0-1.33 1.71L171 169.73a4.38 4.38 0 0 1-1.86 2.34L215 228.53l-1.15-183.81a3.4 3.4 0 0 0-1.75.5m4.18 258.69 102.58 80.77a3.18 3.18 0 0 0 3.8-.07L215 228.53l-1.24 74.56a4.28 4.28 0 0 1 2.52.82m175.81-128.09L215 228.53l70.37 27.12a4.5 4.5 0 0 1 1.59-2.13l103.88-74.07a3.18 3.18 0 0 0 1.25-3.63" opacity=".5" style="mix-blend-mode:multiply"/><path stroke="#1e3a6e" stroke-linecap="round" stroke-linejoin="round" stroke-width="7" d="m388.91 173.56-127.47-.05a4.44 4.44 0 0 1-4.19-3L216.84 46.92a3.18 3.18 0 0 0-3.08-2.2v0a3.17 3.17 0 0 0-3.07 2.21l-39.82 122.8a4.42 4.42 0 0 1-4.19 3L41 172.77a3.252 3.252 0 0 0-3.08 4.258 3.25 3.25 0 0 0 1.18 1.622l102.18 73.68a4.4 4.4 0 0 1 1.62 4.94L104.18 379a3.252 3.252 0 0 0 3.088 4.262c.687 0 1.356-.218 1.912-.622L211 303.94a4.39 4.39 0 0 1 5.15 0l102.58 80.76a3.239 3.239 0 0 0 4.92-3.73L285.3 258.55a4.44 4.44 0 0 1 1.62-5l103.87-74.07a3.241 3.241 0 0 0-1.88-5.89z"/></svg>