<svg xmlns="http://www.w3.org/2000/svg" width="430" height="430" fill="none" viewBox="0 0 430 430"><path fill="#6b8cce" d="m375.091 287.26-10.88 7h-66.15a66.214 66.214 0 0 1-63.71 48.24h-36.35a66.2 66.2 0 0 1-63.71-48.23h-68.38l-10.94-7L128.81 173a20 20 0 0 1 16.79-9.14h138.86a20 20 0 0 1 16.79 9.14z"/><path fill="#6b8cce" d="m375.091 287.26-10.88 7h-66.15a66.214 66.214 0 0 1-63.71 48.24h-36.35a66.2 66.2 0 0 1-63.71-48.23h-68.38l-10.94-7L128.81 173a20 20 0 0 1 16.79-9.14h138.86a20 20 0 0 1 16.79 9.14z" opacity=".6" style="mix-blend-mode:multiply"/><path fill="#6b8cce" d="M375.09 287.27c0 4.25 0 20.49-.06 39.61v5.75a40.09 40.09 0 0 1-40.06 40H94.85a39.94 39.94 0 0 1-39.94-40v-45.36h79.26A66.21 66.21 0 0 0 198 335.5h36.36a66.23 66.23 0 0 0 63.73-48.23z"/><path stroke="#1e3a6e" stroke-linecap="round" stroke-linejoin="round" stroke-width="7" d="M55 287.26 128.81 173a20.01 20.01 0 0 1 16.79-9.14h138.86a20.01 20.01 0 0 1 16.79 9.14l73.84 114.26"/><path stroke="#1e3a6e" stroke-linecap="square" stroke-linejoin="round" stroke-width="7" d="M375.09 287.27c0 4.25 0 20.49-.06 39.61v5.75a40.09 40.09 0 0 1-40.06 40H94.85a39.94 39.94 0 0 1-39.94-40v-45.36h79.26A66.21 66.21 0 0 0 198 335.5h36.36a66.23 66.23 0 0 0 63.73-48.23z"/><path fill="#e8e6f2" d="m274.18 188.5-54.07 70.8a6 6 0 0 1-7.413 1.729 6 6 0 0 1-2.107-1.729l-54.75-70.8a4 4 0 0 1-.421-4.202A4 4 0 0 1 159 182.06h27.28V55.75h57.38v126.29H271a4.001 4.001 0 0 1 3.18 6.46"/><path fill="#e8e6f2" d="M215 261.64V55.75h-28.72v126.29H159a3.996 3.996 0 0 0-3.987 4.404 4 4 0 0 0 .817 2.046l54.76 70.84a5.87 5.87 0 0 0 4.41 2.31" opacity=".5" style="mix-blend-mode:multiply"/><path stroke="#1e3a6e" stroke-linecap="round" stroke-linejoin="round" stroke-width="7" d="m274.18 188.5-54.07 70.8a6 6 0 0 1-7.413 1.729 6 6 0 0 1-2.107-1.729l-54.75-70.8a4 4 0 0 1-.421-4.202A4 4 0 0 1 159 182.06h27.28V55.75h57.38v126.29H271a4.001 4.001 0 0 1 3.18 6.46"/></svg>