<svg xmlns="http://www.w3.org/2000/svg" width="430" height="430" fill="none" viewBox="0 0 430 430"><path fill="#6b8cce" d="M264.697 114.797 215.2 65.3l-27.473 27.473 49.498 49.497zM250 240h150v70H250z"/><path fill="#6b8cce" d="M250 285v25h150v-25z" opacity=".5" style="mix-blend-mode:multiply"/><path fill="#e8e6f2" d="M20 195c0-63.513 51.487-115 115-115s115 51.487 115 115v115H135c-63.513 0-115-51.487-115-115"/><path fill="#6b8cce" d="M187.727 92.773 215.2 65.3l10 10-16.002 16.002a128.1 128.1 0 0 1 37.259 41.735l-9.232 9.233z" opacity=".5" style="mix-blend-mode:multiply"/><path fill="#e8e6f2" d="M250 285v25H135c-63.513 0-115-51.487-115-115 0-38.135 18.562-71.934 47.144-92.856C53.22 121.164 45 144.622 45 170v10c0 57.99 47.01 105 105 105z" opacity=".5" style="mix-blend-mode:multiply"/><path fill="#6b8cce" d="M190 195c0 30.376-24.624 55-55 55s-55-24.624-55-55 24.624-55 55-55 55 24.624 55 55"/><path fill="#6b8cce" d="M182.59 222.59c-8.11 4.712-17.535 7.41-27.59 7.41-30.376 0-55-24.624-55-55 0-10.055 2.698-19.48 7.41-27.59C91.02 156.933 80 174.679 80 195c0 30.376 24.624 55 55 55 20.321 0 38.067-11.02 47.59-27.41" style="mix-blend-mode:multiply"/><path stroke="#6b8cce" stroke-linecap="round" stroke-linejoin="round" stroke-width="10" d="M212.959 272.945h-.01"/><path stroke="#1e3a6e" stroke-linecap="round" stroke-linejoin="round" stroke-miterlimit="10" stroke-width="7" d="m237.225 142.27 27.472-27.473L215.2 65.3l-27.473 27.473M250 240h150v70H250zm150 15v85"/><path stroke="#1e3a6e" stroke-linecap="round" stroke-width="7" d="M365 310v-30m-40 30v-30m-40 30v-30"/><path stroke="#1e3a6e" stroke-linecap="round" stroke-linejoin="round" stroke-miterlimit="10" stroke-width="7" d="M20 195c0-63.513 51.487-115 115-115s115 51.487 115 115v115H135c-63.513 0-115-51.487-115-115"/><circle cx="135" cy="195" r="55" stroke="#1e3a6e" stroke-linecap="round" stroke-linejoin="round" stroke-miterlimit="10" stroke-width="7"/></svg>