<svg xmlns="http://www.w3.org/2000/svg" width="430" height="430" fill="none" viewBox="0 0 430 430"><path fill="#1e3a6e" d="M210.63 336h-28.87v9.86A28.14 28.14 0 0 0 209.91 374h10.18a28.143 28.143 0 0 0 28.14-28.14V336z"/><path fill="#6b8cce" d="M215.001 310.74h27.42a13.72 13.72 0 0 0 9.705-4.026 13.73 13.73 0 0 0 4.005-9.714v-14.3a25.63 25.63 0 0 1 9-19.52c17.67-15.11 55.26-53.23 55.26-104-.03-58.92-31.06-103.18-105.39-103.18s-105.36 44.26-105.36 103.19c0 50.79 37.59 88.91 55.25 104a25.66 25.66 0 0 1 9 19.52V297a13.7 13.7 0 0 0 4.009 9.694 13.7 13.7 0 0 0 9.691 4.016z"/><path stroke="#e8e6f2" stroke-linecap="round" stroke-linejoin="round" stroke-width="7" d="m235.211 258.54 19.24-93.76-19.24 26.4-20.21-23.61-20.21 23.61-19.24-26.4 19.24 93.76"/><path fill="#1e3a6e" d="M215 336h-33.24v9.86A28.14 28.14 0 0 0 209.91 374H215z" opacity=".5" style="mix-blend-mode:multiply"/><path fill="#6b8cce" d="M215.001 282.73c0-7.51-9-14.64-14.7-19.52-17.66-15.11-55.25-53.23-55.25-104 0-54 26.07-95.7 87.65-102.28a166 166 0 0 0-17.7-.93c-74.33 0-105.36 44.26-105.36 103.19 0 50.79 37.59 88.91 55.25 104a25.66 25.66 0 0 1 9 19.52V297a13.7 13.7 0 0 0 4.009 9.694 13.7 13.7 0 0 0 9.691 4.016h27.41z" opacity=".5" style="mix-blend-mode:multiply"/><path stroke="#1e3a6e" stroke-linecap="round" stroke-linejoin="round" stroke-width="7" d="M210.63 336h-28.87v9.86A28.14 28.14 0 0 0 209.91 374h10.18a28.143 28.143 0 0 0 28.14-28.14V336zm4.371-25.26h27.42a13.72 13.72 0 0 0 9.705-4.026 13.73 13.73 0 0 0 4.005-9.714v-14.3a25.63 25.63 0 0 1 9-19.52c17.67-15.11 55.26-53.23 55.26-104-.03-58.92-31.06-103.18-105.39-103.18s-105.36 44.26-105.36 103.19c0 50.79 37.59 88.91 55.25 104a25.66 25.66 0 0 1 9 19.52V297a13.7 13.7 0 0 0 4.009 9.694 13.7 13.7 0 0 0 9.691 4.016z"/></svg>