<svg xmlns="http://www.w3.org/2000/svg" width="430" height="430" fill="none" viewBox="0 0 430 430"><path fill="#e8e6f2" d="M166.87 125.516c7.3-9 20.6-10.3 29.5-3 9 7.3 10.3 20.6 3 29.5-7.3 9-20.6 10.3-29.6 3s-10.3-20.5-2.9-29.5m73 185.7c-12.6 15.4-35.3 17.7-50.6 5.1-15.4-12.6-17.7-35.3-5.1-50.7s35.3-17.7 50.7-5.1c15.3 12.7 17.6 35.3 5 50.7m20.9-209.2c9.1-11.1 25.5-12.8 36.6-3.7s12.8 25.5 3.7 36.6-25.5 12.8-36.6 3.7-12.8-25.5-3.7-36.6m64 130.8c-10.8 13.3-30.4 15.2-43.6 4.4-13.3-10.8-15.2-30.4-4.4-43.6s30.4-15.2 43.6-4.4c13.2 10.9 15.2 30.4 4.4 43.6m11.6-157.8c-56.4-46.1-142.5-35.9-201.7 20.5-2.3 23.1-5.9 49.9-10.7 78.2-.5 3.2-1.1 6.4-1.6 9.5 14.5 8.9 30.7 17.1 32.9 32.8 3.2 23.2-53 48.3-53.4 82.1 7.7 6.4 12.5 16.8 13.4 28.6 2.5 2.6 5.4 5.3 8.8 8.1 61.9 50.5 159.5 33.4 218.1-38.4 58.7-71.8 56-170.9-5.8-221.4"/><path fill="#e8e6f2" d="M128.97 254.115c-13.4 13.1-26.9 27.6-27.1 44.1 7.7 6.4 12.5 16.8 13.4 28.6 2.5 2.6 5.4 5.3 8.8 8.1 49.3 40.3 121.3 37.6 178.2-1.5-90.3 54.6-157.6 4.3-174-33.5-10.6-24.7.7-45.8.7-45.8" opacity=".5" style="mix-blend-mode:multiply"/><path fill="#6b8cce" d="M324.77 232.815c-10.8 13.3-30.4 15.2-43.6 4.4-13.3-10.8-15.2-30.4-4.4-43.6s30.4-15.2 43.6-4.4c13.2 10.9 15.2 30.4 4.4 43.6"/><path fill="#1e3a6e" d="M239.87 311.216c-12.6 15.4-35.3 17.7-50.6 5.1-15.4-12.6-17.7-35.3-5.1-50.7s35.3-17.7 50.7-5.1c15.3 12.7 17.6 35.3 5 50.7m61.2-176.301c-9.1 11.1-25.5 12.8-36.6 3.7s-12.8-25.5-3.7-36.6 25.5-12.8 36.6-3.7 12.8 25.5 3.7 36.6"/><path fill="#6b8cce" d="M199.37 152.115c-7.3 9-20.6 10.3-29.6 3s-10.3-20.6-3-29.5c7.3-9 20.6-10.3 29.5-3 9.1 7.3 10.4 20.5 3.1 29.5"/><path fill="#6b8cce" d="M317.27 239.516c-11 6.9-25.6 6.4-36.1-2.2-13.3-10.8-15.2-30.4-4.4-43.6 4.2-5.1 9.6-8.5 15.5-10.2q-4.2 2.55-7.5 6.6c-10.8 13.3-8.9 32.8 4.4 43.6 8.1 6.6 18.7 8.5 28.1 5.8" opacity=".5" style="mix-blend-mode:multiply"/><path fill="#1e3a6e" d="M230.67 319.315c-12.7 7.7-29.3 7-41.4-2.9-15.4-12.6-17.7-35.3-5.1-50.7 4.7-5.7 10.7-9.6 17.2-11.6-3.4 2.1-6.6 4.8-9.2 8-12.6 15.4-10.3 38.1 5.1 50.7 9.6 7.9 22.2 9.9 33.4 6.5m64.7-179.299c-9.3 6.2-21.9 6-31-1.4-11.1-9.1-12.8-25.5-3.7-36.6 3.6-4.5 8.5-7.4 13.6-8.7-2.1 1.4-4 3.1-5.6 5.1-9.1 11.1-7.4 27.5 3.7 36.6 6.8 5.4 15.3 7 23 5" opacity=".5" style="mix-blend-mode:multiply"/><path fill="#6b8cce" d="M195.47 155.816c-7.5 5.5-18.1 5.5-25.7-.7-9-7.3-10.3-20.6-3-29.5 3.1-3.9 7.4-6.3 11.9-7.3-1.4 1-2.7 2.3-3.9 3.7-7.3 9-6 22.2 3 29.6 5.2 4.1 11.7 5.5 17.7 4.2" opacity=".5" style="mix-blend-mode:multiply"/><path fill="#6b8cce" d="M134.67 95.516c-2.3 23.1-5.9 49.9-10.7 78.2-.5 3.2-1.1 6.4-1.6 9.5-4.3 24-8.9 46.4-13.6 66l-32-5.9c2.3-22.6 5.8-48.5 10.5-75.8 14.5-85.7 34.5-153.8 44.7-152.1 6.8 1.2 7.4 33.3 2.7 80.1"/><path fill="#1e3a6e" d="M108.77 249.216c-4.2 17.6-8.4 32.9-12.5 45.2-2.1-1-4.3-1.8-6.6-2.3-5.4-1.2-10.9-.8-16.2 1 .1-13.4 1.2-30.4 3.2-49.8z"/><path fill="#e8e6f2" d="M114.17 342.316c-5.2 23.6-25.4 35.4-30.1 72.3-26.2-4.9-42.6-55.6-37.8-87.3 2.6-17.1 14-29.8 27.1-34.3 5.3-1.8 10.8-2.2 16.2-1 2.3.5 4.5 1.3 6.6 2.3 2 1 3.9 2.3 5.6 3.7 7.7 6.4 12.5 16.8 13.4 28.6.5 5.1.2 10.4-1 15.7"/><path fill="#6b8cce" d="M134.77 18.516c-11 26-25 81.2-35.9 145.9-5 29.1-8.7 56.7-11.2 80.7v.2l-11-2c2.3-22.6 5.8-48.5 10.5-75.8 14.6-85.7 34.6-153.8 44.8-152.1 1.1.2 2 1.3 2.8 3.1" opacity=".5" style="mix-blend-mode:multiply"/><path fill="#1e3a6e" d="M87.67 245.316c-1.8 17.5-2.9 33.1-3.3 46.1-3.7-.1-7.4.5-10.9 1.7.1-13.4 1.2-30.4 3.2-49.8z" opacity=".5" style="mix-blend-mode:multiply"/><path fill="#e8e6f2" d="M57.97 329.716c-4.1 27.1 6.4 67.4 25.2 84.8-25.7-5.9-41.6-55.8-36.8-87.1 2.6-17.1 14-29.8 27.1-34.3 5.3-1.8 10.8-2.2 16.2-1 .2 0 .5.1.7.2-1.2.3-2.3.6-3.5 1-14 4.7-26.1 18.3-28.9 36.4" opacity=".5" style="mix-blend-mode:multiply"/><path stroke="#1e3a6e" stroke-linecap="round" stroke-linejoin="round" stroke-miterlimit="10" stroke-width="7" d="M122.27 183.215c14.5 8.9 30.8 17.1 32.9 32.8 3.2 23.2-53 48.3-53.4 82.1"/><path stroke="#1e3a6e" stroke-linecap="round" stroke-linejoin="round" stroke-miterlimit="10" stroke-width="7" d="M134.669 95.516c59.2-56.4 145.3-66.6 201.7-20.5 61.9 50.5 64.5 149.7 5.9 221.4-58.6 71.8-156.3 88.9-218.1 38.4-3.3-2.7-6.3-5.4-8.8-8.1"/><path stroke="#1e3a6e" stroke-linecap="round" stroke-linejoin="round" stroke-miterlimit="10" stroke-width="7" d="M300.77 244.215c17.12 0 31-13.879 31-31s-13.88-31-31-31c-17.121 0-31 13.879-31 31s13.879 31 31 31m-88.8 80.301c19.882 0 36-16.118 36-36s-16.118-36-36-36-36 16.117-36 36 16.117 36 36 36m68.899-180.1c14.36 0 26-11.641 26-26s-11.64-26-26-26-26 11.641-26 26 11.641 26 26 26m-97.8 15.4c11.598 0 21-9.402 21-21s-9.402-21-21-21-21 9.402-21 21 9.402 21 21 21M73.47 293.116c.3-29.1 5.1-74.7 13.7-125.6 14.6-85.7 34.6-153.8 44.8-152.1s6.6 72.6-7.9 158.3c-4.7 27.6-9.9 53.3-15.3 75.5-4.2 17.6-8.5 32.9-12.5 45.2"/><path stroke="#1e3a6e" stroke-linecap="round" stroke-linejoin="round" stroke-miterlimit="10" stroke-width="7" d="M114.17 342.316c-5.2 23.6-25.4 35.4-30.1 72.3-26.2-4.9-42.6-55.6-37.8-87.3 3.7-23.9 24.6-39.4 43.4-35.2 18.7 4.1 29.7 26.6 24.5 50.2m-37.3-99 31.9 5.9"/></svg>