<svg xmlns="http://www.w3.org/2000/svg" width="430" height="430" fill="none" viewBox="0 0 430 430"><path fill="#6b8cce" d="M348.75 68.5H81.99v293.56h266.76z"/><path fill="#e8e6f2" d="M81.99 228.69V68.5h133.43v160.12H92.85z"/><path fill="#6b8cce" d="M92.85 228.62v34.23h122.57v10.25H92.85v34.23h122.57v10.25H92.85v34.23h122.57v10.25H81.99V228.62z" opacity=".5" style="mix-blend-mode:multiply"/><path fill="#1e3a6e" d="M348.75 68.5H215.42v293.55h133.33z"/><path fill="#1e3a6e" d="M236.42 68.5h-20.77v293.55h20.77z" opacity=".5" style="mix-blend-mode:multiply"/><path fill="#e8e6f2" d="M92.77 68.5v160.12l-10.78.07V68.5z" opacity=".5" style="mix-blend-mode:multiply"/><path stroke="#1e3a6e" stroke-linecap="round" stroke-linejoin="round" stroke-width="7" d="M214.92 95.19H81.51M348.29 68.5H81.52v293.55h266.77zm-133.33 0v293.55m-.03-133.43H81.5m133.41 88.95H81.52m133.41-44.47H81.5m63.47-22.24h6.5m-6.5 44.48h6.5m-6.5 44.47h6.5m-3.25-111.19V68.5m100.4 133.69v50.24"/></svg>