<svg xmlns="http://www.w3.org/2000/svg" width="430" height="430" fill="none" viewBox="0 0 430 430"><path fill="#6b8cce" d="M235.45 81.1h-40.9c-6.6 0-12-5.4-12-12V62c0-6.6 5.4-12 12-12h40.9c6.6 0 12 5.4 12 12v7.1c0 6.6-5.4 12-12 12"/><path fill="#e8e6f2" d="M324.95 380.995V222.6h-219.9v158.395z"/><path fill="#e8e6f2" d="M337.15 189.4v33.2h-56v-33h-107.2v33h-81.1v-33.2z"/><path fill="#e8e6f2" d="M337.15 189.4v33.2h-56.1l.1-33h-107.2v33h-81.1v-33.2z" opacity=".5" style="mix-blend-mode:multiply"/><path fill="#6b8cce" d="M281.15 189.6v128.6c0 9.8-8 17.9-17.9 17.9-9.8 0-17.9-8-17.9-17.9v-68.5c0-4.9-2.5-11-7.8-14.7-2.4-1.7-6.3-3.1-10.1-3.1s-7.2 1.2-10.1 3.1c-4.4 3-7.4 7.9-7.8 13.6-.6 9.3-8.4 16.9-17.8 16.9-9.8 0-17.9-8-17.9-17.9v-58z"/><path fill="#6b8cce" d="M281.087 317.042a21.57 21.57 0 0 1-22.791 3.832 21.56 21.56 0 0 1-12.959-16.659v14.861a17.9 17.9 0 0 0 5.083 12.916 17.885 17.885 0 0 0 25.584 0 17.9 17.9 0 0 0 5.083-12.916zm-107.18-85.636a20.846 20.846 0 0 0 20.787 20.775 21.13 21.13 0 0 0 16.032-7.765 18 18 0 0 0-1.089 5.03 18.18 18.18 0 0 1-17.85 17 17.93 17.93 0 0 1-17.88-17.87zM246.95 72.4c-1.5 5-6.1 8.7-11.5 8.7h-40.9c-6.6 0-12-5.4-12-12V62c0-4.4 2.4-8.3 6-10.4-.3 1.1-.5 2.2-.5 3.4v7.1c0 6.6 5.4 12 12 12h40.9c2.2 0 4.2-.6 6-1.7" opacity=".5" style="mix-blend-mode:multiply"/><path fill="#e8e6f2" d="M323.749 381h-218.7V232.6c0 102.9 50.3 148.4 218.7 148.4" opacity=".5" style="mix-blend-mode:multiply"/><path stroke="#1e3a6e" stroke-linecap="round" stroke-linejoin="round" stroke-miterlimit="10" stroke-width="7" d="M92.85 190.4v-.4c0-59.9 21.3-110 89.7-121.6m64.899 0c68.3 11.6 89.7 61.7 89.7 121.6v.4"/><path stroke="#1e3a6e" stroke-linecap="round" stroke-linejoin="round" stroke-miterlimit="10" stroke-width="7" d="M235.449 82h-40.9c-6.6 0-12-5.4-12-12v-7.1c0-6.6 5.4-12 12-12h40.9c6.6 0 12 5.4 12 12V70c0 6.6-5.4 12-12 12m89.5 141.6V381h-219.9V223.6m176.101-.099h56v-33.2H92.85v33.2h81.1"/><path stroke="#1e3a6e" stroke-linecap="round" stroke-linejoin="round" stroke-miterlimit="10" stroke-width="7" d="M209.65 249.4c-.6 9.3-8.4 17-17.9 17-9.8 0-17.9-8-17.9-17.9v-58.1h107.2V319c0 9.8-8 17.9-17.9 17.9-9.8 0-17.9-8-17.9-17.9v-68.4c0-4.9-2.5-11-7.8-14.7-2.4-1.7-6.4-3.1-10.1-3.1s-7.2 1.2-10.1 3.1c-4.2 3-7.2 7.9-7.6 13.5"/></svg>