<svg xmlns="http://www.w3.org/2000/svg" width="430" height="430" fill="none" viewBox="0 0 430 430"><path fill="#e8e6f2" d="M30 80h370v270H30z"/><path fill="#e8e6f2" d="M45 80H30v270h15z" opacity=".5" style="mix-blend-mode:multiply"/><path fill="#6b8cce" d="M320 250v70h50v-70z"/><path fill="#6b8cce" d="M320 320v-70h20v70z" opacity=".5" style="mix-blend-mode:multiply"/><path fill="#1e3a6e" d="M60 110h125v105H60z"/><path fill="#1e3a6e" d="M80 110H60v105h20z" opacity=".5" style="mix-blend-mode:multiply"/><path fill="#6b8cce" d="M245 110v70h50v-70z"/><path fill="#6b8cce" d="M245 180v-70h20v70z" opacity=".5" style="mix-blend-mode:multiply"/><path stroke="#1e3a6e" stroke-linejoin="round" stroke-width="7" d="M320 250v70h50v-70z"/><path stroke="#1e3a6e" stroke-linejoin="round" stroke-width="7" d="M30 80h370v270H30z"/><path stroke="#1e3a6e" stroke-linejoin="round" stroke-width="7" d="M60 110h125v105H60zm185 0v70h50v-70z"/><path stroke="#1e3a6e" stroke-linecap="round" stroke-linejoin="round" stroke-width="7" d="M60 320h50m-50-35h50m-50-35h50m210-70h50m-50-35h50m-50-35h50m-50 105h50m-125 70h50m-50 35h50m-50-70h50m-50-35h50M135 320h50m-50-35h50m-50-35h50"/><path stroke="#1e3a6e" stroke-linejoin="round" stroke-width="7" d="M215 80v270"/></svg>