<svg xmlns="http://www.w3.org/2000/svg" width="430" height="430" fill="none" viewBox="0 0 430 430"><path fill="#6b8cce" d="M198.57 79.35H65.82v132.8h45.31L81.9 352.65h67.46l49-142.86c.123-.368.187-.752.19-1.14z"/><path fill="#6b8cce" d="m141.13 187.15-34.44 165.5H81.9l29.23-140.5H65.82V79.35h26v104.3a3.5 3.5 0 0 0 3.5 3.5z" opacity=".5" style="mix-blend-mode:multiply"/><path fill="#6b8cce" d="M352.7 79.35H220v132.8h45.3L236 352.64h67.46l49-142.85c.128-.366.192-.752.19-1.14z"/><path fill="#6b8cce" d="m295.27 187.15-34.44 165.5H236l29.24-140.49H220V79.35h26v104.3a3.5 3.5 0 0 0 3.5 3.5z" opacity=".5" style="mix-blend-mode:multiply"/><path stroke="#1e3a6e" stroke-linecap="round" stroke-linejoin="round" stroke-width="7" d="M198.57 79.35H65.82v132.8h45.31L81.9 352.65h67.46l49-142.86c.123-.368.187-.752.19-1.14zm154.131 0H220v132.8h45.3L236 352.64h67.46l49-142.85c.128-.366.192-.752.19-1.14z"/></svg>