<svg xmlns="http://www.w3.org/2000/svg" width="430" height="430" fill="none" viewBox="0 0 430 430"><path fill="#6b8cce" d="m334.47 82.81-2 38.89-1.15 22.8-12.1 237.13a10 10 0 0 1-3.104 6.743 10 10 0 0 1-6.896 2.747H120.76a10 10 0 0 1-10-9.49L98.68 144.5l-1.17-22.8-2-38.89a2 2 0 0 1 2-2h234.96a2 2 0 0 1 2 2"/><path stroke="#1e3a6e" stroke-linecap="round" stroke-linejoin="round" stroke-width="7" d="M156.46 172.689v155.91m58.67-155.91v155.91m58.41-155.91v155.91M259.16 79.7c0-24.26-22.56-41.85-43.75-41.85a45 45 0 0 0-44.57 38.74v5.84h88.32z"/><path stroke="#1e3a6e" stroke-linecap="round" stroke-linejoin="round" stroke-width="7" d="m334.47 82.81-2 38.89-1.15 22.8-12.1 237.13a10 10 0 0 1-3.104 6.743 10 10 0 0 1-6.896 2.747H120.76a10 10 0 0 1-10-9.49L98.68 144.5l-1.17-22.8-2-38.89a2 2 0 0 1 2-2h234.96a2 2 0 0 1 2 2"/><path fill="#6b8cce" d="M342.71 75.8H87.3c-5.523 0-10 4.477-10 10v25.9c0 5.523 4.477 10 10 10h255.41c5.523 0 10-4.477 10-10V85.8c0-5.523-4.477-10-10-10"/><path fill="#6b8cce" d="m332.49 121.699-1.17 22.83H98.68l-1.17-22.83z" opacity=".6" style="mix-blend-mode:multiply"/><path stroke="#1e3a6e" stroke-linecap="round" stroke-linejoin="round" stroke-width="7" d="M342.71 75.8H87.3c-5.523 0-10 4.477-10 10v25.9c0 5.523 4.477 10 10 10h255.41c5.523 0 10-4.477 10-10V85.8c0-5.523-4.477-10-10-10"/></svg>