<svg xmlns="http://www.w3.org/2000/svg" width="430" height="430" fill="none" viewBox="0 0 430 430"><path fill="#1e3a6e" d="M375.15 294.702v62.9c0 9.6-7.8 17.5-17.4 17.5h-46.2v-97.8h46.2c9.6-.1 17.4 7.8 17.4 17.4"/><path fill="#08A88A" d="M183.25 316v59h-48c9.6 0 17.5-7.8 17.5-17.5v-11.1l9.7-9.7z"/><path fill="#1e3a6e" d="M311.55 277.201h-64.1v97.8h64.1z"/><path fill="#08A88A" d="M183.25 316v59h-48c9.6 0 17.5-7.8 17.5-17.5v-11.1l9.7-9.7z" opacity=".5" style="mix-blend-mode:multiply"/><path fill="#1e3a6e" d="M311.55 277.201h-64.1v97.8h64.1z" opacity=".5" style="mix-blend-mode:multiply"/><path fill="#08A88A" d="M247.45 277.201v97.8h-64.2v-59l24.6-24.5 14.2-14.3z"/><path fill="#6b8cce" d="m331.15 168.1-32.6 32.7-69.1-69.1 32.6-32.6c6.8-6.8 17.9-6.8 24.7 0l44.5 44.5c6.8 6.6 6.8 17.7-.1 24.5"/><path fill="#e8e6f2" d="M152.75 263.4v94.2c0 9.6-7.8 17.5-17.5 17.5h-62.9c-.6 0-1.2 0-1.8-.1-.3 0-.6-.1-.9-.1-.6-.1-1.1-.2-1.7-.3s-1.1-.3-1.6-.5c-.4-.2-.9-.3-1.3-.5-.2-.1-.3-.1-.5-.2-.1-.1-.3-.1-.4-.2s-.3-.1-.4-.2-.2-.1-.3-.2-.3-.2-.4-.3c-.1 0-.1-.1-.2-.1-.2-.2-.5-.3-.7-.5-.3-.2-.5-.4-.8-.6-.2-.2-.5-.4-.7-.6 0 0-.1 0-.1-.1l-.6-.6c-.3-.3-.6-.6-.9-1-.1-.1-.2-.3-.3-.4s-.2-.3-.3-.4-.2-.3-.3-.4c-.3-.3-.5-.7-.7-1-.1-.2-.2-.3-.3-.5-.1-.1-.2-.3-.2-.4-.1-.1-.2-.3-.2-.4-.1-.1-.1-.3-.2-.4-.1-.3-.3-.6-.4-1-.1-.3-.2-.5-.3-.8 0-.1-.1-.2-.1-.3-.1-.2-.1-.3-.2-.5s-.1-.4-.1-.5c-.1-.6-.3-1.1-.4-1.7 0-.3-.1-.6-.1-.9-.1-.6-.1-1.2-.1-1.8v-94.2zm9.7 73.402-9.7 9.7v-19.4z"/><path fill="#e8e6f2" d="m162.45 336.802-9.7 9.7v-19.4z" opacity=".5" style="mix-blend-mode:multiply"/><path fill="#6b8cce" d="m207.85 291.5-24.6 24.5-20.8 20.8-9.7-9.7v-90.7l40.9 40.9z"/><path fill="#6b8cce" d="m207.85 291.5-24.6 24.5-20.8 20.8-9.7-9.7v-90.7l40.9 40.9z" opacity=".5" style="mix-blend-mode:multiply"/><path fill="#e8e6f2" d="M152.75 72.301v191.2h-97.8v-191.2c0-9.6 7.8-17.4 17.4-17.4h62.9c9.7-.1 17.5 7.7 17.5 17.4"/><path stroke="#1e3a6e" stroke-linecap="round" stroke-linejoin="round" stroke-miterlimit="10" stroke-width="7" d="M193.55 277.301h164.2c9.6 0 17.4 7.8 17.4 17.5v62.9c0 9.6-7.8 17.5-17.4 17.5H72.45c-.6 0-1.2 0-1.8-.1-.3 0-.6-.1-.9-.1-.6-.1-1.1-.2-1.7-.4s-1.1-.3-1.6-.5c-.4-.2-.9-.3-1.3-.5-.1-.1-.3-.1-.5-.2-.1-.1-.3-.1-.4-.2s-.3-.1-.4-.2c-.1 0-.2-.1-.3-.1-.2-.1-.3-.2-.5-.3-.1 0-.1-.1-.2-.1-.2-.2-.5-.3-.7-.5-.3-.2-.5-.4-.8-.6-.2-.2-.5-.4-.7-.6 0 0-.1 0-.1-.1l-.6-.6c-.3-.3-.6-.6-.8-.9s-.5-.6-.7-.8c-.1-.2-.2-.3-.3-.4-.2-.3-.5-.7-.7-1-.1-.2-.2-.3-.3-.5-.2-.3-.4-.6-.5-1-.2-.4-.4-.8-.5-1.2-.1-.3-.2-.5-.3-.8 0-.1-.1-.2-.1-.3-.1-.2-.1-.3-.2-.5s-.1-.3-.1-.5c-.1-.6-.3-1.1-.4-1.7-.1-.9-.2-1.8-.2-2.7v-62.9m256.7 80.1v-97.8m-64.101 97.8v-97.8M183.25 375v-59"/><path stroke="#08A88A" stroke-linecap="round" stroke-linejoin="round" stroke-miterlimit="10" stroke-width="7" d="M152.75 263.4h-97.8"/><path stroke="#1e3a6e" stroke-linecap="round" stroke-linejoin="round" stroke-miterlimit="10" stroke-width="7" d="M152.75 263.4v94.2c0 9.6-7.8 17.5-17.5 17.5h-62.8c-9.6 0-17.5-7.8-17.5-17.5v-94.2zm-63.7-31.5v-72m29.5 72v-39"/><path fill="#6b8cce" d="m253.15 246.1-31.1 31.2-14.2 14.2-14.2-14.2-40.9-40.9v-28.2l31.3-31.2z"/><path fill="#6b8cce" d="m298.55 200.702-45.4 45.4-69.1-69.1v-.1l45.3-45.3z"/><path fill="#6b8cce" d="m298.55 200.702-45.4 45.4-69.1-69.1v-.1l45.3-45.3z" opacity=".5" style="mix-blend-mode:multiply"/><path stroke="#1e3a6e" stroke-linecap="round" stroke-linejoin="round" stroke-miterlimit="10" stroke-width="7" d="m152.75 346.501 9.7-9.7 20.8-20.8 24.6-24.5 14.2-14.2 31.2-31.2 45.4-45.4 32.7-32.7c6.8-6.8 6.8-17.9 0-24.7l-44.5-44.5c-6.8-6.8-17.9-6.8-24.7 0l-32.6 32.6-45.4 45.4-31.3 31.3m145.7-7.399-69.2-69.1m23.8 114.498-69.1-69.2"/><path stroke="#1e3a6e" stroke-linecap="round" stroke-linejoin="round" stroke-miterlimit="10" stroke-width="7" d="m152.75 236.4 40.8 40.9 14.3 14.2m-45.4 45.302-9.7-9.7m0-63.701v-191.2c0-9.6-7.8-17.4-17.5-17.4h-62.8c-9.6 0-17.5 7.8-17.5 17.4v191.2z"/></svg>