<svg xmlns="http://www.w3.org/2000/svg" width="430" height="430" fill="none" viewBox="0 0 430 430"><path fill="#6b8cce" d="m306.873 238.124 50.07 86.74a3.001 3.001 0 0 1-3.35 4.4l-54.37-14.16-16.83 61.14-63-109.12c19.32-6.4 35.47-22.56 54.8-29 9.83-3.26 22.84 3.25 32.68 0"/><path fill="#6b8cce" d="M242.633 258.584c13.71-4.54 25.84-14 38.63-21.39a21.1 21.1 0 0 0-7.07.93c-19.33 6.39-35.48 22.55-54.8 29l63 109.12 9.09-33z" opacity=".5" style="mix-blend-mode:multiply"/><path fill="#6b8cce" d="m123.112 238.114-50.09 86.75a2.998 2.998 0 0 0 1.634 4.31 3 3 0 0 0 1.726.07l51.51-13.4a3 3 0 0 1 3.65 2.11l14.13 51.29a3 3 0 0 0 5.49.71l59.42-102.9c-18.67-6.18-35.09-23.8-53.75-30-10.49-3.43-23.23 4.53-33.72 1.06"/><path fill="#6b8cce" d="M148.242 243.994c6.6 2.18 14.09-.16 21.35-1.33a69.4 69.4 0 0 0-12.76-5.91c-10.49-3.51-23.23 4.49-33.72 1.02l-50.09 86.75a2.998 2.998 0 0 0 1.624 4.335c.56.192 1.163.215 1.736.065l26.86-7z" opacity=".5" style="mix-blend-mode:multiply"/><path fill="#e8e6f2" d="m97.733 165.054 22.89-27.23a3.32 3.32 0 0 0 .77-2.36l-2.52-35.49a3.31 3.31 0 0 1 2.5-3.44l34.54-8.56a3.25 3.25 0 0 0 2-1.46l18.8-30.21a3.296 3.296 0 0 1 4-1.32l33 13.41a3.32 3.32 0 0 0 2.48 0l33-13.41a3.3 3.3 0 0 1 4 1.32l18.8 30.21a3.3 3.3 0 0 0 2 1.47l34.54 8.55a3.3 3.3 0 0 1 2.5 3.44l-2.51 35.49a3.27 3.27 0 0 0 .76 2.36l22.9 27.23a3.315 3.315 0 0 1 0 4.25l-22.9 27.24a3.24 3.24 0 0 0-.76 2.35l2.51 35.5a3.305 3.305 0 0 1-2.5 3.44l-34.54 8.55a3.28 3.28 0 0 0-2 1.46l-18.8 30.22a3.294 3.294 0 0 1-4 1.31l-33-13.4a3.22 3.22 0 0 0-2.48 0l-33 13.4a3.295 3.295 0 0 1-4-1.31l-18.79-30.22a3.3 3.3 0 0 0-2-1.46l-34.54-8.56a3.29 3.29 0 0 1-2.5-3.43l2.52-35.5a3.3 3.3 0 0 0-.77-2.35l-22.9-27.24a3.28 3.28 0 0 1 0-4.25"/><path fill="#e8e6f2" d="M174.763 248.574a3.25 3.25 0 0 0-2-1.46l-34.55-8.56a3.296 3.296 0 0 1-2.5-3.44l2.52-35.49a3.34 3.34 0 0 0-.77-2.36l-22.89-27.23a3.28 3.28 0 0 1 0-4.25l22.89-27.24a3.3 3.3 0 0 0 .77-2.3l-2.52-35.55a3.286 3.286 0 0 1 2.5-3.45l34.54-8.56a3.3 3.3 0 0 0 2-1.46l17.24-27.67-11.23-4.57a3.3 3.3 0 0 0-4 1.32l-18.84 30.21a3.25 3.25 0 0 1-2 1.46l-34.55 8.56a3.31 3.31 0 0 0-2.5 3.44l2.52 35.49a3.32 3.32 0 0 1-.77 2.36l-22.89 27.23a3.28 3.28 0 0 0 0 4.25l22.89 27.24c.551.654.827 1.496.77 2.35l-2.52 35.5a3.29 3.29 0 0 0 2.5 3.43l34.54 8.56a3.3 3.3 0 0 1 2 1.46l18.8 30.22a3.286 3.286 0 0 0 4 1.31l10.51-4.27z" opacity=".5" style="mix-blend-mode:multiply"/><path fill="#6b8cce" d="M214.981 235.864c37.566 0 68.02-30.454 68.02-68.02 0-37.567-30.454-68.02-68.02-68.02s-68.02 30.453-68.02 68.02 30.454 68.02 68.02 68.02"/><path stroke="#1e3a6e" stroke-linecap="round" stroke-linejoin="round" stroke-width="7" d="m201.912 157.664 17.42-17.41v55.17"/><path stroke="#1e3a6e" stroke-linecap="round" stroke-linejoin="round" stroke-width="12" d="M168.711 168.494h.32m91.91-1.31h.31"/><path stroke="#1e3a6e" stroke-linecap="round" stroke-linejoin="round" stroke-width="7" d="m97.733 165.054 22.89-27.23a3.32 3.32 0 0 0 .77-2.36l-2.52-35.49a3.31 3.31 0 0 1 2.5-3.44l34.54-8.56a3.25 3.25 0 0 0 2-1.46l18.8-30.21a3.296 3.296 0 0 1 4-1.32l33 13.41a3.32 3.32 0 0 0 2.48 0l33-13.41a3.3 3.3 0 0 1 4 1.32l18.8 30.21a3.3 3.3 0 0 0 2 1.47l34.54 8.55a3.3 3.3 0 0 1 2.5 3.44l-2.51 35.49a3.27 3.27 0 0 0 .76 2.36l22.9 27.23a3.315 3.315 0 0 1 0 4.25l-22.9 27.24a3.24 3.24 0 0 0-.76 2.35l2.51 35.5a3.305 3.305 0 0 1-2.5 3.44l-34.54 8.55a3.28 3.28 0 0 0-2 1.46l-18.8 30.22a3.294 3.294 0 0 1-4 1.31l-33-13.4a3.22 3.22 0 0 0-2.48 0l-33 13.4a3.295 3.295 0 0 1-4-1.31l-18.79-30.22a3.3 3.3 0 0 0-2-1.46l-34.54-8.56a3.29 3.29 0 0 1-2.5-3.43l2.52-35.5a3.3 3.3 0 0 0-.77-2.35l-22.9-27.24a3.28 3.28 0 0 1 0-4.25"/><path stroke="#1e3a6e" stroke-linecap="round" stroke-linejoin="round" stroke-width="7" d="m219.842 267.444 59 102.13a3 3 0 0 0 4.563.768c.447-.388.769-.898.927-1.468l14.14-51.33a3 3 0 0 1 3.65-2.1l51.51 13.41a2.999 2.999 0 0 0 3.35-4.4l-49.87-86.27-.27-.47m-96.73 29.72-59 102.14a3 3 0 0 1-2.978 1.476 2.99 2.99 0 0 1-2.512-2.176l-14.08-51.33a3 3 0 0 0-3.65-2.1l-51.51 13.41a3 3 0 0 1-3.145-1.081 3 3 0 0 1-.215-3.319l49.81-86.27.28-.48m91.869-2.25c37.566 0 68.02-30.454 68.02-68.02 0-37.567-30.454-68.02-68.02-68.02s-68.02 30.453-68.02 68.02 30.454 68.02 68.02 68.02"/></svg>