<svg xmlns="http://www.w3.org/2000/svg" width="430" height="430" fill="none" viewBox="0 0 430 430"><path fill="#e8e6f2" d="M344.78 132.25a30.34 30.34 0 0 1 30.34 30.34v149.28a30.34 30.34 0 0 1-30.34 30.34H85.22a30.343 30.343 0 0 1-30.34-30.34V162.59a30.34 30.34 0 0 1 30.34-30.34z"/><path fill="#e8e6f2" d="M85.22 342.21h45a30.34 30.34 0 0 1-30.34-30.34V162.59a30.34 30.34 0 0 1 30.34-30.34h-45a30.343 30.343 0 0 0-30.34 30.34v149.28a30.34 30.34 0 0 0 30.34 30.34" opacity=".5" style="mix-blend-mode:multiply"/><path stroke="#1e3a6e" stroke-linecap="round" stroke-linejoin="round" stroke-width="7" d="M235 132.25h109.78a30.34 30.34 0 0 1 30.34 30.34v149.28a30.34 30.34 0 0 1-30.34 30.34H85.22a30.343 30.343 0 0 1-30.34-30.34V162.59a30.34 30.34 0 0 1 30.34-30.34H195"/><path fill="#6b8cce" d="M235 87.79h-40v80.06h40z"/><path fill="#6b8cce" d="M215 88h-20v80h20z" opacity=".7" style="mix-blend-mode:multiply"/><path stroke="#1e3a6e" stroke-linecap="round" stroke-linejoin="round" stroke-width="7" d="M235 87.79h-40v80.06h40z"/><path fill="#6b8cce" d="M140 235c15.188 0 27.5-12.312 27.5-27.5S155.188 180 140 180s-27.5 12.312-27.5 27.5S124.812 235 140 235"/><path stroke="#1e3a6e" stroke-linecap="round" stroke-linejoin="round" stroke-miterlimit="10" stroke-width="7" d="M140 235c15.188 0 27.5-12.312 27.5-27.5S155.188 180 140 180s-27.5 12.312-27.5 27.5S124.812 235 140 235"/><path fill="#6b8cce" d="M155.833 229.987q-.414.013-.833.013c-15.188 0-27.5-12.313-27.5-27.5 0-9.293 4.609-17.51 11.667-22.488-14.803.441-26.667 12.579-26.667 27.488 0 15.188 12.312 27.5 27.5 27.5a27.37 27.37 0 0 0 15.833-5.013" opacity=".5" style="mix-blend-mode:multiply"/><path fill="#6b8cce" d="M90 285c0-19.33 15.67-35 35-35h30c19.33 0 35 15.67 35 35v10H90z"/><path fill="#6b8cce" d="M125 250c-19.33 0-35 15.67-35 35v10h25v-10c0-19.33 15.67-35 35-35z" opacity=".5" style="mix-blend-mode:multiply"/><path stroke="#1e3a6e" stroke-linejoin="round" stroke-width="7" d="M90 285c0-19.33 15.67-35 35-35h30c19.33 0 35 15.67 35 35v10H90z"/><path stroke="#1e3a6e" stroke-linecap="round" stroke-linejoin="round" stroke-width="7" d="M225 295h110m-110-40h110m-110-40h55m25 0h30"/></svg>