<svg xmlns="http://www.w3.org/2000/svg" width="430" height="430" fill="none" viewBox="0 0 430 430"><path fill="#6b8cce" d="M348.45 57.1v316.8c0 1.7-1.3 3-3 3H84.55c-1.7 0-3-1.3-3-3V57.1c0-1.7 1.3-3 3-3h260.9c1.6 0 3 1.3 3 3"/><path fill="#6b8cce" d="M105.75 373.9V57.1c0-1.7 1-3 2.3-3h-24.2c-1.2 0-2.3 1.3-2.3 3v316.8c0 1.7 1 3 2.3 3h24.2c-1.3 0-2.3-1.3-2.3-3" opacity=".5" style="mix-blend-mode:multiply"/><path fill="#e8e6f2" d="M297.65 213.7c3.8 10.9 5.4 22 5 32.8-1.3 35.4-23.9 68.1-59.4 80.5-46.3 16.3-97.1-8.1-113.4-54.4s8.1-97.1 54.4-113.4c35.5-12.5 73.5-1.1 96.7 25.7 7.2 8.2 12.9 17.9 16.7 28.8"/><path fill="#e8e6f2" d="M297.65 213.7c3.8 10.9 5.4 22 5 32.8-1.3 35.4-23.9 68.1-59.4 80.5-46.3 16.3-97.1-8.1-113.4-54.4s8.1-97.1 54.4-113.4c35.5-12.5 73.5-1.1 96.7 25.7 7.2 8.2 12.9 17.9 16.7 28.8" opacity=".5" style="mix-blend-mode:multiply"/><path fill="#e8e6f2" d="M154.15 236.5c-.2 0-.4 0-.6-.1-1.9-.3-3.2-2.1-2.9-4 3.2-18.5 14.2-34.6 30.2-44.2 1.7-1 3.8-.5 4.8 1.2s.5 3.8-1.2 4.8c-14.3 8.5-24.1 22.9-26.9 39.4-.3 1.7-1.8 2.9-3.4 2.9m51.1-49.8c-1.7 0-3.2-1.3-3.5-3-.3-1.9 1.1-3.7 3-4 1-.1 2-.3 3-.4 1.9-.2 3.6 1.2 3.8 3.1s-1.2 3.6-3.1 3.8c-.9.1-1.8.2-2.6.3-.3.2-.4.2-.6.2m97.5 56.4c0 11.5-2.2 22.5-6.2 32.6-15.4-2.9-27-16.4-27-32.6s11.6-29.7 27-32.6c4 10.1 6.2 21.1 6.2 32.6"/><path stroke="#1e3a6e" stroke-linecap="round" stroke-linejoin="round" stroke-miterlimit="10" stroke-width="7" d="M348.45 54.1H81.55v322.8h266.9zm-263.9 55.3h263.9"/><path stroke="#1e3a6e" stroke-linecap="round" stroke-linejoin="round" stroke-miterlimit="10" stroke-width="7" d="M302.75 243.1c0 11.5-2.2 22.5-6.2 32.6-15.4-2.9-27-16.4-27-32.6s11.6-29.7 27-32.6c4 10.1 6.2 21.1 6.2 32.6"/><path stroke="#1e3a6e" stroke-linecap="round" stroke-linejoin="round" stroke-miterlimit="10" stroke-width="7" d="M297.65 213.7c3.8 10.9 5.4 22 5 32.8-1.3 35.4-23.9 68.1-59.4 80.5-46.3 16.3-97.1-8.1-113.4-54.4s8.1-97.1 54.4-113.4c35.5-12.5 73.5-1.1 96.7 25.7 7.2 8.2 12.9 17.9 16.7 28.8M111.94 83.24h23.64m161.44 0h23.64"/><path stroke="#1e3a6e" stroke-linecap="round" stroke-linejoin="round" stroke-width="10" d="M157.93 83.24h.02m22.6 0h.02m22.61 0h.02"/></svg>