<svg xmlns="http://www.w3.org/2000/svg" width="430" height="430" fill="none" viewBox="0 0 430 430"><path fill="#e8e6f2" d="M375 189.251 185.594 380 50 244.406 240.749 55H375z"/><path fill="#e8e6f2" d="M178.498 327.904c3.915 3.915 10.266 3.904 14.167-.025L375 144.251v45L185.594 380 50 244.406l22.58-22.42z" opacity=".5" style="mix-blend-mode:multiply"/><path stroke="#6b8cce" stroke-linecap="round" stroke-linejoin="round" stroke-width="18" d="M327.453 102.547h.021"/><path stroke="#1e3a6e" stroke-linecap="round" stroke-linejoin="round" stroke-width="7" d="m230.6 227.7-40.2-16.2 15.4 41.1m63.7-120.2-18.8 18.8 28.2 28.2 18.8-18.8m-21.5-6.7-11.5 11.5m-46.099 17.7 28.3 28.3 18.1-18.1M223.2 224.7 203 244.9m-39.185-6.76-16.158 16.157c-3.35 3.351-3.272 8.862.176 12.309l1.56 1.561c3.448 3.447 8.958 3.526 12.309.175l10.364-10.364c3.351-3.351 8.862-3.272 12.309.175l1.639 1.639c3.447 3.447 3.525 8.958.175 12.308l-16.156 16.156"/><path stroke="#1e3a6e" stroke-linecap="round" stroke-linejoin="round" stroke-width="7" d="M375 189.251 185.594 380 50 244.406 240.749 55H375z"/></svg>