<svg xmlns="http://www.w3.org/2000/svg" width="430" height="430" fill="none" viewBox="0 0 430 430"><path fill="#6b8cce" d="M381.049 215a166.05 166.05 0 0 1-102.47 153.446A166.052 166.052 0 0 1 61.584 151.517 166.05 166.05 0 0 1 215 49a166 166 0 0 1 166.05 166"/><path fill="#6b8cce" d="M214.999 381.05A166.054 166.054 0 0 1 51.83 215.025 166.05 166.05 0 0 1 215 49c-34.47 0-62.41 74.34-62.41 166.05s27.94 166 62.41 166" opacity=".5" style="mix-blend-mode:multiply"/><path stroke="#1e3a6e" stroke-linecap="round" stroke-linejoin="round" stroke-width="7" d="M214.998 381.05c-56.55 0-102.4-74.35-102.4-166S158.448 49 214.998 49M215 381.05c.28-29.06.55-74.35.55-166s-.27-113.75-.55-166"/><path stroke="#1e3a6e" stroke-linecap="round" stroke-linejoin="round" stroke-width="7" d="M215 381.05c58.39 0 105.72-74.35 105.72-166S273.39 49 215 49M49 215h332.1"/><path stroke="#1e3a6e" stroke-linecap="round" stroke-linejoin="round" stroke-width="7" d="M322.359 88.34c-28.93 15.15-66.36 24.28-107.36 24.28s-78.41-9.13-107.36-24.28m.021 253.32C136.58 326.52 174 317.39 215 317.39s78.41 9.13 107.37 24.27"/><path stroke="#1e3a6e" stroke-linecap="round" stroke-linejoin="round" stroke-width="7" d="M381.049 215a166.05 166.05 0 0 1-102.47 153.446A166.052 166.052 0 0 1 61.584 151.517 166.05 166.05 0 0 1 215 49a166 166 0 0 1 166.05 166"/></svg>