<svg xmlns="http://www.w3.org/2000/svg" width="430" height="430" fill="none" viewBox="0 0 430 430"><path fill="#e8e6f2" d="M382.399 215.496a167.49 167.49 0 0 1-103.352 154.833 167.5 167.5 0 0 1-96.799 9.557A167.51 167.51 0 0 1 50.614 248.252a167.497 167.497 0 0 1 164.391-200.15 166.58 166.58 0 0 1 167.394 167.394"/><path fill="#e8e6f2" d="M382.399 215.496a167.49 167.49 0 0 1-103.352 154.833 167.5 167.5 0 0 1-96.799 9.557A167.51 167.51 0 0 1 50.614 248.252a167.497 167.497 0 0 1 164.391-200.15 166.58 166.58 0 0 1 167.394 167.394" opacity=".5" style="mix-blend-mode:multiply"/><path fill="#e8e6f2" d="M359.745 299.632a168.07 168.07 0 0 1-78.941 69.835l-29.784-33.684-151.013-170.761-29.763-33.663a168.06 168.06 0 0 1 78.94-69.835l29.785 33.684L330.002 265.97z"/><path stroke="#6b8cce" stroke-linecap="round" stroke-linejoin="round" stroke-width="7" d="M253 276h-74.286a108.7 108.7 0 0 0 11.429-48.522v-8.751M253 178.636v-5.727C253 160.257 242.767 150 230.143 150H213c-12.624 0-22.857 10.257-22.857 22.909v45.818m0 0H173m17.143 0h40"/><path stroke="#6b8cce" stroke-linecap="round" stroke-linejoin="round" stroke-width="7" d="M215 344c71.245 0 129-57.755 129-129S286.245 86 215 86 86 143.755 86 215s57.755 129 129 129"/><path stroke="#1e3a6e" stroke-width="7" d="M382.399 215.996a167.49 167.49 0 0 1-103.352 154.833 167.5 167.5 0 0 1-96.799 9.557A167.503 167.503 0 0 1 60.171 151.953 167.5 167.5 0 0 1 215.004 48.601a166.58 166.58 0 0 1 167.395 167.395Z"/></svg>