<svg xmlns="http://www.w3.org/2000/svg" width="430" height="430" fill="none" viewBox="0 0 430 430"><path fill="#e8e6f2" d="M300 35H130l3.947 49.337h162.106z"/><path fill="#e8e6f2" d="M160 35h-30l3.769 47.117h30z" opacity=".5" style="mix-blend-mode:multiply"/><path fill="#6b8cce" d="m296.4 80-4.294 53.674a87.16 87.16 0 0 1-18.471 47.055c-29.91 37.886-87.36 37.886-117.27 0a87.16 87.16 0 0 1-18.471-47.055L133.6 80z"/><path fill="#e8e6f2" d="M265 400v-16.9c0-10.275-7.786-18.879-18.01-19.901L215 360l-31.99 3.199C172.786 364.221 165 372.825 165 383.1V400z"/><path fill="#6b8cce" d="M156.365 180.729c18.398 23.304 47.216 32.274 73.635 26.909-16.531-3.357-32.123-12.327-43.635-26.909a87.16 87.16 0 0 1-18.471-47.055L163.6 80h-30l4.294 53.674a87.16 87.16 0 0 0 18.471 47.055" opacity=".5" style="mix-blend-mode:multiply"/><path fill="#e8e6f2" d="M204.548 361.045A20 20 0 0 0 195 378.1V400h-30v-16.9c0-10.275 7.786-18.878 18.01-19.901z" opacity=".5" style="mix-blend-mode:multiply"/><path stroke="#1e3a6e" stroke-linecap="round" stroke-linejoin="round" stroke-width="7" d="M296.4 80H133.6M130 35h170l-7.894 98.674a87.16 87.16 0 0 1-18.471 47.055c-29.91 37.886-87.36 37.886-117.27 0a87.16 87.16 0 0 1-18.471-47.055zm135 365v-16.9c0-10.275-7.786-18.879-18.01-19.901L215 360l-31.99 3.199C172.786 364.221 165 372.825 165 383.1V400z"/><path stroke="#1e3a6e" stroke-linecap="round" stroke-width="7" d="M215 360V209.144"/></svg>