<svg xmlns="http://www.w3.org/2000/svg" width="430" height="430" fill="none" viewBox="0 0 430 430"><path fill="#e8e6f2" d="M55 75c0-11.046 8.954-20 20-20h280c11.046 0 20 8.954 20 20v280c0 11.046-8.954 20-20 20H75c-11.046 0-20-8.954-20-20z"/><path fill="#e8e6f2" d="M75 55c-11.046 0-20 8.954-20 20v280c0 11.046 8.954 20 20 20h30c-11.046 0-20-8.954-20-20V75c0-11.046 8.954-20 20-20z" opacity=".5" style="mix-blend-mode:multiply"/><rect width="190" height="190" x="120" y="120" fill="#e8e6f2" rx="15" style="mix-blend-mode:multiply"/><path fill="#e8e6f2" d="M135 120c-8.284 0-15 6.716-15 15v160c0 8.284 6.716 15 15 15h35c-8.284 0-15-6.716-15-15V135c0-8.284 6.716-15 15-15z" opacity=".5" style="mix-blend-mode:multiply"/><path stroke="#1e3a6e" stroke-linecap="round" stroke-linejoin="round" stroke-width="7" d="M193.461 255h-30m105 0h-30M215 200v-30"/><rect width="190" height="190" x="120" y="120" stroke="#1e3a6e" stroke-linejoin="round" stroke-width="7" rx="15"/><path stroke="#1e3a6e" stroke-linecap="round" stroke-linejoin="round" stroke-width="7" d="M55 75c0-11.046 8.954-20 20-20h280c11.046 0 20 8.954 20 20v280c0 11.046-8.954 20-20 20H75c-11.046 0-20-8.954-20-20z"/></svg>