<svg xmlns="http://www.w3.org/2000/svg" width="430" height="430" fill="none" viewBox="0 0 430 430"><path fill="#e8e6f2" d="M343.37 308.18h-2.01c7.91-53.37-26.34-106.74-15-146.77 0-.03.01-.06.01-.09 4.73-.3 9.33-1.38 13.65-3.17a42.9 42.9 0 0 0 13.88-9.28c3.33-3.33 6.12-7.09 8.32-11.15.79-1.47 1.51-2.98 2.15-4.52a48.2 48.2 0 0 0 3.68-18.49c0-6.41-1.27-12.69-3.68-18.49q-.96-2.325-2.16-4.53c-2.2-4.07-4.99-7.83-8.31-11.15A42.8 42.8 0 0 0 323.64 68h-114.5c-8.67 0-16.03 5.58-18.69 13.35h-41.97l-14.78 7.98-9.93 5.36v40.03l24.77 13.34h41.9c2.66 7.77 10.03 13.35 18.7 13.35h12.13v23.81c0 1.8.32 3.53.91 5.13a14.8 14.8 0 0 0 3.47 5.43 14.87 14.87 0 0 0 10.57 4.38h7.68c11.19 0 20.57 8.47 21.71 19.6 0 0-.2 7.24-.08 17.74 0 .49.01.99.02 1.49.06 4.04.16 8.51.35 13.21.02.55.04 1.11.07 1.66.02.63.05 1.27.08 1.91.93 20.06 4.8 37.66 8.59 52.41h-2c-13.63 0-24.68 11.05-24.68 24.69v16.24c0 6.87 5.57 12.45 12.45 12.45h95.19c6.88 0 12.45-5.58 12.45-12.45v-16.24c0-13.64-11.05-24.69-24.68-24.69m-49.9-156.86c.54-.03 1.09-.08 1.63-.14-.5.44-1.01.85-1.53 1.25-.03-.34-.07-.67-.1-1.01z"/><path fill="#e8e6f2" d="M296.01 312.26h-2.13c-14.54 0-27.73 7.47-27.73 22.02v17.32c0 3.96 1.74 7.53 4.51 9.96h-10.25c-6.88 0-12.45-5.58-12.45-12.45v-16.24c0-13.64 11.05-24.69 24.68-24.69h2c-3.79-14.75-7.66-32.35-8.59-52.41-.03-.64-.06-1.28-.08-1.91-.03-.55-.05-1.11-.07-1.66-.19-4.7-.29-9.17-.35-13.21-.01-.5-.02-1-.02-1.49-.12-10.5.08-17.74.08-17.74-1.14-11.13-10.52-19.6-21.71-19.6h-7.68c-4.13 0-7.87-1.67-10.57-4.38q-.765-.765-1.41-1.62c-.86-1.15-1.56-2.43-2.06-3.81-.59-1.6-.91-3.33-.91-5.13v-23.81h-12.13c-8.67 0-16.04-5.58-18.7-13.35h-41.9l-24.77-13.34V94.69l9.93-5.36v33.62l26.42 14.23h44.69c2.83 8.29 10.69 14.24 19.94 14.24h12.94v25.39c0 8.8 7.13 15.93 15.94 15.93h8.19c11.93 0 21.94 9.04 23.15 20.91 0 0-.55 75.25 11.04 98.61" opacity=".5" style="mix-blend-mode:multiply"/><path fill="#1e3a6e" d="M368.05 332.87v16.24c0 6.87-5.57 12.45-12.45 12.45h-95.19c-6.88 0-12.45-5.58-12.45-12.45v-16.24c0-13.64 11.05-24.69 24.68-24.69h70.73c13.63 0 24.68 11.05 24.68 24.69"/><path fill="#6b8cce" d="M368.05 332.87v16.24c0 6.87-5.57 12.45-12.45 12.45h-95.19c-6.88 0-12.45-5.58-12.45-12.45v-16.24z"/><path fill="#1e3a6e" d="M287.2 308.18c-13.63 0-24.68 11.05-24.68 24.69h-14.56c0-13.64 11.05-24.69 24.68-24.69z" opacity=".5" style="mix-blend-mode:multiply"/><path fill="#6b8cce" d="M274.97 361.56h-14.56c-6.88 0-12.45-5.58-12.45-12.45v-16.24h14.56v16.24c0 6.87 5.57 12.45 12.45 12.45" opacity=".5" style="mix-blend-mode:multiply"/><path fill="#6b8cce" d="M368.05 114.71c0 6.41-1.27 12.68-3.68 18.49-.64 1.54-1.36 3.05-2.15 4.52-2.2 4.06-4.99 7.82-8.32 11.15a42.9 42.9 0 0 1-13.88 9.28 42.8 42.8 0 0 1-16.38 3.26h-114.5c-8.67 0-16.04-5.58-18.7-13.35-.7-2.01-1.07-4.17-1.07-6.42V87.78c0-10.92 8.85-19.78 19.77-19.78h114.5c11.35 0 22.23 4.51 30.26 12.54 3.32 3.32 6.11 7.08 8.31 11.15q1.2 2.205 2.16 4.53c2.41 5.8 3.68 12.08 3.68 18.49"/><path fill="#1e3a6e" d="M234.5 68v93.41h-25.82c-8.67 0-16.04-5.58-18.7-13.35-.7-2.01-1.07-4.17-1.07-6.42V87.78c0-2.25.38-4.41 1.07-6.43 2.67-7.77 10.03-13.35 18.7-13.35z"/><path fill="#1e3a6e" d="M221.45 161.41h-12.77c-8.67 0-16.04-5.58-18.7-13.35-.7-2.01-1.07-4.17-1.07-6.42V87.78c0-2.25.38-4.41 1.07-6.43 2.67-7.77 10.03-13.35 18.7-13.35h12.77c-8.67 0-16.03 5.58-18.7 13.35-.69 2.02-1.07 4.18-1.07 6.43v53.86c0 2.25.37 4.41 1.07 6.42 2.66 7.77 10.03 13.35 18.7 13.35" opacity=".5" style="mix-blend-mode:multiply"/><path fill="#e8e6f2" d="M304.68 98.9h-41.9v31.61h41.9z"/><path fill="#e8e6f2" d="M270.96 98.9h-8.18v31.61h8.18z" opacity=".5" style="mix-blend-mode:multiply"/><path stroke="#1e3a6e" stroke-linecap="round" stroke-linejoin="round" stroke-width="7" d="M368.05 332.86H247.96M123.77 114.7H61.5m211.15 193.48h70.72c13.62 0 24.68 11.06 24.68 24.68v16.24c0 6.87-5.58 12.45-12.45 12.45h-95.19c-6.87 0-12.45-5.58-12.45-12.45v-16.24c0-13.62 11.06-24.68 24.68-24.68zM209.14 68h114.5a42.82 42.82 0 0 1 30.26 12.53 48.32 48.32 0 0 1 14.15 34.17 48.32 48.32 0 0 1-14.15 34.17 42.78 42.78 0 0 1-30.26 12.53h-114.5c-10.92 0-19.77-8.85-19.77-19.77V87.77c0-10.92 8.85-19.77 19.77-19.77"/><path stroke="#1e3a6e" stroke-linecap="round" stroke-linejoin="round" stroke-width="7" d="M190.44 148.06h-41.9l-24.77-13.34V94.69l24.71-13.34h41.95m135.94 80.06c-11.34 40.03 22.91 93.4 15 146.77m-66.72 0c-10.87-21.91-9.04-88.42-9.04-88.42-1.14-11.13-10.52-19.6-21.71-19.6h-7.68c-8.25 0-14.94-6.69-14.94-14.94v-23.81m83.4-62.51h-41.9v31.61h41.9zm63.37 15.81h-39.69m33.86-23.02H343.7m18.52 46.03H343.7M234.96 68v93.4"/></svg>