<svg xmlns="http://www.w3.org/2000/svg" width="430" height="430" fill="none" viewBox="0 0 430 430"><path fill="#e8e6f2" d="M304.434 241.064 335 145v-10.034H95V145l30.566 96.064A20 20 0 0 0 144.624 255h140.752a20 20 0 0 0 19.058-13.936"/><path fill="#e8e6f2" d="m153.636 255-27.392-86.09a3 3 0 0 1 2.859-3.91h199.533L335 145H95l30.566 96.064A20 20 0 0 0 144.624 255z" opacity=".5" style="mix-blend-mode:multiply"/><path fill="#e8e6f2" d="M55 75h320v50c0 11.046-8.954 20-20 20H75c-11.046 0-20-8.954-20-20z"/><path fill="#e8e6f2" d="M85 75H55v50c0 11.046 8.954 20 20 20h30c-11.046 0-20-8.954-20-20z" opacity=".5" style="mix-blend-mode:multiply"/><path stroke="#1e3a6e" stroke-linecap="round" stroke-width="7" d="M180 215h70m-70-35h70m30 35h32.727M280 180h43.864M150 215h-32.727M150 180h-43.864"/><path stroke="#1e3a6e" stroke-linejoin="round" stroke-width="7" d="M55 75h320v50c0 11.046-8.954 20-20 20H75c-11.046 0-20-8.954-20-20zm280 70-30.566 96.064A20 20 0 0 1 285.376 255H144.624a20 20 0 0 1-19.058-13.936L95 145"/><path stroke="#1e3a6e" stroke-linecap="round" stroke-linejoin="round" stroke-miterlimit="10" stroke-width="7" d="M154 295q26 25 0 50t0 50m61-100q26 25 0 50t0 50m61-100q26 25 0 50t0 50"/><path stroke="#1e3a6e" stroke-linecap="round" stroke-linejoin="round" stroke-miterlimit="10" stroke-width="10" d="M337 110h.01"/></svg>