<svg xmlns="http://www.w3.org/2000/svg" width="430" height="430" fill="none" viewBox="0 0 430 430"><path fill="#6b8cce" d="M359.97 108.58H69.27c-8.157 0-14.77 6.613-14.77 14.77v157.27c0 8.157 6.613 14.77 14.77 14.77h290.7c8.157 0 14.77-6.613 14.77-14.77V123.35c0-8.157-6.613-14.77-14.77-14.77"/><path fill="#6b8cce" d="M359.97 108.58h-78.64v186.81h78.64c8.16 0 14.77-6.61 14.77-14.77V123.35c0-8.16-6.61-14.77-14.77-14.77" opacity=".5" style="mix-blend-mode:multiply"/><path fill="#6b8cce" d="M81.5 295.38v26.69h53.38v-26.69m159.48 0v26.69h53.38v-26.69"/><path fill="#e8e6f2" d="M241.31 148.61H94.53v106.75h146.78zm108.23 95.38h-43v26.83h43zm-21.5-25.94c9.113 0 16.5-7.387 16.5-16.5s-7.387-16.5-16.5-16.5-16.5 7.387-16.5 16.5 7.387 16.5 16.5 16.5"/><path fill="#6b8cce" d="M87.7 280.54V123.27c0-7.64 5.8-13.92 13.24-14.69H69.27c-8.16 0-14.77 6.61-14.77 14.77v157.27c0 8.16 6.61 14.77 14.77 14.77l33.2-.08c-8.16 0-14.77-6.61-14.77-14.77m-6.2 41.53 20.97-.08v-26.61H81.5zm233.83-.08v-26.61h-20.97v26.69" opacity=".5" style="mix-blend-mode:multiply"/><path stroke="#1e3a6e" stroke-linecap="round" stroke-linejoin="round" stroke-width="7" d="M306.54 135.271h10.56m21.87 0h10.57m-43 22.339h10.56m21.87 0h10.57m10.43-48.95H69.27c-8.157 0-14.77 6.613-14.77 14.77V280.7c0 8.157 6.613 14.77 14.77 14.77h290.7c8.157 0 14.77-6.613 14.77-14.77V123.43c0-8.157-6.613-14.77-14.77-14.77"/><path stroke="#1e3a6e" stroke-linecap="round" stroke-linejoin="round" stroke-width="7" d="M81.5 295.46v26.69h53.38v-26.69m159.48 0v26.69h53.38v-26.69m-66.4-186.96v187.12m-40.03-146.93H94.53v106.75h146.78zm108.23 95.38h-43v26.83h43zm-21.5-25.94c9.113 0 16.5-7.387 16.5-16.5s-7.387-16.5-16.5-16.5-16.5 7.387-16.5 16.5 7.387 16.5 16.5 16.5"/></svg>