<svg xmlns="http://www.w3.org/2000/svg" width="430" height="430" fill="none" viewBox="0 0 430 430"><path fill="#e8e6f2" d="M215.12 361.17c80.081 0 145-64.919 145-145s-64.919-145-145-145-145 64.919-145 145 64.919 145 145 145"/><path fill="#e8e6f2" d="M301.746 332.461c-18.703 8.794-39.59 13.709-61.626 13.709-80.081 0-145-64.918-145-145 0-47.606 22.943-89.854 58.375-116.29-49.267 23.165-83.375 73.244-83.375 131.29 0 80.081 64.919 145 145 145 32.475 0 62.456-10.676 86.626-28.709" opacity=".5" style="mix-blend-mode:multiply"/><path fill="#e8e6f2" d="M215.12 296.17c44.183 0 80-35.817 80-80s-35.817-80-80-80-80 35.817-80 80 35.817 80 80 80" opacity=".6" style="mix-blend-mode:multiply"/><path fill="#e8e6f2" d="M272.495 271.921c-11.156 5.905-23.875 9.249-37.375 9.249-44.183 0-80-35.817-80-80 0-21.678 8.623-41.343 22.626-55.751-25.353 13.42-42.626 40.068-42.626 70.751 0 44.183 35.817 80 80 80 22.504 0 42.838-9.292 57.375-24.249" opacity=".3" style="mix-blend-mode:multiply"/><mask id="rw7hZsYQGCa" width="320" height="320" x="55" y="55" maskUnits="userSpaceOnUse" style="mask-type:alpha"><path fill="#fff" d="M55 162.425V375h11.77A19.95 19.95 0 0 1 60 360V162.509h-3.325a17 17 0 0 1-1.675-.084M93.23 375h248.54a19.95 19.95 0 0 1-6.77-15v-95h-16.52V109.029c0-25.422 16.783-46.923 39.874-54.029H119.805v91.029c0 9.1-7.38 16.48-16.48 16.48H100V360a19.95 19.95 0 0 1-6.77 15M375 360a19.95 19.95 0 0 1-6.771 15H375z"/></mask><g mask="url(#rw7hZsYQGCa)"><path stroke="#1e3a6e" stroke-linecap="round" stroke-linejoin="round" stroke-miterlimit="10" stroke-width="7" d="M215.12 361.17c80.081 0 145-64.919 145-145s-64.919-145-145-145-145 64.919-145 145 64.919 145 145 145"/></g><path stroke="#1e3a6e" stroke-linecap="round" stroke-linejoin="round" stroke-miterlimit="10" stroke-width="7" d="M215.12 296.17c44.183 0 80-35.817 80-80s-35.817-80-80-80-80 35.817-80 80 35.817 80 80 80"/><path fill="#6b8cce" d="M56.675 162.509c-9.1 0-16.48-7.38-16.48-16.48V116.81h79.587l.023 29.219c0 9.1-7.38 16.48-16.48 16.48z"/><path fill="#6b8cce" d="M40.195 146.029c0 9.1 7.38 16.48 16.48 16.48h25c-9.1 0-16.48-7.38-16.48-16.48V116.81h-25z" opacity=".5" style="mix-blend-mode:multiply"/><path fill="#6b8cce" d="M100 360V162.509H60V360c0 11.046 8.954 20 20 20s20-8.954 20-20"/><path fill="#6b8cce" d="M60 162.509V360c0 11.046 8.954 20 20 20V162.509z" opacity=".5" style="mix-blend-mode:multiply"/><path stroke="#1e3a6e" stroke-linecap="round" stroke-linejoin="round" stroke-miterlimit="10" stroke-width="7" d="M40.195 52.509v93.52c0 9.1 7.38 16.48 16.48 16.48h46.65c9.1 0 16.48-7.38 16.48-16.48v-93.52m-39.816-.05v64.26m39.793.091H40.195M60 162.509V360c0 11.046 8.954 20 20 20v0c11.046 0 20-8.954 20-20V162.509"/><path fill="#1e3a6e" d="M375 360V255h-40v105c0 11.046 8.954 20 20 20s20-8.954 20-20"/><path fill="#1e3a6e" d="M335 255v105c0 11.046 8.954 20 20 20V255z" opacity=".5" style="mix-blend-mode:multiply"/><path fill="#6b8cce" d="M375 52.509c-31.215 0-56.52 25.305-56.52 56.52V265H375z"/><path fill="#6b8cce" d="M318.48 109.029c0-31.215 25.305-56.52 56.52-56.52v2.452c-23.156 7.067-40 28.6-40 54.068V265h-16.52z" opacity=".5" style="mix-blend-mode:multiply"/><path stroke="#1e3a6e" stroke-linecap="round" stroke-linejoin="round" stroke-miterlimit="10" stroke-width="7" d="M375 52.509c-31.215 0-56.52 25.305-56.52 56.52V265H375zM335 265v95c0 11.046 8.954 20 20 20s20-8.954 20-20v-95"/></svg>