<svg xmlns="http://www.w3.org/2000/svg" width="430" height="430" fill="none" viewBox="0 0 430 430"><path fill="#e8e6f2" d="m316.622 151.55-5.2 56.2-2.5 26.7-10.9 118.1h-181.9l-10.6-112.8-8-86.7"/><path fill="#e8e6f2" d="m121.822 152.85-24.3.2 8 86.7 10.4 112.8h23.8l-10.3-115.8z" opacity=".5" style="mix-blend-mode:multiply"/><path fill="#6b8cce" d="M274.322 169.45h-136.2c-37.5 0-61.2-34.1-66.7-68.1-5.9-36.4 19.8-68.5 56.5-71.3 52.1-4 104.5-4 156.7 0 23.7 1.8 47.6 17.5 55.5 40.4 14.4 41.8-20.1 99-65.8 99"/><path fill="#6b8cce" d="M94.722 101.25c-5.2-33.2 13.6-62.8 42.7-71.9-3.1.2-6.3.4-9.5.7-36.7 2.8-62.4 34.9-56.5 71.3 5.5 33.9 29.2 68.1 66.7 68.1h5.5c-27.2-9.1-44.4-38.7-48.9-68.2" opacity=".5" style="mix-blend-mode:multiply"/><path fill="#e8e6f2" d="M207.022 136.249c21.429 0 38.8-17.371 38.8-38.8s-17.371-38.8-38.8-38.8-38.8 17.372-38.8 38.8c0 21.429 17.371 38.8 38.8 38.8"/><path stroke="#1e3a6e" stroke-linecap="round" stroke-linejoin="round" stroke-width="7" d="M206.94 99.28a1.99 1.99 0 1 0 0-3.98 1.99 1.99 0 0 0 0 3.98m0-1.88V81.04"/><path fill="#6b8cce" d="M116.222 352.45h181.5c19.9 0 36 16.1 36 36v14.5h-253.5v-14.5c0-19.8 16.1-36 36-36m132.8-183h-84v30.7h84z"/><path fill="#6b8cce" d="M240.322 200.149h-66.7v33.3h66.7z"/><path fill="#6b8cce" d="M240.322 200.149h-66.7v33.3h66.7z" opacity=".5" style="mix-blend-mode:multiply"/><path fill="#6b8cce" d="M297.822 234.35h88.3c7.4 0 13.3-6 13.3-13.3 0-7.4-6-13.3-13.3-13.3h-88.3c-7.4 0-13.3 6-13.3 13.3 0 7.4 5.9 13.3 13.3 13.3"/><path fill="#6b8cce" d="M141.122 352.45h-24.9c-19.9 0-36 16.1-36 36v14.5h24.9v-14.5c0-19.8 16.1-36 36-36" opacity=".5" style="mix-blend-mode:multiply"/><path fill="#e8e6f2" d="M180.922 97.45c0-19.2 14-35.2 32.4-38.2-2.1-.3-4.2-.5-6.3-.5-21.4 0-38.8 17.3-38.8 38.8 0 21.4 17.3 38.8 38.8 38.8 2.2 0 4.3-.2 6.3-.5-18.4-3.2-32.4-19.2-32.4-38.4" opacity=".5" style="mix-blend-mode:multiply"/><path fill="#1e3a6e" d="M211.622 352.45h-11.4c-19.8 0-35.9-16.1-35.9-35.9v-46h83.2v46c0 19.9-16.1 35.9-35.9 35.9"/><path fill="#1e3a6e" d="M187.222 316.65v-46h-22.9v46c0 19.8 16.1 35.9 35.9 35.9h11.4c1.9 0 3.9-.2 5.7-.5-17-2.8-30.1-17.6-30.1-35.4" opacity=".5" style="mix-blend-mode:multiply"/><path stroke="#1e3a6e" stroke-linecap="round" stroke-linejoin="round" stroke-miterlimit="10" stroke-width="7" d="m97.522 153.05 8 86.7 10.5 112.8h181.9l10.9-118.1m2.6-26.7 5.2-56.2"/><path stroke="#1e3a6e" stroke-linecap="round" stroke-linejoin="round" stroke-miterlimit="10" stroke-width="7" d="M274.322 169.45h-136.2c-37.5 0-61.2-34.1-66.7-68.1-5.9-36.4 19.8-68.5 56.5-71.3 52.1-4 104.5-4 156.7 0 23.7 1.8 47.6 17.5 55.5 40.4 14.4 41.8-20.1 99-65.8 99m-158.1 182.999h181.5c19.9 0 36 16.1 36 36v14.5h-253.5v-14.5c0-19.8 16.1-36 36-36"/><path stroke="#1e3a6e" stroke-linecap="round" stroke-linejoin="round" stroke-miterlimit="10" stroke-width="7" d="M249.022 169.449h-84v30.7h84z"/><path stroke="#1e3a6e" stroke-linecap="round" stroke-linejoin="round" stroke-miterlimit="10" stroke-width="10" d="M145.232 126.649h-.01m-29.5 0h-.01"/><path stroke="#1e3a6e" stroke-linecap="round" stroke-linejoin="round" stroke-miterlimit="10" stroke-width="7" d="M240.322 200.15h-66.7v33.3h66.7zm0 20.9h44.2m13.3 13.3h88.3c7.4 0 13.3-6 13.3-13.3 0-7.4-6-13.3-13.3-13.3h-88.3c-7.4 0-13.3 6-13.3 13.3 0 7.4 5.9 13.3 13.3 13.3m-90.8-98.1c21.428 0 38.8-17.371 38.8-38.8s-17.372-38.8-38.8-38.8c-21.429 0-38.8 17.372-38.8 38.8 0 21.429 17.371 38.8 38.8 38.8m-78.5 32.8v47.4m-37.6 38.099 37.6-38.1m83.1 136.001h-11.4c-19.8 0-35.9-16.1-35.9-35.9v-46h83.2v46c0 19.9-16.1 35.9-35.9 35.9m35.9-66.201c5.2-2.4 12.3-3.3 17.6-.9 5.4 2.4 10.6 8.7 10.2 16.3-.4 6.7-5 11.9-9.5 14-5.4 2.6-12.5 2.1-18.3 1.2"/></svg>