<svg xmlns="http://www.w3.org/2000/svg" width="430" height="430" fill="none" viewBox="0 0 430 430"><path stroke="#1e3a6e" stroke-linecap="round" stroke-linejoin="round" stroke-miterlimit="13.4906" stroke-width="7" d="M285 367.711c34.732-16.003 63.057-43.546 80.055-77.711M145 367.711C110.268 351.708 81.944 324.165 64.945 290M145 63.29C110.607 79.135 82.498 106.297 65.446 140M285 63.29c34.393 15.846 62.502 43.008 79.554 76.71"/><path fill="#6b8cce" d="M215.5 60c12.426 0 22.5-10.074 22.5-22.5S227.926 15 215.5 15 193 25.074 193 37.5 203.074 60 215.5 60M170 105c0-16.568 13.431-30 30-30h30c16.569 0 30 13.432 30 30v10h-90z"/><path fill="#6b8cce" d="M216.338 15.015C211.251 19.14 208 25.441 208 32.5c0 12.146 9.624 22.044 21.662 22.485A22.4 22.4 0 0 1 215.5 60C203.074 60 193 49.926 193 37.5S203.074 15 215.5 15q.421 0 .838.015M200 75c-16.569 0-30 13.432-30 30v10h20v-10c0-16.568 13.431-30 30-30z" opacity=".5" style="mix-blend-mode:multiply"/><path stroke="#1e3a6e" stroke-linecap="round" stroke-linejoin="round" stroke-miterlimit="10" stroke-width="7" d="M215.5 60c12.426 0 22.5-10.074 22.5-22.5S227.926 15 215.5 15 193 25.074 193 37.5 203.074 60 215.5 60"/><path stroke="#1e3a6e" stroke-linejoin="round" stroke-width="7" d="M170 105c0-16.568 13.431-30 30-30h30c16.569 0 30 13.432 30 30v10h-90z"/><path fill="#6b8cce" d="M215.5 345c12.426 0 22.5-10.074 22.5-22.5S227.926 300 215.5 300 193 310.074 193 322.5s10.074 22.5 22.5 22.5M170 390c0-16.569 13.431-30 30-30h30c16.569 0 30 13.431 30 30v10h-90z"/><path fill="#6b8cce" d="M216.338 300.015C211.251 304.14 208 310.441 208 317.5c0 12.146 9.624 22.044 21.662 22.485A22.4 22.4 0 0 1 215.5 345c-12.426 0-22.5-10.074-22.5-22.5s10.074-22.5 22.5-22.5q.421 0 .838.015M200 360c-16.569 0-30 13.431-30 30v10h20v-10c0-16.569 13.431-30 30-30z" opacity=".5" style="mix-blend-mode:multiply"/><path stroke="#1e3a6e" stroke-linecap="round" stroke-linejoin="round" stroke-miterlimit="10" stroke-width="7" d="M215.5 345c12.426 0 22.5-10.074 22.5-22.5S227.926 300 215.5 300 193 310.074 193 322.5s10.074 22.5 22.5 22.5"/><path stroke="#1e3a6e" stroke-linejoin="round" stroke-width="7" d="M170 390c0-16.569 13.431-30 30-30h30c16.569 0 30 13.431 30 30v10h-90z"/><path fill="#6b8cce" d="M370.5 210c12.426 0 22.5-10.074 22.5-22.5S382.926 165 370.5 165 348 175.074 348 187.5s10.074 22.5 22.5 22.5M325 255c0-16.569 13.431-30 30-30h30c16.569 0 30 13.431 30 30v10h-90z"/><path fill="#6b8cce" d="M371.338 165.015C366.251 169.14 363 175.441 363 182.5c0 12.146 9.624 22.044 21.662 22.485A22.4 22.4 0 0 1 370.5 210c-12.426 0-22.5-10.074-22.5-22.5s10.074-22.5 22.5-22.5q.421 0 .838.015M355 225c-16.569 0-30 13.431-30 30v10h20v-10c0-16.569 13.431-30 30-30z" opacity=".5" style="mix-blend-mode:multiply"/><path stroke="#1e3a6e" stroke-linecap="round" stroke-linejoin="round" stroke-miterlimit="10" stroke-width="7" d="M370.5 210c12.426 0 22.5-10.074 22.5-22.5S382.926 165 370.5 165 348 175.074 348 187.5s10.074 22.5 22.5 22.5"/><path stroke="#1e3a6e" stroke-linejoin="round" stroke-width="7" d="M325 255c0-16.569 13.431-30 30-30h30c16.569 0 30 13.431 30 30v10h-90z"/><path fill="#6b8cce" d="M60.5 210c12.426 0 22.5-10.074 22.5-22.5S72.926 165 60.5 165 38 175.074 38 187.5 48.074 210 60.5 210"/><path fill="#6b8cce" d="M61.338 165.015C56.251 169.14 53 175.441 53 182.5c0 12.146 9.624 22.044 21.662 22.485A22.4 22.4 0 0 1 60.5 210C48.074 210 38 199.926 38 187.5S48.074 165 60.5 165q.42 0 .838.015" opacity=".5" style="mix-blend-mode:multiply"/><path fill="#6b8cce" d="M15 255c0-16.569 13.432-30 30-30h30c16.569 0 30 13.431 30 30v10H15z"/><path fill="#6b8cce" d="M45 225c-16.568 0-30 13.431-30 30v10h20v-10c0-16.569 13.432-30 30-30z" opacity=".5" style="mix-blend-mode:multiply"/><path stroke="#1e3a6e" stroke-linecap="round" stroke-linejoin="round" stroke-miterlimit="10" stroke-width="7" d="M60.5 210c12.426 0 22.5-10.074 22.5-22.5S72.926 165 60.5 165 38 175.074 38 187.5 48.074 210 60.5 210"/><path stroke="#1e3a6e" stroke-linejoin="round" stroke-width="7" d="M15 255c0-16.569 13.432-30 30-30h30c16.569 0 30 13.431 30 30v10H15z"/><path fill="#6b8cce" d="M233 228.352c0-1.755.937-3.36 2.364-4.383C244.226 217.619 250 207.234 250 195.5c0-19.33-15.67-35-35-35s-35 15.67-35 35c0 12.109 6.149 22.781 15.495 29.065C197 225.578 198 227.226 198 229.04v16.46h35z"/><path fill="#6b8cce" d="M211.711 160.652C201.686 166.808 195 177.873 195 190.5c0 12.109 6.149 22.781 15.495 29.065C212 220.578 213 222.226 213 224.04V245h-15v-15.96c0-1.814-1-3.462-2.505-4.475C186.149 218.281 180 207.609 180 195.5c0-18.221 13.924-33.19 31.711-34.848" opacity=".5" style="mix-blend-mode:multiply"/><path fill="#e8e6f2" d="M198 240v10.5c0 8.284 6.716 15 15 15h5c8.284 0 15-6.716 15-15V240z"/><path fill="#e8e6f2" d="M198 250.5V240h15v10.5c0 6.531 4.174 12.087 10 14.146a15 15 0 0 1-5 .854h-5c-8.284 0-15-6.716-15-15" opacity=".5" style="mix-blend-mode:multiply"/><path stroke="#1e3a6e" stroke-linejoin="round" stroke-width="7" d="M235.364 223.969c-1.427 1.023-2.364 2.628-2.364 4.383V250.5c0 8.284-6.716 15-15 15h-5c-8.284 0-15-6.716-15-15v-21.46c0-1.814-1-3.462-2.505-4.475C186.149 218.281 180 207.609 180 195.5c0-19.33 15.67-35 35-35s35 15.67 35 35c0 11.734-5.774 22.119-14.636 28.469Z"/><path stroke="#1e3a6e" stroke-linecap="round" stroke-width="7" d="M200 240h30"/></svg>