<svg xmlns="http://www.w3.org/2000/svg" width="430" height="430" fill="none" viewBox="0 0 430 430"><path fill="#fff" d="M0 0h430v430H0z"/><path fill="#6b8cce" d="M113.963 56.019c-4.275-5.986-26.507 15.024-49.471 46.784-22.965 31.759-2.81 96.255 44.829 143.895l74.269 74.268c47.639 47.639 112.013 67.55 143.528 44.341s53.014-44.952 48.006-48.616-20.155-14.659-33.836-24.675-28.217-20.522-32.371-23.575c-4.153-3.054-15.757 2.565-25.774 12.581-10.016 10.017-21.865 14.414-26.384 9.895l-57.9-57.9-59.61-59.61c-5.497-5.497-1.833-18.079 8.184-28.095 10.016-10.017 15.391-21.988 11.971-26.629-3.421-4.764-13.193-18.201-21.988-30.172-8.55-11.849-19.055-26.507-23.453-32.492"/><path fill="#e8e6f2" d="M348.519 348.519c19.168-16.117 30.367-29.075 26.605-31.828a5232 5232 0 0 0-8.945-6.518 11681 11681 0 0 1-24.891-18.157 7567 7567 0 0 0-22.904-16.684c-4.369-3.174-7.777-5.649-9.467-6.891-4.153-3.054-15.757 2.565-25.774 12.581a59 59 0 0 1-1.074 1.047zm-202.13-202.13L81.283 81.283c16.153-19.046 29.472-29.756 32.68-25.264 2.926 3.982 8.556 11.805 14.515 20.084 2.997 4.164 6.077 8.443 8.938 12.408 8.795 11.971 18.567 25.408 21.988 30.172 3.42 4.641-1.955 16.612-11.971 26.629q-.534.534-1.044 1.077"/><path fill="#6b8cce" d="M60.103 110.355c-15.449 33.642 5.098 92.222 49.218 136.343l74.269 74.268c47.639 47.639 112.013 67.55 143.528 44.341s53.014-44.952 48.006-48.616c-1.823-1.334-4.99-3.64-8.94-6.515l-1.759-1.281c-8.387 7.824-19.523 16.997-32.307 26.412-31.515 23.209-95.889 3.298-143.528-44.341l-74.269-74.268c-32.852-32.853-52.634-73.722-54.218-106.343" opacity=".5" style="mix-blend-mode:multiply"/><path stroke="#1e3a6e" stroke-linecap="round" stroke-linejoin="round" stroke-miterlimit="16" stroke-width="7" d="M113.963 56.019c-4.275-5.986-26.507 15.024-49.471 46.784-22.965 31.759-2.81 96.255 44.829 143.895l74.269 74.268c47.639 47.639 112.013 67.55 143.528 44.341s53.014-44.952 48.006-48.616-20.155-14.659-33.836-24.675-28.217-20.522-32.371-23.575c-4.153-3.054-15.757 2.565-25.774 12.581-10.016 10.017-21.865 14.414-26.384 9.895l-57.9-57.9-59.61-59.61c-5.497-5.497-1.833-18.079 8.184-28.095 10.016-10.017 15.391-21.988 11.971-26.629-3.421-4.764-13.193-18.201-21.988-30.172-8.55-11.849-19.055-26.507-23.453-32.492"/></svg>