<svg xmlns="http://www.w3.org/2000/svg" width="430" height="430" fill="none" viewBox="0 0 430 430"><path fill="#6b8cce" d="M45.974 313.511c-6.815-11.805-2.77-26.899 9.034-33.715l37.405-21.595 37.021 64.122-37.405 21.596c-11.804 6.815-26.899 2.77-33.714-9.034z"/><path fill="#6b8cce" d="M46.334 288.219a24.6 24.6 0 0 0 3.3 11.631l12.341 21.374c6.816 11.805 21.91 15.849 33.715 9.034l28.744-16.595 5 8.66-37.405 21.595c-11.804 6.816-26.899 2.771-33.714-9.033l-12.34-21.374c-4.694-8.13-4.237-17.821.359-25.292" opacity=".5" style="mix-blend-mode:multiply"/><rect width="30" height="5" x="63.4702" y="299.157" fill="#6b8cce" rx="2.5" style="mix-blend-mode:multiply" transform="rotate(-30 63.47 299.157)"/><rect width="30" height="5" x="70.2319" y="310.868" fill="#6b8cce" rx="2.5" style="mix-blend-mode:multiply" transform="rotate(-30 70.232 310.868)"/><rect width="30" height="5" x="76.9932" y="322.579" fill="#6b8cce" rx="2.5" style="mix-blend-mode:multiply" transform="rotate(-30 76.993 322.579)"/><path fill="#6b8cce" d="m173.392 225.697 10.687-6.17c11.804-6.816 26.899-2.771 33.714 9.034s2.771 26.899-9.034 33.714l-10.687 6.17z"/><path fill="#6b8cce" d="m184.079 219.527-10.687 6.17 24.681 42.748 10.687-6.17a25 25 0 0 0 2.232-1.453l-24.539-42.502q-1.206.532-2.374 1.207" opacity=".5" style="mix-blend-mode:multiply"/><path fill="#e8e6f2" d="m147.793 359.016-23.703-33.608-32.061 18.51 39.279 55.694 8.656-4.997c12.569-7.257 16.193-23.739 7.829-35.599"/><path fill="#e8e6f2" d="m143.319 392.294-33.3-47.215 19.858-11.465-5.787-8.206-32.061 18.51 39.279 55.694 8.656-4.998a25 25 0 0 0 3.355-2.32" opacity=".5" style="mix-blend-mode:multiply"/><path fill="#e8e6f2" d="m151.796 188.292-59.383 69.909 37.021 64.122 90.234-16.474z"/><path fill="#e8e6f2" d="m106.162 242.015 33.093 57.317 69.342-12.659 11.072 19.176-90.235 16.474-37.02-64.123z" opacity=".5" style="mix-blend-mode:multiply"/><path stroke="#1e3a6e" stroke-linecap="round" stroke-linejoin="round" stroke-width="7" d="M45.974 313.511c-6.815-11.805-2.77-26.899 9.034-33.715l37.405-21.595 37.021 64.122-37.405 21.596c-11.804 6.815-26.899 2.77-33.714-9.034zm127.418-87.814 10.687-6.17c11.804-6.816 26.899-2.771 33.714 9.033 6.815 11.805 2.771 26.899-9.034 33.715l-10.687 6.17"/><path stroke="#1e3a6e" stroke-linecap="round" stroke-linejoin="round" stroke-width="7" d="m92.029 343.918 39.279 55.694 8.656-4.998c12.569-7.256 16.193-23.738 7.829-35.598l-23.703-33.608m-31.677-67.207 59.383-69.909 67.872 117.557-90.234 16.474"/><path fill="#6b8cce" d="M300 195c33.137 0 60-26.863 60-60s-26.863-60-60-60-60 26.863-60 60 26.863 60 60 60"/><path fill="#6b8cce" d="M340.37 179.388C332.664 182.989 324.067 185 315 185c-33.137 0-60-26.863-60-60 0-17.591 7.57-33.414 19.63-44.388C254.174 90.17 240 110.93 240 135c0 33.137 26.863 60 60 60 15.546 0 29.712-5.913 40.37-15.612" opacity=".5" style="mix-blend-mode:multiply"/><path fill="#e8e6f2" d="m286 109 40 25.065L286 159z"/><path fill="#e8e6f2" d="M286 149v10l40-24.935-8-5.013z" opacity=".5" style="mix-blend-mode:multiply"/><path stroke="#1e3a6e" stroke-linecap="round" stroke-linejoin="round" stroke-miterlimit="10" stroke-width="7" d="M300 195c33.137 0 60-26.863 60-60s-26.863-60-60-60-60 26.863-60 60 26.863 60 60 60"/><path stroke="#1e3a6e" stroke-linecap="round" stroke-linejoin="round" stroke-miterlimit="10" stroke-width="7" d="m286 109 40 25.065L286 159z"/><path fill="#6b8cce" d="M169.88 155H90.12C81.804 155 75 148.196 75 139.88V60.12C75 51.804 81.804 45 90.12 45h79.76c8.316 0 15.12 6.804 15.12 15.12v79.76c0 8.316-6.804 15.12-15.12 15.12"/><path fill="#6b8cce" d="M90.12 155h15C96.804 155 90 148.196 90 139.88V60.12C90 51.804 96.804 45 105.12 45h-15C81.804 45 75 51.804 75 60.12v79.76c0 8.316 6.804 15.12 15.12 15.12" opacity=".5" style="mix-blend-mode:multiply"/><path stroke="#1e3a6e" stroke-linecap="round" stroke-linejoin="round" stroke-miterlimit="10" stroke-width="7" d="M169.88 155H90.12C81.804 155 75 148.196 75 139.88V60.12C75 51.804 81.804 45 90.12 45h79.76c8.316 0 15.12 6.804 15.12 15.12v79.76c0 8.316-6.804 15.12-15.12 15.12M155 85h-50m25 30h-25"/><path fill="#1e3a6e" d="M364.88 360h-79.76c-8.316 0-15.12-6.804-15.12-15.12v-79.76c0-8.316 6.804-15.12 15.12-15.12h79.76c8.316 0 15.12 6.804 15.12 15.12v79.76c0 8.316-6.804 15.12-15.12 15.12"/><path fill="#1e3a6e" d="M285.12 360h15c-8.316 0-15.12-6.804-15.12-15.12v-79.76c0-8.316 6.804-15.12 15.12-15.12h-15c-8.316 0-15.12 6.804-15.12 15.12v79.76c0 8.316 6.804 15.12 15.12 15.12" opacity=".5" style="mix-blend-mode:multiply"/><path fill="#6b8cce" d="M285.12 360h79.76c8.316 0 15.12-6.804 15.12-15.12v-22.069L350.169 286l-31.159 38.25L300.169 301 270 338.035v6.845c0 8.316 6.804 15.12 15.12 15.12"/><path fill="#6b8cce" d="M285 344.88c0 8.316 6.804 15.12 15.12 15.12h-15c-8.316 0-15.12-6.804-15.12-15.12v-6.845l15-18.414z" opacity=".5" style="mix-blend-mode:multiply"/><path fill="#6b8cce" d="m287.014 360 31.996-35.75-7.481-9.231-7.519 9.231-28.723 32.093A15.05 15.05 0 0 0 285.12 360z" opacity=".4" style="mix-blend-mode:multiply"/><path stroke="#1e3a6e" stroke-linecap="round" stroke-linejoin="round" stroke-miterlimit="10" stroke-width="7" d="M380 322.811 350.169 286l-31.159 38.25L300.169 301 270 338.035"/><path stroke="#1e3a6e" stroke-linecap="round" stroke-linejoin="round" stroke-miterlimit="10" stroke-width="7" d="M364.88 360h-79.76c-8.316 0-15.12-6.804-15.12-15.12v-79.76c0-8.316 6.804-15.12 15.12-15.12h79.76c8.316 0 15.12 6.804 15.12 15.12v79.76c0 8.316-6.804 15.12-15.12 15.12"/><circle cx="317.5" cy="277.5" r="5" fill="#1e3a6e"/></svg>