<svg xmlns="http://www.w3.org/2000/svg" width="430" height="430" fill="none" viewBox="0 0 430 430"><path fill="#e8e6f2" d="M348.435 345.435V84.565a3 3 0 0 0-3-3H84.565a3 3 0 0 0-3 3v260.87a3 3 0 0 0 3 3h260.87a3 3 0 0 0 3-3"/><path fill="#e8e6f2" d="M126.465 345.435V84.565a3 3 0 0 1 3-3h-44.9a3 3 0 0 0-3 3v260.87a3 3 0 0 0 3 3h44.9a3 3 0 0 1-2.121-.879 3 3 0 0 1-.879-2.121" opacity=".5" style="mix-blend-mode:multiply"/><path stroke="#1e3a6e" stroke-linecap="round" stroke-linejoin="round" stroke-width="7" d="M348.435 345.435V84.565a3 3 0 0 0-3-3H84.565a3 3 0 0 0-3 3v260.87a3 3 0 0 0 3 3h260.87a3 3 0 0 0 3-3"/><path stroke="#6b8cce" stroke-linecap="round" stroke-linejoin="round" stroke-width="30" d="M81.45 81.557h.11m266.715.013h.11m-.11 266.833h.11m-266.887.037h.11"/></svg>