<svg xmlns="http://www.w3.org/2000/svg" width="430" height="430" fill="none" viewBox="0 0 430 430"><path fill="#1e3a6e" d="m110 90-55 35v25h160v-25l-55-35V50h-50z"/><path fill="#1e3a6e" d="m110 90-55 35h160l-55-35z" opacity=".5" style="mix-blend-mode:multiply"/><path fill="#e8e6f2" d="M215 210H55v165h160z"/><path fill="#e8e6f2" d="M55 210h15v165H55z" opacity=".5" style="mix-blend-mode:multiply"/><path fill="#6b8cce" d="M375 55H215v320h160z"/><path fill="#6b8cce" d="M215 55h20v320h-20z" opacity=".5" style="mix-blend-mode:multiply"/><path fill="#6b8cce" d="M185 270H85v75h100z"/><path fill="#6b8cce" d="M85 270h15v75H85z" opacity=".5" style="mix-blend-mode:multiply"/><path stroke="#1e3a6e" stroke-linecap="round" stroke-linejoin="round" stroke-miterlimit="10" stroke-width="7" d="M160 90h-50l-55 35v25h160v-25zm-50-40h50v40h-50zm105 160H55v165h160M375 55H215v320h160z"/><path stroke="#1e3a6e" stroke-linecap="round" stroke-linejoin="round" stroke-miterlimit="10" stroke-width="7" d="M185 270H85v75h100z"/><path stroke="#e8e6f2" stroke-linecap="round" stroke-linejoin="round" stroke-miterlimit="10" stroke-width="7" d="M120 300h30"/><path stroke="#1e3a6e" stroke-linecap="round" stroke-linejoin="round" stroke-miterlimit="10" stroke-width="7" d="M220 250h155"/><path stroke="#e8e6f2" stroke-linecap="round" stroke-linejoin="round" stroke-miterlimit="10" stroke-width="7" d="M250 195v25m0 55v25"/><path stroke="#1e3a6e" stroke-linecap="round" stroke-linejoin="round" stroke-miterlimit="10" stroke-width="10" d="M135 240h.1m34.9 0h.1m-70.1 0h.1"/></svg>