<svg xmlns="http://www.w3.org/2000/svg" width="430" height="430" fill="none" viewBox="0 0 430 430"><path fill="#e8e6f2" d="M308.4 122.16v240.01l-226.83.11V28.76H215"/><path fill="#e8e6f2" d="M215 122.16h93.4L215 28.76z" style="mix-blend-mode:multiply"/><path fill="#6b8cce" d="M268.381 162.13h-146.78v40.03h146.78z"/><path stroke="#1e3a6e" stroke-linecap="round" stroke-linejoin="round" stroke-width="7" d="M268.381 202.16h-146.78v120.09h146.78zm-73.401 0v120.09m-73.379-80.06h146.77m-146.77 40h146.77m.01-120.06h-146.78v40.03h146.78zm-73.401 40.03v-40.03"/><path stroke="#1e3a6e" stroke-linecap="round" stroke-linejoin="round" stroke-width="7" d="M308.4 122.16v240.01l-226.83.11V28.76H215"/><path stroke="#1e3a6e" stroke-linecap="round" stroke-linejoin="round" stroke-width="7" d="M215 122.16h93.4L215 28.76z" style="mix-blend-mode:multiply"/><path fill="#6b8cce" d="M341.77 228.84h-93.43c-11.046 0-20 8.954-20 20v133.64c0 11.046 8.954 20 20 20h93.43c11.046 0 20-8.954 20-20V248.84c0-11.046-8.954-20-20-20"/><path fill="#e8e6f2" d="M333.58 255.53h-77.04a7.51 7.51 0 0 0-7.51 7.51v11.67a7.51 7.51 0 0 0 7.51 7.51h77.04a7.51 7.51 0 0 0 7.51-7.51v-11.67a7.51 7.51 0 0 0-7.51-7.51"/><path fill="#6b8cce" d="M268.851 402.48h-20.5c-11 0-20-9-20-20V248.84c0-11 9-20 20-20h20.5c-11 0-20 9-20 20v133.64c0 11 9 20 20 20" opacity=".51" style="mix-blend-mode:multiply"/><path fill="#e8e6f2" d="M270.79 282.22h-14.25c-4.13 0-7.5-3.38-7.5-7.51v-11.67c0-4.13 3.37-7.51 7.5-7.51h14.25c-4.13 0-7.5 3.38-7.5 7.51v11.67c0 4.13 3.37 7.51 7.5 7.51" opacity=".5" style="mix-blend-mode:multiply"/><path stroke="#1e3a6e" stroke-linecap="round" stroke-linejoin="round" stroke-width="7" d="M341.77 228.84h-93.43c-11.046 0-20 8.954-20 20v133.64c0 11.046 8.954 20 20 20h93.43c11.046 0 20-8.954 20-20V248.84c0-11.046-8.954-20-20-20"/><path stroke="#1e3a6e" stroke-linecap="round" stroke-linejoin="round" stroke-width="7" d="M333.571 255.53h-77.45a7.52 7.52 0 0 0-7.52 7.52v11.65a7.52 7.52 0 0 0 7.52 7.52h77.45a7.52 7.52 0 0 0 7.52-7.52v-11.65a7.52 7.52 0 0 0-7.52-7.52"/><path stroke="#1e3a6e" stroke-linecap="round" stroke-linejoin="round" stroke-width="12" d="M266.12 308.9h-11.09v6h11.09zm68.97 0H324v6h11.09zm-34.489 0h-11.09v6h11.09zm-34.481 30.29h-11.09v6h11.09zm68.97 0H324v6h11.09zm-34.489 0h-11.09v6h11.09zm-34.481 30.28h-11.09v6h11.09zm68.97 0H324v6h11.09zm-34.489 0h-11.09v6h11.09z"/></svg>