<svg xmlns="http://www.w3.org/2000/svg" width="430" height="430" fill="none" viewBox="0 0 430 430"><path fill="#6b8cce" d="M55 240h55v80h210v-80h55v135H55z"/><path fill="#6b8cce" d="M215 320v55H55V243a3 3 0 0 1 3-3h49a3 3 0 0 1 3 3v77z" opacity=".5" style="mix-blend-mode:multiply"/><path stroke="#1e3a6e" stroke-linejoin="round" stroke-width="7" d="M55 240h55v80h210v-80h55v135H55z"/><path fill="#e8e6f2" d="m274.18 103.397-54.07-70.8a6 6 0 0 0-9.52 0l-54.75 70.8a4.002 4.002 0 0 0 3.16 6.44h27.28v176.31h57.38v-176.29H271a4.001 4.001 0 0 0 3.18-6.46"/><path fill="#e8e6f2" d="M215 30.257v255.89h-28.72v-176.29H159a3.996 3.996 0 0 1-3.987-4.404 4 4 0 0 1 .817-2.046l54.76-70.84a5.87 5.87 0 0 1 4.41-2.31" opacity=".5" style="mix-blend-mode:multiply"/><path stroke="#1e3a6e" stroke-linecap="round" stroke-linejoin="round" stroke-width="7" d="m274.18 103.397-54.07-70.8a6 6 0 0 0-9.52 0l-54.75 70.8a4.002 4.002 0 0 0 3.16 6.44h27.28v176.31h57.38v-176.29H271a4.001 4.001 0 0 0 3.18-6.46"/></svg>