<svg xmlns="http://www.w3.org/2000/svg" width="430" height="430" fill="none" viewBox="0 0 430 430"><path fill="#6b8cce" d="M193.7 87.5h92.9c44.9 0 81.4 36.4 81.4 81.4v79.9H193.8c-44.5 0-80.6-36.1-80.6-80.6-.2-44.6 35.9-80.7 80.5-80.7"/><path fill="#6b8cce" d="M342.591 248.8H193.8c-44.452 0-80.522-36.022-80.6-80.456A94.2 94.2 0 0 1 141.562 164h107.921c48.697 0 88.672 37.17 93.108 84.8" opacity=".5" style="mix-blend-mode:multiply"/><path stroke="#1e3a6e" stroke-linecap="round" stroke-linejoin="round" stroke-miterlimit="10" stroke-width="7" d="M193.7 87.5h92.9c44.9 0 81.4 36.4 81.4 81.4v79.9H193.8c-44.5 0-80.6-36.1-80.6-80.6-.2-44.6 35.9-80.7 80.5-80.7"/><path fill="#e8e6f2" d="M237.3 182.5h-92.9c-44.9 0-81.4 36.4-81.4 81.4v79.9h174.2c44.5 0 80.6-36.1 80.6-80.6.2-44.6-35.9-80.7-80.5-80.7"/><path fill="#e8e6f2" d="M73.64 223.635A82 82 0 0 0 73 233.9c0 44.128 35.772 79.9 79.9 79.9h94.3c29.947 0 56.089-16.349 69.986-40.604-4.926 39.786-38.871 70.604-79.986 70.604H63v-79.9c0-14.654 3.87-28.395 10.64-40.265" opacity=".5" style="mix-blend-mode:multiply"/><path stroke="#1e3a6e" stroke-linecap="round" stroke-linejoin="round" stroke-miterlimit="10" stroke-width="7" d="M237.3 182.5h-92.9c-44.9 0-81.4 36.4-81.4 81.4v79.9h174.2c44.5 0 80.6-36.1 80.6-80.6.2-44.6-35.9-80.7-80.5-80.7"/></svg>