<svg xmlns="http://www.w3.org/2000/svg" width="430" height="430" fill="none" viewBox="0 0 430 430"><path fill="#1e3a6e" d="M343.8 92.4h-43.7V48.8h43.7z"/><path fill="#1e3a6e" d="M300.1 48.8v43.6h21.85V48.8z" opacity=".5" style="mix-blend-mode:multiply"/><path fill="#1e3a6e" d="M129.9 92.4H86.2V48.8h43.7z"/><path fill="#1e3a6e" d="M86.2 48.8v43.6h21.85V48.8z" opacity=".5" style="mix-blend-mode:multiply"/><path fill="#e8e6f2" d="M376 370H54V87.4h322z"/><path fill="#e8e6f2" d="M86.2 370H54V129.434h32.2z" opacity=".5" style="mix-blend-mode:multiply"/><path fill="#6b8cce" d="M54 87.4v47.601h322v-47.6z"/><path fill="#6b8cce" d="M54 87.4v47.601h32.2v-47.6z" opacity=".5" style="mix-blend-mode:multiply"/><path stroke="#1e3a6e" stroke-linecap="round" stroke-linejoin="round" stroke-miterlimit="12.88" stroke-width="7" d="M376 363.094V87.4H54V370h313.367"/><circle cx="320" cy="325" r="70" fill="#6b8cce"/><path fill="#6b8cce" d="M360.865 381.839A70 70 0 0 1 340 385.002c-38.66 0-70-31.34-70-70 0-23.407 11.489-44.131 29.135-56.84C270.665 267.04 250 293.607 250 325c0 38.66 31.34 70 70 70 15.253 0 29.367-4.879 40.865-13.161" opacity=".5" style="mix-blend-mode:multiply"/><circle cx="125" cy="290" r="25" fill="#1e3a6e"/><circle cx="215" cy="290" r="25" fill="#6b8cce"/><circle cx="125" cy="200" r="25" fill="#6b8cce"/><path fill="#6b8cce" d="M140.002 220H140c-13.807 0-25-11.193-25-25 0-8.178 3.927-15.439 9.998-20-13.806.001-24.998 11.194-24.998 25 0 13.807 11.193 25 25 25 5.629 0 10.824-1.86 15.002-5" opacity=".5" style="mix-blend-mode:multiply"/><path fill="#1e3a6e" d="M140.002 310H140c-13.807 0-25-11.193-25-25 0-8.178 3.927-15.439 9.998-20-13.806.001-24.998 11.194-24.998 25 0 13.807 11.193 25 25 25 5.629 0 10.824-1.86 15.002-5" opacity=".5" style="mix-blend-mode:multiply"/><circle cx="215" cy="200" r="25" fill="#1e3a6e"/><circle cx="305" cy="200" r="25" fill="#6b8cce"/><path fill="#1e3a6e" d="M230.002 220H230c-13.807 0-25-11.193-25-25 0-8.178 3.927-15.439 9.998-20-13.806.001-24.998 11.194-24.998 25 0 13.807 11.193 25 25 25 5.629 0 10.824-1.86 15.002-5" opacity=".5" style="mix-blend-mode:multiply"/><path fill="#6b8cce" d="M230.002 310H230c-13.807 0-25-11.193-25-25 0-8.178 3.927-15.439 9.998-20-13.806.001-24.998 11.194-24.998 25 0 13.807 11.193 25 25 25 5.629 0 10.824-1.86 15.002-5m90-90H320c-13.807 0-25-11.193-25-25 0-8.178 3.927-15.439 9.998-20-13.806.001-24.998 11.194-24.998 25 0 13.807 11.193 25 25 25 5.629 0 10.824-1.86 15.002-5" opacity=".5" style="mix-blend-mode:multiply"/><path stroke="#1e3a6e" stroke-linecap="round" stroke-linejoin="round" stroke-miterlimit="12.88" stroke-width="7" d="M129.9 87.4H86.2V48.8h43.7zm213.9 0h-43.7V48.8h43.7zM376 135H54"/><circle cx="320" cy="325" r="70" stroke="#1e3a6e" stroke-width="7"/><path stroke="#1e3a6e" stroke-linecap="round" stroke-linejoin="round" stroke-width="7" d="M320 295v60m30-30h-60"/><circle cx="125" cy="290" r="25" stroke="#1e3a6e" stroke-width="7"/><circle cx="215" cy="290" r="25" stroke="#1e3a6e" stroke-width="7"/><circle cx="125" cy="200" r="25" stroke="#1e3a6e" stroke-width="7"/><circle cx="215" cy="200" r="25" stroke="#1e3a6e" stroke-width="7"/><circle cx="305" cy="200" r="25" stroke="#1e3a6e" stroke-width="7"/></svg>