<svg xmlns="http://www.w3.org/2000/svg" width="430" height="430" fill="none" viewBox="0 0 430 430"><path fill="#e8e6f2" d="M317.55 388.95h-205.1c-16.2 0-29.4-13.2-29.4-29.4V71.45c0-16.2 13.2-29.4 29.4-29.4h205.1c16.2 0 29.4 13.2 29.4 29.4v288.1c0 16.2-13.1 29.4-29.4 29.4"/><path fill="#e8e6f2" d="M95.35 359.55V71.45c0-16.2 13.2-29.4 29.4-29.4h-12.3c-16.2 0-29.4 13.2-29.4 29.4v288.1c0 16.2 13.2 29.4 29.4 29.4h12.3c-16.3 0-29.4-13.2-29.4-29.4" opacity=".5" style="mix-blend-mode:multiply"/><path fill="#6b8cce" d="M151.75 203.25h-35.1c-5.7 0-10.3-4.6-10.3-10.3v-35.1c0-5.7 4.6-10.3 10.3-10.3h35.1c5.7 0 10.3 4.6 10.3 10.3v35.1c0 5.7-4.6 10.3-10.3 10.3m80.799 0h-35.1c-5.7 0-10.3-4.6-10.3-10.3v-35.1c0-5.7 4.6-10.3 10.3-10.3h35.1c5.7 0 10.3 4.6 10.3 10.3v35.1c0 5.7-4.6 10.3-10.3 10.3m-81 80h-35.1c-5.7 0-10.3-4.6-10.3-10.3v-35.1c0-5.7 4.6-10.3 10.3-10.3h35.1c5.7 0 10.3 4.6 10.3 10.3v35.1c0 5.7-4.6 10.3-10.3 10.3m80.801 0h-35.1c-5.7 0-10.3-4.6-10.3-10.3v-35.1c0-5.7 4.6-10.3 10.3-10.3h35.1c5.7 0 10.3 4.6 10.3 10.3v35.1c0 5.7-4.6 10.3-10.3 10.3m-80.7 80.5h-35.1c-5.7 0-10.3-4.6-10.3-10.3v-35.1c0-5.7 4.6-10.3 10.3-10.3h35.1c5.7 0 10.3 4.6 10.3 10.3v35.1c0 5.7-4.6 10.3-10.3 10.3m80.8 0h-35.1c-5.7 0-10.3-4.6-10.3-10.3v-35.1c0-5.7 4.6-10.3 10.3-10.3h35.1c5.7 0 10.3 4.6 10.3 10.3v35.1c0 5.7-4.6 10.3-10.3 10.3m72.4-240.4h-179.7c-10.4 0-18.8-8.4-18.8-18.8v-18.1c0-10.4 8.4-18.9 18.8-18.9h179.6c10.4 0 18.8 8.4 18.8 18.9v18.1c.1 10.4-8.3 18.8-18.7 18.8m8.5 79.9h-35.1c-5.7 0-10.3-4.6-10.3-10.3v-35.1c0-5.7 4.6-10.3 10.3-10.3h35.1c5.7 0 10.3 4.6 10.3 10.3v35.1c0 5.7-4.6 10.3-10.3 10.3"/><path fill="#1e3a6e" d="M313.35 363.25h-35.1c-5.7 0-10.3-4.6-10.3-10.3l-.2-115.1c0-5.7 4.6-10.3 10.3-10.3h35.1c5.7 0 10.3 4.6 10.3 10.3l.2 115.1c0 5.6-4.6 10.3-10.3 10.3"/><path stroke="#1e3a6e" stroke-linecap="round" stroke-linejoin="round" stroke-width="7" d="M317.55 388.95h-205.1c-16.2 0-29.4-13.2-29.4-29.4V71.45c0-16.2 13.2-29.4 29.4-29.4h205.1c16.2 0 29.4 13.2 29.4 29.4v288.1c0 16.2-13.1 29.4-29.4 29.4m-165.8-185.7h-35.1c-5.7 0-10.3-4.6-10.3-10.3v-35.1c0-5.7 4.6-10.3 10.3-10.3h35.1c5.7 0 10.3 4.6 10.3 10.3v35.1c0 5.7-4.6 10.3-10.3 10.3m80.8 0h-35.1c-5.7 0-10.3-4.6-10.3-10.3v-35.1c0-5.7 4.6-10.3 10.3-10.3h35.1c5.7 0 10.3 4.6 10.3 10.3v35.1c0 5.7-4.6 10.3-10.3 10.3m-81 80h-35.1c-5.7 0-10.3-4.6-10.3-10.3v-35.1c0-5.7 4.6-10.3 10.3-10.3h35.1c5.7 0 10.3 4.6 10.3 10.3v35.1c0 5.7-4.6 10.3-10.3 10.3m80.8 0h-35.1c-5.7 0-10.3-4.6-10.3-10.3v-35.1c0-5.7 4.6-10.3 10.3-10.3h35.1c5.7 0 10.3 4.6 10.3 10.3v35.1c0 5.7-4.6 10.3-10.3 10.3m-80.7 80.5h-35.1c-5.7 0-10.3-4.6-10.3-10.3v-35.1c0-5.7 4.6-10.3 10.3-10.3h35.1c5.7 0 10.3 4.6 10.3 10.3v35.1c0 5.7-4.6 10.3-10.3 10.3m80.8 0h-35.1c-5.7 0-10.3-4.6-10.3-10.3v-35.1c0-5.7 4.6-10.3 10.3-10.3h35.1c5.7 0 10.3 4.6 10.3 10.3v35.1c0 5.7-4.6 10.3-10.3 10.3m80.9-160.5h-35.1c-5.7 0-10.3-4.6-10.3-10.3v-35.1c0-5.7 4.6-10.3 10.3-10.3h35.1c5.7 0 10.3 4.6 10.3 10.3v35.1c0 5.7-4.6 10.3-10.3 10.3"/><path stroke="#1e3a6e" stroke-linecap="round" stroke-linejoin="round" stroke-width="7" d="M304.85 123.35h-179.7c-10.4 0-18.8-8.4-18.8-18.8v-18.1c0-10.4 8.4-18.9 18.8-18.9h179.6c10.4 0 18.8 8.4 18.8 18.9v18.1c.1 10.4-8.3 18.8-18.7 18.8m8.5 239.9h-35.1c-5.7 0-10.3-4.6-10.3-10.3l-.2-115.1c0-5.7 4.6-10.3 10.3-10.3h35.1c5.7 0 10.3 4.6 10.3 10.3l.2 115.1c0 5.6-4.6 10.3-10.3 10.3"/></svg>